M48
METRIC,LZ,000.000
;FILE_FORMAT=3:3
;TYPE=PLATED
;Layer: PTH_Through_Via
;EasyEDA v6.5.40, 2024-02-04 21:12:00
;47bb9c72da8d420c99b3d15ae168fc4e,2e16165ee3bb4678bfb3015e44e098b9,10
;Gerber Generator version 0.2
;Holesize 1 = 0.250 mm
T01C0.250
;Holesize 2 = 0.305 mm
T02C0.305
;Holesize 3 = 0.306 mm
T03C0.306
%
G05
G90
T01
X024892Y-027051
X024003Y-028067
X017780Y-028448
X015240Y-028448
X012700Y-028448
X010160Y-028448
X007620Y-028448
X005080Y-028448
X003556Y-029337
X-002159Y-027940
X-002159Y-025146
X-002159Y-022860
X-002159Y-020066
X-002159Y-017780
X-002159Y-016002
X-002159Y-010668
X-002159Y-009144
X-002159Y-007620
X-002159Y-005080
X-002159Y-002540
X003048Y000000
X005080Y-000508
X007620Y-000508
X010160Y-000508
X012700Y-000508
X014986Y-000508
X018796Y-002540
X019558Y-003810
X020828Y-009525
X021844Y-010541
X023368Y-012065
X000381Y-027940
X002413Y-028067
X000000Y-002540
X007620Y-027178
X003429Y-014478
X013208Y-018034
X015621Y-013589
X018923Y-020574
X005588Y-006985
X005588Y-008509
X000000Y-010160
X000889Y-007747
X002540Y-010287
X017780Y-016510
X022860Y-019050
X003302Y-016891
X016256Y-017018
X022733Y-021209
X021209Y-024257
X-001016Y-019304
X003937Y-019177
X008128Y-004699
X016256Y-004318
X007239Y-025273
X016510Y-026416
X015240Y-023241
X-000889Y-009144
T02
X013716Y-014478
X000762Y-013589
X-000508Y-012827
X-001143Y-017907
X012827Y-018796
X013843Y-018796
X021209Y-025781
X014986Y-018796
X015621Y-018161
X014351Y-018161
X008001Y-025273
X018288Y-019812
X019177Y-019812
X017653Y-014732
X017653Y-015621
X016891Y-015240
X023749Y-019431
X017780Y-016510
X016891Y-016129
X007112Y-010795
X012065Y-014605
X012065Y-013716
X016129Y-012954
X018669Y-006604
X018542Y-007620
X003048Y-005715
X-000254Y-015748
X023749Y-023241
X023749Y-017018
X023749Y-016002
X023876Y-013716
X020701Y-010922
X018796Y-004318
X001143Y-016891
X004953Y-025400
X006223Y-027559
X008382Y-020574
X018796Y-025908
X023749Y-025781
X010795Y-022225
X011049Y-010922
X008382Y-008509
X012319Y-021971
X007620Y-024384
X008128Y-023622
T03
X008128Y-002032
X016256Y-001143
X008128Y-003429
X022987Y-013081
X009017Y-021463
X005080Y-022098
X012065Y-018161
X012065Y-009144
X000127Y-007747
X000889Y-007747
X005588Y-004953
X004191Y-005715
X003048Y-004699
X001905Y-004699
X006604Y-006096
X016129Y-025019
X016129Y-023749
X017399Y-018796
X016256Y-018796
X017780Y-018034
X016891Y-018161
X004318Y-012700
X004826Y-016891
X005842Y-016891
X012065Y-016891
X011430Y-006985
X009271Y-013081
X016256Y-009906
X015367Y-009906
X014478Y-009906
X013589Y-009906
X014732Y-014478
X012827Y-013081
X005080Y-020828
X012192Y-026035
M30
