G04 Layer: TopSilkscreenLayer*
G04 EasyEDA v6.5.40, 2024-02-04 21:12:00*
G04 47bb9c72da8d420c99b3d15ae168fc4e,2e16165ee3bb4678bfb3015e44e098b9,10*
G04 Gerber Generator version 0.2*
G04 Scale: 100 percent, Rotated: No, Reflected: No *
G04 Dimensions in millimeters *
G04 leading zeros omitted , absolute positions ,4 integer and 5 decimal *
%FSLAX45Y45*%
%MOMM*%

%ADD10C,0.1500*%
%ADD11C,0.1200*%
%ADD12C,0.1000*%
%ADD13C,0.1600*%
%ADD14C,0.1750*%
%ADD15C,0.1524*%
%ADD16C,0.2540*%
%ADD17C,0.1520*%
%ADD18C,0.2030*%
%ADD19C,0.2000*%
%ADD20C,0.4000*%
%ADD21C,0.3000*%
%ADD22C,0.0154*%

%LPD*%
D10*
X2197100Y-2698750D02*
G01*
X2189988Y-2691384D01*
X2179065Y-2687828D01*
X2164588Y-2687828D01*
X2153665Y-2691384D01*
X2146300Y-2698750D01*
X2146300Y-2706115D01*
X2149856Y-2713228D01*
X2153665Y-2717037D01*
X2160777Y-2720594D01*
X2182622Y-2727960D01*
X2189988Y-2731515D01*
X2193543Y-2735071D01*
X2197100Y-2742437D01*
X2197100Y-2753360D01*
X2189988Y-2760471D01*
X2179065Y-2764281D01*
X2164588Y-2764281D01*
X2153665Y-2760471D01*
X2146300Y-2753360D01*
X2221229Y-2687828D02*
G01*
X2221229Y-2764281D01*
X2221229Y-2687828D02*
G01*
X2253995Y-2687828D01*
X2264918Y-2691384D01*
X2268474Y-2695194D01*
X2272029Y-2702305D01*
X2272029Y-2713228D01*
X2268474Y-2720594D01*
X2264918Y-2724150D01*
X2253995Y-2727960D01*
X2221229Y-2727960D01*
X2296159Y-2687828D02*
G01*
X2296159Y-2764281D01*
X2320036Y-2702305D02*
G01*
X2327402Y-2698750D01*
X2338324Y-2687828D01*
X2338324Y-2764281D01*
X2137669Y-1913128D02*
G01*
X2137669Y-1989581D01*
X2137669Y-1913128D02*
G01*
X2188469Y-1989581D01*
X2188469Y-1913128D02*
G01*
X2188469Y-1989581D01*
X2263399Y-1924050D02*
G01*
X2256287Y-1916684D01*
X2245365Y-1913128D01*
X2230633Y-1913128D01*
X2219965Y-1916684D01*
X2212599Y-1924050D01*
X2212599Y-1931415D01*
X2216155Y-1938528D01*
X2219965Y-1942337D01*
X2227077Y-1945894D01*
X2248921Y-1953260D01*
X2256287Y-1956815D01*
X2259843Y-1960371D01*
X2263399Y-1967737D01*
X2263399Y-1978660D01*
X2256287Y-1985771D01*
X2245365Y-1989581D01*
X2230633Y-1989581D01*
X2219965Y-1985771D01*
X2212599Y-1978660D01*
X2338329Y-1924050D02*
G01*
X2331217Y-1916684D01*
X2320295Y-1913128D01*
X2305563Y-1913128D01*
X2294641Y-1916684D01*
X2287529Y-1924050D01*
X2287529Y-1931415D01*
X2291085Y-1938528D01*
X2294641Y-1942337D01*
X2302007Y-1945894D01*
X2323851Y-1953260D01*
X2331217Y-1956815D01*
X2334773Y-1960371D01*
X2338329Y-1967737D01*
X2338329Y-1978660D01*
X2331217Y-1985771D01*
X2320295Y-1989581D01*
X2305563Y-1989581D01*
X2294641Y-1985771D01*
X2287529Y-1978660D01*
X2181349Y-2037587D02*
G01*
X2181349Y-2114042D01*
X2181349Y-2037587D02*
G01*
X2210559Y-2114042D01*
X2239515Y-2037587D02*
G01*
X2210559Y-2114042D01*
X2239515Y-2037587D02*
G01*
X2239515Y-2114042D01*
X2314445Y-2048510D02*
G01*
X2307079Y-2041144D01*
X2296157Y-2037587D01*
X2281679Y-2037587D01*
X2270757Y-2041144D01*
X2263645Y-2048510D01*
X2263645Y-2055876D01*
X2267201Y-2062987D01*
X2270757Y-2066797D01*
X2278123Y-2070354D01*
X2299967Y-2077720D01*
X2307079Y-2081276D01*
X2310889Y-2084831D01*
X2314445Y-2092197D01*
X2314445Y-2103120D01*
X2307079Y-2110231D01*
X2296157Y-2114042D01*
X2281679Y-2114042D01*
X2270757Y-2110231D01*
X2263645Y-2103120D01*
X2338321Y-2037587D02*
G01*
X2338321Y-2114042D01*
X2122934Y-2162047D02*
G01*
X2122934Y-2238502D01*
X2122934Y-2162047D02*
G01*
X2152144Y-2238502D01*
X2181100Y-2162047D02*
G01*
X2152144Y-2238502D01*
X2181100Y-2162047D02*
G01*
X2181100Y-2238502D01*
X2256030Y-2172970D02*
G01*
X2248664Y-2165604D01*
X2237742Y-2162047D01*
X2223264Y-2162047D01*
X2212342Y-2165604D01*
X2205230Y-2172970D01*
X2205230Y-2180336D01*
X2208786Y-2187447D01*
X2212342Y-2191257D01*
X2219708Y-2194813D01*
X2241552Y-2202179D01*
X2248664Y-2205736D01*
X2252474Y-2209292D01*
X2256030Y-2216657D01*
X2256030Y-2227579D01*
X2248664Y-2234692D01*
X2237742Y-2238502D01*
X2223264Y-2238502D01*
X2212342Y-2234692D01*
X2205230Y-2227579D01*
X2301750Y-2162047D02*
G01*
X2294638Y-2165604D01*
X2287272Y-2172970D01*
X2283716Y-2180336D01*
X2279906Y-2191257D01*
X2279906Y-2209292D01*
X2283716Y-2220213D01*
X2287272Y-2227579D01*
X2294638Y-2234692D01*
X2301750Y-2238502D01*
X2316482Y-2238502D01*
X2323594Y-2234692D01*
X2330960Y-2227579D01*
X2334516Y-2220213D01*
X2338326Y-2209292D01*
X2338326Y-2191257D01*
X2334516Y-2180336D01*
X2330960Y-2172970D01*
X2323594Y-2165604D01*
X2316482Y-2162047D01*
X2301750Y-2162047D01*
X2327909Y-2304795D02*
G01*
X2324100Y-2297429D01*
X2316988Y-2290063D01*
X2309622Y-2286507D01*
X2295143Y-2286507D01*
X2287777Y-2290063D01*
X2280665Y-2297429D01*
X2276856Y-2304795D01*
X2273300Y-2315718D01*
X2273300Y-2333752D01*
X2276856Y-2344673D01*
X2280665Y-2352039D01*
X2287777Y-2359152D01*
X2295143Y-2362962D01*
X2309622Y-2362962D01*
X2316988Y-2359152D01*
X2324100Y-2352039D01*
X2327909Y-2344673D01*
X2327909Y-2333752D01*
X2309622Y-2333752D02*
G01*
X2327909Y-2333752D01*
X2195837Y-2429255D02*
G01*
X2192027Y-2421889D01*
X2184915Y-2414523D01*
X2177549Y-2410968D01*
X2163071Y-2410968D01*
X2155705Y-2414523D01*
X2148593Y-2421889D01*
X2144783Y-2429255D01*
X2141227Y-2440178D01*
X2141227Y-2458212D01*
X2144783Y-2469134D01*
X2148593Y-2476500D01*
X2155705Y-2483612D01*
X2163071Y-2487421D01*
X2177549Y-2487421D01*
X2184915Y-2483612D01*
X2192027Y-2476500D01*
X2195837Y-2469134D01*
X2219713Y-2410968D02*
G01*
X2219713Y-2487421D01*
X2219713Y-2487421D02*
G01*
X2263401Y-2487421D01*
X2287277Y-2410968D02*
G01*
X2287277Y-2487421D01*
X2338331Y-2410968D02*
G01*
X2287277Y-2462021D01*
X2305565Y-2443734D02*
G01*
X2338331Y-2487421D01*
X2212588Y-2535428D02*
G01*
X2252466Y-2535428D01*
X2230622Y-2564637D01*
X2241544Y-2564637D01*
X2248910Y-2568194D01*
X2252466Y-2571750D01*
X2256022Y-2582671D01*
X2256022Y-2590037D01*
X2252466Y-2600960D01*
X2245100Y-2608071D01*
X2234432Y-2611881D01*
X2223510Y-2611881D01*
X2212588Y-2608071D01*
X2208778Y-2604515D01*
X2205222Y-2597404D01*
X2280152Y-2535428D02*
G01*
X2309108Y-2611881D01*
X2338318Y-2535428D02*
G01*
X2309108Y-2611881D01*
X1697225Y-896868D02*
G01*
X1773679Y-896868D01*
X1697225Y-896868D02*
G01*
X1697225Y-864102D01*
X1700781Y-853180D01*
X1704591Y-849624D01*
X1711703Y-846068D01*
X1722625Y-846068D01*
X1729991Y-849624D01*
X1733547Y-853180D01*
X1737357Y-864102D01*
X1737357Y-896868D01*
X1697225Y-821938D02*
G01*
X1773679Y-821938D01*
X1697225Y-821938D02*
G01*
X1697225Y-789172D01*
X1700781Y-778250D01*
X1704591Y-774694D01*
X1711703Y-771138D01*
X1719069Y-771138D01*
X1726435Y-774694D01*
X1729991Y-778250D01*
X1733547Y-789172D01*
X1733547Y-821938D02*
G01*
X1733547Y-789172D01*
X1737357Y-778250D01*
X1740913Y-774694D01*
X1748279Y-771138D01*
X1759201Y-771138D01*
X1766313Y-774694D01*
X1769869Y-778250D01*
X1773679Y-789172D01*
X1773679Y-821938D01*
X1697225Y-710686D02*
G01*
X1748279Y-747008D01*
X1748279Y-692398D01*
X1697225Y-710686D02*
G01*
X1773679Y-710686D01*
X1468625Y-893053D02*
G01*
X1545079Y-893053D01*
X1468625Y-893053D02*
G01*
X1468625Y-860287D01*
X1472181Y-849365D01*
X1475991Y-845809D01*
X1483103Y-842253D01*
X1494025Y-842253D01*
X1501391Y-845809D01*
X1504947Y-849365D01*
X1508757Y-860287D01*
X1508757Y-893053D01*
X1468625Y-818123D02*
G01*
X1545079Y-818123D01*
X1468625Y-818123D02*
G01*
X1468625Y-785357D01*
X1472181Y-774435D01*
X1475991Y-770879D01*
X1483103Y-767323D01*
X1490469Y-767323D01*
X1497835Y-770879D01*
X1501391Y-774435D01*
X1504947Y-785357D01*
X1504947Y-818123D02*
G01*
X1504947Y-785357D01*
X1508757Y-774435D01*
X1512313Y-770879D01*
X1519679Y-767323D01*
X1530601Y-767323D01*
X1537713Y-770879D01*
X1541269Y-774435D01*
X1545079Y-785357D01*
X1545079Y-818123D01*
X1468625Y-699505D02*
G01*
X1468625Y-736081D01*
X1501391Y-739637D01*
X1497835Y-736081D01*
X1494025Y-725159D01*
X1494025Y-714237D01*
X1497835Y-703315D01*
X1504947Y-695949D01*
X1515869Y-692393D01*
X1523235Y-692393D01*
X1534157Y-695949D01*
X1541269Y-703315D01*
X1545079Y-714237D01*
X1545079Y-725159D01*
X1541269Y-736081D01*
X1537713Y-739637D01*
X1530601Y-743193D01*
X1240025Y-818126D02*
G01*
X1240025Y-778248D01*
X1269235Y-800092D01*
X1269235Y-789170D01*
X1272791Y-781804D01*
X1276347Y-778248D01*
X1287269Y-774692D01*
X1294635Y-774692D01*
X1305557Y-778248D01*
X1312669Y-785614D01*
X1316479Y-796282D01*
X1316479Y-807204D01*
X1312669Y-818126D01*
X1309113Y-821936D01*
X1302001Y-825492D01*
X1240025Y-750562D02*
G01*
X1316479Y-721606D01*
X1240025Y-692396D02*
G01*
X1316479Y-721606D01*
X1011425Y-781804D02*
G01*
X1011425Y-818126D01*
X1044191Y-821936D01*
X1040635Y-818126D01*
X1036825Y-807204D01*
X1036825Y-796282D01*
X1040635Y-785614D01*
X1047747Y-778248D01*
X1058669Y-774692D01*
X1066035Y-774692D01*
X1076957Y-778248D01*
X1084069Y-785614D01*
X1087879Y-796282D01*
X1087879Y-807204D01*
X1084069Y-818126D01*
X1080513Y-821936D01*
X1073401Y-825492D01*
X1011425Y-750562D02*
G01*
X1087879Y-721606D01*
X1011425Y-692396D02*
G01*
X1087879Y-721606D01*
D11*
X344678Y-1524513D02*
G01*
X317500Y-1596141D01*
X344678Y-1524513D02*
G01*
X372110Y-1596141D01*
X327660Y-1572265D02*
G01*
X361695Y-1572265D01*
X394462Y-1524513D02*
G01*
X394462Y-1596141D01*
X394462Y-1524513D02*
G01*
X442213Y-1596141D01*
X442213Y-1524513D02*
G01*
X442213Y-1596141D01*
X515873Y-1541531D02*
G01*
X512571Y-1534673D01*
X505713Y-1527815D01*
X498855Y-1524513D01*
X485139Y-1524513D01*
X478281Y-1527815D01*
X471678Y-1534673D01*
X468121Y-1541531D01*
X464820Y-1551691D01*
X464820Y-1568709D01*
X468121Y-1579123D01*
X471678Y-1585981D01*
X478281Y-1592585D01*
X485139Y-1596141D01*
X498855Y-1596141D01*
X505713Y-1592585D01*
X512571Y-1585981D01*
X515873Y-1579123D01*
X538479Y-1565407D02*
G01*
X599694Y-1565407D01*
X673354Y-1541531D02*
G01*
X670052Y-1534673D01*
X663194Y-1527815D01*
X656336Y-1524513D01*
X642620Y-1524513D01*
X636015Y-1527815D01*
X629157Y-1534673D01*
X625602Y-1541531D01*
X622300Y-1551691D01*
X622300Y-1568709D01*
X625602Y-1579123D01*
X629157Y-1585981D01*
X636015Y-1592585D01*
X642620Y-1596141D01*
X656336Y-1596141D01*
X663194Y-1592585D01*
X670052Y-1585981D01*
X673354Y-1579123D01*
X695960Y-1524513D02*
G01*
X699262Y-1527815D01*
X702818Y-1524513D01*
X699262Y-1521211D01*
X695960Y-1524513D01*
X699262Y-1548389D02*
G01*
X699262Y-1596141D01*
X725170Y-1548389D02*
G01*
X725170Y-1596141D01*
X725170Y-1568709D02*
G01*
X728726Y-1558549D01*
X735329Y-1551691D01*
X742187Y-1548389D01*
X752602Y-1548389D01*
X774954Y-1548389D02*
G01*
X774954Y-1596141D01*
X774954Y-1568709D02*
G01*
X778510Y-1558549D01*
X785113Y-1551691D01*
X791971Y-1548389D01*
X802386Y-1548389D01*
X824737Y-1548389D02*
G01*
X824737Y-1582425D01*
X828294Y-1592585D01*
X834897Y-1596141D01*
X845312Y-1596141D01*
X852170Y-1592585D01*
X862329Y-1582425D01*
X862329Y-1548389D02*
G01*
X862329Y-1596141D01*
X922273Y-1558549D02*
G01*
X918971Y-1551691D01*
X908557Y-1548389D01*
X898397Y-1548389D01*
X888237Y-1551691D01*
X884681Y-1558549D01*
X888237Y-1565407D01*
X895095Y-1568709D01*
X912113Y-1572265D01*
X918971Y-1575567D01*
X922273Y-1582425D01*
X922273Y-1585981D01*
X918971Y-1592585D01*
X908557Y-1596141D01*
X898397Y-1596141D01*
X888237Y-1592585D01*
X884681Y-1585981D01*
D12*
X753620Y-1673097D02*
G01*
X769876Y-1711197D01*
X786386Y-1673097D02*
G01*
X769876Y-1711197D01*
X806960Y-1667510D02*
G01*
X806960Y-1664970D01*
X809754Y-1659381D01*
X812548Y-1656587D01*
X817882Y-1654047D01*
X828804Y-1654047D01*
X834392Y-1656587D01*
X837186Y-1659381D01*
X839726Y-1664970D01*
X839726Y-1670304D01*
X837186Y-1675892D01*
X831598Y-1684020D01*
X804420Y-1711197D01*
X842520Y-1711197D01*
X863348Y-1697481D02*
G01*
X860554Y-1700276D01*
X863348Y-1703070D01*
X865888Y-1700276D01*
X863348Y-1697481D01*
X900432Y-1654047D02*
G01*
X892050Y-1656587D01*
X886716Y-1664970D01*
X883922Y-1678431D01*
X883922Y-1686560D01*
X886716Y-1700276D01*
X892050Y-1708404D01*
X900432Y-1711197D01*
X905766Y-1711197D01*
X913894Y-1708404D01*
X919482Y-1700276D01*
X922276Y-1686560D01*
X922276Y-1678431D01*
X919482Y-1664970D01*
X913894Y-1656587D01*
X905766Y-1654047D01*
X900432Y-1654047D01*
D13*
X1173121Y-1829628D02*
G01*
X1216944Y-1873450D01*
X1222334Y-1884227D01*
X1222334Y-1889975D01*
X1219639Y-1898055D01*
X1214252Y-1903445D01*
X1205989Y-1906318D01*
X1200421Y-1906137D01*
X1189644Y-1900750D01*
X1184076Y-1895182D01*
X1191082Y-1811667D02*
G01*
X1248554Y-1869140D01*
X1248554Y-1869140D02*
G01*
X1281422Y-1836272D01*
X1296509Y-1733539D02*
G01*
X1288427Y-1730844D01*
X1277653Y-1730844D01*
X1269210Y-1733539D01*
X1258255Y-1744494D01*
X1255740Y-1752757D01*
X1255740Y-1763532D01*
X1258255Y-1771794D01*
X1263822Y-1782749D01*
X1277472Y-1796399D01*
X1288427Y-1801967D01*
X1296690Y-1804482D01*
X1307645Y-1804662D01*
X1315727Y-1801967D01*
X1326685Y-1791012D01*
X1329557Y-1782749D01*
X1329377Y-1771794D01*
X1326685Y-1763712D01*
X1328300Y-1674449D02*
G01*
X1372123Y-1718271D01*
X1377513Y-1729049D01*
X1377513Y-1734794D01*
X1374818Y-1742876D01*
X1369430Y-1748266D01*
X1361168Y-1751139D01*
X1355600Y-1750959D01*
X1344823Y-1745571D01*
X1339255Y-1740004D01*
X1346260Y-1656488D02*
G01*
X1403733Y-1713961D01*
X1403733Y-1713961D02*
G01*
X1436603Y-1681093D01*
X1451688Y-1578358D02*
G01*
X1443606Y-1575666D01*
X1432831Y-1575666D01*
X1424388Y-1578358D01*
X1413433Y-1589316D01*
X1410919Y-1597578D01*
X1410919Y-1608353D01*
X1413433Y-1616616D01*
X1419001Y-1627571D01*
X1432651Y-1641220D01*
X1443606Y-1646788D01*
X1451869Y-1649303D01*
X1462824Y-1649483D01*
X1470906Y-1646788D01*
X1481863Y-1635833D01*
X1484736Y-1627571D01*
X1484556Y-1616616D01*
X1481863Y-1608533D01*
X1483479Y-1519270D02*
G01*
X1527302Y-1563093D01*
X1532691Y-1573870D01*
X1532691Y-1579615D01*
X1529996Y-1587698D01*
X1524609Y-1593087D01*
X1516346Y-1595960D01*
X1510779Y-1595780D01*
X1500002Y-1590393D01*
X1494434Y-1584825D01*
X1501439Y-1501310D02*
G01*
X1558912Y-1558782D01*
X1558912Y-1558782D02*
G01*
X1591782Y-1525915D01*
X1606867Y-1423179D02*
G01*
X1598785Y-1420487D01*
X1588010Y-1420487D01*
X1579567Y-1423179D01*
X1568612Y-1434137D01*
X1566097Y-1442399D01*
X1566097Y-1453174D01*
X1568612Y-1461437D01*
X1574180Y-1472392D01*
X1587830Y-1486042D01*
X1598785Y-1491609D01*
X1607047Y-1494124D01*
X1618002Y-1494304D01*
X1626085Y-1491609D01*
X1637042Y-1480654D01*
X1639915Y-1472392D01*
X1639735Y-1461437D01*
X1637042Y-1453354D01*
X1638658Y-1364091D02*
G01*
X1682480Y-1407914D01*
X1687870Y-1418691D01*
X1687870Y-1424437D01*
X1685175Y-1432519D01*
X1679788Y-1437909D01*
X1671525Y-1440781D01*
X1665958Y-1440601D01*
X1655180Y-1435214D01*
X1649613Y-1429646D01*
X1656618Y-1346131D02*
G01*
X1714093Y-1403604D01*
X1714093Y-1403604D02*
G01*
X1746961Y-1370736D01*
X1762046Y-1268001D02*
G01*
X1753963Y-1265308D01*
X1743189Y-1265308D01*
X1734746Y-1268001D01*
X1723791Y-1278958D01*
X1721276Y-1287218D01*
X1721276Y-1297995D01*
X1723791Y-1306258D01*
X1729359Y-1317213D01*
X1743008Y-1330863D01*
X1753963Y-1336431D01*
X1762226Y-1338945D01*
X1773181Y-1339126D01*
X1781263Y-1336431D01*
X1792221Y-1325476D01*
X1795094Y-1317213D01*
X1794913Y-1306258D01*
X1792221Y-1298176D01*
D14*
X2539994Y-1892297D02*
G01*
X2374894Y-1892297D01*
X2374894Y-1854197D02*
G01*
X2539994Y-1854197D01*
X1930394Y-419100D02*
G01*
X1993894Y-419100D01*
X1866897Y-609600D02*
G01*
X1866897Y-482600D01*
X1866897Y-1168397D02*
G01*
X1866897Y-812797D01*
X1993894Y-1168397D02*
G01*
X1866897Y-1168397D01*
X2019294Y-495300D02*
G01*
X2019294Y-1092197D01*
X2476494Y-1320797D02*
G01*
X2387594Y-1320797D01*
X2374894Y-1549397D02*
G01*
X2374894Y-1422397D01*
X2374894Y-1854197D02*
G01*
X2374894Y-1752597D01*
X2374894Y-2641594D02*
G01*
X2527294Y-2641594D01*
X2374894Y-2374894D02*
G01*
X2374894Y-2527294D01*
X2374894Y-1993894D02*
G01*
X2374894Y-2273294D01*
D15*
X635025Y-1840555D02*
G01*
X556016Y-1840555D01*
X510773Y-1740834D02*
G01*
X431764Y-1740834D01*
X431764Y-1840555D02*
G01*
X510773Y-1840555D01*
X416524Y-1756074D02*
G01*
X416524Y-1825315D01*
X556016Y-1740834D02*
G01*
X635025Y-1740834D01*
X650265Y-1756074D02*
G01*
X650265Y-1825315D01*
X-50830Y-1740837D02*
G01*
X28178Y-1740837D01*
X73421Y-1840557D02*
G01*
X152430Y-1840557D01*
X152430Y-1740837D02*
G01*
X73421Y-1740837D01*
X167670Y-1825317D02*
G01*
X167670Y-1756077D01*
X28178Y-1840557D02*
G01*
X-50830Y-1840557D01*
X-66070Y-1825317D02*
G01*
X-66070Y-1756077D01*
X558830Y-2805755D02*
G01*
X479821Y-2805755D01*
X434578Y-2706034D02*
G01*
X355569Y-2706034D01*
X355569Y-2805755D02*
G01*
X434578Y-2805755D01*
X340329Y-2721274D02*
G01*
X340329Y-2790515D01*
X479821Y-2706034D02*
G01*
X558830Y-2706034D01*
X574070Y-2721274D02*
G01*
X574070Y-2790515D01*
X1257327Y-1053157D02*
G01*
X1178318Y-1053157D01*
X1133076Y-953437D02*
G01*
X1054066Y-953437D01*
X1054066Y-1053157D02*
G01*
X1133076Y-1053157D01*
X1038826Y-968677D02*
G01*
X1038826Y-1037917D01*
X1178318Y-953437D02*
G01*
X1257327Y-953437D01*
X1272567Y-968677D02*
G01*
X1272567Y-1037917D01*
X2020237Y-1358927D02*
G01*
X2020237Y-1279918D01*
X2119957Y-1234676D02*
G01*
X2119957Y-1155666D01*
X2020237Y-1155666D02*
G01*
X2020237Y-1234676D01*
X2104717Y-1140426D02*
G01*
X2035477Y-1140426D01*
X2119957Y-1279918D02*
G01*
X2119957Y-1358927D01*
X2104717Y-1374167D02*
G01*
X2035477Y-1374167D01*
X1066825Y-2018352D02*
G01*
X987816Y-2018352D01*
X942573Y-1918632D02*
G01*
X863564Y-1918632D01*
X863564Y-2018352D02*
G01*
X942573Y-2018352D01*
X848324Y-1933872D02*
G01*
X848324Y-2003112D01*
X987816Y-1918632D02*
G01*
X1066825Y-1918632D01*
X1082065Y-1933872D02*
G01*
X1082065Y-2003112D01*
X965164Y-2096432D02*
G01*
X1044173Y-2096432D01*
X1089416Y-2196152D02*
G01*
X1168425Y-2196152D01*
X1168425Y-2096432D02*
G01*
X1089416Y-2096432D01*
X1183665Y-2180912D02*
G01*
X1183665Y-2111672D01*
X1044173Y-2196152D02*
G01*
X965164Y-2196152D01*
X949924Y-2180912D02*
G01*
X949924Y-2111672D01*
X1879622Y-2325032D02*
G01*
X1800613Y-2325032D01*
X1800613Y-2424752D02*
G01*
X1879622Y-2424752D01*
X1894862Y-2409512D02*
G01*
X1894862Y-2340272D01*
X1676361Y-2325032D02*
G01*
X1755371Y-2325032D01*
X1755371Y-2424752D02*
G01*
X1676361Y-2424752D01*
X1661121Y-2409512D02*
G01*
X1661121Y-2340272D01*
X1879622Y-2452032D02*
G01*
X1800613Y-2452032D01*
X1800613Y-2551752D02*
G01*
X1879622Y-2551752D01*
X1894862Y-2536512D02*
G01*
X1894862Y-2467272D01*
X1676361Y-2452032D02*
G01*
X1755371Y-2452032D01*
X1755371Y-2551752D02*
G01*
X1676361Y-2551752D01*
X1661121Y-2536512D02*
G01*
X1661121Y-2467272D01*
X1117566Y-2412055D02*
G01*
X1196576Y-2412055D01*
X1196576Y-2312334D02*
G01*
X1117566Y-2312334D01*
X1102326Y-2327574D02*
G01*
X1102326Y-2396815D01*
X1320827Y-2412055D02*
G01*
X1241818Y-2412055D01*
X1241818Y-2312334D02*
G01*
X1320827Y-2312334D01*
X1336067Y-2327574D02*
G01*
X1336067Y-2396815D01*
X1548457Y-2705125D02*
G01*
X1548457Y-2626116D01*
X1448737Y-2626116D02*
G01*
X1448737Y-2705125D01*
X1463977Y-2720365D02*
G01*
X1533217Y-2720365D01*
X1548457Y-2501864D02*
G01*
X1548457Y-2580873D01*
X1448737Y-2580873D02*
G01*
X1448737Y-2501864D01*
X1463977Y-2486624D02*
G01*
X1533217Y-2486624D01*
X1879622Y-2198032D02*
G01*
X1800613Y-2198032D01*
X1800613Y-2297752D02*
G01*
X1879622Y-2297752D01*
X1894862Y-2282512D02*
G01*
X1894862Y-2213272D01*
X1676361Y-2198032D02*
G01*
X1755371Y-2198032D01*
X1755371Y-2297752D02*
G01*
X1676361Y-2297752D01*
X1661121Y-2282512D02*
G01*
X1661121Y-2213272D01*
X2147237Y-1155666D02*
G01*
X2147237Y-1234676D01*
X2246957Y-1234676D02*
G01*
X2246957Y-1155666D01*
X2231717Y-1140426D02*
G01*
X2162477Y-1140426D01*
X2147237Y-1358927D02*
G01*
X2147237Y-1279918D01*
X2246957Y-1279918D02*
G01*
X2246957Y-1358927D01*
X2231717Y-1374167D02*
G01*
X2162477Y-1374167D01*
D16*
X-65379Y-432495D02*
G01*
X14622Y-432495D01*
X-96365Y-543471D02*
G01*
X-96365Y-463473D01*
X45600Y-543471D02*
G01*
X45600Y-463473D01*
X-96946Y-601060D02*
G01*
X-96946Y-681060D01*
X-65963Y-712043D02*
G01*
X14033Y-712043D01*
X45013Y-601060D02*
G01*
X45013Y-681060D01*
X583496Y-1039517D02*
G01*
X583496Y-1119520D01*
X472521Y-1008532D02*
G01*
X552518Y-1008532D01*
X472521Y-1150498D02*
G01*
X552518Y-1150498D01*
X414931Y-1007950D02*
G01*
X334932Y-1007950D01*
X303949Y-1038933D02*
G01*
X303949Y-1118930D01*
X414931Y-1149911D02*
G01*
X334932Y-1149911D01*
X304800Y-2717794D02*
G01*
X-203200Y-2717794D01*
X-203200Y-2463794D01*
X304800Y-2463794D01*
X304800Y-2717794D01*
D17*
X1928756Y-2285824D02*
G01*
X1928756Y-2362024D01*
X1928756Y-2538826D02*
G01*
X1928756Y-2462626D01*
X2060877Y-2538826D02*
G01*
X2060877Y-2462626D01*
D15*
X2060877Y-2538826D02*
G01*
X2045634Y-2554056D01*
X1943991Y-2554056D01*
X1928756Y-2538826D01*
D17*
X2060877Y-2285824D02*
G01*
X2060877Y-2362024D01*
D15*
X1928756Y-2285824D02*
G01*
X1943991Y-2270582D01*
X2045634Y-2270582D01*
X2060877Y-2285824D01*
D16*
X1640837Y-659129D02*
G01*
X1813557Y-659129D01*
X1813557Y-659129D02*
G01*
X1813557Y-511810D01*
X1640837Y-659129D02*
G01*
X1640837Y-511810D01*
X1813557Y-453389D02*
G01*
X1813557Y-336550D01*
X1640837Y-450850D02*
G01*
X1640837Y-336550D01*
X1640837Y-336550D02*
G01*
X1676397Y-300989D01*
X1777997Y-300989D01*
X1813557Y-336550D01*
D18*
X1686557Y-490220D02*
G01*
X1765297Y-490220D01*
X1726402Y-490220D02*
G01*
X1726402Y-472683D01*
D16*
X1412237Y-659129D02*
G01*
X1584957Y-659129D01*
X1584957Y-659129D02*
G01*
X1584957Y-511810D01*
X1412237Y-659129D02*
G01*
X1412237Y-511810D01*
X1584957Y-453389D02*
G01*
X1584957Y-336550D01*
X1412237Y-450850D02*
G01*
X1412237Y-336550D01*
X1412237Y-336550D02*
G01*
X1447797Y-300989D01*
X1549397Y-300989D01*
X1584957Y-336550D01*
D18*
X1457957Y-490220D02*
G01*
X1536697Y-490220D01*
X1497802Y-490220D02*
G01*
X1497802Y-472683D01*
D16*
X530997Y-2396291D02*
G01*
X453654Y-2396291D01*
X230997Y-2396291D02*
G01*
X308368Y-2396291D01*
X230997Y-2396291D02*
G01*
X190497Y-2396291D01*
X190497Y-2387150D01*
X530997Y-1896292D02*
G01*
X571497Y-1896292D01*
X571497Y-1905434D01*
X530997Y-2396291D02*
G01*
X571497Y-2396291D01*
X571497Y-2387150D01*
X230997Y-1896292D02*
G01*
X190497Y-1896292D01*
X190497Y-1905434D01*
X230997Y-1896292D02*
G01*
X530997Y-1896292D01*
X1127754Y-166367D02*
G01*
X955034Y-166367D01*
X955034Y-166367D02*
G01*
X955034Y-313687D01*
X1127754Y-166367D02*
G01*
X1127754Y-313687D01*
X955034Y-372107D02*
G01*
X955034Y-488947D01*
X1127754Y-374647D02*
G01*
X1127754Y-488947D01*
X1127754Y-488947D02*
G01*
X1092194Y-524507D01*
X990594Y-524507D01*
X955034Y-488947D01*
D18*
X1082034Y-335277D02*
G01*
X1003294Y-335277D01*
X1042189Y-335277D02*
G01*
X1042189Y-352813D01*
D16*
X1356354Y-166367D02*
G01*
X1183634Y-166367D01*
X1183634Y-166367D02*
G01*
X1183634Y-313687D01*
X1356354Y-166367D02*
G01*
X1356354Y-313687D01*
X1183634Y-372107D02*
G01*
X1183634Y-488947D01*
X1356354Y-374647D02*
G01*
X1356354Y-488947D01*
X1356354Y-488947D02*
G01*
X1320794Y-524507D01*
X1219194Y-524507D01*
X1183634Y-488947D01*
D18*
X1310634Y-335277D02*
G01*
X1231894Y-335277D01*
X1270789Y-335277D02*
G01*
X1270789Y-352813D01*
D15*
X993376Y-659460D02*
G01*
X921572Y-659460D01*
X921572Y-559739D01*
X993376Y-559739D01*
X1038618Y-659460D02*
G01*
X1110421Y-659460D01*
X1110421Y-559739D01*
X1038618Y-559739D01*
X1292618Y-559739D02*
G01*
X1364421Y-559739D01*
X1364421Y-659460D01*
X1292618Y-659460D01*
X1247376Y-559739D02*
G01*
X1175572Y-559739D01*
X1175572Y-659460D01*
X1247376Y-659460D01*
X1749818Y-166039D02*
G01*
X1821621Y-166039D01*
X1821621Y-265760D01*
X1749818Y-265760D01*
X1704576Y-166039D02*
G01*
X1632772Y-166039D01*
X1632772Y-265760D01*
X1704576Y-265760D01*
X1475976Y-265760D02*
G01*
X1404172Y-265760D01*
X1404172Y-166039D01*
X1475976Y-166039D01*
X1521218Y-265760D02*
G01*
X1593021Y-265760D01*
X1593021Y-166039D01*
X1521218Y-166039D01*
X443560Y-2613416D02*
G01*
X443560Y-2685219D01*
X343839Y-2685219D01*
X343839Y-2613416D01*
X443560Y-2568173D02*
G01*
X443560Y-2496370D01*
X343839Y-2496370D01*
X343839Y-2568173D01*
X240357Y-1508516D02*
G01*
X240357Y-1580319D01*
X140637Y-1580319D01*
X140637Y-1508516D01*
X240357Y-1463273D02*
G01*
X240357Y-1391470D01*
X140637Y-1391470D01*
X140637Y-1463273D01*
X140637Y-1221973D02*
G01*
X140637Y-1150170D01*
X240357Y-1150170D01*
X240357Y-1221973D01*
X140637Y-1267216D02*
G01*
X140637Y-1339019D01*
X240357Y-1339019D01*
X240357Y-1267216D01*
X2236134Y-1475976D02*
G01*
X2236134Y-1404172D01*
X2335855Y-1404172D01*
X2335855Y-1475976D01*
X2236134Y-1521218D02*
G01*
X2236134Y-1593021D01*
X2335855Y-1593021D01*
X2335855Y-1521218D01*
X2335855Y-1737118D02*
G01*
X2335855Y-1808921D01*
X2236134Y-1808921D01*
X2236134Y-1737118D01*
X2335855Y-1691876D02*
G01*
X2335855Y-1620072D01*
X2236134Y-1620072D01*
X2236134Y-1691876D01*
X99176Y-363555D02*
G01*
X764418Y-363555D01*
X764418Y-657834D01*
X99176Y-657834D01*
X99176Y-363555D01*
X1359837Y-2288773D02*
G01*
X1359837Y-2216970D01*
X1459557Y-2216970D01*
X1459557Y-2288773D01*
X1359837Y-2334016D02*
G01*
X1359837Y-2405819D01*
X1459557Y-2405819D01*
X1459557Y-2334016D01*
D19*
X1196337Y-1253487D02*
G01*
X1816097Y-1253487D01*
X1816097Y-1918967D01*
X1153157Y-1918967D01*
X1153157Y-1253487D01*
X1229357Y-1253487D01*
D17*
X990597Y-2743182D02*
G01*
X990597Y-2793982D01*
X1041397Y-2793982D01*
D15*
X1016251Y-2771363D02*
G01*
X1016251Y-2438369D01*
X1422397Y-2438382D01*
X1422397Y-2603482D01*
X1422397Y-2768582D01*
X1422397Y-2768582D01*
X1016251Y-2771363D01*
G75*
G01*
X431764Y-1740835D02*
G03*
X416524Y-1756075I0J-15240D01*
G75*
G01*
X416524Y-1825315D02*
G03*
X431764Y-1840555I15240J0D01*
G75*
G01*
X635025Y-1740835D02*
G02*
X650265Y-1756075I0J-15240D01*
G75*
G01*
X650265Y-1825315D02*
G02*
X635025Y-1840555I-15240J0D01*
G75*
G01*
X152430Y-1840558D02*
G03*
X167670Y-1825318I0J15240D01*
G75*
G01*
X167670Y-1756077D02*
G03*
X152430Y-1740837I-15240J0D01*
G75*
G01*
X-50830Y-1840558D02*
G02*
X-66070Y-1825318I0J15240D01*
G75*
G01*
X-66070Y-1756077D02*
G02*
X-50830Y-1740837I15240J0D01*
G75*
G01*
X355570Y-2706035D02*
G03*
X340330Y-2721275I0J-15240D01*
G75*
G01*
X340330Y-2790515D02*
G03*
X355570Y-2805755I15240J0D01*
G75*
G01*
X558830Y-2706035D02*
G02*
X574070Y-2721275I0J-15240D01*
G75*
G01*
X574070Y-2790515D02*
G02*
X558830Y-2805755I-15240J0D01*
G75*
G01*
X1054067Y-953437D02*
G03*
X1038827Y-968677I0J-15240D01*
G75*
G01*
X1038827Y-1037918D02*
G03*
X1054067Y-1053158I15240J0D01*
G75*
G01*
X1257328Y-953437D02*
G02*
X1272568Y-968677I0J-15240D01*
G75*
G01*
X1272568Y-1037918D02*
G02*
X1257328Y-1053158I-15240J0D01*
G75*
G01*
X2119958Y-1155667D02*
G03*
X2104718Y-1140427I-15240J0D01*
G75*
G01*
X2035477Y-1140427D02*
G03*
X2020237Y-1155667I0J-15240D01*
G75*
G01*
X2119958Y-1358928D02*
G02*
X2104718Y-1374168I-15240J0D01*
G75*
G01*
X2035477Y-1374168D02*
G02*
X2020237Y-1358928I0J15240D01*
G75*
G01*
X863564Y-1918632D02*
G03*
X848324Y-1933872I0J-15240D01*
G75*
G01*
X848324Y-2003113D02*
G03*
X863564Y-2018353I15240J0D01*
G75*
G01*
X1066825Y-1918632D02*
G02*
X1082065Y-1933872I0J-15240D01*
G75*
G01*
X1082065Y-2003113D02*
G02*
X1066825Y-2018353I-15240J0D01*
G75*
G01*
X1168425Y-2196153D02*
G03*
X1183665Y-2180913I0J15240D01*
G75*
G01*
X1183665Y-2111672D02*
G03*
X1168425Y-2096432I-15240J0D01*
G75*
G01*
X965164Y-2196153D02*
G02*
X949924Y-2180913I0J15240D01*
G75*
G01*
X949924Y-2111672D02*
G02*
X965164Y-2096432I15240J0D01*
G75*
G01*
X1879623Y-2424753D02*
G03*
X1894863Y-2409513I0J15240D01*
G75*
G01*
X1894863Y-2340272D02*
G03*
X1879623Y-2325032I-15240J0D01*
G75*
G01*
X1676362Y-2424753D02*
G02*
X1661122Y-2409513I0J15240D01*
G75*
G01*
X1661122Y-2340272D02*
G02*
X1676362Y-2325032I15240J0D01*
G75*
G01*
X1879623Y-2551753D02*
G03*
X1894863Y-2536513I0J15240D01*
G75*
G01*
X1894863Y-2467272D02*
G03*
X1879623Y-2452032I-15240J0D01*
G75*
G01*
X1676362Y-2551753D02*
G02*
X1661122Y-2536513I0J15240D01*
G75*
G01*
X1661122Y-2467272D02*
G02*
X1676362Y-2452032I15240J0D01*
G75*
G01*
X1117567Y-2312335D02*
G03*
X1102327Y-2327575I0J-15240D01*
G75*
G01*
X1102327Y-2396815D02*
G03*
X1117567Y-2412055I15240J0D01*
G75*
G01*
X1320828Y-2312335D02*
G02*
X1336068Y-2327575I0J-15240D01*
G75*
G01*
X1336068Y-2396815D02*
G02*
X1320828Y-2412055I-15240J0D01*
G75*
G01*
X1448737Y-2705125D02*
G03*
X1463977Y-2720365I15240J0D01*
G75*
G01*
X1533218Y-2720365D02*
G03*
X1548458Y-2705125I0J15240D01*
G75*
G01*
X1448737Y-2501864D02*
G02*
X1463977Y-2486624I15240J0D01*
G75*
G01*
X1533218Y-2486624D02*
G02*
X1548458Y-2501864I0J-15240D01*
G75*
G01*
X1879623Y-2297753D02*
G03*
X1894863Y-2282513I0J15240D01*
G75*
G01*
X1894863Y-2213272D02*
G03*
X1879623Y-2198032I-15240J0D01*
G75*
G01*
X1676362Y-2297753D02*
G02*
X1661122Y-2282513I0J15240D01*
G75*
G01*
X1661122Y-2213272D02*
G02*
X1676362Y-2198032I15240J0D01*
G75*
G01*
X2246958Y-1155667D02*
G03*
X2231718Y-1140427I-15240J0D01*
G75*
G01*
X2162477Y-1140427D02*
G03*
X2147237Y-1155667I0J-15240D01*
G75*
G01*
X2246958Y-1358928D02*
G02*
X2231718Y-1374168I-15240J0D01*
G75*
G01*
X2162477Y-1374168D02*
G02*
X2147237Y-1358928I0J15240D01*
D16*
G75*
G01*
X-65964Y-712048D02*
G02*
X-96947Y-681065I0J30983D01*
G75*
G01*
X45019Y-681065D02*
G02*
X14033Y-712048I-30983J0D01*
G75*
G01*
X-96365Y-463479D02*
G02*
X-65380Y-432496I30983J0D01*
G75*
G01*
X14618Y-432496D02*
G02*
X45601Y-463479I0J-30983D01*
G75*
G01*
X303944Y-1038934D02*
G02*
X334927Y-1007951I30983J0D01*
G75*
G01*
X334927Y-1149916D02*
G02*
X303944Y-1118931I0J30982D01*
G75*
G01*
X552514Y-1008532D02*
G02*
X583496Y-1039518I0J-30983D01*
G75*
G01*
X583496Y-1119515D02*
G02*
X552514Y-1150498I-30982J0D01*
G75*
G01*
X453654Y-2396292D02*
G03*
X308369Y-2395802I-72657J-3980D01*
D20*
G75*
G01*
X1146899Y-1993496D02*
G03*
X1147153Y-1993496I127J-20000D01*
D21*
G75*
G01
X662711Y-2400300D02*
G03X662711Y-2400300I-15011J0D01*
D16*
G75*
G01
X1240942Y-1870507D02*
G03X1240942Y-1870507I-17043J0D01*
M02*
