G04 Layer: TopPasteMaskLayer*
G04 EasyEDA v6.5.40, 2024-02-04 21:12:00*
G04 47bb9c72da8d420c99b3d15ae168fc4e,2e16165ee3bb4678bfb3015e44e098b9,10*
G04 Gerber Generator version 0.2*
G04 Scale: 100 percent, Rotated: No, Reflected: No *
G04 Dimensions in millimeters *
G04 leading zeros omitted , absolute positions ,4 integer and 5 decimal *
%FSLAX45Y45*%
%MOMM*%

%AMMACRO1*21,1,$1,$2,0,0,$3*%
%ADD10R,0.9000X0.8000*%
%ADD11R,0.8000X0.9000*%
%ADD12R,0.8000X0.8000*%
%ADD13O,1.950212X0.5684012*%
%ADD14O,0.9999979999999999X0.7999984*%
%ADD15R,1.1000X2.5000*%
%ADD16MACRO1,3.6002X2.3398X0.0000*%
%ADD17O,0.27000199999999996X1.499997*%
%ADD18O,1.499997X0.27000199999999996*%
%ADD19R,1.4000X1.2000*%
%ADD20R,0.0155X1.2000*%

%LPD*%
G36*
X455371Y-1763217D02*
G01*
X450392Y-1768195D01*
X450392Y-1813204D01*
X455371Y-1818182D01*
X508406Y-1818182D01*
X513384Y-1813204D01*
X513384Y-1768195D01*
X508406Y-1763217D01*
G37*
G36*
X558393Y-1763217D02*
G01*
X553415Y-1768195D01*
X553415Y-1813204D01*
X558393Y-1818182D01*
X611378Y-1818182D01*
X616407Y-1813204D01*
X616407Y-1768195D01*
X611378Y-1763217D01*
G37*
G36*
X75793Y-1763217D02*
G01*
X70815Y-1768195D01*
X70815Y-1813204D01*
X75793Y-1818182D01*
X128778Y-1818182D01*
X133807Y-1813204D01*
X133807Y-1768195D01*
X128778Y-1763217D01*
G37*
G36*
X-27178Y-1763217D02*
G01*
X-32207Y-1768195D01*
X-32207Y-1813204D01*
X-27178Y-1818182D01*
X25806Y-1818182D01*
X30784Y-1813204D01*
X30784Y-1768195D01*
X25806Y-1763217D01*
G37*
G36*
X379222Y-2728417D02*
G01*
X374192Y-2733395D01*
X374192Y-2778404D01*
X379222Y-2783382D01*
X432206Y-2783382D01*
X437184Y-2778404D01*
X437184Y-2733395D01*
X432206Y-2728417D01*
G37*
G36*
X482193Y-2728417D02*
G01*
X477215Y-2733395D01*
X477215Y-2778404D01*
X482193Y-2783382D01*
X535178Y-2783382D01*
X540207Y-2778404D01*
X540207Y-2733395D01*
X535178Y-2728417D01*
G37*
G36*
X1077671Y-975817D02*
G01*
X1072692Y-980795D01*
X1072692Y-1025804D01*
X1077671Y-1030782D01*
X1130706Y-1030782D01*
X1135684Y-1025804D01*
X1135684Y-980795D01*
X1130706Y-975817D01*
G37*
G36*
X1180693Y-975817D02*
G01*
X1175715Y-980795D01*
X1175715Y-1025804D01*
X1180693Y-1030782D01*
X1233678Y-1030782D01*
X1238707Y-1025804D01*
X1238707Y-980795D01*
X1233678Y-975817D01*
G37*
G36*
X2047595Y-1174292D02*
G01*
X2042617Y-1179271D01*
X2042617Y-1232306D01*
X2047595Y-1237284D01*
X2092604Y-1237284D01*
X2097582Y-1232306D01*
X2097582Y-1179271D01*
X2092604Y-1174292D01*
G37*
G36*
X2047595Y-1277315D02*
G01*
X2042617Y-1282293D01*
X2042617Y-1335278D01*
X2047595Y-1340307D01*
X2092604Y-1340307D01*
X2097582Y-1335278D01*
X2097582Y-1282293D01*
X2092604Y-1277315D01*
G37*
G36*
X887171Y-1940966D02*
G01*
X882192Y-1945995D01*
X882192Y-1991004D01*
X887171Y-1995982D01*
X940206Y-1995982D01*
X945184Y-1991004D01*
X945184Y-1945995D01*
X940206Y-1940966D01*
G37*
G36*
X990193Y-1940966D02*
G01*
X985215Y-1945995D01*
X985215Y-1991004D01*
X990193Y-1995982D01*
X1043178Y-1995982D01*
X1048207Y-1991004D01*
X1048207Y-1945995D01*
X1043178Y-1940966D01*
G37*
G36*
X1091793Y-2118817D02*
G01*
X1086815Y-2123795D01*
X1086815Y-2168804D01*
X1091793Y-2173782D01*
X1144778Y-2173782D01*
X1149807Y-2168804D01*
X1149807Y-2123795D01*
X1144778Y-2118817D01*
G37*
G36*
X988821Y-2118817D02*
G01*
X983792Y-2123795D01*
X983792Y-2168804D01*
X988821Y-2173782D01*
X1041806Y-2173782D01*
X1046784Y-2168804D01*
X1046784Y-2123795D01*
X1041806Y-2118817D01*
G37*
G36*
X1705000Y-2347366D02*
G01*
X1699971Y-2352395D01*
X1699971Y-2397404D01*
X1705000Y-2402382D01*
X1753006Y-2402382D01*
X1759966Y-2397404D01*
X1759966Y-2352395D01*
X1753006Y-2347366D01*
G37*
G36*
X1802993Y-2347366D02*
G01*
X1795983Y-2352395D01*
X1795983Y-2397404D01*
X1802993Y-2402382D01*
X1850999Y-2402382D01*
X1855978Y-2397404D01*
X1855978Y-2352395D01*
X1850999Y-2347366D01*
G37*
G36*
X1705000Y-2474366D02*
G01*
X1699971Y-2479395D01*
X1699971Y-2524404D01*
X1705000Y-2529382D01*
X1753006Y-2529382D01*
X1759966Y-2524404D01*
X1759966Y-2479395D01*
X1753006Y-2474366D01*
G37*
G36*
X1802993Y-2474366D02*
G01*
X1795983Y-2479395D01*
X1795983Y-2524404D01*
X1802993Y-2529382D01*
X1850999Y-2529382D01*
X1855978Y-2524404D01*
X1855978Y-2479395D01*
X1850999Y-2474366D01*
G37*
G36*
X1244193Y-2334717D02*
G01*
X1237183Y-2339695D01*
X1237183Y-2384704D01*
X1244193Y-2389682D01*
X1292199Y-2389682D01*
X1297178Y-2384704D01*
X1297178Y-2339695D01*
X1292199Y-2334717D01*
G37*
G36*
X1146200Y-2334717D02*
G01*
X1141222Y-2339695D01*
X1141222Y-2384704D01*
X1146200Y-2389682D01*
X1194206Y-2389682D01*
X1201216Y-2384704D01*
X1201216Y-2339695D01*
X1194206Y-2334717D01*
G37*
G36*
X1476095Y-2525471D02*
G01*
X1471117Y-2530500D01*
X1471117Y-2578506D01*
X1476095Y-2585516D01*
X1521104Y-2585516D01*
X1526082Y-2578506D01*
X1526082Y-2530500D01*
X1521104Y-2525471D01*
G37*
G36*
X1476095Y-2621483D02*
G01*
X1471117Y-2628493D01*
X1471117Y-2676499D01*
X1476095Y-2681478D01*
X1521104Y-2681478D01*
X1526082Y-2676499D01*
X1526082Y-2628493D01*
X1521104Y-2621483D01*
G37*
G36*
X1705000Y-2220366D02*
G01*
X1699971Y-2225395D01*
X1699971Y-2270404D01*
X1705000Y-2275382D01*
X1753006Y-2275382D01*
X1759966Y-2270404D01*
X1759966Y-2225395D01*
X1753006Y-2220366D01*
G37*
G36*
X1802993Y-2220366D02*
G01*
X1795983Y-2225395D01*
X1795983Y-2270404D01*
X1802993Y-2275382D01*
X1850999Y-2275382D01*
X1855978Y-2270404D01*
X1855978Y-2225395D01*
X1850999Y-2220366D01*
G37*
G36*
X2174595Y-1275283D02*
G01*
X2169617Y-1282293D01*
X2169617Y-1330299D01*
X2174595Y-1335278D01*
X2219604Y-1335278D01*
X2224582Y-1330299D01*
X2224582Y-1282293D01*
X2219604Y-1275283D01*
G37*
G36*
X2174595Y-1179322D02*
G01*
X2169617Y-1184300D01*
X2169617Y-1232306D01*
X2174595Y-1239316D01*
X2219604Y-1239316D01*
X2224582Y-1232306D01*
X2224582Y-1184300D01*
X2219604Y-1179322D01*
G37*
G36*
X1957578Y-2303678D02*
G01*
X1951177Y-2310079D01*
X1951177Y-2360422D01*
X1980539Y-2387854D01*
X2008174Y-2387854D01*
X2037588Y-2360422D01*
X2037588Y-2310079D01*
X2031187Y-2303678D01*
G37*
G36*
X1981657Y-2439416D02*
G01*
X1952294Y-2466797D01*
X1952294Y-2517140D01*
X1958695Y-2523540D01*
X2032304Y-2523540D01*
X2038705Y-2517140D01*
X2038705Y-2466797D01*
X2009292Y-2439416D01*
G37*
G36*
X1033475Y-582574D02*
G01*
X1029512Y-586587D01*
X1029512Y-632612D01*
X1033475Y-636625D01*
X1083564Y-636625D01*
X1087577Y-632612D01*
X1087577Y-586587D01*
X1083564Y-582574D01*
G37*
G36*
X948436Y-582574D02*
G01*
X944422Y-586587D01*
X944422Y-632612D01*
X948436Y-636625D01*
X998474Y-636625D01*
X1002487Y-632612D01*
X1002487Y-586587D01*
X998474Y-582574D01*
G37*
G36*
X1202436Y-582574D02*
G01*
X1198422Y-586587D01*
X1198422Y-632612D01*
X1202436Y-636625D01*
X1252474Y-636625D01*
X1256487Y-632612D01*
X1256487Y-586587D01*
X1252474Y-582574D01*
G37*
G36*
X1287475Y-582574D02*
G01*
X1283512Y-586587D01*
X1283512Y-632612D01*
X1287475Y-636625D01*
X1337564Y-636625D01*
X1341577Y-632612D01*
X1341577Y-586587D01*
X1337564Y-582574D01*
G37*
G36*
X1659636Y-188874D02*
G01*
X1655622Y-192887D01*
X1655622Y-238912D01*
X1659636Y-242925D01*
X1709674Y-242925D01*
X1713687Y-238912D01*
X1713687Y-192887D01*
X1709674Y-188874D01*
G37*
G36*
X1744675Y-188874D02*
G01*
X1740712Y-192887D01*
X1740712Y-238912D01*
X1744675Y-242925D01*
X1794764Y-242925D01*
X1798777Y-238912D01*
X1798777Y-192887D01*
X1794764Y-188874D01*
G37*
G36*
X1516075Y-188874D02*
G01*
X1512112Y-192887D01*
X1512112Y-238912D01*
X1516075Y-242925D01*
X1566164Y-242925D01*
X1570177Y-238912D01*
X1570177Y-192887D01*
X1566164Y-188874D01*
G37*
G36*
X1431036Y-188874D02*
G01*
X1427022Y-192887D01*
X1427022Y-238912D01*
X1431036Y-242925D01*
X1481074Y-242925D01*
X1485087Y-238912D01*
X1485087Y-192887D01*
X1481074Y-188874D01*
G37*
G36*
X370687Y-2519222D02*
G01*
X366674Y-2523236D01*
X366674Y-2573274D01*
X370687Y-2577287D01*
X416712Y-2577287D01*
X420725Y-2573274D01*
X420725Y-2523236D01*
X416712Y-2519222D01*
G37*
G36*
X370687Y-2604312D02*
G01*
X366674Y-2608275D01*
X366674Y-2658364D01*
X370687Y-2662377D01*
X416712Y-2662377D01*
X420725Y-2658364D01*
X420725Y-2608275D01*
X416712Y-2604312D01*
G37*
G36*
X167487Y-1414322D02*
G01*
X163474Y-1418336D01*
X163474Y-1468374D01*
X167487Y-1472387D01*
X213512Y-1472387D01*
X217474Y-1468374D01*
X217474Y-1418336D01*
X213512Y-1414322D01*
G37*
G36*
X167487Y-1499412D02*
G01*
X163474Y-1503375D01*
X163474Y-1553464D01*
X167487Y-1557477D01*
X213512Y-1557477D01*
X217474Y-1553464D01*
X217474Y-1503375D01*
X213512Y-1499412D01*
G37*
G36*
X167487Y-1258112D02*
G01*
X163474Y-1262075D01*
X163474Y-1312164D01*
X167487Y-1316177D01*
X213512Y-1316177D01*
X217474Y-1312164D01*
X217474Y-1262075D01*
X213512Y-1258112D01*
G37*
G36*
X167487Y-1173022D02*
G01*
X163474Y-1177036D01*
X163474Y-1227074D01*
X167487Y-1231087D01*
X213512Y-1231087D01*
X217474Y-1227074D01*
X217474Y-1177036D01*
X213512Y-1173022D01*
G37*
G36*
X2262987Y-1512112D02*
G01*
X2258974Y-1516075D01*
X2258974Y-1566164D01*
X2262987Y-1570177D01*
X2309012Y-1570177D01*
X2312974Y-1566164D01*
X2312974Y-1516075D01*
X2309012Y-1512112D01*
G37*
G36*
X2262987Y-1427022D02*
G01*
X2258974Y-1431036D01*
X2258974Y-1481074D01*
X2262987Y-1485087D01*
X2309012Y-1485087D01*
X2312974Y-1481074D01*
X2312974Y-1431036D01*
X2309012Y-1427022D01*
G37*
G36*
X2262987Y-1642922D02*
G01*
X2258974Y-1646936D01*
X2258974Y-1696974D01*
X2262987Y-1700987D01*
X2309012Y-1700987D01*
X2312974Y-1696974D01*
X2312974Y-1646936D01*
X2309012Y-1642922D01*
G37*
G36*
X2262987Y-1728012D02*
G01*
X2258974Y-1731975D01*
X2258974Y-1782064D01*
X2262987Y-1786077D01*
X2309012Y-1786077D01*
X2312974Y-1782064D01*
X2312974Y-1731975D01*
X2309012Y-1728012D01*
G37*
G36*
X1386687Y-2324912D02*
G01*
X1382674Y-2328875D01*
X1382674Y-2378964D01*
X1386687Y-2382977D01*
X1432712Y-2382977D01*
X1436674Y-2378964D01*
X1436674Y-2328875D01*
X1432712Y-2324912D01*
G37*
G36*
X1386687Y-2239822D02*
G01*
X1382674Y-2243836D01*
X1382674Y-2293874D01*
X1386687Y-2297887D01*
X1432712Y-2297887D01*
X1436674Y-2293874D01*
X1436674Y-2243836D01*
X1432712Y-2239822D01*
G37*
D10*
G01*
X-25400Y-501497D03*
G01*
X-25400Y-641502D03*
D11*
G01*
X514502Y-1079500D03*
G01*
X374497Y-1079500D03*
D12*
G01*
X1727200Y-567689D03*
G01*
X1727200Y-397510D03*
G01*
X1498600Y-567689D03*
G01*
X1498600Y-397510D03*
D13*
G01*
X651510Y-2336800D03*
G01*
X651510Y-2209800D03*
G01*
X651510Y-2082800D03*
G01*
X651510Y-1955800D03*
G01*
X110489Y-2336800D03*
G01*
X110489Y-2209800D03*
G01*
X110489Y-2082800D03*
G01*
X110489Y-1955800D03*
D12*
G01*
X1041400Y-427989D03*
G01*
X1041400Y-257810D03*
G01*
X1270000Y-257810D03*
G01*
X1270000Y-427989D03*
D14*
G01*
X-139700Y-2082800D03*
G01*
X-139700Y-2207793D03*
D15*
G01*
X201803Y-817702D03*
G01*
X431800Y-817702D03*
G01*
X661796Y-817702D03*
D16*
G01*
X431800Y-223697D03*
D14*
G01*
X-139700Y-1534693D03*
G01*
X-139700Y-1409700D03*
G01*
X-139700Y-1159687D03*
G01*
X-139700Y-1284706D03*
G01*
X2463800Y-1424406D03*
G01*
X2463800Y-1549400D03*
G01*
X2463800Y-1799412D03*
G01*
X2463800Y-1674393D03*
G01*
X2463800Y-2324100D03*
G01*
X2463800Y-2199106D03*
G01*
X2463800Y-2449093D03*
G01*
X2463800Y-2574086D03*
G01*
X2463800Y-2074087D03*
G01*
X2463800Y-1949094D03*
G01*
X1943100Y-736600D03*
G01*
X1943100Y-861618D03*
G01*
X1943100Y-611606D03*
G01*
X1943100Y-486638D03*
G01*
X1943100Y-986612D03*
G01*
X1943100Y-1111605D03*
D17*
G01*
X1210894Y-2012492D03*
G01*
X1260906Y-2012492D03*
G01*
X1310894Y-2012492D03*
G01*
X1360906Y-2012492D03*
G01*
X1410893Y-2012492D03*
G01*
X1460906Y-2012492D03*
G01*
X1510893Y-2012492D03*
G01*
X1560906Y-2012492D03*
G01*
X1610893Y-2012492D03*
G01*
X1660905Y-2012492D03*
G01*
X1710893Y-2012492D03*
G01*
X1760905Y-2012492D03*
D18*
G01*
X1910892Y-1862505D03*
G01*
X1910892Y-1812493D03*
G01*
X1910892Y-1762505D03*
G01*
X1910892Y-1712493D03*
G01*
X1910892Y-1662506D03*
G01*
X1910892Y-1612493D03*
G01*
X1910892Y-1562506D03*
G01*
X1910892Y-1512493D03*
G01*
X1910892Y-1462506D03*
G01*
X1910892Y-1412494D03*
G01*
X1910892Y-1362506D03*
G01*
X1910892Y-1312494D03*
D17*
G01*
X1760905Y-1162507D03*
G01*
X1710893Y-1162507D03*
G01*
X1660905Y-1162507D03*
G01*
X1610893Y-1162507D03*
G01*
X1560906Y-1162507D03*
G01*
X1510893Y-1162507D03*
G01*
X1460906Y-1162507D03*
G01*
X1410893Y-1162507D03*
G01*
X1360906Y-1162507D03*
G01*
X1310894Y-1162507D03*
G01*
X1260906Y-1162507D03*
G01*
X1210894Y-1162507D03*
D18*
G01*
X1060907Y-1312494D03*
G01*
X1060907Y-1362506D03*
G01*
X1060907Y-1412494D03*
G01*
X1060907Y-1462506D03*
G01*
X1060907Y-1512493D03*
G01*
X1060907Y-1562506D03*
G01*
X1060907Y-1612493D03*
G01*
X1060907Y-1662506D03*
G01*
X1060907Y-1712493D03*
G01*
X1060907Y-1762505D03*
G01*
X1060907Y-1812493D03*
G01*
X1060907Y-1862505D03*
D19*
G01*
X1109192Y-2690977D03*
G01*
X1329207Y-2690977D03*
G01*
X1329207Y-2515971D03*
G01*
X1109192Y-2515996D03*
M02*
