G04 Layer: BottomPasteMaskLayer*
G04 EasyEDA v6.5.40, 2024-02-04 21:12:00*
G04 47bb9c72da8d420c99b3d15ae168fc4e,2e16165ee3bb4678bfb3015e44e098b9,10*
G04 Gerber Generator version 0.2*
G04 Scale: 100 percent, Rotated: No, Reflected: No *
G04 Dimensions in millimeters *
G04 leading zeros omitted , absolute positions ,4 integer and 5 decimal *
%FSLAX45Y45*%
%MOMM*%

%ADD10O,0.7999984X0.9999979999999999*%
%ADD11O,0.7999984X2.1999956000000003*%
%ADD12O,0.9999979999999999X0.7999984*%

%LPD*%
D10*
G01*
X330200Y-1600200D03*
G01*
X2273300Y-2032000D03*
G01*
X1856206Y-2679700D03*
G01*
X1981200Y-2679700D03*
G01*
X2231212Y-2679700D03*
G01*
X2106193Y-2679700D03*
G01*
X1422400Y-2006600D03*
G01*
X1297406Y-2006600D03*
G01*
X1295400Y-342900D03*
G01*
X1170406Y-342900D03*
G01*
X1420393Y-342900D03*
G01*
X1545386Y-342900D03*
G01*
X1045387Y-342900D03*
G01*
X920394Y-342900D03*
G01*
X1295400Y-165100D03*
G01*
X1170406Y-165100D03*
G01*
X1420393Y-165100D03*
G01*
X1545386Y-165100D03*
G01*
X1045387Y-165100D03*
G01*
X920394Y-165100D03*
G01*
X1295400Y-520700D03*
G01*
X1170406Y-520700D03*
G01*
X1420393Y-520700D03*
G01*
X1545386Y-520700D03*
G01*
X1045387Y-520700D03*
G01*
X920394Y-520700D03*
D11*
G01*
X622300Y-292100D03*
G01*
X472287Y-292100D03*
D12*
G01*
X800100Y-929106D03*
G01*
X800100Y-1054100D03*
G01*
X800100Y-1304112D03*
G01*
X800100Y-1179093D03*
G01*
X2057400Y-1803400D03*
G01*
X2057400Y-1928393D03*
D10*
G01*
X1346200Y-1536700D03*
G01*
X1471193Y-1536700D03*
D12*
G01*
X2057400Y-1473200D03*
G01*
X2057400Y-1598193D03*
D10*
G01*
X1562100Y-2159000D03*
G01*
X1687093Y-2159000D03*
M02*
