M48
METRIC,LZ,000.000
;FILE_FORMAT=3:3
;TYPE=PLATED
;Layer: PTH_Through_Via
;EasyEDA v6.5.40, 2024-02-03 19:01:27
;629f34bd56064ca5b14c1ddf27600c48,2e16165ee3bb4678bfb3015e44e098b9,10
;Gerber Generator version 0.2
;Holesize 1 = 0.301 mm
T01C0.301
;Holesize 2 = 0.305 mm
T02C0.305
%
G05
G90
T01
X009398Y-010445
X008150Y-007600
X008128Y-008413
X007350Y-007650
X007450Y-006300
X008128Y-005873
X009398Y-011207
X021150Y-012950
X020750Y-012000
X015350Y-012200
X014850Y-020250
X025650Y-008700
X030850Y-022400
X032100Y-022400
X029299Y-017250
X032250Y-017349
X028150Y-017250
X026750Y-017050
X015796Y-010645
X026800Y-008700
X027400Y-012150
X033950Y-006950
X024000Y-013750
X024000Y-014850
X019700Y-021650
X024100Y-016300
X022050Y-021500
X029550Y-012650
X024850Y-007350
X020200Y-022550
X012150Y-012900
X012150Y-014900
X026700Y-004750
X029750Y-006950
X021300Y-006950
X032550Y-006950
X004368Y-013875
X009350Y-015000
X010950Y-015000
X028600Y-024800
X024050Y-022000
X029000Y-021850
X034850Y-022400
X038000Y-017500
X037850Y-010150
X023700Y-006950
X009200Y-001550
X009200Y-002350
X009200Y-003150
X008200Y-014150
X005850Y-016399
X017750Y-021600
X019299Y-019350
X021850Y-018750
X022400Y-002900
X022650Y-023650
X022650Y-018250
X016300Y-007200
X033400Y-009200
X036558Y-012758
X035850Y-007700
X037950Y-020300
T02
X006100Y-024350
X005850Y-022850
X004950Y-025550
X001850Y-005800
X005150Y-001450
X005150Y-002650
X037100Y-006000
X038350Y-006000
X039700Y-006000
X036500Y-002550
X036300Y-022500
X036300Y-023750
X036300Y-025050
X023250Y-024450
X023250Y-025350
X015400Y-019100
X014150Y-015400
X014200Y-016400
X015150Y-015400
X008900Y-025650
X010550Y-018300
X010550Y-019500
X010550Y-020650
X029100Y-014950
X027700Y-013850
X025800Y-016100
X021350Y-008350
X019000Y-007950
X034200Y-008150
X017750Y-018700
X014500Y-002050
X014500Y-003000
X013900Y-004450
X013200Y-005200
X004250Y-017200
X039150Y-021600
X040250Y-021600
X010750Y-013150
X006150Y-007050
X024900Y-026050
X027300Y-026000
X034200Y-026000
X016050Y-025850
X029601Y-016149
X029550Y-013700
X031400Y-010450
X025850Y-011600
X025800Y-017150
X028650Y-023600
X029850Y-026100
X031250Y-023800
X031200Y-025150
X027700Y-014950
X027700Y-016050
X024500Y-012150
X025800Y-014950
X004100Y-005850
X001150Y-016300
X004800Y-021850
X001150Y-022600
X018700Y-002050
X013800Y-012600
X026950Y-001350
X037250Y-001700
X031350Y-008450
M30
