G04 Layer: TopLayer*
G04 EasyEDA v6.5.40, 2024-02-03 19:01:27*
G04 629f34bd56064ca5b14c1ddf27600c48,2e16165ee3bb4678bfb3015e44e098b9,10*
G04 Gerber Generator version 0.2*
G04 Scale: 100 percent, Rotated: No, Reflected: No *
G04 Dimensions in millimeters *
G04 leading zeros omitted , absolute positions ,4 integer and 5 decimal *
%FSLAX45Y45*%
%MOMM*%

%AMMACRO1*21,1,$1,$2,0,0,$3*%
%ADD10C,0.3000*%
%ADD11C,0.5000*%
%ADD12C,0.2000*%
%ADD13C,1.5240*%
%ADD14MACRO1,0.54X0.7901X90.0000*%
%ADD15C,0.0175*%
%ADD16MACRO1,0.54X0.7901X-90.0000*%
%ADD17MACRO1,0.54X0.7901X0.0000*%
%ADD18R,0.5400X0.7901*%
%ADD19R,0.9000X0.8000*%
%ADD20R,0.8000X0.9000*%
%ADD21O,1.950212X0.5684012*%
%ADD22R,1.1000X2.5000*%
%ADD23MACRO1,3.6X2.34X0.0000*%
%ADD24O,0.9999979999999999X2.4999949999999997*%
%ADD25O,2.4999949999999997X0.9999979999999999*%
%ADD26O,0.27000199999999996X1.499997*%
%ADD27O,1.499997X0.27000199999999996*%
%ADD28R,1.4000X1.2000*%
%ADD29C,0.7874*%
%ADD30R,0.8640X0.8000*%
%ADD31MACRO1,0.54X0.5656X-90.0000*%
%ADD32MACRO1,0.864X0.8065X0.0000*%
%ADD33R,0.8640X0.8065*%
%ADD34MACRO1,0.54X0.5656X90.0000*%
%ADD35MACRO1,0.54X0.5656X0.0000*%
%ADD36R,0.5400X0.5657*%
%ADD37C,1.8000*%
%ADD38R,1.8000X1.8000*%
%ADD39C,0.9906*%
%ADD40C,2.5000*%
%ADD41C,0.6000*%
%ADD42C,0.6096*%

%LPD*%
G36*
X1102360Y-955598D02*
G01*
X1098448Y-954836D01*
X1095197Y-952601D01*
X1092962Y-949350D01*
X1092200Y-945438D01*
X1092200Y-639114D01*
X1091488Y-637387D01*
X889711Y-435609D01*
X887984Y-434898D01*
X645160Y-434898D01*
X641248Y-434136D01*
X637997Y-431901D01*
X635762Y-428650D01*
X635000Y-424738D01*
X635000Y-235915D01*
X635762Y-232003D01*
X637997Y-228701D01*
X759002Y-107696D01*
X762304Y-105460D01*
X766216Y-104698D01*
X1336040Y-104698D01*
X1339951Y-105460D01*
X1343202Y-107696D01*
X1345438Y-110998D01*
X1346200Y-114858D01*
X1346200Y-341782D01*
X1345438Y-345694D01*
X1343202Y-348996D01*
X1219911Y-472287D01*
X1219200Y-474014D01*
X1219200Y-945438D01*
X1218438Y-949350D01*
X1216202Y-952601D01*
X1212951Y-954836D01*
X1209040Y-955598D01*
G37*

%LPD*%
G36*
X893216Y-1158798D02*
G01*
X889304Y-1158036D01*
X886002Y-1155801D01*
X841197Y-1110996D01*
X838962Y-1107694D01*
X838200Y-1103782D01*
X838200Y-994714D01*
X837184Y-993698D01*
X708660Y-993698D01*
X704748Y-992936D01*
X701497Y-990701D01*
X699262Y-987450D01*
X698500Y-983538D01*
X698500Y-626414D01*
X697788Y-624687D01*
X637997Y-564896D01*
X635762Y-561594D01*
X635000Y-557682D01*
X635000Y-483158D01*
X635762Y-479298D01*
X637997Y-475996D01*
X641248Y-473760D01*
X645160Y-472998D01*
X770483Y-472998D01*
X774395Y-473760D01*
X777697Y-475996D01*
X987602Y-685901D01*
X989837Y-689203D01*
X990600Y-693115D01*
X990600Y-979982D01*
X991311Y-981710D01*
X1066088Y-1056487D01*
X1067816Y-1057198D01*
X1107440Y-1057198D01*
X1111351Y-1057960D01*
X1114602Y-1060196D01*
X1116838Y-1063498D01*
X1117600Y-1067358D01*
X1117600Y-1148638D01*
X1116838Y-1152550D01*
X1114602Y-1155801D01*
X1111351Y-1158036D01*
X1107440Y-1158798D01*
G37*

%LPD*%
G36*
X1178560Y-1158798D02*
G01*
X1174648Y-1158036D01*
X1171397Y-1155801D01*
X1169162Y-1152550D01*
X1168400Y-1148638D01*
X1168400Y-1061415D01*
X1169162Y-1057503D01*
X1171397Y-1054201D01*
X1190802Y-1034796D01*
X1194104Y-1032560D01*
X1198016Y-1031798D01*
X1243584Y-1031798D01*
X1245311Y-1031087D01*
X1320088Y-956310D01*
X1320800Y-954582D01*
X1319987Y-639572D01*
X1320901Y-635406D01*
X1323390Y-631952D01*
X1592122Y-392582D01*
X1595272Y-390652D01*
X1598879Y-389991D01*
X1779828Y-389991D01*
X1783740Y-390753D01*
X1787042Y-392988D01*
X1789226Y-396290D01*
X1789988Y-400151D01*
X1789988Y-589838D01*
X1789226Y-593750D01*
X1787042Y-597001D01*
X1783740Y-599236D01*
X1779828Y-599998D01*
X1615998Y-599998D01*
X1614373Y-600557D01*
X1450848Y-744220D01*
X1449984Y-745998D01*
X1447850Y-989533D01*
X1447038Y-993394D01*
X1444853Y-996645D01*
X1285697Y-1155801D01*
X1282395Y-1158036D01*
X1278483Y-1158798D01*
G37*

%LPD*%
G36*
X896061Y-1634998D02*
G01*
X892200Y-1634236D01*
X888898Y-1632000D01*
X886663Y-1628749D01*
X885901Y-1624838D01*
X885901Y-1573580D01*
X884986Y-1564944D01*
X884986Y-1499209D01*
X885748Y-1495298D01*
X887984Y-1492046D01*
X912012Y-1467967D01*
X915314Y-1465783D01*
X919226Y-1465021D01*
X1110792Y-1465021D01*
X1114653Y-1465783D01*
X1117955Y-1467967D01*
X1142034Y-1492046D01*
X1144219Y-1495298D01*
X1144981Y-1499209D01*
X1144981Y-1564995D01*
X1144117Y-1573580D01*
X1144117Y-1624838D01*
X1143304Y-1628749D01*
X1141120Y-1632000D01*
X1137818Y-1634236D01*
X1133957Y-1634998D01*
G37*

%LPD*%
G36*
X3058160Y-2276398D02*
G01*
X3054248Y-2275636D01*
X3050997Y-2273401D01*
X3048762Y-2270150D01*
X3048000Y-2266238D01*
X3048000Y-2096058D01*
X3048762Y-2092198D01*
X3050997Y-2088896D01*
X3054248Y-2086660D01*
X3058160Y-2085898D01*
X3135884Y-2085898D01*
X3137611Y-2085187D01*
X3174288Y-2048510D01*
X3175000Y-2046782D01*
X3175000Y-1943658D01*
X3175762Y-1939798D01*
X3177997Y-1936496D01*
X3181248Y-1934260D01*
X3185160Y-1933498D01*
X3241040Y-1933498D01*
X3244951Y-1934260D01*
X3248202Y-1936496D01*
X3250438Y-1939798D01*
X3251200Y-1943658D01*
X3251200Y-2266238D01*
X3250438Y-2270150D01*
X3248202Y-2273401D01*
X3244951Y-2275636D01*
X3241040Y-2276398D01*
G37*

%LPD*%
D10*
X2254758Y-1500378D02*
G01*
X2180590Y-1500378D01*
X2135124Y-1454912D01*
X1459992Y-1454912D01*
X1394968Y-1389887D01*
X970026Y-1389887D01*
X723900Y-1144015D01*
X723900Y-1049528D01*
D11*
X610006Y-2434996D02*
G01*
X610006Y-2435004D01*
X709996Y-2534996D01*
D10*
X2254758Y-1650547D02*
G01*
X2099058Y-1650547D01*
X2070100Y-1679501D01*
X2070100Y-1713793D01*
D11*
X2070100Y-1713892D02*
G01*
X2061690Y-1705482D01*
X1924989Y-1705482D01*
X2070100Y-1822909D02*
G01*
X2061690Y-1814499D01*
X1924989Y-1814499D01*
D10*
X2070100Y-1823008D02*
G01*
X2091692Y-1823008D01*
X2214115Y-1700585D01*
X2254758Y-1700585D01*
X2404691Y-1850491D02*
G01*
X2404691Y-1933501D01*
X2378199Y-1959990D01*
X2259507Y-1959990D01*
X2454709Y-1000511D02*
G01*
X2454709Y-853902D01*
X2429408Y-828601D01*
X2404615Y-1000559D02*
G01*
X2404615Y-934516D01*
X2320292Y-850193D01*
X2320292Y-828601D01*
X3104690Y-1200510D02*
G01*
X3204001Y-1200510D01*
X3269995Y-1134516D01*
X3276600Y-1127912D01*
X3276600Y-1124409D01*
D11*
X3352825Y-1978106D02*
G01*
X3352800Y-2073201D01*
X3318408Y-2107592D01*
X3318408Y-2136701D01*
D10*
X2654808Y-1850443D02*
G01*
X2654808Y-1934009D01*
X2692400Y-1971601D01*
X2692400Y-2085901D01*
X2688691Y-2124001D01*
X2518308Y-2124001D02*
G01*
X2616200Y-2221892D01*
X2616200Y-2390726D01*
X2616200Y-2390726D02*
G01*
X2528702Y-2478229D01*
X2506190Y-2478229D01*
X2688691Y-2124001D02*
G01*
X2692400Y-2127709D01*
X2692400Y-2174801D01*
X2726209Y-2208611D01*
X2726209Y-2303221D01*
X2604764Y-1850443D02*
G01*
X2604764Y-1932231D01*
X2518407Y-2018593D01*
X2518407Y-2124001D01*
X2754635Y-1850443D02*
G01*
X2754635Y-1983031D01*
X2806700Y-2035101D01*
X2882900Y-2035101D01*
X2975607Y-2127808D01*
X3073400Y-2127808D01*
X2804690Y-1850491D02*
G01*
X2804690Y-1931492D01*
X2844800Y-1971601D01*
X2921000Y-1971601D01*
X2968091Y-2018692D01*
X3073400Y-2018692D01*
D11*
X3352825Y-1838096D02*
G01*
X3346622Y-1831901D01*
X3251200Y-1831901D01*
X3216808Y-1866292D01*
X3213100Y-1866292D01*
X3213100Y-1866292D02*
G01*
X3140608Y-1866292D01*
X3073400Y-1933501D01*
X3073400Y-2018692D01*
D10*
X2904690Y-1000511D02*
G01*
X2904690Y-609699D01*
X2905000Y-609389D01*
X2905000Y-289991D01*
X2954784Y-1000559D02*
G01*
X2955030Y-899977D01*
X3044949Y-810059D01*
X3044949Y-289867D01*
X2854708Y-1000559D02*
G01*
X2854708Y-809805D01*
X2765041Y-719889D01*
X2765041Y-289867D01*
X2254709Y-1250497D02*
G01*
X2159508Y-1250497D01*
X2115009Y-1294998D01*
X2254758Y-1199443D02*
G01*
X2254204Y-1199997D01*
X2075002Y-1199997D01*
X2504691Y-1000559D02*
G01*
X2504950Y-1084889D01*
X2454907Y-1134927D01*
X2389880Y-1134927D01*
X2223256Y-968301D01*
X1803400Y-968301D01*
D11*
X1535000Y-1219987D02*
G01*
X1537307Y-1222301D01*
X1676400Y-1222301D01*
X1337307Y-2022401D02*
G01*
X1339900Y-2024994D01*
X1485013Y-2024994D01*
D10*
X1337307Y-1895401D02*
G01*
X1210401Y-1895401D01*
X1165001Y-1850001D01*
X1165001Y-1709991D01*
X1209497Y-1665495D01*
X1209497Y-1599996D01*
X2604691Y-1000511D02*
G01*
X2604691Y-909701D01*
X2564991Y-870000D01*
X2954784Y-1850443D02*
G01*
X2955030Y-1750113D01*
X2929892Y-1724967D01*
X3104641Y-1700585D02*
G01*
X3189980Y-1700077D01*
X3225043Y-1734870D01*
X2854708Y-1850491D02*
G01*
X2854708Y-1764705D01*
X2814998Y-1725000D01*
X2704691Y-1850491D02*
G01*
X2704691Y-1734698D01*
X2674998Y-1705000D01*
X1579580Y-1064524D02*
G01*
X1610357Y-1095301D01*
X1676400Y-1095301D01*
X2254758Y-1550466D02*
G01*
X2095500Y-1550466D01*
X2080008Y-1534977D01*
X1715007Y-1534977D01*
X1481584Y-1768401D01*
X1337307Y-1768401D01*
X2704691Y-1000511D02*
G01*
X2704691Y-1179705D01*
X2739999Y-1215009D01*
X2804665Y-1000559D02*
G01*
X2804665Y-864666D01*
X2484884Y-544885D01*
X2484884Y-289867D01*
X2754635Y-1000559D02*
G01*
X2754635Y-1090221D01*
X2800101Y-1134927D01*
X2800101Y-1134927D02*
G01*
X2805173Y-1140000D01*
X2949983Y-1140000D01*
X3394991Y-694997D01*
X2654808Y-1000559D02*
G01*
X2654993Y-904999D01*
X2679948Y-870000D01*
X2254758Y-1450393D02*
G01*
X2359992Y-1450002D01*
X2400051Y-1484939D01*
X2254758Y-1400609D02*
G01*
X2370000Y-1400002D01*
X2400051Y-1374955D01*
X2254709Y-1650492D02*
G01*
X2389497Y-1650492D01*
X2409997Y-1629996D01*
D11*
X2160005Y-2460000D02*
G01*
X2158281Y-2249995D01*
X1970001Y-2164996D02*
G01*
X1968289Y-2164996D01*
X1873280Y-2259998D01*
X1879991Y-2460000D02*
G01*
X1873280Y-2453284D01*
X1873280Y-2259998D01*
X2204999Y-2149982D02*
G01*
X2158281Y-2196701D01*
X2158281Y-2249995D01*
X1776717Y-2259998D02*
G01*
X1739986Y-2296728D01*
X1739986Y-2460000D01*
D10*
X3104641Y-1200454D02*
G01*
X3019526Y-1200454D01*
X2954985Y-1264996D01*
X2429408Y-828601D02*
G01*
X2485009Y-773000D01*
X2485009Y-734999D01*
X2019983Y-2459987D02*
G01*
X2019983Y-2254989D01*
X1213004Y-1108001D02*
G01*
X1215009Y-1110005D01*
X1215009Y-1289989D01*
X1209497Y-1599996D02*
G01*
X1215009Y-1594485D01*
X1215009Y-1489991D01*
D11*
X2669989Y-474997D02*
G01*
X2624993Y-429996D01*
X2624993Y-290004D01*
X820496Y-1599996D02*
G01*
X796292Y-1624200D01*
X796292Y-1768401D01*
D10*
X2254758Y-1600504D02*
G01*
X1844494Y-1600504D01*
X1629996Y-1815002D01*
X1629996Y-2029998D01*
X1510593Y-2149401D01*
X1337307Y-2149401D01*
D11*
X2409291Y-2124001D02*
G01*
X2409997Y-2204994D01*
X2506190Y-2303221D01*
X2859989Y-2480005D02*
G01*
X2727982Y-2480005D01*
X2726209Y-2478229D01*
X2797708Y-2124001D02*
G01*
X2839008Y-2124001D01*
X2899991Y-2184984D01*
D10*
X723900Y-1049581D02*
G01*
X600001Y-1159997D01*
X495300Y-1160071D01*
D11*
X213989Y-1385603D02*
G01*
X204998Y-1376611D01*
X204998Y-1157003D01*
X323006Y-1385603D02*
G01*
X436803Y-1387500D01*
D10*
X213989Y-1385603D02*
G01*
X259996Y-1431610D01*
X259996Y-1479997D01*
X293278Y-1513278D01*
X293278Y-1529996D01*
X819998Y-1414995D02*
G01*
X704999Y-1529996D01*
X293278Y-1529996D01*
X206715Y-1529996D02*
G01*
X204998Y-1600001D01*
X245003Y-1639999D01*
X585000Y-1639999D01*
X584962Y-1639874D02*
G01*
X622901Y-1677819D01*
X796292Y-1677819D01*
X1776717Y-2259998D02*
G01*
X1774997Y-2159998D01*
X1924989Y-1814499D02*
G01*
X1924989Y-1929988D01*
X1929996Y-1934994D01*
D11*
X2185007Y-1875005D02*
G01*
X2150490Y-1909521D01*
X2150490Y-1959990D01*
X2240013Y-290004D02*
G01*
X2345009Y-290004D01*
X2320391Y-828601D02*
G01*
X2314996Y-823206D01*
X2314996Y-774997D01*
X2274999Y-734999D01*
X2274999Y-589998D01*
X2345009Y-519988D01*
X2345009Y-290004D01*
D10*
X2265001Y-2364996D02*
G01*
X2253282Y-2353276D01*
X2253282Y-2259998D01*
X2264915Y-1825043D02*
G01*
X2264915Y-1954583D01*
X2259507Y-1959990D01*
X2258418Y-1958901D01*
X2251707Y-1958901D01*
X1676400Y-968301D02*
G01*
X1629996Y-921898D01*
X1629996Y-865002D01*
X1629996Y-865002D02*
G01*
X1629996Y-719993D01*
X3794993Y-2029998D02*
G01*
X3975100Y-2029490D01*
X3352825Y-1978106D02*
G01*
X3509987Y-1979998D01*
X3559992Y-2029998D01*
X3794993Y-2029998D01*
D12*
X796292Y-1895401D02*
G01*
X721288Y-1895401D01*
X675289Y-1941400D01*
X573689Y-1941400D01*
X511949Y-1941400D01*
X510847Y-1942498D01*
X449102Y-1942498D01*
X347502Y-1942498D01*
X295003Y-1890001D01*
X219999Y-1890001D01*
X796292Y-2022401D02*
G01*
X721288Y-2022401D01*
X675289Y-1976401D01*
X573689Y-1976401D01*
X526448Y-1976401D01*
X525345Y-1977504D01*
X449102Y-1977504D01*
X347502Y-1977504D01*
X295003Y-2030003D01*
X219999Y-2030003D01*
D10*
X546100Y-1883562D02*
G01*
X545845Y-1936142D01*
X546100Y-2034240D02*
G01*
X545845Y-1981659D01*
X3104641Y-1450393D02*
G01*
X3210049Y-1449885D01*
X3234941Y-1424993D01*
X3635065Y-1424993D01*
X3739964Y-1319999D01*
X3974988Y-1319999D01*
X3104641Y-1500431D02*
G01*
X3704592Y-1500431D01*
X3739989Y-1464995D01*
X3974988Y-1464995D01*
D11*
X3975100Y-1749506D02*
G01*
X3799992Y-1749996D01*
D10*
X3655788Y-1275643D02*
G01*
X3697511Y-1275786D01*
X3750010Y-1223294D01*
X3104641Y-1300535D02*
G01*
X3190491Y-1300535D01*
X3225043Y-1335074D01*
X3479911Y-1335074D01*
X3524994Y-1289992D01*
X3524994Y-1215001D01*
X3589995Y-1150002D01*
X3962400Y-1150002D01*
D11*
X3785108Y-1014971D02*
G01*
X3962400Y-1013706D01*
D10*
X3104690Y-1250497D02*
G01*
X3324496Y-1250497D01*
X3439988Y-1135001D01*
X3439988Y-955006D01*
X3514996Y-880003D01*
X3962400Y-880003D01*
X3584983Y-770001D02*
G01*
X3694968Y-768982D01*
X3694993Y-771718D02*
G01*
X3734991Y-734999D01*
X3962400Y-734877D01*
X2454706Y-1850494D02*
G01*
X2454993Y-1979996D01*
X2405125Y-2030221D01*
X2340102Y-2030221D01*
X2305050Y-2065020D01*
X1750060Y-2065020D01*
X1515110Y-2299970D01*
X845057Y-2299970D01*
X786384Y-2241295D01*
X786384Y-2159507D01*
X2254758Y-1150365D02*
G01*
X2195575Y-1150365D01*
X2140458Y-1095247D01*
X1803400Y-1095247D01*
X3104641Y-1550415D02*
G01*
X3255518Y-1550415D01*
X3314445Y-1609344D01*
X3975100Y-1609344D01*
X3104641Y-1600454D02*
G01*
X3200400Y-1600454D01*
X3294888Y-1694942D01*
X3480054Y-1694942D01*
X3674618Y-1889505D01*
X3975100Y-1889505D01*
X3269995Y-1025397D02*
G01*
X3269995Y-949960D01*
X3299968Y-919987D01*
X3340100Y-919987D01*
X3104641Y-1150620D02*
G01*
X3141472Y-1150620D01*
X3276600Y-1015492D01*
X3104641Y-1650492D02*
G01*
X2994913Y-1649984D01*
X2960115Y-1614931D01*
X3104641Y-1400555D02*
G01*
X2985515Y-1400555D01*
X2954995Y-1369997D01*
X2554706Y-1000455D02*
G01*
X2554706Y-1129708D01*
X2584996Y-1159997D01*
X2554706Y-1850440D02*
G01*
X2554706Y-1740286D01*
X2579994Y-1714997D01*
D13*
G01*
X710006Y-2534996D03*
D14*
G01*
X1209504Y-1599996D03*
G01*
X1100493Y-1599996D03*
D16*
G01*
X820493Y-1599996D03*
G01*
X929505Y-1599996D03*
G01*
X220494Y-1384998D03*
G01*
X329506Y-1384998D03*
D14*
G01*
X2259502Y-1959996D03*
G01*
X2150490Y-1959996D03*
D17*
G01*
X3269993Y-1025491D03*
D18*
G01*
X3269995Y-1134516D03*
D17*
G01*
X2069995Y-1824502D03*
D18*
G01*
X2069998Y-1715490D03*
D16*
G01*
X2330490Y-829998D03*
G01*
X2439502Y-829998D03*
D19*
G01*
X685800Y-377545D03*
G01*
X685800Y-517550D03*
D20*
G01*
X1213002Y-1107947D03*
G01*
X1072997Y-1107947D03*
D21*
G01*
X1337310Y-2149347D03*
G01*
X1337310Y-2022347D03*
G01*
X1337310Y-1895347D03*
G01*
X1337310Y-1768347D03*
G01*
X796289Y-2149347D03*
G01*
X796289Y-2022347D03*
G01*
X796289Y-1895347D03*
G01*
X796289Y-1768347D03*
D22*
G01*
X925804Y-820750D03*
G01*
X1155801Y-820750D03*
G01*
X1385798Y-820750D03*
D23*
G01*
X1155796Y-226745D03*
D24*
G01*
X1739950Y-2459989D03*
G01*
X1879955Y-2459989D03*
G01*
X2019960Y-2459989D03*
G01*
X2159965Y-2459989D03*
D25*
G01*
X3962400Y-733602D03*
G01*
X3962400Y-873607D03*
G01*
X3962400Y-1013612D03*
G01*
X3962400Y-1153617D03*
G01*
X3975100Y-2020036D03*
G01*
X3975100Y-1880057D03*
G01*
X3975100Y-1740052D03*
G01*
X3975100Y-1600047D03*
G01*
X3975100Y-1460042D03*
G01*
X3975100Y-1320037D03*
D24*
G01*
X2344953Y-290068D03*
G01*
X2484932Y-290068D03*
G01*
X2624937Y-290068D03*
G01*
X2764942Y-290068D03*
G01*
X2904947Y-290068D03*
G01*
X3044952Y-290068D03*
D26*
G01*
X2404694Y-1850440D03*
G01*
X2454706Y-1850440D03*
G01*
X2504693Y-1850440D03*
G01*
X2554706Y-1850440D03*
G01*
X2604693Y-1850440D03*
G01*
X2654706Y-1850440D03*
G01*
X2704693Y-1850440D03*
G01*
X2754706Y-1850440D03*
G01*
X2804693Y-1850440D03*
G01*
X2854706Y-1850440D03*
G01*
X2904693Y-1850440D03*
G01*
X2954705Y-1850440D03*
D27*
G01*
X3104692Y-1700453D03*
G01*
X3104692Y-1650441D03*
G01*
X3104692Y-1600454D03*
G01*
X3104692Y-1550441D03*
G01*
X3104692Y-1500454D03*
G01*
X3104692Y-1450441D03*
G01*
X3104692Y-1400454D03*
G01*
X3104692Y-1350441D03*
G01*
X3104692Y-1300454D03*
G01*
X3104692Y-1250442D03*
G01*
X3104692Y-1200454D03*
G01*
X3104692Y-1150442D03*
D26*
G01*
X2954705Y-1000455D03*
G01*
X2904693Y-1000455D03*
G01*
X2854706Y-1000455D03*
G01*
X2804693Y-1000455D03*
G01*
X2754706Y-1000455D03*
G01*
X2704693Y-1000455D03*
G01*
X2654706Y-1000455D03*
G01*
X2604693Y-1000455D03*
G01*
X2554706Y-1000455D03*
G01*
X2504693Y-1000455D03*
G01*
X2454706Y-1000455D03*
G01*
X2404694Y-1000455D03*
D27*
G01*
X2254707Y-1150442D03*
G01*
X2254707Y-1200454D03*
G01*
X2254707Y-1250442D03*
G01*
X2254707Y-1300454D03*
G01*
X2254707Y-1350441D03*
G01*
X2254707Y-1400454D03*
G01*
X2254707Y-1450441D03*
G01*
X2254707Y-1500454D03*
G01*
X2254707Y-1550441D03*
G01*
X2254707Y-1600454D03*
G01*
X2254707Y-1650441D03*
G01*
X2254707Y-1700453D03*
D28*
G01*
X2726207Y-2303195D03*
G01*
X2506192Y-2303195D03*
G01*
X2506192Y-2478201D03*
G01*
X2726207Y-2478176D03*
D29*
G01*
X1676400Y-968298D03*
G01*
X1803400Y-968298D03*
G01*
X1676400Y-1095298D03*
G01*
X1803400Y-1095298D03*
G01*
X1676400Y-1222298D03*
G01*
X1803400Y-1222298D03*
D30*
G01*
X3352825Y-1838096D03*
G01*
X3352825Y-1978101D03*
D31*
G01*
X1776713Y-2259998D03*
G01*
X1863279Y-2259998D03*
D17*
G01*
X3073400Y-2018695D03*
D18*
G01*
X3073400Y-2127707D03*
D17*
G01*
X3213100Y-1866295D03*
D18*
G01*
X3213100Y-1975307D03*
D14*
G01*
X3318405Y-2136701D03*
G01*
X3209394Y-2136701D03*
G01*
X2518305Y-2124001D03*
G01*
X2409294Y-2124001D03*
D16*
G01*
X2688694Y-2124001D03*
G01*
X2797705Y-2124001D03*
D17*
G01*
X1924997Y-1814502D03*
D18*
G01*
X1924989Y-1705482D03*
D32*
G01*
X546100Y-1883576D03*
D33*
G01*
X546100Y-2034235D03*
D31*
G01*
X206716Y-1529999D03*
G01*
X293282Y-1529999D03*
D34*
G01*
X2253278Y-2259998D03*
G01*
X2166712Y-2259998D03*
D35*
G01*
X3694991Y-771719D03*
D36*
G01*
X3694988Y-858291D03*
D35*
G01*
X3749992Y-1223283D03*
D36*
G01*
X3750005Y-1136726D03*
D35*
G01*
X723900Y-1049684D03*
D36*
G01*
X723900Y-963117D03*
D25*
G01*
X219989Y-1889988D03*
G01*
X219989Y-2029993D03*
D37*
G01*
X204978Y-902970D03*
D38*
G01*
X204978Y-1156970D03*
D37*
G01*
X1685036Y-243078D03*
D38*
G01*
X1685036Y-497078D03*
D37*
G01*
X497078Y-1156970D03*
D38*
G01*
X497078Y-902970D03*
D39*
G01*
X1841500Y-1349298D03*
G01*
X1638300Y-1349298D03*
G01*
X1739900Y-841298D03*
D40*
G01*
X324993Y-389991D03*
G01*
X324993Y-2354986D03*
G01*
X3829989Y-394995D03*
G01*
X3829989Y-2353005D03*
D41*
G01*
X939800Y-1044498D03*
G01*
X815009Y-759993D03*
G01*
X812800Y-841298D03*
G01*
X734999Y-764997D03*
G01*
X745007Y-629996D03*
G01*
X812800Y-587298D03*
G01*
X939800Y-1120698D03*
G01*
X2115007Y-1294993D03*
G01*
X2075002Y-1199997D03*
G01*
X1534998Y-1219987D03*
G01*
X1485011Y-2024989D03*
G01*
X2564993Y-870000D03*
G01*
X3085007Y-2240000D03*
G01*
X3210001Y-2240000D03*
G01*
X2929890Y-1724964D03*
G01*
X3225038Y-1734870D03*
G01*
X2815005Y-1724990D03*
G01*
X2675000Y-1705000D03*
G01*
X1579575Y-1064513D03*
G01*
X2680004Y-870000D03*
G01*
X2739999Y-1215009D03*
G01*
X3394989Y-694994D03*
G01*
X2399995Y-1375003D03*
G01*
X2399995Y-1484985D03*
G01*
X1969998Y-2164994D03*
G01*
X2410002Y-1629994D03*
G01*
X2204999Y-2149982D03*
G01*
X2954985Y-1264996D03*
G01*
X2485009Y-734999D03*
G01*
X2020011Y-2254986D03*
G01*
X1215009Y-1289989D03*
G01*
X1215009Y-1489989D03*
G01*
X2669997Y-475005D03*
G01*
X2975000Y-694994D03*
G01*
X2129993Y-694994D03*
G01*
X3255009Y-694994D03*
G01*
X436803Y-1387500D03*
G01*
X934999Y-1499996D03*
G01*
X1094994Y-1499996D03*
G01*
X2859989Y-2480005D03*
G01*
X2404999Y-2199995D03*
G01*
X2899994Y-2184984D03*
G01*
X3485006Y-2240000D03*
G01*
X3799992Y-1750009D03*
G01*
X3785006Y-1015009D03*
G01*
X2369997Y-694994D03*
G01*
X920013Y-154990D03*
G01*
X920013Y-235000D03*
G01*
X920013Y-315010D03*
G01*
X820013Y-1415008D03*
G01*
X584962Y-1639874D03*
G01*
X1775002Y-2159990D03*
G01*
X1929892Y-1935022D03*
G01*
X2185009Y-1875002D03*
G01*
X2240000Y-289991D03*
G01*
X2264994Y-2364994D03*
G01*
X2264994Y-1824989D03*
G01*
X1629994Y-719988D03*
G01*
X3339998Y-919987D03*
G01*
X3655796Y-1275791D03*
G01*
X3585006Y-770001D03*
G01*
X3794988Y-2029993D03*
D42*
G01*
X610006Y-2434996D03*
G01*
X585012Y-2285009D03*
G01*
X494995Y-2554986D03*
G01*
X185013Y-580009D03*
G01*
X515010Y-145008D03*
G01*
X515010Y-264998D03*
G01*
X3710000Y-599998D03*
G01*
X3834993Y-599998D03*
G01*
X3969994Y-599998D03*
G01*
X3650005Y-254990D03*
G01*
X3629990Y-2250008D03*
G01*
X3629990Y-2375001D03*
G01*
X3629990Y-2504998D03*
G01*
X2324988Y-2445004D03*
G01*
X2324988Y-2534996D03*
G01*
X1540002Y-1910003D03*
G01*
X1415008Y-1540002D03*
G01*
X1419987Y-1640001D03*
G01*
X1515008Y-1540002D03*
G01*
X889990Y-2564993D03*
G01*
X1054988Y-1829993D03*
G01*
X1054988Y-1950008D03*
G01*
X1054988Y-2064994D03*
G01*
X2910001Y-1494993D03*
G01*
X2769997Y-1385011D03*
G01*
X2580004Y-1610004D03*
G01*
X2134997Y-834999D03*
G01*
X1899996Y-794994D03*
G01*
X3419983Y-815009D03*
G01*
X1775002Y-1869998D03*
G01*
X1450009Y-205003D03*
G01*
X1450009Y-299999D03*
G01*
X1389989Y-445007D03*
G01*
X1319987Y-519988D03*
G01*
X424992Y-1719986D03*
G01*
X3915003Y-2159990D03*
G01*
X4024985Y-2159990D03*
G01*
X1075004Y-1315008D03*
G01*
X615010Y-705002D03*
G01*
X2489987Y-2604998D03*
G01*
X2729991Y-2599994D03*
G01*
X3419983Y-2599994D03*
G01*
X1605000Y-2585008D03*
G01*
X2960115Y-1614931D03*
G01*
X2954985Y-1369999D03*
G01*
X3139998Y-1045006D03*
G01*
X2585008Y-1159992D03*
G01*
X2580004Y-1715007D03*
G01*
X2864993Y-2359990D03*
G01*
X2985008Y-2609977D03*
G01*
X3124987Y-2380005D03*
G01*
X3119983Y-2515006D03*
G01*
X2769997Y-1494993D03*
G01*
X2769997Y-1605000D03*
G01*
X2450007Y-1215009D03*
G01*
X2580004Y-1494993D03*
G01*
X410006Y-585012D03*
G01*
X115011Y-1629994D03*
G01*
X480009Y-2185009D03*
G01*
X115011Y-2259990D03*
G01*
X1869998Y-205003D03*
G01*
X1380007Y-1259992D03*
G01*
X2694990Y-135001D03*
G01*
X3724986Y-170002D03*
G01*
X3134995Y-845007D03*
M02*
