G04 Layer: BottomLayer*
G04 EasyEDA v6.5.40, 2024-02-03 19:01:27*
G04 629f34bd56064ca5b14c1ddf27600c48,2e16165ee3bb4678bfb3015e44e098b9,10*
G04 Gerber Generator version 0.2*
G04 Scale: 100 percent, Rotated: No, Reflected: No *
G04 Dimensions in millimeters *
G04 leading zeros omitted , absolute positions ,4 integer and 5 decimal *
%FSLAX45Y45*%
%MOMM*%

%ADD10C,0.8000*%
%ADD11C,0.3000*%
%ADD12C,0.5000*%
%ADD13O,2.4999949999999997X0.9999979999999999*%
%ADD14O,0.9999979999999999X2.4999949999999997*%
%ADD15C,1.8000*%
%ADD16C,0.0105*%
%ADD17R,1.8000X1.8000*%
%ADD18C,0.9906*%
%ADD19C,2.5000*%
%ADD20C,0.6000*%
%ADD21C,0.6096*%

%LPD*%
G36*
X865174Y-354990D02*
G01*
X861263Y-354228D01*
X857961Y-352044D01*
X855776Y-348742D01*
X855014Y-344830D01*
X855014Y-115163D01*
X855776Y-111252D01*
X857961Y-108000D01*
X861263Y-105765D01*
X865174Y-105003D01*
X974852Y-105003D01*
X978712Y-105765D01*
X982014Y-108000D01*
X984250Y-111252D01*
X985012Y-115163D01*
X985012Y-344830D01*
X984250Y-348742D01*
X982014Y-352044D01*
X978712Y-354228D01*
X974852Y-354990D01*
G37*

%LPD*%
D10*
X2240000Y-290004D02*
G01*
X3439988Y-290004D01*
X3584996Y-435000D01*
X3584996Y-657598D01*
D11*
X2114997Y-1294998D02*
G01*
X2065002Y-1294998D01*
X1989980Y-1219987D01*
X1989980Y-519998D01*
X2075002Y-1199997D02*
G01*
X2075002Y-1124988D01*
X2270000Y-929990D01*
X2270000Y-519998D01*
X2814998Y-1725000D02*
G01*
X2814998Y-1954999D01*
X2959994Y-2099995D01*
X3219983Y-2099995D01*
X3344999Y-2224999D01*
X3344999Y-2419995D01*
X3225043Y-1734870D02*
G01*
X3344923Y-1614985D01*
X3610000Y-1614985D01*
X2929892Y-1724967D02*
G01*
X3099915Y-1894992D01*
X3610000Y-1894992D01*
X2564991Y-870000D02*
G01*
X2564991Y-734999D01*
X2550007Y-720006D01*
X2550007Y-519998D01*
X3394991Y-694997D02*
G01*
X3394991Y-525010D01*
X2679997Y-870000D02*
G01*
X2834990Y-715007D01*
X2834990Y-524997D01*
X2674876Y-1704901D02*
G01*
X2674876Y-1454962D01*
X2515108Y-1294947D01*
X2275047Y-1294947D01*
X2204999Y-1364995D01*
X1989993Y-1364995D01*
X1719994Y-1094996D01*
X1609996Y-1094996D01*
X1579623Y-1064567D01*
X2400051Y-1484939D02*
G01*
X2210048Y-1674931D01*
X1215009Y-1289989D02*
G01*
X1215009Y-1489991D01*
X1215009Y-1489991D01*
D12*
X2975000Y-694997D02*
G01*
X2975000Y-525010D01*
X2129990Y-694997D02*
G01*
X2129990Y-519998D01*
X3254994Y-694997D02*
G01*
X3254994Y-524997D01*
X3484996Y-2240000D02*
G01*
X3484996Y-2419995D01*
X3799992Y-1749996D02*
G01*
X3794993Y-1754987D01*
X3610000Y-1754987D01*
X2370000Y-694997D02*
G01*
X2409997Y-654992D01*
X2409997Y-519998D01*
D10*
X920000Y-235000D02*
G01*
X497098Y-657895D01*
X497098Y-903003D01*
D11*
X1579623Y-1064567D02*
G01*
X1175004Y-1065077D01*
X819998Y-1414995D01*
X1929892Y-1935027D02*
G01*
X1854969Y-1935027D01*
X1774997Y-2014997D01*
X1774997Y-2159998D01*
X1774997Y-2159998D02*
G01*
X1774880Y-2465120D01*
D10*
X1629996Y-719993D02*
G01*
X1794916Y-719993D01*
X1869950Y-644959D01*
X1869950Y-365051D01*
X1944872Y-290121D01*
X2240023Y-290121D01*
X919987Y-315013D02*
G01*
X1324960Y-719993D01*
X1629996Y-719993D01*
D11*
X3339988Y-920000D02*
G01*
X3584996Y-920483D01*
X3794993Y-2029998D02*
G01*
X3789982Y-2035002D01*
X3609987Y-2035002D01*
D10*
X3655788Y-1275786D02*
G01*
X3974988Y-1594998D01*
X3974988Y-1959998D01*
D11*
X3794993Y-2029998D02*
G01*
X3799992Y-2024999D01*
X3924993Y-2024999D01*
X3974988Y-1974999D01*
X3974988Y-1959998D01*
D10*
X497080Y-903020D02*
G01*
X610107Y-905055D01*
X720092Y-1015039D01*
X720092Y-1274881D01*
X584962Y-1410004D01*
X584962Y-2050089D01*
X1000000Y-2465120D01*
X2021842Y-2465120D01*
D11*
X2265001Y-2364996D02*
G01*
X2164867Y-2465120D01*
X2021842Y-2465120D01*
X2021842Y-2465120D02*
G01*
X2024992Y-2461966D01*
X2024992Y-2374993D01*
X2084994Y-2314996D01*
X2084994Y-2140000D01*
X2265001Y-1959998D01*
X2265001Y-1825000D01*
X2210048Y-1674931D02*
G01*
X2024992Y-1859981D01*
X2024992Y-2109998D01*
X1970001Y-2164996D01*
D10*
X3584996Y-657598D02*
G01*
X3584996Y-1204998D01*
X3655788Y-1275786D01*
D11*
X3329993Y-1439999D02*
G01*
X3334992Y-1434998D01*
X3499993Y-1434998D01*
X2960115Y-1614931D02*
G01*
X3155058Y-1614931D01*
X3329993Y-1439997D01*
X2954995Y-1369999D02*
G01*
X3004987Y-1319999D01*
X3105000Y-1319994D01*
X3144987Y-1280007D01*
X3359988Y-1280007D01*
X2584996Y-1159997D02*
G01*
X2584996Y-1214998D01*
X2664995Y-1294998D01*
X2739897Y-1214881D02*
G01*
X2739897Y-1124965D01*
X3115056Y-750062D01*
X3115056Y-525018D01*
X2664965Y-1294892D02*
G01*
X2780035Y-1294892D01*
X2914898Y-1160015D01*
X3144974Y-1160015D01*
X3219978Y-1085011D01*
X3354984Y-1085011D01*
X2400045Y-1374902D02*
G01*
X2404872Y-1370076D01*
X2439924Y-1370076D01*
X2495041Y-1424939D01*
X2495041Y-1860042D01*
X2204974Y-2150110D01*
X2579877Y-1715007D02*
G01*
X2605024Y-1740154D01*
X2605024Y-2005076D01*
X2864865Y-2264918D01*
X2959861Y-2264918D01*
X2985008Y-2290063D01*
X2985008Y-2420112D01*
D13*
G01*
X3499993Y-1434998D03*
G01*
X3359988Y-1280007D03*
G01*
X3354984Y-1085011D03*
D14*
G01*
X2985008Y-2420010D03*
G01*
X3345002Y-2420010D03*
G01*
X3485006Y-2420010D03*
D13*
G01*
X3610000Y-2034997D03*
G01*
X3610000Y-1894992D03*
G01*
X3610000Y-1754987D03*
G01*
X3610000Y-1614982D03*
D14*
G01*
X2550007Y-520014D03*
G01*
X2410002Y-520014D03*
G01*
X2269997Y-520014D03*
G01*
X2129993Y-520014D03*
G01*
X1989988Y-520014D03*
G01*
X3395014Y-524992D03*
G01*
X3255009Y-524992D03*
G01*
X3115005Y-524992D03*
G01*
X2975000Y-524992D03*
G01*
X2834995Y-524992D03*
D15*
G01*
X204978Y-902970D03*
D17*
G01*
X204978Y-1156970D03*
D15*
G01*
X1685036Y-243078D03*
D17*
G01*
X1685036Y-497078D03*
D15*
G01*
X497078Y-1156970D03*
D17*
G01*
X497078Y-902970D03*
D18*
G01*
X1841500Y-1349298D03*
G01*
X1638300Y-1349298D03*
G01*
X1739900Y-841298D03*
D19*
G01*
X324993Y-389991D03*
G01*
X324993Y-2354986D03*
G01*
X3829989Y-394995D03*
G01*
X3829989Y-2353005D03*
D20*
G01*
X939800Y-1044498D03*
G01*
X815009Y-759993D03*
G01*
X812800Y-841298D03*
G01*
X734999Y-764997D03*
G01*
X745007Y-629996D03*
G01*
X812800Y-587298D03*
G01*
X939800Y-1120698D03*
G01*
X2115007Y-1294993D03*
G01*
X2075002Y-1199997D03*
G01*
X1534998Y-1219987D03*
G01*
X1485011Y-2024989D03*
G01*
X2564993Y-870000D03*
G01*
X3085007Y-2240000D03*
G01*
X3210001Y-2240000D03*
G01*
X2929890Y-1724964D03*
G01*
X3225038Y-1734870D03*
G01*
X2815005Y-1724990D03*
G01*
X2675000Y-1705000D03*
G01*
X1579575Y-1064513D03*
G01*
X2680004Y-870000D03*
G01*
X2739999Y-1215009D03*
G01*
X3394989Y-694994D03*
G01*
X2399995Y-1375003D03*
G01*
X2399995Y-1484985D03*
G01*
X1969998Y-2164994D03*
G01*
X2410002Y-1629994D03*
G01*
X2204999Y-2149982D03*
G01*
X2954985Y-1264996D03*
G01*
X2485009Y-734999D03*
G01*
X2020011Y-2254986D03*
G01*
X1215009Y-1289989D03*
G01*
X1215009Y-1489989D03*
G01*
X2669997Y-475005D03*
G01*
X2975000Y-694994D03*
G01*
X2129993Y-694994D03*
G01*
X3255009Y-694994D03*
G01*
X436803Y-1387500D03*
G01*
X934999Y-1499996D03*
G01*
X1094994Y-1499996D03*
G01*
X2859989Y-2480005D03*
G01*
X2404999Y-2199995D03*
G01*
X2899994Y-2184984D03*
G01*
X3485006Y-2240000D03*
G01*
X3799992Y-1750009D03*
G01*
X3785006Y-1015009D03*
G01*
X2369997Y-694994D03*
G01*
X920013Y-154990D03*
G01*
X920013Y-235000D03*
G01*
X920013Y-315010D03*
G01*
X820013Y-1415008D03*
G01*
X584962Y-1639874D03*
G01*
X1775002Y-2159990D03*
G01*
X1929892Y-1935022D03*
G01*
X2185009Y-1875002D03*
G01*
X2240000Y-289991D03*
G01*
X2264994Y-2364994D03*
G01*
X2264994Y-1824989D03*
G01*
X1629994Y-719988D03*
G01*
X3339998Y-919987D03*
G01*
X3655796Y-1275791D03*
G01*
X3585006Y-770001D03*
G01*
X3794988Y-2029993D03*
D21*
G01*
X610006Y-2434996D03*
G01*
X585012Y-2285009D03*
G01*
X494995Y-2554986D03*
G01*
X185013Y-580009D03*
G01*
X515010Y-145008D03*
G01*
X515010Y-264998D03*
G01*
X3710000Y-599998D03*
G01*
X3834993Y-599998D03*
G01*
X3969994Y-599998D03*
G01*
X3650005Y-254990D03*
G01*
X3629990Y-2250008D03*
G01*
X3629990Y-2375001D03*
G01*
X3629990Y-2504998D03*
G01*
X2324988Y-2445004D03*
G01*
X2324988Y-2534996D03*
G01*
X1540002Y-1910003D03*
G01*
X1415008Y-1540002D03*
G01*
X1419987Y-1640001D03*
G01*
X1515008Y-1540002D03*
G01*
X889990Y-2564993D03*
G01*
X1054988Y-1829993D03*
G01*
X1054988Y-1950008D03*
G01*
X1054988Y-2064994D03*
G01*
X2910001Y-1494993D03*
G01*
X2769997Y-1385011D03*
G01*
X2580004Y-1610004D03*
G01*
X2134997Y-834999D03*
G01*
X1899996Y-794994D03*
G01*
X3419983Y-815009D03*
G01*
X1775002Y-1869998D03*
G01*
X1450009Y-205003D03*
G01*
X1450009Y-299999D03*
G01*
X1389989Y-445007D03*
G01*
X1319987Y-519988D03*
G01*
X424992Y-1719986D03*
G01*
X3915003Y-2159990D03*
G01*
X4024985Y-2159990D03*
G01*
X1075004Y-1315008D03*
G01*
X615010Y-705002D03*
G01*
X2489987Y-2604998D03*
G01*
X2729991Y-2599994D03*
G01*
X3419983Y-2599994D03*
G01*
X1605000Y-2585008D03*
G01*
X2960115Y-1614931D03*
G01*
X2954985Y-1369999D03*
G01*
X3139998Y-1045006D03*
G01*
X2585008Y-1159992D03*
G01*
X2580004Y-1715007D03*
G01*
X2864993Y-2359990D03*
G01*
X2985008Y-2609977D03*
G01*
X3124987Y-2380005D03*
G01*
X3119983Y-2515006D03*
G01*
X2769997Y-1494993D03*
G01*
X2769997Y-1605000D03*
G01*
X2450007Y-1215009D03*
G01*
X2580004Y-1494993D03*
G01*
X410006Y-585012D03*
G01*
X115011Y-1629994D03*
G01*
X480009Y-2185009D03*
G01*
X115011Y-2259990D03*
G01*
X1869998Y-205003D03*
G01*
X1380007Y-1259992D03*
G01*
X2694990Y-135001D03*
G01*
X3724986Y-170002D03*
G01*
X3134995Y-845007D03*
M02*
