G04 Layer: TopPasteMaskLayer*
G04 EasyEDA v6.5.40, 2024-02-03 19:01:27*
G04 629f34bd56064ca5b14c1ddf27600c48,2e16165ee3bb4678bfb3015e44e098b9,10*
G04 Gerber Generator version 0.2*
G04 Scale: 100 percent, Rotated: No, Reflected: No *
G04 Dimensions in millimeters *
G04 leading zeros omitted , absolute positions ,4 integer and 5 decimal *
%FSLAX45Y45*%
%MOMM*%

%AMMACRO1*21,1,$1,$2,0,0,$3*%
%ADD10C,1.5240*%
%ADD11R,0.9000X0.8000*%
%ADD12R,0.8000X0.9000*%
%ADD13O,1.950212X0.5684012*%
%ADD14R,1.1000X2.5000*%
%ADD15MACRO1,3.5999X2.3398X0.0000*%
%ADD16O,0.9999979999999999X2.4999949999999997*%
%ADD17O,0.0158X2.4999949999999997*%
%ADD18O,2.4999949999999997X0.9999979999999999*%
%ADD19O,0.27000199999999996X1.499997*%
%ADD20O,1.499997X0.27000199999999996*%
%ADD21R,1.4000X1.2000*%
%ADD22C,0.7874*%

%LPD*%
G36*
X1179982Y-1572514D02*
G01*
X1175004Y-1577492D01*
X1175004Y-1622501D01*
X1179982Y-1627479D01*
X1233017Y-1627479D01*
X1237996Y-1622501D01*
X1237996Y-1577492D01*
X1233017Y-1572514D01*
G37*
G36*
X1077010Y-1572514D02*
G01*
X1071981Y-1577492D01*
X1071981Y-1622501D01*
X1077010Y-1627479D01*
X1129995Y-1627479D01*
X1135024Y-1622501D01*
X1135024Y-1577492D01*
X1129995Y-1572514D01*
G37*
G36*
X797001Y-1572514D02*
G01*
X792022Y-1577492D01*
X792022Y-1622501D01*
X797001Y-1627479D01*
X849985Y-1627479D01*
X855014Y-1622501D01*
X855014Y-1577492D01*
X849985Y-1572514D01*
G37*
G36*
X899972Y-1572514D02*
G01*
X894994Y-1577492D01*
X894994Y-1622501D01*
X899972Y-1627479D01*
X953008Y-1627479D01*
X957986Y-1622501D01*
X957986Y-1577492D01*
X953008Y-1572514D01*
G37*
G36*
X197002Y-1357477D02*
G01*
X192024Y-1362506D01*
X192024Y-1407515D01*
X197002Y-1412494D01*
X249986Y-1412494D01*
X255016Y-1407515D01*
X255016Y-1362506D01*
X249986Y-1357477D01*
G37*
G36*
X299974Y-1357477D02*
G01*
X294995Y-1362506D01*
X294995Y-1407515D01*
X299974Y-1412494D01*
X353009Y-1412494D01*
X357987Y-1407515D01*
X357987Y-1362506D01*
X353009Y-1357477D01*
G37*
G36*
X2230018Y-1932482D02*
G01*
X2224989Y-1937512D01*
X2224989Y-1982520D01*
X2230018Y-1987499D01*
X2283002Y-1987499D01*
X2287981Y-1982520D01*
X2287981Y-1937512D01*
X2283002Y-1932482D01*
G37*
G36*
X2126996Y-1932482D02*
G01*
X2122017Y-1937512D01*
X2122017Y-1982520D01*
X2126996Y-1987499D01*
X2179980Y-1987499D01*
X2185009Y-1982520D01*
X2185009Y-1937512D01*
X2179980Y-1932482D01*
G37*
G36*
X3247491Y-997000D02*
G01*
X3242513Y-1001979D01*
X3242513Y-1055014D01*
X3247491Y-1059992D01*
X3292500Y-1059992D01*
X3297478Y-1055014D01*
X3297478Y-1001979D01*
X3292500Y-997000D01*
G37*
G36*
X3247491Y-1099972D02*
G01*
X3242513Y-1105001D01*
X3242513Y-1157986D01*
X3247491Y-1163015D01*
X3292500Y-1163015D01*
X3297478Y-1157986D01*
X3297478Y-1105001D01*
X3292500Y-1099972D01*
G37*
G36*
X2047493Y-1789988D02*
G01*
X2042515Y-1795018D01*
X2042515Y-1848002D01*
X2047493Y-1852980D01*
X2092502Y-1852980D01*
X2097481Y-1848002D01*
X2097481Y-1795018D01*
X2092502Y-1789988D01*
G37*
G36*
X2047493Y-1687017D02*
G01*
X2042515Y-1691995D01*
X2042515Y-1744980D01*
X2047493Y-1750009D01*
X2092502Y-1750009D01*
X2097481Y-1744980D01*
X2097481Y-1691995D01*
X2092502Y-1687017D01*
G37*
G36*
X2306980Y-802487D02*
G01*
X2302002Y-807516D01*
X2302002Y-852474D01*
X2306980Y-857503D01*
X2360015Y-857503D01*
X2364994Y-852474D01*
X2364994Y-807516D01*
X2360015Y-802487D01*
G37*
G36*
X2410002Y-802487D02*
G01*
X2404973Y-807516D01*
X2404973Y-852474D01*
X2410002Y-857503D01*
X2462987Y-857503D01*
X2468016Y-852474D01*
X2468016Y-807516D01*
X2462987Y-802487D01*
G37*
G36*
X3316478Y-1798777D02*
G01*
X3310077Y-1805178D01*
X3310077Y-1855520D01*
X3339439Y-1882952D01*
X3367074Y-1882952D01*
X3396487Y-1855520D01*
X3396487Y-1805178D01*
X3390087Y-1798777D01*
G37*
G36*
X3340557Y-1934514D02*
G01*
X3311194Y-1961946D01*
X3311194Y-2012238D01*
X3317595Y-2018639D01*
X3391204Y-2018639D01*
X3397605Y-2012238D01*
X3397605Y-1961946D01*
X3368243Y-1934514D01*
G37*
G36*
X1752447Y-2233015D02*
G01*
X1748434Y-2236978D01*
X1748434Y-2283002D01*
X1752447Y-2287016D01*
X1802485Y-2287016D01*
X1806498Y-2283002D01*
X1806498Y-2236978D01*
X1802485Y-2233015D01*
G37*
G36*
X1837486Y-2233015D02*
G01*
X1833473Y-2236978D01*
X1833473Y-2283002D01*
X1837486Y-2287016D01*
X1887575Y-2287016D01*
X1891538Y-2283002D01*
X1891538Y-2236978D01*
X1887575Y-2233015D01*
G37*
G36*
X3050895Y-2091182D02*
G01*
X3045917Y-2098192D01*
X3045917Y-2146198D01*
X3050895Y-2151227D01*
X3095904Y-2151227D01*
X3100882Y-2146198D01*
X3100882Y-2098192D01*
X3095904Y-2091182D01*
G37*
G36*
X3050895Y-1995220D02*
G01*
X3045917Y-2000199D01*
X3045917Y-2048205D01*
X3050895Y-2055215D01*
X3095904Y-2055215D01*
X3100882Y-2048205D01*
X3100882Y-2000199D01*
X3095904Y-1995220D01*
G37*
G36*
X3190595Y-1938782D02*
G01*
X3185617Y-1945792D01*
X3185617Y-1993798D01*
X3190595Y-1998827D01*
X3235604Y-1998827D01*
X3240582Y-1993798D01*
X3240582Y-1945792D01*
X3235604Y-1938782D01*
G37*
G36*
X3190595Y-1842820D02*
G01*
X3185617Y-1847799D01*
X3185617Y-1895805D01*
X3190595Y-1902815D01*
X3235604Y-1902815D01*
X3240582Y-1895805D01*
X3240582Y-1847799D01*
X3235604Y-1842820D01*
G37*
G36*
X3190900Y-2109216D02*
G01*
X3185922Y-2114194D01*
X3185922Y-2159203D01*
X3190900Y-2164181D01*
X3238906Y-2164181D01*
X3245916Y-2159203D01*
X3245916Y-2114194D01*
X3238906Y-2109216D01*
G37*
G36*
X3288893Y-2109216D02*
G01*
X3281883Y-2114194D01*
X3281883Y-2159203D01*
X3288893Y-2164181D01*
X3336899Y-2164181D01*
X3341878Y-2159203D01*
X3341878Y-2114194D01*
X3336899Y-2109216D01*
G37*
G36*
X2390800Y-2096516D02*
G01*
X2385822Y-2101494D01*
X2385822Y-2146503D01*
X2390800Y-2151481D01*
X2438806Y-2151481D01*
X2445816Y-2146503D01*
X2445816Y-2101494D01*
X2438806Y-2096516D01*
G37*
G36*
X2488793Y-2096516D02*
G01*
X2481783Y-2101494D01*
X2481783Y-2146503D01*
X2488793Y-2151481D01*
X2536799Y-2151481D01*
X2541778Y-2146503D01*
X2541778Y-2101494D01*
X2536799Y-2096516D01*
G37*
G36*
X2768193Y-2096516D02*
G01*
X2761183Y-2101494D01*
X2761183Y-2146503D01*
X2768193Y-2151481D01*
X2816199Y-2151481D01*
X2821178Y-2146503D01*
X2821178Y-2101494D01*
X2816199Y-2096516D01*
G37*
G36*
X2670200Y-2096516D02*
G01*
X2665222Y-2101494D01*
X2665222Y-2146503D01*
X2670200Y-2151481D01*
X2718206Y-2151481D01*
X2725216Y-2146503D01*
X2725216Y-2101494D01*
X2718206Y-2096516D01*
G37*
G36*
X1902510Y-1681988D02*
G01*
X1897481Y-1687017D01*
X1897481Y-1734972D01*
X1902510Y-1741982D01*
X1947519Y-1741982D01*
X1952498Y-1734972D01*
X1952498Y-1687017D01*
X1947519Y-1681988D01*
G37*
G36*
X1902510Y-1778000D02*
G01*
X1897481Y-1785010D01*
X1897481Y-1833016D01*
X1902510Y-1837994D01*
X1947519Y-1837994D01*
X1952498Y-1833016D01*
X1952498Y-1785010D01*
X1947519Y-1778000D01*
G37*
G36*
X506120Y-1834388D02*
G01*
X501091Y-1839417D01*
X501091Y-1919376D01*
X506120Y-1924405D01*
X528878Y-1924405D01*
X528878Y-1887423D01*
X561898Y-1887423D01*
X561898Y-1924405D01*
X586079Y-1924405D01*
X591108Y-1919376D01*
X591108Y-1839417D01*
X586079Y-1834388D01*
G37*
G36*
X506120Y-1994407D02*
G01*
X501091Y-1999386D01*
X501091Y-2078380D01*
X506120Y-2083409D01*
X586079Y-2083409D01*
X591108Y-2078380D01*
X591108Y-1999386D01*
X586079Y-1994407D01*
X561898Y-1994407D01*
X561898Y-2032406D01*
X528878Y-2032406D01*
X528878Y-1994407D01*
G37*
G36*
X182422Y-1503019D02*
G01*
X178460Y-1506982D01*
X178460Y-1553006D01*
X182422Y-1557020D01*
X232511Y-1557020D01*
X236524Y-1553006D01*
X236524Y-1506982D01*
X232511Y-1503019D01*
G37*
G36*
X267512Y-1503019D02*
G01*
X263499Y-1506982D01*
X263499Y-1553006D01*
X267512Y-1557020D01*
X317550Y-1557020D01*
X321564Y-1553006D01*
X321564Y-1506982D01*
X317550Y-1503019D01*
G37*
G36*
X2227478Y-2233015D02*
G01*
X2223516Y-2236978D01*
X2223516Y-2283002D01*
X2227478Y-2287016D01*
X2277567Y-2287016D01*
X2281580Y-2283002D01*
X2281580Y-2236978D01*
X2277567Y-2233015D01*
G37*
G36*
X2142439Y-2233015D02*
G01*
X2138426Y-2236978D01*
X2138426Y-2283002D01*
X2142439Y-2287016D01*
X2192477Y-2287016D01*
X2196490Y-2283002D01*
X2196490Y-2236978D01*
X2192477Y-2233015D01*
G37*
G36*
X3671976Y-743458D02*
G01*
X3668014Y-747420D01*
X3668014Y-797509D01*
X3671976Y-801522D01*
X3718001Y-801522D01*
X3722014Y-797509D01*
X3722014Y-747420D01*
X3718001Y-743458D01*
G37*
G36*
X3671976Y-828497D02*
G01*
X3668014Y-832510D01*
X3668014Y-882548D01*
X3671976Y-886561D01*
X3718001Y-886561D01*
X3722014Y-882548D01*
X3722014Y-832510D01*
X3718001Y-828497D01*
G37*
G36*
X3726992Y-1193495D02*
G01*
X3722979Y-1197508D01*
X3722979Y-1247546D01*
X3726992Y-1251559D01*
X3772966Y-1251559D01*
X3776979Y-1247546D01*
X3776979Y-1197508D01*
X3772966Y-1193495D01*
G37*
G36*
X3726992Y-1108456D02*
G01*
X3722979Y-1112418D01*
X3722979Y-1162507D01*
X3726992Y-1166520D01*
X3772966Y-1166520D01*
X3776979Y-1162507D01*
X3776979Y-1112418D01*
X3772966Y-1108456D01*
G37*
G36*
X700887Y-1019911D02*
G01*
X696874Y-1023924D01*
X696874Y-1073962D01*
X700887Y-1077976D01*
X746912Y-1077976D01*
X750925Y-1073962D01*
X750925Y-1023924D01*
X746912Y-1019911D01*
G37*
G36*
X700887Y-934821D02*
G01*
X696874Y-938834D01*
X696874Y-988923D01*
X700887Y-992886D01*
X746912Y-992886D01*
X750925Y-988923D01*
X750925Y-938834D01*
X746912Y-934821D01*
G37*
D10*
G01*
X710006Y-2534996D03*
D11*
G01*
X685800Y-377545D03*
G01*
X685800Y-517550D03*
D12*
G01*
X1213002Y-1107947D03*
G01*
X1072997Y-1107947D03*
D13*
G01*
X1337310Y-2149347D03*
G01*
X1337310Y-2022347D03*
G01*
X1337310Y-1895347D03*
G01*
X1337310Y-1768347D03*
G01*
X796289Y-2149347D03*
G01*
X796289Y-2022347D03*
G01*
X796289Y-1895347D03*
G01*
X796289Y-1768347D03*
D14*
G01*
X925804Y-820750D03*
G01*
X1155801Y-820750D03*
G01*
X1385798Y-820750D03*
D15*
G01*
X1155788Y-226745D03*
D16*
G01*
X1739950Y-2459989D03*
G01*
X1879955Y-2459989D03*
G01*
X2019960Y-2459989D03*
G01*
X2159965Y-2459989D03*
D18*
G01*
X3962400Y-733602D03*
G01*
X3962400Y-873607D03*
G01*
X3962400Y-1013612D03*
G01*
X3962400Y-1153617D03*
G01*
X3975100Y-2020036D03*
G01*
X3975100Y-1880057D03*
G01*
X3975100Y-1740052D03*
G01*
X3975100Y-1600047D03*
G01*
X3975100Y-1460042D03*
G01*
X3975100Y-1320037D03*
D16*
G01*
X2344953Y-290068D03*
G01*
X2484932Y-290068D03*
G01*
X2624937Y-290068D03*
G01*
X2764942Y-290068D03*
G01*
X2904947Y-290068D03*
G01*
X3044952Y-290068D03*
D19*
G01*
X2404694Y-1850440D03*
G01*
X2454706Y-1850440D03*
G01*
X2504693Y-1850440D03*
G01*
X2554706Y-1850440D03*
G01*
X2604693Y-1850440D03*
G01*
X2654706Y-1850440D03*
G01*
X2704693Y-1850440D03*
G01*
X2754706Y-1850440D03*
G01*
X2804693Y-1850440D03*
G01*
X2854706Y-1850440D03*
G01*
X2904693Y-1850440D03*
G01*
X2954705Y-1850440D03*
D20*
G01*
X3104692Y-1700453D03*
G01*
X3104692Y-1650441D03*
G01*
X3104692Y-1600454D03*
G01*
X3104692Y-1550441D03*
G01*
X3104692Y-1500454D03*
G01*
X3104692Y-1450441D03*
G01*
X3104692Y-1400454D03*
G01*
X3104692Y-1350441D03*
G01*
X3104692Y-1300454D03*
G01*
X3104692Y-1250442D03*
G01*
X3104692Y-1200454D03*
G01*
X3104692Y-1150442D03*
D19*
G01*
X2954705Y-1000455D03*
G01*
X2904693Y-1000455D03*
G01*
X2854706Y-1000455D03*
G01*
X2804693Y-1000455D03*
G01*
X2754706Y-1000455D03*
G01*
X2704693Y-1000455D03*
G01*
X2654706Y-1000455D03*
G01*
X2604693Y-1000455D03*
G01*
X2554706Y-1000455D03*
G01*
X2504693Y-1000455D03*
G01*
X2454706Y-1000455D03*
G01*
X2404694Y-1000455D03*
D20*
G01*
X2254707Y-1150442D03*
G01*
X2254707Y-1200454D03*
G01*
X2254707Y-1250442D03*
G01*
X2254707Y-1300454D03*
G01*
X2254707Y-1350441D03*
G01*
X2254707Y-1400454D03*
G01*
X2254707Y-1450441D03*
G01*
X2254707Y-1500454D03*
G01*
X2254707Y-1550441D03*
G01*
X2254707Y-1600454D03*
G01*
X2254707Y-1650441D03*
G01*
X2254707Y-1700453D03*
D21*
G01*
X2726207Y-2303195D03*
G01*
X2506192Y-2303195D03*
G01*
X2506192Y-2478201D03*
G01*
X2726207Y-2478176D03*
D22*
G01*
X1676400Y-968298D03*
G01*
X1803400Y-968298D03*
G01*
X1676400Y-1095298D03*
G01*
X1803400Y-1095298D03*
G01*
X1676400Y-1222298D03*
G01*
X1803400Y-1222298D03*
D18*
G01*
X219989Y-1889988D03*
G01*
X219989Y-2029993D03*
M02*
