G04 Layer: TopSilkscreenLayer*
G04 EasyEDA v6.5.40, 2024-02-03 19:01:27*
G04 629f34bd56064ca5b14c1ddf27600c48,2e16165ee3bb4678bfb3015e44e098b9,10*
G04 Gerber Generator version 0.2*
G04 Scale: 100 percent, Rotated: No, Reflected: No *
G04 Dimensions in millimeters *
G04 leading zeros omitted , absolute positions ,4 integer and 5 decimal *
%FSLAX45Y45*%
%MOMM*%

%ADD10C,0.1600*%
%ADD11C,0.1524*%
%ADD12C,0.2540*%
%ADD13C,0.2000*%
%ADD14C,0.1520*%
%ADD15C,0.1200*%
%ADD16C,0.4000*%
%ADD17C,0.3000*%
%ADD18C,0.0105*%

%LPD*%
D10*
X1904464Y-469069D02*
G01*
X1858998Y-469069D01*
X1854426Y-509963D01*
X1858998Y-505391D01*
X1872714Y-500819D01*
X1886430Y-500819D01*
X1899892Y-505391D01*
X1909036Y-514535D01*
X1913608Y-528251D01*
X1913608Y-537395D01*
X1909036Y-550857D01*
X1899892Y-560001D01*
X1886430Y-564573D01*
X1872714Y-564573D01*
X1858998Y-560001D01*
X1854426Y-555429D01*
X1850108Y-546285D01*
X1943580Y-469069D02*
G01*
X1979902Y-564573D01*
X2016478Y-469069D02*
G01*
X1979902Y-564573D01*
X1918177Y-216915D02*
G01*
X1913605Y-207771D01*
X1904461Y-198628D01*
X1895571Y-194055D01*
X1877283Y-194055D01*
X1868139Y-198628D01*
X1858995Y-207771D01*
X1854677Y-216915D01*
X1850105Y-230631D01*
X1850105Y-253237D01*
X1854677Y-266954D01*
X1858995Y-276097D01*
X1868139Y-284987D01*
X1877283Y-289560D01*
X1895571Y-289560D01*
X1904461Y-284987D01*
X1913605Y-276097D01*
X1918177Y-266954D01*
X1918177Y-253237D01*
X1895571Y-253237D02*
G01*
X1918177Y-253237D01*
X1948149Y-194055D02*
G01*
X1948149Y-289560D01*
X1948149Y-194055D02*
G01*
X2011903Y-289560D01*
X2011903Y-194055D02*
G01*
X2011903Y-289560D01*
X2041875Y-194055D02*
G01*
X2041875Y-289560D01*
X2041875Y-194055D02*
G01*
X2073625Y-194055D01*
X2087341Y-198628D01*
X2096485Y-207771D01*
X2100803Y-216915D01*
X2105375Y-230631D01*
X2105375Y-253237D01*
X2100803Y-266954D01*
X2096485Y-276097D01*
X2087341Y-284987D01*
X2073625Y-289560D01*
X2041875Y-289560D01*
X70114Y-639132D02*
G01*
X70114Y-734636D01*
X70114Y-639132D02*
G01*
X111008Y-639132D01*
X124470Y-643704D01*
X129042Y-648276D01*
X133614Y-657166D01*
X133614Y-666310D01*
X129042Y-675454D01*
X124470Y-680026D01*
X111008Y-684598D01*
X70114Y-684598D01*
X101864Y-684598D02*
G01*
X133614Y-734636D01*
X227340Y-652848D02*
G01*
X218196Y-643704D01*
X204480Y-639132D01*
X186446Y-639132D01*
X172730Y-643704D01*
X163586Y-652848D01*
X163586Y-661738D01*
X168158Y-670882D01*
X172730Y-675454D01*
X181874Y-680026D01*
X209052Y-689170D01*
X218196Y-693742D01*
X222768Y-698060D01*
X227340Y-707204D01*
X227340Y-720920D01*
X218196Y-730064D01*
X204480Y-734636D01*
X186446Y-734636D01*
X172730Y-730064D01*
X163586Y-720920D01*
X289062Y-639132D02*
G01*
X289062Y-734636D01*
X257312Y-639132D02*
G01*
X320812Y-639132D01*
X379984Y-639063D02*
G01*
X379984Y-734568D01*
X379984Y-639063D02*
G01*
X420878Y-639063D01*
X434594Y-643636D01*
X439165Y-648207D01*
X443737Y-657352D01*
X443737Y-666495D01*
X439165Y-675386D01*
X434594Y-679957D01*
X420878Y-684529D01*
X379984Y-684529D02*
G01*
X420878Y-684529D01*
X434594Y-689102D01*
X439165Y-693673D01*
X443737Y-702818D01*
X443737Y-716279D01*
X439165Y-725423D01*
X434594Y-729995D01*
X420878Y-734568D01*
X379984Y-734568D01*
X500887Y-639063D02*
G01*
X487171Y-643636D01*
X478281Y-657352D01*
X473710Y-679957D01*
X473710Y-693673D01*
X478281Y-716279D01*
X487171Y-729995D01*
X500887Y-734568D01*
X510031Y-734568D01*
X523747Y-729995D01*
X532637Y-716279D01*
X537210Y-693673D01*
X537210Y-679957D01*
X532637Y-657352D01*
X523747Y-643636D01*
X510031Y-639063D01*
X500887Y-639063D01*
X138176Y-1716786D02*
G01*
X133604Y-1707642D01*
X124460Y-1698752D01*
X115570Y-1694179D01*
X97281Y-1694179D01*
X88137Y-1698752D01*
X78994Y-1707642D01*
X74421Y-1716786D01*
X70104Y-1730502D01*
X70104Y-1753107D01*
X74421Y-1766823D01*
X78994Y-1775968D01*
X88137Y-1785112D01*
X97281Y-1789429D01*
X115570Y-1789429D01*
X124460Y-1785112D01*
X133604Y-1775968D01*
X138176Y-1766823D01*
X204470Y-1694179D02*
G01*
X168147Y-1789429D01*
X204470Y-1694179D02*
G01*
X240792Y-1789429D01*
X181863Y-1757679D02*
G01*
X227329Y-1757679D01*
X271018Y-1694179D02*
G01*
X271018Y-1789429D01*
X271018Y-1694179D02*
G01*
X334518Y-1789429D01*
X334518Y-1694179D02*
G01*
X334518Y-1789429D01*
X364489Y-1694179D02*
G01*
X364489Y-1789429D01*
X364489Y-1789429D02*
G01*
X419100Y-1789429D01*
X138176Y-2131821D02*
G01*
X133604Y-2122931D01*
X124713Y-2113787D01*
X115570Y-2109215D01*
X97281Y-2109215D01*
X88137Y-2113787D01*
X79247Y-2122931D01*
X74676Y-2131821D01*
X70104Y-2145537D01*
X70104Y-2168397D01*
X74676Y-2181860D01*
X79247Y-2191004D01*
X88137Y-2200147D01*
X97281Y-2204720D01*
X115570Y-2204720D01*
X124713Y-2200147D01*
X133604Y-2191004D01*
X138176Y-2181860D01*
X204723Y-2109215D02*
G01*
X168147Y-2204720D01*
X204723Y-2109215D02*
G01*
X241045Y-2204720D01*
X181863Y-2172715D02*
G01*
X227329Y-2172715D01*
X271018Y-2109215D02*
G01*
X271018Y-2204720D01*
X271018Y-2109215D02*
G01*
X334518Y-2204720D01*
X334518Y-2109215D02*
G01*
X334518Y-2204720D01*
X364744Y-2109215D02*
G01*
X364744Y-2204720D01*
X428244Y-2109215D02*
G01*
X428244Y-2204720D01*
X364744Y-2154681D02*
G01*
X428244Y-2154681D01*
X1617296Y-2408417D02*
G01*
X1626440Y-2399273D01*
X1630758Y-2385811D01*
X1630758Y-2367523D01*
X1626440Y-2353807D01*
X1617296Y-2344917D01*
X1608152Y-2344917D01*
X1599008Y-2349489D01*
X1594436Y-2353807D01*
X1589864Y-2362951D01*
X1580974Y-2390383D01*
X1576402Y-2399273D01*
X1571830Y-2403845D01*
X1562686Y-2408417D01*
X1548970Y-2408417D01*
X1540080Y-2399273D01*
X1535508Y-2385811D01*
X1535508Y-2367523D01*
X1540080Y-2353807D01*
X1548970Y-2344917D01*
X1608152Y-2506715D02*
G01*
X1617296Y-2502143D01*
X1626440Y-2492999D01*
X1630758Y-2483855D01*
X1630758Y-2465821D01*
X1626440Y-2456677D01*
X1617296Y-2447533D01*
X1608152Y-2442961D01*
X1594436Y-2438389D01*
X1571830Y-2438389D01*
X1558114Y-2442961D01*
X1548970Y-2447533D01*
X1540080Y-2456677D01*
X1535508Y-2465821D01*
X1535508Y-2483855D01*
X1540080Y-2492999D01*
X1548970Y-2502143D01*
X1558114Y-2506715D01*
X1630758Y-2536687D02*
G01*
X1535508Y-2536687D01*
X1535508Y-2536687D02*
G01*
X1535508Y-2591297D01*
X1471434Y-2412994D02*
G01*
X1480576Y-2408420D01*
X1489715Y-2399284D01*
X1494287Y-2390381D01*
X1494287Y-2372100D01*
X1489715Y-2362956D01*
X1480576Y-2353810D01*
X1471434Y-2349497D01*
X1457718Y-2344920D01*
X1435117Y-2344920D01*
X1421399Y-2349497D01*
X1412247Y-2353810D01*
X1403367Y-2362956D01*
X1398785Y-2372100D01*
X1398785Y-2390381D01*
X1403367Y-2399284D01*
X1412247Y-2408420D01*
X1421399Y-2412994D01*
X1435117Y-2412994D01*
X1435117Y-2390381D02*
G01*
X1435117Y-2412994D01*
X1494287Y-2442961D02*
G01*
X1398785Y-2442961D01*
X1494287Y-2442961D02*
G01*
X1398785Y-2506723D01*
X1494287Y-2506723D02*
G01*
X1398785Y-2506723D01*
X1494287Y-2536692D02*
G01*
X1398785Y-2536692D01*
X1494287Y-2536692D02*
G01*
X1494287Y-2568442D01*
X1489715Y-2582148D01*
X1480576Y-2591297D01*
X1471434Y-2595608D01*
X1457718Y-2600192D01*
X1435117Y-2600192D01*
X1421399Y-2595608D01*
X1412247Y-2591297D01*
X1403367Y-2582148D01*
X1398785Y-2568442D01*
X1398785Y-2536692D01*
X1344112Y-2408417D02*
G01*
X1353002Y-2399273D01*
X1357574Y-2385811D01*
X1357574Y-2367523D01*
X1353002Y-2353807D01*
X1344112Y-2344917D01*
X1334968Y-2344917D01*
X1325824Y-2349235D01*
X1321252Y-2353807D01*
X1316680Y-2362951D01*
X1307536Y-2390383D01*
X1302964Y-2399273D01*
X1298646Y-2403845D01*
X1289502Y-2408417D01*
X1275786Y-2408417D01*
X1266642Y-2399273D01*
X1262070Y-2385811D01*
X1262070Y-2367523D01*
X1266642Y-2353807D01*
X1275786Y-2344917D01*
X1357574Y-2438389D02*
G01*
X1262070Y-2438389D01*
X1357574Y-2438389D02*
G01*
X1357574Y-2470139D01*
X1353002Y-2483855D01*
X1344112Y-2492999D01*
X1334968Y-2497571D01*
X1321252Y-2502143D01*
X1298646Y-2502143D01*
X1284930Y-2497571D01*
X1275786Y-2492999D01*
X1266642Y-2483855D01*
X1262070Y-2470139D01*
X1262070Y-2438389D01*
X1357574Y-2568437D02*
G01*
X1262070Y-2532115D01*
X1357574Y-2568437D02*
G01*
X1262070Y-2604759D01*
X1294074Y-2545831D02*
G01*
X1294074Y-2591297D01*
X1220861Y-2354061D02*
G01*
X1220861Y-2404099D01*
X1184539Y-2376921D01*
X1184539Y-2390383D01*
X1179967Y-2399527D01*
X1175395Y-2404099D01*
X1161933Y-2408671D01*
X1152789Y-2408671D01*
X1139073Y-2404099D01*
X1129929Y-2394955D01*
X1125357Y-2381239D01*
X1125357Y-2367777D01*
X1129929Y-2354061D01*
X1134501Y-2349489D01*
X1143645Y-2344917D01*
X1220861Y-2438643D02*
G01*
X1125357Y-2474965D01*
X1220861Y-2511287D02*
G01*
X1125357Y-2474965D01*
X1220861Y-2550403D02*
G01*
X1220861Y-2600441D01*
X1184539Y-2573263D01*
X1184539Y-2586725D01*
X1179967Y-2595869D01*
X1175395Y-2600441D01*
X1161933Y-2605013D01*
X1152789Y-2605013D01*
X1139073Y-2600441D01*
X1129929Y-2591297D01*
X1125357Y-2577835D01*
X1125357Y-2564119D01*
X1129929Y-2550403D01*
X1134501Y-2545831D01*
X1143645Y-2541259D01*
X1875091Y-854156D02*
G01*
X1875091Y-949660D01*
X1875091Y-854156D02*
G01*
X1906841Y-854156D01*
X1920557Y-858728D01*
X1929447Y-867618D01*
X1934019Y-876762D01*
X1938591Y-890478D01*
X1938591Y-913084D01*
X1934019Y-926800D01*
X1929447Y-935944D01*
X1920557Y-945088D01*
X1906841Y-949660D01*
X1875091Y-949660D01*
X1968563Y-854156D02*
G01*
X1968563Y-949660D01*
X2025967Y-854156D02*
G01*
X2016823Y-858728D01*
X2007679Y-867618D01*
X2003107Y-876762D01*
X1998535Y-890478D01*
X1998535Y-913084D01*
X2003107Y-926800D01*
X2007679Y-935944D01*
X2016823Y-945088D01*
X2025967Y-949660D01*
X2044001Y-949660D01*
X2053145Y-945088D01*
X2062289Y-935944D01*
X2066861Y-926800D01*
X2071433Y-913084D01*
X2071433Y-890478D01*
X2066861Y-876762D01*
X2062289Y-867618D01*
X2053145Y-858728D01*
X2044001Y-854156D01*
X2025967Y-854156D01*
X1933107Y-1026749D02*
G01*
X1928535Y-1017605D01*
X1919645Y-1008715D01*
X1910501Y-1004143D01*
X1892213Y-1004143D01*
X1883069Y-1008715D01*
X1874179Y-1017605D01*
X1869607Y-1026749D01*
X1865035Y-1040465D01*
X1865035Y-1063071D01*
X1869607Y-1076787D01*
X1874179Y-1085931D01*
X1883069Y-1095075D01*
X1892213Y-1099647D01*
X1910501Y-1099647D01*
X1919645Y-1095075D01*
X1928535Y-1085931D01*
X1933107Y-1076787D01*
X1963079Y-1004143D02*
G01*
X1963079Y-1099647D01*
X1963079Y-1099647D02*
G01*
X2017689Y-1099647D01*
X2047661Y-1004143D02*
G01*
X2047661Y-1099647D01*
X2111415Y-1004143D02*
G01*
X2047661Y-1067643D01*
X2070521Y-1045037D02*
G01*
X2111415Y-1099647D01*
X2658135Y-603171D02*
G01*
X2667284Y-598591D01*
X2676420Y-589460D01*
X2681000Y-580557D01*
X2681000Y-562267D01*
X2676420Y-553130D01*
X2667284Y-543994D01*
X2658135Y-539671D01*
X2644409Y-535091D01*
X2621818Y-535091D01*
X2608089Y-539671D01*
X2598953Y-543994D01*
X2590068Y-553130D01*
X2585488Y-562267D01*
X2585488Y-580557D01*
X2590068Y-589460D01*
X2598953Y-598591D01*
X2608089Y-603171D01*
X2621818Y-603171D01*
X2621818Y-580557D02*
G01*
X2621818Y-603171D01*
X2681000Y-633145D02*
G01*
X2585488Y-633145D01*
X2681000Y-633145D02*
G01*
X2585488Y-696884D01*
X2681000Y-696884D02*
G01*
X2585488Y-696884D01*
X2681000Y-726876D02*
G01*
X2585488Y-726876D01*
X2681000Y-726876D02*
G01*
X2681000Y-758626D01*
X2676420Y-772342D01*
X2667284Y-781479D01*
X2658135Y-785784D01*
X2644409Y-790376D01*
X2621818Y-790376D01*
X2608089Y-785784D01*
X2598953Y-781479D01*
X2590068Y-772342D01*
X2585488Y-758626D01*
X2585488Y-726876D01*
X2535844Y-450044D02*
G01*
X2440594Y-450044D01*
X2535844Y-450044D02*
G01*
X2440594Y-486366D01*
X2535844Y-522942D02*
G01*
X2440594Y-486366D01*
X2535844Y-522942D02*
G01*
X2440594Y-522942D01*
X2535844Y-580092D02*
G01*
X2531526Y-570948D01*
X2522382Y-561804D01*
X2513238Y-557486D01*
X2499522Y-552914D01*
X2476916Y-552914D01*
X2463200Y-557486D01*
X2454056Y-561804D01*
X2445166Y-570948D01*
X2440594Y-580092D01*
X2440594Y-598380D01*
X2445166Y-607270D01*
X2454056Y-616414D01*
X2463200Y-620986D01*
X2476916Y-625558D01*
X2499522Y-625558D01*
X2513238Y-620986D01*
X2522382Y-616414D01*
X2531526Y-607270D01*
X2535844Y-598380D01*
X2535844Y-580092D01*
X2825889Y-450042D02*
G01*
X2730385Y-450042D01*
X2825889Y-450042D02*
G01*
X2730385Y-486364D01*
X2825889Y-522686D02*
G01*
X2730385Y-486364D01*
X2825889Y-522686D02*
G01*
X2730385Y-522686D01*
X2825889Y-552658D02*
G01*
X2730385Y-552658D01*
X2942323Y-513542D02*
G01*
X2951467Y-504398D01*
X2955785Y-490936D01*
X2955785Y-472648D01*
X2951467Y-458932D01*
X2942323Y-450042D01*
X2933179Y-450042D01*
X2924035Y-454614D01*
X2919463Y-458932D01*
X2914891Y-468076D01*
X2906001Y-495508D01*
X2901429Y-504398D01*
X2896857Y-508970D01*
X2887713Y-513542D01*
X2873997Y-513542D01*
X2865107Y-504398D01*
X2860535Y-490936D01*
X2860535Y-472648D01*
X2865107Y-458932D01*
X2873997Y-450042D01*
X2933179Y-611840D02*
G01*
X2942323Y-607268D01*
X2951467Y-598124D01*
X2955785Y-588980D01*
X2955785Y-570946D01*
X2951467Y-561802D01*
X2942323Y-552658D01*
X2933179Y-548086D01*
X2919463Y-543514D01*
X2896857Y-543514D01*
X2883141Y-548086D01*
X2873997Y-552658D01*
X2865107Y-561802D01*
X2860535Y-570946D01*
X2860535Y-588980D01*
X2865107Y-598124D01*
X2873997Y-607268D01*
X2883141Y-611840D01*
X2955785Y-641812D02*
G01*
X2860535Y-641812D01*
X2955785Y-705312D02*
G01*
X2892285Y-641812D01*
X2914891Y-664418D02*
G01*
X2860535Y-705312D01*
X3125906Y-450044D02*
G01*
X3030402Y-450044D01*
X3125906Y-450044D02*
G01*
X3030402Y-513544D01*
X3125906Y-513544D02*
G01*
X3030402Y-513544D01*
X3112190Y-607270D02*
G01*
X3121334Y-598126D01*
X3125906Y-584410D01*
X3125906Y-566376D01*
X3121334Y-552660D01*
X3112190Y-543516D01*
X3103300Y-543516D01*
X3094156Y-548088D01*
X3089584Y-552660D01*
X3085012Y-561804D01*
X3075868Y-588982D01*
X3071296Y-598126D01*
X3066724Y-602698D01*
X3057834Y-607270D01*
X3044118Y-607270D01*
X3034974Y-598126D01*
X3030402Y-584410D01*
X3030402Y-566376D01*
X3034974Y-552660D01*
X3044118Y-543516D01*
X3112190Y-700742D02*
G01*
X3121334Y-691852D01*
X3125906Y-678136D01*
X3125906Y-659848D01*
X3121334Y-646386D01*
X3112190Y-637242D01*
X3103300Y-637242D01*
X3094156Y-641814D01*
X3089584Y-646386D01*
X3085012Y-655276D01*
X3075868Y-682708D01*
X3071296Y-691852D01*
X3066724Y-696170D01*
X3057834Y-700742D01*
X3044118Y-700742D01*
X3034974Y-691852D01*
X3030402Y-678136D01*
X3030402Y-659848D01*
X3034974Y-646386D01*
X3044118Y-637242D01*
X3535113Y-1324104D02*
G01*
X3535113Y-1419588D01*
X3535113Y-1324104D02*
G01*
X3598613Y-1419588D01*
X3598613Y-1324104D02*
G01*
X3598613Y-1419588D01*
X3692321Y-1337797D02*
G01*
X3683182Y-1328681D01*
X3669466Y-1324104D01*
X3651432Y-1324104D01*
X3637716Y-1328681D01*
X3628580Y-1337797D01*
X3628580Y-1346700D01*
X3633160Y-1355854D01*
X3637716Y-1360431D01*
X3646853Y-1365001D01*
X3674046Y-1374137D01*
X3683182Y-1378714D01*
X3687765Y-1383286D01*
X3692321Y-1392181D01*
X3692321Y-1405887D01*
X3683182Y-1415036D01*
X3669466Y-1419588D01*
X3651432Y-1419588D01*
X3637716Y-1415036D01*
X3628580Y-1405887D01*
X3785811Y-1337797D02*
G01*
X3776913Y-1328681D01*
X3763197Y-1324104D01*
X3744915Y-1324104D01*
X3731447Y-1328681D01*
X3722311Y-1337797D01*
X3722311Y-1346700D01*
X3726868Y-1355854D01*
X3731447Y-1360431D01*
X3740332Y-1365001D01*
X3767777Y-1374137D01*
X3776913Y-1378714D01*
X3781221Y-1383286D01*
X3785811Y-1392181D01*
X3785811Y-1405887D01*
X3776913Y-1415036D01*
X3763197Y-1419588D01*
X3744915Y-1419588D01*
X3731447Y-1415036D01*
X3722311Y-1405887D01*
X3535123Y-1460093D02*
G01*
X3535123Y-1555597D01*
X3535123Y-1460093D02*
G01*
X3571445Y-1555597D01*
X3608021Y-1460093D02*
G01*
X3571445Y-1555597D01*
X3608021Y-1460093D02*
G01*
X3608021Y-1555597D01*
X3665171Y-1460093D02*
G01*
X3656027Y-1464665D01*
X3647137Y-1473809D01*
X3642565Y-1482953D01*
X3637993Y-1496415D01*
X3637993Y-1519275D01*
X3642565Y-1532737D01*
X3647137Y-1541881D01*
X3656027Y-1551025D01*
X3665171Y-1555597D01*
X3683459Y-1555597D01*
X3692349Y-1551025D01*
X3701493Y-1541881D01*
X3706065Y-1532737D01*
X3710637Y-1519275D01*
X3710637Y-1496415D01*
X3706065Y-1482953D01*
X3701493Y-1473809D01*
X3692349Y-1464665D01*
X3683459Y-1460093D01*
X3665171Y-1460093D01*
X3535123Y-1596105D02*
G01*
X3535123Y-1691609D01*
X3535123Y-1596105D02*
G01*
X3571445Y-1691609D01*
X3607767Y-1596105D02*
G01*
X3571445Y-1691609D01*
X3607767Y-1596105D02*
G01*
X3607767Y-1691609D01*
X3637993Y-1596105D02*
G01*
X3637993Y-1691609D01*
X3558336Y-1754977D02*
G01*
X3553764Y-1745833D01*
X3544620Y-1736689D01*
X3535730Y-1732117D01*
X3517442Y-1732117D01*
X3508298Y-1736689D01*
X3499408Y-1745833D01*
X3494836Y-1754977D01*
X3490264Y-1768693D01*
X3490264Y-1791299D01*
X3494836Y-1805015D01*
X3499408Y-1814159D01*
X3508298Y-1823049D01*
X3517442Y-1827621D01*
X3535730Y-1827621D01*
X3544620Y-1823049D01*
X3553764Y-1814159D01*
X3558336Y-1805015D01*
X3558336Y-1791299D01*
X3535730Y-1791299D02*
G01*
X3558336Y-1791299D01*
X3588308Y-1732117D02*
G01*
X3588308Y-1827621D01*
X3588308Y-1732117D02*
G01*
X3652062Y-1827621D01*
X3652062Y-1732117D02*
G01*
X3652062Y-1827621D01*
X3682034Y-1732117D02*
G01*
X3682034Y-1827621D01*
X3682034Y-1732117D02*
G01*
X3713784Y-1732117D01*
X3727500Y-1736689D01*
X3736644Y-1745833D01*
X3741216Y-1754977D01*
X3745534Y-1768693D01*
X3745534Y-1791299D01*
X3741216Y-1805015D01*
X3736644Y-1814159D01*
X3727500Y-1823049D01*
X3713784Y-1827621D01*
X3682034Y-1827621D01*
X3603447Y-1890994D02*
G01*
X3598875Y-1881850D01*
X3589731Y-1872706D01*
X3580587Y-1868134D01*
X3562553Y-1868134D01*
X3553409Y-1872706D01*
X3544265Y-1881850D01*
X3539693Y-1890994D01*
X3535121Y-1904456D01*
X3535121Y-1927316D01*
X3539693Y-1940778D01*
X3544265Y-1949922D01*
X3553409Y-1959066D01*
X3562553Y-1963638D01*
X3580587Y-1963638D01*
X3589731Y-1959066D01*
X3598875Y-1949922D01*
X3603447Y-1940778D01*
X3633419Y-1868134D02*
G01*
X3633419Y-1963638D01*
X3633419Y-1963638D02*
G01*
X3688029Y-1963638D01*
X3718001Y-1868134D02*
G01*
X3718001Y-1963638D01*
X3781501Y-1868134D02*
G01*
X3718001Y-1931888D01*
X3740607Y-1909028D02*
G01*
X3781501Y-1963638D01*
X3499401Y-2004143D02*
G01*
X3549439Y-2004143D01*
X3522007Y-2040465D01*
X3535723Y-2040465D01*
X3544867Y-2045037D01*
X3549439Y-2049609D01*
X3553757Y-2063071D01*
X3553757Y-2072215D01*
X3549439Y-2085931D01*
X3540295Y-2095075D01*
X3526579Y-2099393D01*
X3512863Y-2099393D01*
X3499401Y-2095075D01*
X3494829Y-2090503D01*
X3490257Y-2081359D01*
X3583983Y-2004143D02*
G01*
X3620305Y-2099393D01*
X3656627Y-2004143D02*
G01*
X3620305Y-2099393D01*
X3695743Y-2004143D02*
G01*
X3745781Y-2004143D01*
X3718349Y-2040465D01*
X3732065Y-2040465D01*
X3741209Y-2045037D01*
X3745781Y-2049609D01*
X3750353Y-2063071D01*
X3750353Y-2072215D01*
X3745781Y-2085931D01*
X3736637Y-2095075D01*
X3722921Y-2099393D01*
X3709459Y-2099393D01*
X3695743Y-2095075D01*
X3691171Y-2090503D01*
X3686599Y-2081359D01*
X2305740Y-459244D02*
G01*
X2305740Y-509287D01*
X2269418Y-481840D01*
X2269418Y-495574D01*
X2264836Y-504708D01*
X2260264Y-509287D01*
X2246805Y-513590D01*
X2237668Y-513590D01*
X2223935Y-509287D01*
X2214803Y-500123D01*
X2210490Y-486437D01*
X2210490Y-472711D01*
X2214803Y-459244D01*
X2219370Y-454687D01*
X2228514Y-450090D01*
X2305740Y-543821D02*
G01*
X2210490Y-580148D01*
X2305740Y-616475D02*
G01*
X2210490Y-580148D01*
X2305740Y-655591D02*
G01*
X2305740Y-705632D01*
X2269418Y-678205D01*
X2269418Y-691918D01*
X2264836Y-701052D01*
X2260264Y-705632D01*
X2246805Y-710206D01*
X2237668Y-710206D01*
X2223935Y-705632D01*
X2214803Y-696480D01*
X2210490Y-682754D01*
X2210490Y-669302D01*
X2214803Y-655591D01*
X2219370Y-651004D01*
X2228514Y-646455D01*
X3324153Y-134195D02*
G01*
X3374199Y-134195D01*
X3346744Y-170512D01*
X3360483Y-170512D01*
X3369619Y-175092D01*
X3374199Y-179669D01*
X3378494Y-193126D01*
X3378494Y-202262D01*
X3374199Y-215996D01*
X3365030Y-225127D01*
X3351347Y-229445D01*
X3337618Y-229445D01*
X3324153Y-225127D01*
X3319597Y-220555D01*
X3314994Y-211419D01*
X3408725Y-134195D02*
G01*
X3445055Y-229445D01*
X3481384Y-134195D02*
G01*
X3445055Y-229445D01*
X3520500Y-134195D02*
G01*
X3570536Y-134195D01*
X3543114Y-170512D01*
X3556830Y-170512D01*
X3565956Y-175092D01*
X3570536Y-179669D01*
X3575116Y-193126D01*
X3575116Y-202262D01*
X3570536Y-215996D01*
X3561387Y-225127D01*
X3547661Y-229445D01*
X3534206Y-229445D01*
X3520500Y-225127D01*
X3515911Y-220555D01*
X3511364Y-211419D01*
X3378494Y-292483D02*
G01*
X3369350Y-283598D01*
X3355886Y-279029D01*
X3337600Y-279029D01*
X3323879Y-283598D01*
X3314994Y-292483D01*
X3314994Y-301632D01*
X3319315Y-310779D01*
X3323879Y-315348D01*
X3333028Y-319918D01*
X3360455Y-329064D01*
X3369350Y-333634D01*
X3373920Y-337952D01*
X3378494Y-347098D01*
X3378494Y-360814D01*
X3369350Y-369958D01*
X3355886Y-374530D01*
X3337600Y-374530D01*
X3323879Y-369958D01*
X3314994Y-360814D01*
X3408466Y-279029D02*
G01*
X3408466Y-374530D01*
X3408466Y-279029D02*
G01*
X3440216Y-279029D01*
X3453932Y-283598D01*
X3463071Y-292483D01*
X3467646Y-301632D01*
X3472220Y-315348D01*
X3472220Y-337952D01*
X3467646Y-351668D01*
X3463071Y-360814D01*
X3453932Y-369958D01*
X3440216Y-374530D01*
X3408466Y-374530D01*
X3538512Y-279029D02*
G01*
X3502187Y-374530D01*
X3538512Y-279029D02*
G01*
X3574836Y-374530D01*
X3515903Y-342529D02*
G01*
X3561372Y-342529D01*
X3383069Y-446968D02*
G01*
X3378489Y-437819D01*
X3369353Y-428683D01*
X3360455Y-424113D01*
X3342170Y-424113D01*
X3333033Y-428683D01*
X3323874Y-437819D01*
X3319569Y-446968D01*
X3314989Y-460684D01*
X3314989Y-483275D01*
X3319569Y-497001D01*
X3323874Y-506150D01*
X3333033Y-515025D01*
X3342170Y-519615D01*
X3360455Y-519615D01*
X3369353Y-515025D01*
X3378489Y-506150D01*
X3383069Y-497001D01*
X3383069Y-483275D01*
X3360455Y-483275D02*
G01*
X3383069Y-483275D01*
X3413025Y-424113D02*
G01*
X3413025Y-519615D01*
X3413025Y-424113D02*
G01*
X3476790Y-519615D01*
X3476790Y-424113D02*
G01*
X3476790Y-519615D01*
X3506757Y-424113D02*
G01*
X3506757Y-519615D01*
X3506757Y-424113D02*
G01*
X3538507Y-424113D01*
X3552223Y-428683D01*
X3561372Y-437819D01*
X3565677Y-446968D01*
X3570257Y-460684D01*
X3570257Y-483275D01*
X3565677Y-497001D01*
X3561372Y-506150D01*
X3552223Y-515025D01*
X3538507Y-519615D01*
X3506757Y-519615D01*
X3378499Y-582663D02*
G01*
X3369350Y-573514D01*
X3355898Y-569198D01*
X3337600Y-569198D01*
X3323897Y-573514D01*
X3314999Y-582663D01*
X3314999Y-591799D01*
X3319574Y-600948D01*
X3323897Y-605520D01*
X3333038Y-610090D01*
X3360458Y-618982D01*
X3369350Y-623549D01*
X3373932Y-628124D01*
X3378499Y-637270D01*
X3378499Y-650984D01*
X3369350Y-659874D01*
X3355898Y-664448D01*
X3337600Y-664448D01*
X3323897Y-659874D01*
X3314999Y-650984D01*
X3476800Y-591799D02*
G01*
X3472225Y-582663D01*
X3463081Y-573514D01*
X3453937Y-569198D01*
X3435906Y-569198D01*
X3426759Y-573514D01*
X3417608Y-582663D01*
X3413048Y-591799D01*
X3408474Y-605520D01*
X3408474Y-628124D01*
X3413048Y-641840D01*
X3417608Y-650984D01*
X3426759Y-659874D01*
X3435906Y-664448D01*
X3453937Y-664448D01*
X3463081Y-659874D01*
X3472225Y-650984D01*
X3476800Y-641840D01*
X3506772Y-569198D02*
G01*
X3506772Y-664448D01*
X3506772Y-664448D02*
G01*
X3561384Y-664448D01*
X2423063Y-1106627D02*
G01*
X2379240Y-1150449D01*
X2368463Y-1155839D01*
X2362715Y-1155839D01*
X2354635Y-1153144D01*
X2349245Y-1147757D01*
X2346373Y-1139494D01*
X2346553Y-1133927D01*
X2351940Y-1123149D01*
X2357508Y-1117582D01*
X2441023Y-1124587D02*
G01*
X2383551Y-1182060D01*
X2383551Y-1182060D02*
G01*
X2416418Y-1214927D01*
X2519151Y-1230015D02*
G01*
X2521846Y-1221933D01*
X2521846Y-1211158D01*
X2519151Y-1202715D01*
X2508196Y-1191760D01*
X2499934Y-1189245D01*
X2489159Y-1189245D01*
X2480896Y-1191760D01*
X2469941Y-1197328D01*
X2456291Y-1210978D01*
X2450724Y-1221933D01*
X2448209Y-1230195D01*
X2448029Y-1241150D01*
X2450724Y-1249232D01*
X2461679Y-1260190D01*
X2469941Y-1263063D01*
X2480896Y-1262882D01*
X2488979Y-1260190D01*
X2578242Y-1261805D02*
G01*
X2534419Y-1305628D01*
X2523642Y-1311018D01*
X2517896Y-1311018D01*
X2509814Y-1308323D01*
X2504424Y-1302936D01*
X2501552Y-1294673D01*
X2501732Y-1289105D01*
X2507119Y-1278328D01*
X2512687Y-1272760D01*
X2596202Y-1279766D02*
G01*
X2538729Y-1337238D01*
X2538729Y-1337238D02*
G01*
X2571597Y-1370109D01*
X2674332Y-1385194D02*
G01*
X2677025Y-1377111D01*
X2677025Y-1366337D01*
X2674332Y-1357894D01*
X2663375Y-1346939D01*
X2655112Y-1344424D01*
X2644338Y-1344424D01*
X2636075Y-1346939D01*
X2625120Y-1352506D01*
X2611470Y-1366156D01*
X2605902Y-1377111D01*
X2603388Y-1385374D01*
X2603207Y-1396329D01*
X2605902Y-1404411D01*
X2616857Y-1415369D01*
X2625120Y-1418242D01*
X2636075Y-1418061D01*
X2644157Y-1415369D01*
X2733420Y-1416984D02*
G01*
X2689598Y-1460807D01*
X2678821Y-1466197D01*
X2673075Y-1466197D01*
X2664993Y-1463502D01*
X2659603Y-1458114D01*
X2656730Y-1449852D01*
X2656911Y-1444284D01*
X2662298Y-1433507D01*
X2667866Y-1427939D01*
X2751381Y-1434945D02*
G01*
X2693908Y-1492417D01*
X2693908Y-1492417D02*
G01*
X2726776Y-1525287D01*
X2829511Y-1540372D02*
G01*
X2832204Y-1532290D01*
X2832204Y-1521515D01*
X2829511Y-1513072D01*
X2818554Y-1502117D01*
X2810291Y-1499603D01*
X2799516Y-1499603D01*
X2791254Y-1502117D01*
X2780299Y-1507685D01*
X2766649Y-1521335D01*
X2761081Y-1532290D01*
X2758566Y-1540553D01*
X2758386Y-1551508D01*
X2761081Y-1559590D01*
X2772036Y-1570548D01*
X2780299Y-1573420D01*
X2791254Y-1573240D01*
X2799336Y-1570548D01*
X2888599Y-1572163D02*
G01*
X2844777Y-1615986D01*
X2833999Y-1621375D01*
X2828254Y-1621375D01*
X2820172Y-1618681D01*
X2814782Y-1613293D01*
X2811909Y-1605031D01*
X2812089Y-1599463D01*
X2817477Y-1588686D01*
X2823044Y-1583118D01*
X2906560Y-1590123D02*
G01*
X2849087Y-1647598D01*
X2849087Y-1647598D02*
G01*
X2881955Y-1680466D01*
X2984690Y-1695551D02*
G01*
X2987382Y-1687469D01*
X2987382Y-1676694D01*
X2984690Y-1668251D01*
X2973732Y-1657296D01*
X2965472Y-1654782D01*
X2954695Y-1654782D01*
X2946433Y-1657296D01*
X2935477Y-1662864D01*
X2921828Y-1676514D01*
X2916260Y-1687469D01*
X2913745Y-1695731D01*
X2913565Y-1706686D01*
X2916260Y-1714769D01*
X2927215Y-1725726D01*
X2935477Y-1728599D01*
X2946433Y-1728419D01*
X2954515Y-1725726D01*
X1489202Y-794004D02*
G01*
X1538986Y-794004D01*
X1511807Y-830579D01*
X1525523Y-830579D01*
X1534668Y-834897D01*
X1538986Y-839470D01*
X1543557Y-853186D01*
X1543557Y-862329D01*
X1538986Y-875792D01*
X1530095Y-884936D01*
X1516379Y-889507D01*
X1502663Y-889507D01*
X1489202Y-884936D01*
X1484629Y-880363D01*
X1480057Y-871473D01*
X1573529Y-794004D02*
G01*
X1610105Y-889507D01*
X1646428Y-794004D02*
G01*
X1610105Y-889507D01*
X1378216Y-1306911D02*
G01*
X1373644Y-1297774D01*
X1364503Y-1288625D01*
X1355610Y-1284046D01*
X1337332Y-1284046D01*
X1328178Y-1288625D01*
X1319293Y-1297774D01*
X1314716Y-1306911D01*
X1310147Y-1320627D01*
X1310147Y-1343235D01*
X1314716Y-1356951D01*
X1319293Y-1366105D01*
X1328178Y-1374985D01*
X1337332Y-1379565D01*
X1355610Y-1379565D01*
X1364503Y-1374985D01*
X1373644Y-1366105D01*
X1378216Y-1356951D01*
X1378216Y-1343235D01*
X1355610Y-1343235D02*
G01*
X1378216Y-1343235D01*
X1408193Y-1284046D02*
G01*
X1408193Y-1379565D01*
X1408193Y-1284046D02*
G01*
X1471947Y-1379565D01*
X1471947Y-1284046D02*
G01*
X1471947Y-1379565D01*
X1501912Y-1284046D02*
G01*
X1501912Y-1379565D01*
X1501912Y-1284046D02*
G01*
X1533664Y-1284046D01*
X1547388Y-1288625D01*
X1556532Y-1297774D01*
X1561101Y-1306911D01*
X1565414Y-1320627D01*
X1565414Y-1343235D01*
X1561101Y-1356951D01*
X1556532Y-1366105D01*
X1547388Y-1374985D01*
X1533664Y-1379565D01*
X1501912Y-1379565D01*
X1369921Y-1029157D02*
G01*
X1369921Y-1124661D01*
X1369921Y-1029157D02*
G01*
X1410815Y-1029157D01*
X1424531Y-1033729D01*
X1429103Y-1038301D01*
X1433675Y-1047191D01*
X1433675Y-1056335D01*
X1429103Y-1065479D01*
X1424531Y-1070051D01*
X1410815Y-1074623D01*
X1369921Y-1074623D01*
X1401925Y-1074623D02*
G01*
X1433675Y-1124661D01*
X1527147Y-1042619D02*
G01*
X1518257Y-1033729D01*
X1504541Y-1029157D01*
X1486253Y-1029157D01*
X1472791Y-1033729D01*
X1463647Y-1042619D01*
X1463647Y-1051763D01*
X1468219Y-1060907D01*
X1472791Y-1065479D01*
X1481935Y-1070051D01*
X1509113Y-1079195D01*
X1518257Y-1083513D01*
X1522829Y-1088085D01*
X1527147Y-1097229D01*
X1527147Y-1110945D01*
X1518257Y-1120089D01*
X1504541Y-1124661D01*
X1486253Y-1124661D01*
X1472791Y-1120089D01*
X1463647Y-1110945D01*
X763242Y-2366944D02*
G01*
X758672Y-2357798D01*
X749531Y-2348659D01*
X740638Y-2344092D01*
X722350Y-2344092D01*
X713211Y-2348659D01*
X704060Y-2357798D01*
X699742Y-2366944D01*
X695172Y-2380660D01*
X695172Y-2403264D01*
X699742Y-2416980D01*
X704060Y-2426126D01*
X713211Y-2435014D01*
X722350Y-2439593D01*
X740638Y-2439593D01*
X749531Y-2435014D01*
X758672Y-2426126D01*
X763242Y-2416980D01*
X763242Y-2403264D01*
X740638Y-2403264D02*
G01*
X763242Y-2403264D01*
X793221Y-2344092D02*
G01*
X793221Y-2439593D01*
X793221Y-2344092D02*
G01*
X856973Y-2439593D01*
X856973Y-2344092D02*
G01*
X856973Y-2439593D01*
X886942Y-2344092D02*
G01*
X886942Y-2439593D01*
X886942Y-2344092D02*
G01*
X918690Y-2344092D01*
X932406Y-2348659D01*
X941550Y-2357798D01*
X945873Y-2366944D01*
X950440Y-2380660D01*
X950440Y-2403264D01*
X945873Y-2416980D01*
X941550Y-2426126D01*
X932406Y-2435014D01*
X918690Y-2439593D01*
X886942Y-2439593D01*
D11*
X1053368Y-1550136D02*
G01*
X1132377Y-1550136D01*
X1177620Y-1649856D02*
G01*
X1256629Y-1649856D01*
X1256629Y-1550136D02*
G01*
X1177620Y-1550136D01*
X1271869Y-1634617D02*
G01*
X1271869Y-1565376D01*
X1132377Y-1649856D02*
G01*
X1053368Y-1649856D01*
X1038128Y-1634617D02*
G01*
X1038128Y-1565376D01*
X976629Y-1649856D02*
G01*
X897620Y-1649856D01*
X852378Y-1550136D02*
G01*
X773369Y-1550136D01*
X773369Y-1649856D02*
G01*
X852378Y-1649856D01*
X758129Y-1565376D02*
G01*
X758129Y-1634617D01*
X897620Y-1550136D02*
G01*
X976629Y-1550136D01*
X991870Y-1565376D02*
G01*
X991870Y-1634617D01*
X376631Y-1434858D02*
G01*
X297621Y-1434858D01*
X252379Y-1335138D02*
G01*
X173370Y-1335138D01*
X173370Y-1434858D02*
G01*
X252379Y-1434858D01*
X158130Y-1350378D02*
G01*
X158130Y-1419618D01*
X297621Y-1335138D02*
G01*
X376631Y-1335138D01*
X391871Y-1350378D02*
G01*
X391871Y-1419618D01*
X2103366Y-1910135D02*
G01*
X2182375Y-1910135D01*
X2227618Y-2009856D02*
G01*
X2306627Y-2009856D01*
X2306627Y-1910135D02*
G01*
X2227618Y-1910135D01*
X2321867Y-1994616D02*
G01*
X2321867Y-1925375D01*
X2182375Y-2009856D02*
G01*
X2103366Y-2009856D01*
X2088126Y-1994616D02*
G01*
X2088126Y-1925375D01*
X3220133Y-1181628D02*
G01*
X3220133Y-1102619D01*
X3319853Y-1057376D02*
G01*
X3319853Y-978367D01*
X3220133Y-978367D02*
G01*
X3220133Y-1057376D01*
X3304613Y-963127D02*
G01*
X3235373Y-963127D01*
X3319853Y-1102619D02*
G01*
X3319853Y-1181628D01*
X3304613Y-1196868D02*
G01*
X3235373Y-1196868D01*
X2119856Y-1668365D02*
G01*
X2119856Y-1747375D01*
X2020135Y-1792617D02*
G01*
X2020135Y-1871626D01*
X2119856Y-1871626D02*
G01*
X2119856Y-1792617D01*
X2035375Y-1886866D02*
G01*
X2104616Y-1886866D01*
X2020135Y-1747375D02*
G01*
X2020135Y-1668365D01*
X2035375Y-1653125D02*
G01*
X2104616Y-1653125D01*
X2486626Y-879858D02*
G01*
X2407617Y-879858D01*
X2362375Y-780138D02*
G01*
X2283366Y-780138D01*
X2283366Y-879858D02*
G01*
X2362375Y-879858D01*
X2268126Y-795378D02*
G01*
X2268126Y-864618D01*
X2407617Y-780138D02*
G01*
X2486626Y-780138D01*
X2501866Y-795378D02*
G01*
X2501866Y-864618D01*
D12*
X645822Y-308546D02*
G01*
X725825Y-308546D01*
X614837Y-419521D02*
G01*
X614837Y-339524D01*
X756803Y-419521D02*
G01*
X756803Y-339524D01*
X614255Y-477111D02*
G01*
X614255Y-557110D01*
X645238Y-588093D02*
G01*
X725236Y-588093D01*
X756216Y-477111D02*
G01*
X756216Y-557110D01*
X1282001Y-1067970D02*
G01*
X1282001Y-1147973D01*
X1171026Y-1036985D02*
G01*
X1251023Y-1036985D01*
X1171026Y-1178951D02*
G01*
X1251023Y-1178951D01*
X1113436Y-1036403D02*
G01*
X1033437Y-1036403D01*
X1002454Y-1067386D02*
G01*
X1002454Y-1147384D01*
X1113436Y-1178364D02*
G01*
X1033437Y-1178364D01*
X77978Y-1283970D02*
G01*
X77978Y-775970D01*
X331978Y-775970D01*
X331978Y-1283970D01*
X77978Y-1283970D01*
X1558036Y-624078D02*
G01*
X1558036Y-116078D01*
X1812036Y-116078D01*
X1812036Y-624078D01*
X1558036Y-624078D01*
X624078Y-775970D02*
G01*
X624078Y-1283970D01*
X370078Y-1283970D01*
X370078Y-775970D01*
X624078Y-775970D01*
X1216799Y-2208847D02*
G01*
X1139456Y-2208847D01*
X916800Y-2208847D02*
G01*
X994171Y-2208847D01*
X916800Y-2208847D02*
G01*
X876300Y-2208847D01*
X876300Y-2199706D01*
X1216799Y-1708848D02*
G01*
X1257300Y-1708848D01*
X1257300Y-1717989D01*
X1216799Y-2208847D02*
G01*
X1257300Y-2208847D01*
X1257300Y-2199706D01*
X916800Y-1708848D02*
G01*
X876300Y-1708848D01*
X876300Y-1717989D01*
X916800Y-1708848D02*
G01*
X1216799Y-1708848D01*
D11*
X823175Y-366605D02*
G01*
X1488417Y-366605D01*
X1488417Y-660885D01*
X823175Y-660885D01*
X823175Y-366605D01*
D13*
X2390140Y-1091437D02*
G01*
X3009900Y-1091437D01*
X3009900Y-1756918D01*
X2346959Y-1756918D01*
X2346959Y-1091437D01*
X2423159Y-1091437D01*
D14*
X2844800Y-2250986D02*
G01*
X2844800Y-2200186D01*
X2794000Y-2200186D01*
D11*
X2819145Y-2222804D02*
G01*
X2819145Y-2555798D01*
X2413000Y-2555786D01*
X2413000Y-2390686D01*
X2413000Y-2225586D01*
X2413000Y-2225586D01*
X2819145Y-2222804D01*
D15*
X1612900Y-968301D02*
G01*
X1612900Y-904801D01*
X1676400Y-904801D01*
D14*
X3287664Y-1780933D02*
G01*
X3287664Y-1857133D01*
X3287664Y-2033935D02*
G01*
X3287664Y-1957735D01*
X3419784Y-2033935D02*
G01*
X3419784Y-1957735D01*
D11*
X3419784Y-2033935D02*
G01*
X3404542Y-2049165D01*
X3302899Y-2049165D01*
X3287664Y-2033935D01*
D14*
X3419784Y-1780933D02*
G01*
X3419784Y-1857133D01*
D11*
X3287664Y-1780933D02*
G01*
X3302899Y-1765691D01*
X3404542Y-1765691D01*
X3419784Y-1780933D01*
X1842617Y-2210137D02*
G01*
X1914420Y-2210137D01*
X1914420Y-2309858D01*
X1842617Y-2309858D01*
X1797375Y-2210137D02*
G01*
X1725571Y-2210137D01*
X1725571Y-2309858D01*
X1797375Y-2309858D01*
X3023539Y-1971570D02*
G01*
X3023539Y-2050580D01*
X3123260Y-2050580D02*
G01*
X3123260Y-1971570D01*
X3108020Y-1956330D02*
G01*
X3038779Y-1956330D01*
X3023539Y-2174831D02*
G01*
X3023539Y-2095822D01*
X3123260Y-2095822D02*
G01*
X3123260Y-2174831D01*
X3108020Y-2190071D02*
G01*
X3038779Y-2190071D01*
X3163239Y-1819170D02*
G01*
X3163239Y-1898180D01*
X3262960Y-1898180D02*
G01*
X3262960Y-1819170D01*
X3247720Y-1803930D02*
G01*
X3178479Y-1803930D01*
X3163239Y-2022431D02*
G01*
X3163239Y-1943422D01*
X3262960Y-1943422D02*
G01*
X3262960Y-2022431D01*
X3247720Y-2037671D02*
G01*
X3178479Y-2037671D01*
X3365530Y-2086841D02*
G01*
X3286521Y-2086841D01*
X3286521Y-2186561D02*
G01*
X3365530Y-2186561D01*
X3380770Y-2171321D02*
G01*
X3380770Y-2102081D01*
X3162269Y-2086841D02*
G01*
X3241278Y-2086841D01*
X3241278Y-2186561D02*
G01*
X3162269Y-2186561D01*
X3147029Y-2171321D02*
G01*
X3147029Y-2102081D01*
X2565430Y-2074141D02*
G01*
X2486421Y-2074141D01*
X2486421Y-2173861D02*
G01*
X2565430Y-2173861D01*
X2580670Y-2158621D02*
G01*
X2580670Y-2089381D01*
X2362169Y-2074141D02*
G01*
X2441178Y-2074141D01*
X2441178Y-2173861D02*
G01*
X2362169Y-2173861D01*
X2346929Y-2158621D02*
G01*
X2346929Y-2089381D01*
X2641569Y-2173861D02*
G01*
X2720578Y-2173861D01*
X2720578Y-2074141D02*
G01*
X2641569Y-2074141D01*
X2626329Y-2089381D02*
G01*
X2626329Y-2158621D01*
X2844830Y-2173861D02*
G01*
X2765821Y-2173861D01*
X2765821Y-2074141D02*
G01*
X2844830Y-2074141D01*
X2860070Y-2089381D02*
G01*
X2860070Y-2158621D01*
X1974857Y-1861626D02*
G01*
X1974857Y-1782617D01*
X1875137Y-1782617D02*
G01*
X1875137Y-1861626D01*
X1890377Y-1876866D02*
G01*
X1959617Y-1876866D01*
X1974857Y-1658365D02*
G01*
X1974857Y-1737375D01*
X1875137Y-1737375D02*
G01*
X1875137Y-1658365D01*
X1890377Y-1643126D02*
G01*
X1959617Y-1643126D01*
X612160Y-1916280D02*
G01*
X612160Y-1820392D01*
X480039Y-1820392D01*
X480039Y-1916280D01*
X612160Y-2001522D02*
G01*
X612160Y-2097410D01*
X480039Y-2097410D01*
X480039Y-2001522D01*
X272620Y-1480139D02*
G01*
X344423Y-1480139D01*
X344423Y-1579859D01*
X272620Y-1579859D01*
X227378Y-1480139D02*
G01*
X155575Y-1480139D01*
X155575Y-1579859D01*
X227378Y-1579859D01*
X2187374Y-2309858D02*
G01*
X2115571Y-2309858D01*
X2115571Y-2210137D01*
X2187374Y-2210137D01*
X2232616Y-2309858D02*
G01*
X2304420Y-2309858D01*
X2304420Y-2210137D01*
X2232616Y-2210137D01*
X3744851Y-837623D02*
G01*
X3744851Y-909426D01*
X3645131Y-909426D01*
X3645131Y-837623D01*
X3744851Y-792380D02*
G01*
X3744851Y-720577D01*
X3645131Y-720577D01*
X3645131Y-792380D01*
X3700132Y-1157378D02*
G01*
X3700132Y-1085575D01*
X3799852Y-1085575D01*
X3799852Y-1157378D01*
X3700132Y-1202621D02*
G01*
X3700132Y-1274424D01*
X3799852Y-1274424D01*
X3799852Y-1202621D01*
X674039Y-983780D02*
G01*
X674039Y-911976D01*
X773760Y-911976D01*
X773760Y-983780D01*
X674039Y-1029022D02*
G01*
X674039Y-1100825D01*
X773760Y-1100825D01*
X773760Y-1029022D01*
G75*
G01*
X1256629Y-1649857D02*
G03*
X1271869Y-1634617I0J15240D01*
G75*
G01*
X1271869Y-1565377D02*
G03*
X1256629Y-1550137I-15240J0D01*
G75*
G01*
X1053368Y-1649857D02*
G02*
X1038128Y-1634617I0J15240D01*
G75*
G01*
X1038128Y-1565377D02*
G02*
X1053368Y-1550137I15240J0D01*
G75*
G01*
X773369Y-1550137D02*
G03*
X758129Y-1565377I0J-15240D01*
G75*
G01*
X758129Y-1634617D02*
G03*
X773369Y-1649857I15240J0D01*
G75*
G01*
X976630Y-1550137D02*
G02*
X991870Y-1565377I0J-15240D01*
G75*
G01*
X991870Y-1634617D02*
G02*
X976630Y-1649857I-15240J0D01*
G75*
G01*
X173370Y-1335138D02*
G03*
X158130Y-1350378I0J-15240D01*
G75*
G01*
X158130Y-1419619D02*
G03*
X173370Y-1434859I15240J0D01*
G75*
G01*
X376631Y-1335138D02*
G02*
X391871Y-1350378I0J-15240D01*
G75*
G01*
X391871Y-1419619D02*
G02*
X376631Y-1434859I-15240J0D01*
G75*
G01*
X2306627Y-2009856D02*
G03*
X2321867Y-1994616I0J15240D01*
G75*
G01*
X2321867Y-1925376D02*
G03*
X2306627Y-1910136I-15240J0D01*
G75*
G01*
X2103366Y-2009856D02*
G02*
X2088126Y-1994616I0J15240D01*
G75*
G01*
X2088126Y-1925376D02*
G02*
X2103366Y-1910136I15240J0D01*
G75*
G01*
X3319854Y-978367D02*
G03*
X3304614Y-963127I-15240J0D01*
G75*
G01*
X3235373Y-963127D02*
G03*
X3220133Y-978367I0J-15240D01*
G75*
G01*
X3319854Y-1181628D02*
G02*
X3304614Y-1196868I-15240J0D01*
G75*
G01*
X3235373Y-1196868D02*
G02*
X3220133Y-1181628I0J15240D01*
G75*
G01*
X2020136Y-1871627D02*
G03*
X2035376Y-1886867I15240J0D01*
G75*
G01*
X2104616Y-1886867D02*
G03*
X2119856Y-1871627I0J15240D01*
G75*
G01*
X2020136Y-1668366D02*
G02*
X2035376Y-1653126I15240J0D01*
G75*
G01*
X2104616Y-1653126D02*
G02*
X2119856Y-1668366I0J-15240D01*
G75*
G01*
X2283366Y-780138D02*
G03*
X2268126Y-795378I0J-15240D01*
G75*
G01*
X2268126Y-864619D02*
G03*
X2283366Y-879859I15240J0D01*
G75*
G01*
X2486627Y-780138D02*
G02*
X2501867Y-795378I0J-15240D01*
G75*
G01*
X2501867Y-864619D02*
G02*
X2486627Y-879859I-15240J0D01*
D12*
G75*
G01*
X645239Y-588099D02*
G02*
X614256Y-557116I0J30983D01*
G75*
G01*
X756222Y-557116D02*
G02*
X725236Y-588099I-30983J0D01*
G75*
G01*
X614837Y-339529D02*
G02*
X645823Y-308547I30983J0D01*
G75*
G01*
X725820Y-308547D02*
G02*
X756803Y-339529I0J-30982D01*
G75*
G01*
X1002449Y-1067387D02*
G02*
X1033432Y-1036404I30983J0D01*
G75*
G01*
X1033432Y-1178369D02*
G02*
X1002449Y-1147384I0J30982D01*
G75*
G01*
X1251019Y-1036985D02*
G02*
X1282001Y-1067971I0J-30983D01*
G75*
G01*
X1282001Y-1147968D02*
G02*
X1251019Y-1178951I-30982J0D01*
G75*
G01*
X1139457Y-2208848D02*
G03*
X994171Y-2208357I-72657J-3980D01*
D16*
G75*
G01*
X2340701Y-1831447D02*
G03*
X2340955Y-1831447I127J-19999D01*
D11*
G75*
G01*
X3123260Y-1971571D02*
G03*
X3108020Y-1956331I-15240J0D01*
G75*
G01*
X3038780Y-1956331D02*
G03*
X3023540Y-1971571I0J-15240D01*
G75*
G01*
X3123260Y-2174832D02*
G02*
X3108020Y-2190072I-15240J0D01*
G75*
G01*
X3038780Y-2190072D02*
G02*
X3023540Y-2174832I0J15240D01*
G75*
G01*
X3262960Y-1819171D02*
G03*
X3247720Y-1803931I-15240J0D01*
G75*
G01*
X3178480Y-1803931D02*
G03*
X3163240Y-1819171I0J-15240D01*
G75*
G01*
X3262960Y-2022432D02*
G02*
X3247720Y-2037672I-15240J0D01*
G75*
G01*
X3178480Y-2037672D02*
G02*
X3163240Y-2022432I0J15240D01*
G75*
G01*
X3365530Y-2186562D02*
G03*
X3380770Y-2171322I0J15240D01*
G75*
G01*
X3380770Y-2102081D02*
G03*
X3365530Y-2086841I-15240J0D01*
G75*
G01*
X3162270Y-2186562D02*
G02*
X3147030Y-2171322I0J15240D01*
G75*
G01*
X3147030Y-2102081D02*
G02*
X3162270Y-2086841I15240J0D01*
G75*
G01*
X2565430Y-2173862D02*
G03*
X2580670Y-2158622I0J15240D01*
G75*
G01*
X2580670Y-2089381D02*
G03*
X2565430Y-2074141I-15240J0D01*
G75*
G01*
X2362170Y-2173862D02*
G02*
X2346930Y-2158622I0J15240D01*
G75*
G01*
X2346930Y-2089381D02*
G02*
X2362170Y-2074141I15240J0D01*
G75*
G01*
X2641570Y-2074141D02*
G03*
X2626330Y-2089381I0J-15240D01*
G75*
G01*
X2626330Y-2158622D02*
G03*
X2641570Y-2173862I15240J0D01*
G75*
G01*
X2844830Y-2074141D02*
G02*
X2860070Y-2089381I0J-15240D01*
G75*
G01*
X2860070Y-2158622D02*
G02*
X2844830Y-2173862I-15240J0D01*
G75*
G01*
X1875137Y-1861627D02*
G03*
X1890377Y-1876867I15240J0D01*
G75*
G01*
X1959618Y-1876867D02*
G03*
X1974858Y-1861627I0J15240D01*
G75*
G01*
X1875137Y-1658366D02*
G02*
X1890377Y-1643126I15240J0D01*
G75*
G01*
X1959618Y-1643126D02*
G02*
X1974858Y-1658366I0J-15240D01*
D17*
G75*
G01
X1348511Y-2212848D02*
G03X1348511Y-2212848I-15011J0D01*
D12*
G75*
G01
X2434742Y-1708455D02*
G03X2434742Y-1708455I-17043J0D01*
M02*
