G04 Layer: InnerLayer1*
G04 EasyEDA v6.5.40, 2024-02-03 19:01:27*
G04 629f34bd56064ca5b14c1ddf27600c48,2e16165ee3bb4678bfb3015e44e098b9,10*
G04 Gerber Generator version 0.2*
G04 Scale: 100 percent, Rotated: No, Reflected: No *
G04 Dimensions in millimeters *
G04 leading zeros omitted , absolute positions ,4 integer and 5 decimal *
%FSLAX45Y45*%
%MOMM*%

%ADD10C,1.8000*%
%ADD11R,1.8000X1.8000*%
%ADD12C,0.9906*%
%ADD13C,2.5000*%
%ADD14C,0.6000*%
%ADD15C,0.6096*%
%ADD16C,0.0163*%

%LPD*%
G36*
X325678Y-2654096D02*
G01*
X301142Y-2653080D01*
X277825Y-2650286D01*
X254812Y-2645714D01*
X232206Y-2639314D01*
X210210Y-2631135D01*
X188874Y-2621280D01*
X168402Y-2609799D01*
X148894Y-2596692D01*
X130454Y-2582164D01*
X113233Y-2566162D01*
X97332Y-2548890D01*
X82804Y-2530449D01*
X69799Y-2510891D01*
X58369Y-2490419D01*
X48564Y-2469083D01*
X40436Y-2447036D01*
X34137Y-2424430D01*
X29565Y-2401366D01*
X26822Y-2378049D01*
X25908Y-2354326D01*
X25908Y-390702D01*
X26873Y-366166D01*
X29667Y-342849D01*
X34290Y-319786D01*
X40690Y-297230D01*
X48869Y-275183D01*
X58724Y-253898D01*
X70205Y-233425D01*
X83312Y-213918D01*
X97840Y-195478D01*
X113842Y-178257D01*
X131064Y-162356D01*
X149555Y-147828D01*
X169062Y-134823D01*
X189585Y-123342D01*
X210921Y-113537D01*
X232968Y-105460D01*
X255574Y-99110D01*
X278587Y-94538D01*
X301955Y-91846D01*
X325678Y-90932D01*
X881176Y-91694D01*
X885291Y-92608D01*
X888746Y-95097D01*
X890828Y-98806D01*
X891235Y-103022D01*
X889863Y-107086D01*
X886968Y-110185D01*
X884123Y-112217D01*
X877214Y-119075D01*
X871626Y-127050D01*
X867511Y-135890D01*
X864971Y-145288D01*
X864158Y-154990D01*
X864971Y-164693D01*
X867511Y-174091D01*
X871626Y-182930D01*
X875995Y-189179D01*
X877620Y-192938D01*
X877620Y-197053D01*
X875995Y-200812D01*
X871626Y-207060D01*
X867511Y-215900D01*
X864971Y-225298D01*
X864158Y-235000D01*
X864971Y-244703D01*
X867511Y-254101D01*
X871626Y-262940D01*
X875995Y-269189D01*
X877620Y-272948D01*
X877620Y-277063D01*
X875995Y-280822D01*
X871626Y-287070D01*
X867511Y-295910D01*
X864971Y-305308D01*
X864158Y-315010D01*
X864971Y-324713D01*
X867511Y-334111D01*
X871626Y-342950D01*
X877214Y-350926D01*
X884123Y-357784D01*
X892098Y-363372D01*
X900887Y-367487D01*
X910336Y-370027D01*
X920038Y-370890D01*
X929690Y-370027D01*
X939139Y-367487D01*
X947928Y-363372D01*
X955903Y-357784D01*
X962812Y-350926D01*
X968400Y-342950D01*
X972515Y-334111D01*
X975055Y-324713D01*
X975868Y-315010D01*
X975055Y-305308D01*
X972515Y-295910D01*
X968400Y-287070D01*
X964031Y-280822D01*
X962406Y-277063D01*
X962406Y-272948D01*
X964031Y-269189D01*
X968400Y-262940D01*
X972515Y-254101D01*
X975055Y-244703D01*
X975868Y-235000D01*
X975055Y-225298D01*
X972515Y-215900D01*
X968400Y-207060D01*
X964031Y-200812D01*
X962406Y-197053D01*
X962406Y-192938D01*
X964031Y-189179D01*
X968400Y-182930D01*
X972515Y-174091D01*
X975055Y-164693D01*
X975868Y-154990D01*
X975055Y-145288D01*
X972515Y-135890D01*
X968400Y-127050D01*
X962812Y-119075D01*
X955903Y-112217D01*
X953211Y-110286D01*
X950315Y-107187D01*
X948944Y-103124D01*
X949350Y-98907D01*
X951484Y-95199D01*
X954887Y-92710D01*
X959053Y-91795D01*
X3829304Y-95910D01*
X3853840Y-96875D01*
X3877157Y-99669D01*
X3900170Y-104292D01*
X3922776Y-110693D01*
X3944823Y-118872D01*
X3966108Y-128727D01*
X3986580Y-140208D01*
X4006087Y-153314D01*
X4024528Y-167843D01*
X4041749Y-183794D01*
X4057650Y-201066D01*
X4072178Y-219557D01*
X4085183Y-239064D01*
X4096613Y-259588D01*
X4106418Y-280924D01*
X4114546Y-302971D01*
X4120896Y-325577D01*
X4125417Y-348589D01*
X4128160Y-371957D01*
X4128973Y-392582D01*
X4128262Y-400710D01*
X4129074Y-2352141D01*
X4128109Y-2376678D01*
X4125315Y-2399995D01*
X4120692Y-2423007D01*
X4114292Y-2445613D01*
X4106113Y-2467610D01*
X4096258Y-2488946D01*
X4084777Y-2509418D01*
X4071721Y-2528925D01*
X4057142Y-2547315D01*
X4041190Y-2564536D01*
X4023918Y-2580487D01*
X4005427Y-2594965D01*
X3985920Y-2608021D01*
X3965397Y-2619451D01*
X3944061Y-2629255D01*
X3922014Y-2637332D01*
X3899408Y-2643682D01*
X3876395Y-2648254D01*
X3853078Y-2650947D01*
X3828999Y-2651912D01*
X3818280Y-2654096D01*
G37*

%LPC*%
G36*
X324967Y-2505862D02*
G01*
X341884Y-2504897D01*
X358546Y-2502052D01*
X374802Y-2497378D01*
X390448Y-2490927D01*
X405231Y-2482697D01*
X419049Y-2472944D01*
X431647Y-2461666D01*
X442925Y-2449017D01*
X452729Y-2435250D01*
X460908Y-2420416D01*
X467410Y-2404770D01*
X472084Y-2388514D01*
X474929Y-2371852D01*
X475843Y-2354935D01*
X474929Y-2338070D01*
X472084Y-2321356D01*
X467410Y-2305100D01*
X460908Y-2289505D01*
X452729Y-2274671D01*
X442925Y-2260854D01*
X431647Y-2248255D01*
X419049Y-2236978D01*
X405231Y-2227173D01*
X390448Y-2218994D01*
X374802Y-2212543D01*
X358546Y-2207869D01*
X341884Y-2205024D01*
X324967Y-2204059D01*
X308051Y-2205024D01*
X291388Y-2207869D01*
X275132Y-2212543D01*
X259486Y-2218994D01*
X244703Y-2227173D01*
X230886Y-2236978D01*
X218287Y-2248255D01*
X207010Y-2260854D01*
X197205Y-2274671D01*
X189026Y-2289505D01*
X182524Y-2305100D01*
X177850Y-2321356D01*
X175006Y-2338070D01*
X174091Y-2354935D01*
X175006Y-2371852D01*
X177850Y-2388514D01*
X182524Y-2404770D01*
X189026Y-2420416D01*
X197205Y-2435250D01*
X207010Y-2449017D01*
X218287Y-2461666D01*
X230886Y-2472944D01*
X244703Y-2482697D01*
X259486Y-2490927D01*
X275132Y-2497378D01*
X291388Y-2502052D01*
X308051Y-2504897D01*
G37*
G36*
X3829964Y-2503881D02*
G01*
X3846880Y-2502916D01*
X3863543Y-2500071D01*
X3879799Y-2495397D01*
X3895445Y-2488946D01*
X3910228Y-2480716D01*
X3924046Y-2470962D01*
X3936644Y-2459685D01*
X3947922Y-2447036D01*
X3957726Y-2433269D01*
X3965905Y-2418435D01*
X3972407Y-2402789D01*
X3977081Y-2386533D01*
X3979926Y-2369870D01*
X3980840Y-2352954D01*
X3979926Y-2336088D01*
X3977081Y-2319375D01*
X3972407Y-2303119D01*
X3965905Y-2287524D01*
X3957726Y-2272690D01*
X3947922Y-2258872D01*
X3936644Y-2246274D01*
X3924046Y-2234996D01*
X3910228Y-2225192D01*
X3895445Y-2217013D01*
X3879799Y-2210562D01*
X3863543Y-2205888D01*
X3846880Y-2203043D01*
X3829964Y-2202078D01*
X3813048Y-2203043D01*
X3796385Y-2205888D01*
X3780129Y-2210562D01*
X3764483Y-2217013D01*
X3749700Y-2225192D01*
X3735882Y-2234996D01*
X3723284Y-2246274D01*
X3712006Y-2258872D01*
X3702202Y-2272690D01*
X3694023Y-2287524D01*
X3687521Y-2303119D01*
X3682847Y-2319375D01*
X3680002Y-2336088D01*
X3679088Y-2352954D01*
X3680002Y-2369870D01*
X3682847Y-2386533D01*
X3687521Y-2402789D01*
X3694023Y-2418435D01*
X3702202Y-2433269D01*
X3712006Y-2447036D01*
X3723284Y-2459685D01*
X3735882Y-2470962D01*
X3749700Y-2480716D01*
X3764483Y-2488946D01*
X3780129Y-2495397D01*
X3796385Y-2500071D01*
X3813048Y-2502916D01*
G37*
G36*
X2265019Y-2420874D02*
G01*
X2274671Y-2420010D01*
X2284120Y-2417470D01*
X2292908Y-2413355D01*
X2300884Y-2407767D01*
X2307793Y-2400909D01*
X2313381Y-2392934D01*
X2317496Y-2384094D01*
X2320036Y-2374696D01*
X2320848Y-2364994D01*
X2320036Y-2355291D01*
X2317496Y-2345893D01*
X2313381Y-2337054D01*
X2307793Y-2329078D01*
X2300884Y-2322220D01*
X2292908Y-2316632D01*
X2284120Y-2312517D01*
X2274671Y-2309977D01*
X2265019Y-2309114D01*
X2255316Y-2309977D01*
X2245868Y-2312517D01*
X2237079Y-2316632D01*
X2229104Y-2322220D01*
X2222195Y-2329078D01*
X2216607Y-2337054D01*
X2212492Y-2345893D01*
X2209952Y-2355291D01*
X2209139Y-2364994D01*
X2209952Y-2374696D01*
X2212492Y-2384094D01*
X2216607Y-2392934D01*
X2222195Y-2400909D01*
X2229104Y-2407767D01*
X2237079Y-2413355D01*
X2245868Y-2417470D01*
X2255316Y-2420010D01*
G37*
G36*
X1970024Y-2220874D02*
G01*
X1979675Y-2220010D01*
X1989124Y-2217470D01*
X1997913Y-2213356D01*
X2005888Y-2207768D01*
X2012797Y-2200910D01*
X2018385Y-2192934D01*
X2022500Y-2184095D01*
X2025040Y-2174697D01*
X2025853Y-2164994D01*
X2025040Y-2155291D01*
X2022500Y-2145893D01*
X2018385Y-2137054D01*
X2012797Y-2129078D01*
X2005888Y-2122220D01*
X1997913Y-2116632D01*
X1989124Y-2112518D01*
X1979675Y-2109978D01*
X1970024Y-2109114D01*
X1960321Y-2109978D01*
X1950872Y-2112518D01*
X1942084Y-2116632D01*
X1934108Y-2122220D01*
X1927199Y-2129078D01*
X1921611Y-2137054D01*
X1917496Y-2145893D01*
X1914956Y-2155291D01*
X1914143Y-2164994D01*
X1914956Y-2174697D01*
X1917496Y-2184095D01*
X1921611Y-2192934D01*
X1927199Y-2200910D01*
X1934108Y-2207768D01*
X1942084Y-2213356D01*
X1950872Y-2217470D01*
X1960321Y-2220010D01*
G37*
G36*
X1775002Y-2215845D02*
G01*
X1784705Y-2215032D01*
X1794103Y-2212492D01*
X1802942Y-2208377D01*
X1810918Y-2202789D01*
X1817776Y-2195880D01*
X1823364Y-2187905D01*
X1827479Y-2179116D01*
X1830019Y-2169668D01*
X1830882Y-2160016D01*
X1830019Y-2150313D01*
X1827479Y-2140864D01*
X1823364Y-2132076D01*
X1817776Y-2124100D01*
X1810918Y-2117191D01*
X1802942Y-2111603D01*
X1794103Y-2107488D01*
X1784705Y-2104948D01*
X1775002Y-2104136D01*
X1765300Y-2104948D01*
X1755902Y-2107488D01*
X1747062Y-2111603D01*
X1739087Y-2117191D01*
X1732229Y-2124100D01*
X1726641Y-2132076D01*
X1722526Y-2140864D01*
X1719986Y-2150313D01*
X1719122Y-2160016D01*
X1719986Y-2169668D01*
X1722526Y-2179116D01*
X1726641Y-2187905D01*
X1732229Y-2195880D01*
X1739087Y-2202789D01*
X1747062Y-2208377D01*
X1755902Y-2212492D01*
X1765300Y-2215032D01*
G37*
G36*
X2204974Y-2205837D02*
G01*
X2214676Y-2205024D01*
X2224125Y-2202484D01*
X2232914Y-2198370D01*
X2240889Y-2192782D01*
X2247798Y-2185873D01*
X2253386Y-2177897D01*
X2257501Y-2169109D01*
X2260041Y-2159660D01*
X2260854Y-2150008D01*
X2260041Y-2140305D01*
X2257501Y-2130856D01*
X2253386Y-2122068D01*
X2247798Y-2114092D01*
X2240889Y-2107184D01*
X2232914Y-2101596D01*
X2224125Y-2097481D01*
X2214676Y-2094941D01*
X2204974Y-2094128D01*
X2195322Y-2094941D01*
X2185873Y-2097481D01*
X2177084Y-2101596D01*
X2169109Y-2107184D01*
X2162200Y-2114092D01*
X2156612Y-2122068D01*
X2152497Y-2130856D01*
X2149957Y-2140305D01*
X2149144Y-2150008D01*
X2149957Y-2159660D01*
X2152497Y-2169109D01*
X2156612Y-2177897D01*
X2162200Y-2185873D01*
X2169109Y-2192782D01*
X2177084Y-2198370D01*
X2185873Y-2202484D01*
X2195322Y-2205024D01*
G37*
G36*
X3794963Y-2085848D02*
G01*
X3804665Y-2085035D01*
X3814114Y-2082495D01*
X3822903Y-2078380D01*
X3830878Y-2072792D01*
X3837787Y-2065883D01*
X3843375Y-2057907D01*
X3847490Y-2049119D01*
X3850030Y-2039670D01*
X3850843Y-2030018D01*
X3850030Y-2020316D01*
X3847490Y-2010867D01*
X3843375Y-2002078D01*
X3837787Y-1994103D01*
X3830878Y-1987194D01*
X3822903Y-1981606D01*
X3814114Y-1977491D01*
X3804665Y-1974951D01*
X3794963Y-1974138D01*
X3785311Y-1974951D01*
X3775862Y-1977491D01*
X3767074Y-1981606D01*
X3759098Y-1987194D01*
X3752189Y-1994103D01*
X3746601Y-2002078D01*
X3742486Y-2010867D01*
X3739946Y-2020316D01*
X3739134Y-2030018D01*
X3739946Y-2039670D01*
X3742486Y-2049119D01*
X3746601Y-2057907D01*
X3752189Y-2065883D01*
X3759098Y-2072792D01*
X3767074Y-2078380D01*
X3775862Y-2082495D01*
X3785311Y-2085035D01*
G37*
G36*
X1929892Y-1990902D02*
G01*
X1939594Y-1990039D01*
X1948992Y-1987499D01*
X1957832Y-1983384D01*
X1965807Y-1977796D01*
X1972665Y-1970938D01*
X1978253Y-1962962D01*
X1982368Y-1954123D01*
X1984908Y-1944725D01*
X1985772Y-1935022D01*
X1984908Y-1925320D01*
X1982368Y-1915922D01*
X1978253Y-1907082D01*
X1972665Y-1899107D01*
X1965807Y-1892249D01*
X1957832Y-1886661D01*
X1948992Y-1882546D01*
X1939594Y-1880006D01*
X1929892Y-1879142D01*
X1920189Y-1880006D01*
X1910791Y-1882546D01*
X1901952Y-1886661D01*
X1893976Y-1892249D01*
X1887118Y-1899107D01*
X1881530Y-1907082D01*
X1877415Y-1915922D01*
X1874875Y-1925320D01*
X1874012Y-1935022D01*
X1874875Y-1944725D01*
X1877415Y-1954123D01*
X1881530Y-1962962D01*
X1887118Y-1970938D01*
X1893976Y-1977796D01*
X1901952Y-1983384D01*
X1910791Y-1987499D01*
X1920189Y-1990039D01*
G37*
G36*
X2265019Y-1880870D02*
G01*
X2274671Y-1880006D01*
X2284120Y-1877466D01*
X2292908Y-1873351D01*
X2300884Y-1867763D01*
X2307793Y-1860905D01*
X2313381Y-1852930D01*
X2317496Y-1844090D01*
X2320036Y-1834692D01*
X2320848Y-1824989D01*
X2320036Y-1815287D01*
X2317496Y-1805889D01*
X2313381Y-1797050D01*
X2307793Y-1789074D01*
X2300884Y-1782216D01*
X2292908Y-1776628D01*
X2284120Y-1772513D01*
X2274671Y-1769973D01*
X2265019Y-1769110D01*
X2255316Y-1769973D01*
X2245868Y-1772513D01*
X2237079Y-1776628D01*
X2229104Y-1782216D01*
X2222195Y-1789074D01*
X2216607Y-1797050D01*
X2212492Y-1805889D01*
X2209952Y-1815287D01*
X2209139Y-1824989D01*
X2209952Y-1834692D01*
X2212492Y-1844090D01*
X2216607Y-1852930D01*
X2222195Y-1860905D01*
X2229104Y-1867763D01*
X2237079Y-1873351D01*
X2245868Y-1877466D01*
X2255316Y-1880006D01*
G37*
G36*
X3225038Y-1790750D02*
G01*
X3234740Y-1789887D01*
X3244138Y-1787347D01*
X3252978Y-1783232D01*
X3260953Y-1777644D01*
X3267811Y-1770786D01*
X3273399Y-1762810D01*
X3277514Y-1753971D01*
X3280054Y-1744573D01*
X3280918Y-1734870D01*
X3280054Y-1725168D01*
X3277514Y-1715770D01*
X3273399Y-1706930D01*
X3267811Y-1698955D01*
X3260953Y-1692097D01*
X3252978Y-1686509D01*
X3244138Y-1682394D01*
X3234740Y-1679854D01*
X3225038Y-1678990D01*
X3215335Y-1679854D01*
X3205937Y-1682394D01*
X3197098Y-1686509D01*
X3189122Y-1692097D01*
X3182264Y-1698955D01*
X3176676Y-1706930D01*
X3172561Y-1715770D01*
X3170021Y-1725168D01*
X3169158Y-1734870D01*
X3170021Y-1744573D01*
X3172561Y-1753971D01*
X3176676Y-1762810D01*
X3182264Y-1770786D01*
X3189122Y-1777644D01*
X3197098Y-1783232D01*
X3205937Y-1787347D01*
X3215335Y-1789887D01*
G37*
G36*
X2815031Y-1780844D02*
G01*
X2824683Y-1780032D01*
X2834132Y-1777492D01*
X2842920Y-1773377D01*
X2850896Y-1767789D01*
X2857754Y-1760931D01*
X2864104Y-1751787D01*
X2866898Y-1749043D01*
X2870504Y-1747570D01*
X2874416Y-1747570D01*
X2878023Y-1749043D01*
X2880817Y-1751787D01*
X2887116Y-1760880D01*
X2893974Y-1767738D01*
X2901950Y-1773326D01*
X2910789Y-1777441D01*
X2920187Y-1779981D01*
X2929890Y-1780844D01*
X2939592Y-1779981D01*
X2948990Y-1777441D01*
X2957830Y-1773326D01*
X2965805Y-1767738D01*
X2972663Y-1760880D01*
X2978251Y-1752904D01*
X2982366Y-1744065D01*
X2984906Y-1734667D01*
X2985770Y-1724964D01*
X2984906Y-1715262D01*
X2982366Y-1705864D01*
X2978251Y-1697024D01*
X2972663Y-1689049D01*
X2969869Y-1686204D01*
X2967532Y-1682648D01*
X2966872Y-1678482D01*
X2967990Y-1674418D01*
X2970631Y-1671116D01*
X2974390Y-1669237D01*
X2979369Y-1667865D01*
X2988310Y-1663750D01*
X2996336Y-1658112D01*
X3003296Y-1651152D01*
X3008934Y-1643125D01*
X3013049Y-1634185D01*
X3015589Y-1624736D01*
X3016453Y-1614932D01*
X3015589Y-1605127D01*
X3013049Y-1595678D01*
X3008934Y-1586738D01*
X3003296Y-1578711D01*
X2996336Y-1571752D01*
X2988310Y-1566113D01*
X2979369Y-1561998D01*
X2969920Y-1559458D01*
X2960116Y-1558594D01*
X2950311Y-1559458D01*
X2940862Y-1561998D01*
X2931922Y-1566113D01*
X2923895Y-1571752D01*
X2916936Y-1578711D01*
X2911297Y-1586738D01*
X2907182Y-1595678D01*
X2904642Y-1605127D01*
X2903778Y-1614932D01*
X2904642Y-1624736D01*
X2907182Y-1634185D01*
X2911297Y-1643125D01*
X2916936Y-1651152D01*
X2920034Y-1654200D01*
X2922320Y-1657756D01*
X2922981Y-1661922D01*
X2921863Y-1665986D01*
X2919222Y-1669288D01*
X2915462Y-1671218D01*
X2910789Y-1672488D01*
X2901950Y-1676603D01*
X2893974Y-1682191D01*
X2887116Y-1689049D01*
X2880817Y-1698193D01*
X2878023Y-1700936D01*
X2874416Y-1702409D01*
X2870504Y-1702409D01*
X2866847Y-1700936D01*
X2864053Y-1698193D01*
X2857754Y-1689049D01*
X2850896Y-1682191D01*
X2842920Y-1676603D01*
X2834132Y-1672488D01*
X2824683Y-1669948D01*
X2815031Y-1669135D01*
X2805328Y-1669948D01*
X2795879Y-1672488D01*
X2787091Y-1676603D01*
X2779115Y-1682191D01*
X2772206Y-1689100D01*
X2766618Y-1697075D01*
X2762504Y-1705864D01*
X2759964Y-1715312D01*
X2759151Y-1725015D01*
X2759964Y-1734667D01*
X2762504Y-1744116D01*
X2766618Y-1752904D01*
X2772206Y-1760880D01*
X2779115Y-1767789D01*
X2787091Y-1773377D01*
X2795879Y-1777492D01*
X2805328Y-1780032D01*
G37*
G36*
X2579979Y-1771345D02*
G01*
X2589784Y-1770481D01*
X2599283Y-1767941D01*
X2608173Y-1763775D01*
X2616200Y-1758188D01*
X2623210Y-1751177D01*
X2624277Y-1749653D01*
X2627172Y-1746961D01*
X2630830Y-1745589D01*
X2634742Y-1745691D01*
X2638348Y-1747266D01*
X2647086Y-1753362D01*
X2655874Y-1757476D01*
X2665323Y-1760016D01*
X2674975Y-1760880D01*
X2684678Y-1760016D01*
X2694127Y-1757476D01*
X2702915Y-1753362D01*
X2710891Y-1747774D01*
X2717800Y-1740916D01*
X2723388Y-1732940D01*
X2727502Y-1724101D01*
X2730042Y-1714703D01*
X2730855Y-1705000D01*
X2730042Y-1695297D01*
X2727502Y-1685899D01*
X2723388Y-1677060D01*
X2717800Y-1669084D01*
X2710891Y-1662226D01*
X2702915Y-1656638D01*
X2694127Y-1652524D01*
X2684678Y-1649984D01*
X2674975Y-1649120D01*
X2665323Y-1649984D01*
X2655874Y-1652524D01*
X2647086Y-1656638D01*
X2639110Y-1662226D01*
X2629662Y-1671523D01*
X2626766Y-1673352D01*
X2623464Y-1674164D01*
X2620060Y-1673809D01*
X2616962Y-1672336D01*
X2608173Y-1666189D01*
X2599283Y-1662023D01*
X2589784Y-1659483D01*
X2579979Y-1658670D01*
X2570226Y-1659483D01*
X2560726Y-1662023D01*
X2551836Y-1666189D01*
X2543759Y-1671828D01*
X2536850Y-1678787D01*
X2531211Y-1686814D01*
X2527046Y-1695704D01*
X2524506Y-1705203D01*
X2523642Y-1715007D01*
X2524506Y-1724761D01*
X2527046Y-1734261D01*
X2531211Y-1743151D01*
X2536850Y-1751228D01*
X2543759Y-1758188D01*
X2551836Y-1763775D01*
X2560726Y-1767941D01*
X2570226Y-1770481D01*
G37*
G36*
X584962Y-1695754D02*
G01*
X594664Y-1694891D01*
X604062Y-1692351D01*
X612902Y-1688236D01*
X620877Y-1682648D01*
X627735Y-1675790D01*
X633323Y-1667814D01*
X637438Y-1658975D01*
X639978Y-1649577D01*
X640842Y-1639874D01*
X639978Y-1630172D01*
X637438Y-1620774D01*
X633323Y-1611934D01*
X627735Y-1603959D01*
X620877Y-1597101D01*
X612902Y-1591513D01*
X604062Y-1587398D01*
X594664Y-1584858D01*
X584962Y-1583994D01*
X575259Y-1584858D01*
X565861Y-1587398D01*
X557022Y-1591513D01*
X549046Y-1597101D01*
X542188Y-1603959D01*
X536600Y-1611934D01*
X532485Y-1620774D01*
X529945Y-1630172D01*
X529082Y-1639874D01*
X529945Y-1649577D01*
X532485Y-1658975D01*
X536600Y-1667814D01*
X542188Y-1675790D01*
X549046Y-1682648D01*
X557022Y-1688236D01*
X565861Y-1692351D01*
X575259Y-1694891D01*
G37*
G36*
X1215034Y-1545844D02*
G01*
X1224686Y-1545031D01*
X1234135Y-1542491D01*
X1242923Y-1538376D01*
X1250899Y-1532788D01*
X1257808Y-1525879D01*
X1263396Y-1517904D01*
X1267510Y-1509115D01*
X1270050Y-1499666D01*
X1270863Y-1490014D01*
X1270050Y-1480312D01*
X1267510Y-1470863D01*
X1263396Y-1462074D01*
X1257808Y-1454099D01*
X1250899Y-1447190D01*
X1242923Y-1441602D01*
X1234135Y-1437487D01*
X1224686Y-1434947D01*
X1215034Y-1434134D01*
X1205331Y-1434947D01*
X1195882Y-1437487D01*
X1187094Y-1441602D01*
X1179118Y-1447190D01*
X1172210Y-1454099D01*
X1166622Y-1462074D01*
X1162507Y-1470863D01*
X1159967Y-1480312D01*
X1159154Y-1490014D01*
X1159967Y-1499666D01*
X1162507Y-1509115D01*
X1166622Y-1517904D01*
X1172210Y-1525879D01*
X1179118Y-1532788D01*
X1187094Y-1538376D01*
X1195882Y-1542491D01*
X1205331Y-1545031D01*
G37*
G36*
X2399995Y-1540865D02*
G01*
X2409698Y-1540002D01*
X2419096Y-1537462D01*
X2427935Y-1533347D01*
X2435910Y-1527759D01*
X2442768Y-1520901D01*
X2448356Y-1512925D01*
X2452471Y-1504086D01*
X2455011Y-1494688D01*
X2455875Y-1484985D01*
X2455011Y-1475282D01*
X2452471Y-1465884D01*
X2448356Y-1457045D01*
X2442768Y-1449070D01*
X2435910Y-1442212D01*
X2430373Y-1438300D01*
X2427681Y-1435506D01*
X2426258Y-1431950D01*
X2426258Y-1428038D01*
X2427681Y-1424482D01*
X2430373Y-1421688D01*
X2435910Y-1417777D01*
X2442768Y-1410919D01*
X2448356Y-1402943D01*
X2452471Y-1394104D01*
X2455011Y-1384706D01*
X2455875Y-1375003D01*
X2455011Y-1365300D01*
X2452471Y-1355902D01*
X2448356Y-1347063D01*
X2442768Y-1339088D01*
X2435910Y-1332230D01*
X2427935Y-1326642D01*
X2419096Y-1322527D01*
X2409698Y-1319987D01*
X2399995Y-1319123D01*
X2390292Y-1319987D01*
X2380894Y-1322527D01*
X2372055Y-1326642D01*
X2364079Y-1332230D01*
X2357221Y-1339088D01*
X2351633Y-1347063D01*
X2347518Y-1355902D01*
X2344978Y-1365300D01*
X2344115Y-1375003D01*
X2344978Y-1384706D01*
X2347518Y-1394104D01*
X2351633Y-1402943D01*
X2357221Y-1410919D01*
X2364079Y-1417777D01*
X2369616Y-1421688D01*
X2372309Y-1424482D01*
X2373731Y-1428038D01*
X2373731Y-1431950D01*
X2372309Y-1435506D01*
X2369616Y-1438300D01*
X2364079Y-1442212D01*
X2357221Y-1449070D01*
X2351633Y-1457045D01*
X2347518Y-1465884D01*
X2344978Y-1475282D01*
X2344115Y-1484985D01*
X2344978Y-1494688D01*
X2347518Y-1504086D01*
X2351633Y-1512925D01*
X2357221Y-1520901D01*
X2364079Y-1527759D01*
X2372055Y-1533347D01*
X2380894Y-1537462D01*
X2390292Y-1540002D01*
G37*
G36*
X820013Y-1470863D02*
G01*
X829716Y-1470050D01*
X839114Y-1467510D01*
X847953Y-1463395D01*
X855929Y-1457807D01*
X862787Y-1450898D01*
X868375Y-1442923D01*
X872490Y-1434134D01*
X875030Y-1424686D01*
X875893Y-1415034D01*
X875030Y-1405331D01*
X872490Y-1395882D01*
X868375Y-1387094D01*
X862787Y-1379118D01*
X855929Y-1372209D01*
X847953Y-1366621D01*
X839114Y-1362506D01*
X829716Y-1359966D01*
X820013Y-1359154D01*
X810310Y-1359966D01*
X800912Y-1362506D01*
X792073Y-1366621D01*
X784098Y-1372209D01*
X777240Y-1379118D01*
X771652Y-1387094D01*
X767537Y-1395882D01*
X764997Y-1405331D01*
X764133Y-1415034D01*
X764997Y-1424686D01*
X767537Y-1434134D01*
X771652Y-1442923D01*
X777240Y-1450898D01*
X784098Y-1457807D01*
X792073Y-1463395D01*
X800912Y-1467510D01*
X810310Y-1470050D01*
G37*
G36*
X2954985Y-1426362D02*
G01*
X2964789Y-1425498D01*
X2974289Y-1422958D01*
X2983179Y-1418793D01*
X2991205Y-1413154D01*
X2998165Y-1406194D01*
X3003804Y-1398168D01*
X3007969Y-1389278D01*
X3010509Y-1379778D01*
X3011322Y-1369974D01*
X3010509Y-1360220D01*
X3007969Y-1350721D01*
X3003804Y-1341831D01*
X2998165Y-1333754D01*
X2991205Y-1326845D01*
X2983179Y-1321206D01*
X2974289Y-1317040D01*
X2964789Y-1314500D01*
X2954985Y-1313637D01*
X2945231Y-1314500D01*
X2935732Y-1317040D01*
X2926842Y-1321206D01*
X2918764Y-1326845D01*
X2911805Y-1333754D01*
X2906217Y-1341831D01*
X2902051Y-1350721D01*
X2899511Y-1360220D01*
X2898648Y-1369974D01*
X2899511Y-1379778D01*
X2902051Y-1389278D01*
X2906217Y-1398168D01*
X2911805Y-1406194D01*
X2918764Y-1413154D01*
X2926842Y-1418793D01*
X2935732Y-1422958D01*
X2945231Y-1425498D01*
G37*
G36*
X1638300Y-1424686D02*
G01*
X1649831Y-1423822D01*
X1661058Y-1421180D01*
X1671777Y-1416862D01*
X1681683Y-1410970D01*
X1690573Y-1403654D01*
X1698294Y-1395018D01*
X1704543Y-1385316D01*
X1709267Y-1374800D01*
X1712315Y-1363675D01*
X1713636Y-1352194D01*
X1713230Y-1340662D01*
X1710994Y-1329334D01*
X1707134Y-1318463D01*
X1701596Y-1308303D01*
X1694586Y-1299108D01*
X1686255Y-1291132D01*
X1676857Y-1284478D01*
X1666493Y-1279347D01*
X1655470Y-1275892D01*
X1644091Y-1274114D01*
X1632508Y-1274114D01*
X1621129Y-1275892D01*
X1610106Y-1279347D01*
X1599742Y-1284478D01*
X1590344Y-1291132D01*
X1582013Y-1299108D01*
X1575003Y-1308303D01*
X1569466Y-1318463D01*
X1565605Y-1329334D01*
X1563370Y-1340662D01*
X1562963Y-1352194D01*
X1564284Y-1363675D01*
X1567332Y-1374800D01*
X1572056Y-1385316D01*
X1578305Y-1395018D01*
X1586026Y-1403654D01*
X1594916Y-1410970D01*
X1604822Y-1416862D01*
X1615541Y-1421180D01*
X1626768Y-1423822D01*
G37*
G36*
X1841500Y-1424686D02*
G01*
X1853031Y-1423822D01*
X1864258Y-1421180D01*
X1874977Y-1416862D01*
X1884883Y-1410970D01*
X1893773Y-1403654D01*
X1901494Y-1395018D01*
X1907743Y-1385316D01*
X1912467Y-1374800D01*
X1915515Y-1363675D01*
X1916836Y-1352194D01*
X1916430Y-1340662D01*
X1914194Y-1329334D01*
X1910334Y-1318463D01*
X1904796Y-1308303D01*
X1897786Y-1299108D01*
X1889455Y-1291132D01*
X1880057Y-1284478D01*
X1869693Y-1279347D01*
X1858670Y-1275892D01*
X1847291Y-1274114D01*
X1835708Y-1274114D01*
X1824329Y-1275892D01*
X1813306Y-1279347D01*
X1802942Y-1284478D01*
X1793544Y-1291132D01*
X1785213Y-1299108D01*
X1778203Y-1308303D01*
X1772666Y-1318463D01*
X1768805Y-1329334D01*
X1766570Y-1340662D01*
X1766163Y-1352194D01*
X1767484Y-1363675D01*
X1770532Y-1374800D01*
X1775256Y-1385316D01*
X1781505Y-1395018D01*
X1789226Y-1403654D01*
X1798116Y-1410970D01*
X1808022Y-1416862D01*
X1818741Y-1421180D01*
X1829968Y-1423822D01*
G37*
G36*
X2115007Y-1350873D02*
G01*
X2124710Y-1350010D01*
X2134108Y-1347470D01*
X2142947Y-1343355D01*
X2150922Y-1337767D01*
X2157780Y-1330909D01*
X2163368Y-1322933D01*
X2167483Y-1314094D01*
X2170023Y-1304696D01*
X2170887Y-1294993D01*
X2170023Y-1285290D01*
X2167483Y-1275892D01*
X2163368Y-1267053D01*
X2157780Y-1259078D01*
X2150922Y-1252220D01*
X2142947Y-1246632D01*
X2134108Y-1242517D01*
X2130247Y-1241450D01*
X2126335Y-1239418D01*
X2123643Y-1235913D01*
X2122728Y-1231646D01*
X2123643Y-1227328D01*
X2127504Y-1219098D01*
X2130044Y-1209700D01*
X2130856Y-1199997D01*
X2130044Y-1190294D01*
X2127504Y-1180896D01*
X2123389Y-1172057D01*
X2117801Y-1164082D01*
X2110892Y-1157224D01*
X2102916Y-1151636D01*
X2094128Y-1147521D01*
X2084679Y-1144981D01*
X2075027Y-1144117D01*
X2065324Y-1144981D01*
X2055875Y-1147521D01*
X2047087Y-1151636D01*
X2039112Y-1157224D01*
X2032203Y-1164082D01*
X2026615Y-1172057D01*
X2022500Y-1180896D01*
X2019960Y-1190294D01*
X2019147Y-1199997D01*
X2019960Y-1209700D01*
X2022500Y-1219098D01*
X2026615Y-1227937D01*
X2032203Y-1235913D01*
X2039112Y-1242771D01*
X2047087Y-1248359D01*
X2055875Y-1252474D01*
X2059787Y-1253540D01*
X2063648Y-1255572D01*
X2066340Y-1259078D01*
X2067306Y-1263345D01*
X2066340Y-1267663D01*
X2062530Y-1275892D01*
X2059990Y-1285290D01*
X2059127Y-1294993D01*
X2059990Y-1304696D01*
X2062530Y-1314094D01*
X2066645Y-1322933D01*
X2072233Y-1330909D01*
X2079091Y-1337767D01*
X2087067Y-1343355D01*
X2095906Y-1347470D01*
X2105304Y-1350010D01*
G37*
G36*
X1214983Y-1345844D02*
G01*
X1224686Y-1345031D01*
X1234084Y-1342491D01*
X1242923Y-1338376D01*
X1250899Y-1332788D01*
X1257808Y-1325930D01*
X1263396Y-1317955D01*
X1267510Y-1309116D01*
X1270000Y-1299718D01*
X1270863Y-1290015D01*
X1270000Y-1280312D01*
X1267510Y-1270914D01*
X1263396Y-1262075D01*
X1257808Y-1254099D01*
X1250899Y-1247190D01*
X1242923Y-1241602D01*
X1234084Y-1237488D01*
X1224686Y-1234998D01*
X1214983Y-1234135D01*
X1205280Y-1234998D01*
X1195882Y-1237488D01*
X1187043Y-1241602D01*
X1179068Y-1247190D01*
X1172210Y-1254099D01*
X1166622Y-1262075D01*
X1162507Y-1270914D01*
X1159967Y-1280312D01*
X1159154Y-1290015D01*
X1159967Y-1299718D01*
X1162507Y-1309116D01*
X1166622Y-1317955D01*
X1172210Y-1325930D01*
X1179068Y-1332788D01*
X1187043Y-1338376D01*
X1195882Y-1342491D01*
X1205280Y-1345031D01*
G37*
G36*
X3655822Y-1331671D02*
G01*
X3665474Y-1330807D01*
X3674922Y-1328267D01*
X3683711Y-1324152D01*
X3691686Y-1318564D01*
X3698595Y-1311706D01*
X3704183Y-1303731D01*
X3708298Y-1294892D01*
X3710838Y-1285494D01*
X3711651Y-1275791D01*
X3710838Y-1266088D01*
X3708298Y-1256690D01*
X3704183Y-1247851D01*
X3698595Y-1239875D01*
X3691686Y-1233017D01*
X3683711Y-1227429D01*
X3674922Y-1223314D01*
X3665474Y-1220774D01*
X3655822Y-1219911D01*
X3646119Y-1220774D01*
X3636670Y-1223314D01*
X3627882Y-1227429D01*
X3619906Y-1233017D01*
X3612997Y-1239875D01*
X3607409Y-1247851D01*
X3603294Y-1256690D01*
X3600754Y-1266088D01*
X3599942Y-1275791D01*
X3600754Y-1285494D01*
X3603294Y-1294892D01*
X3607409Y-1303731D01*
X3612997Y-1311706D01*
X3619906Y-1318564D01*
X3627882Y-1324152D01*
X3636670Y-1328267D01*
X3646119Y-1330807D01*
G37*
G36*
X115570Y-1272895D02*
G01*
X294386Y-1272895D01*
X300736Y-1272184D01*
X306171Y-1270254D01*
X311099Y-1267155D01*
X315163Y-1263091D01*
X318262Y-1258163D01*
X320192Y-1252728D01*
X320903Y-1246378D01*
X320903Y-1067562D01*
X320192Y-1061212D01*
X318262Y-1055776D01*
X315163Y-1050848D01*
X311099Y-1046784D01*
X306171Y-1043686D01*
X300736Y-1041755D01*
X294386Y-1041044D01*
X115570Y-1041044D01*
X109220Y-1041755D01*
X103784Y-1043686D01*
X98856Y-1046784D01*
X94792Y-1050848D01*
X91694Y-1055776D01*
X89763Y-1061212D01*
X89052Y-1067562D01*
X89052Y-1246378D01*
X89763Y-1252728D01*
X91694Y-1258163D01*
X94792Y-1263091D01*
X98856Y-1267155D01*
X103784Y-1270254D01*
X109220Y-1272184D01*
G37*
G36*
X497078Y-1272844D02*
G01*
X511606Y-1271930D01*
X525881Y-1269238D01*
X539750Y-1264716D01*
X552907Y-1258519D01*
X565200Y-1250746D01*
X576427Y-1241450D01*
X586384Y-1230833D01*
X594918Y-1219047D01*
X601929Y-1206296D01*
X607314Y-1192784D01*
X610920Y-1178661D01*
X612749Y-1164234D01*
X612749Y-1149705D01*
X610920Y-1135278D01*
X607314Y-1121156D01*
X601929Y-1107643D01*
X594918Y-1094892D01*
X586384Y-1083106D01*
X576427Y-1072489D01*
X565200Y-1063193D01*
X552907Y-1055420D01*
X539750Y-1049223D01*
X525881Y-1044702D01*
X511606Y-1042009D01*
X497078Y-1041095D01*
X482549Y-1042009D01*
X468274Y-1044702D01*
X454406Y-1049223D01*
X441248Y-1055420D01*
X428955Y-1063193D01*
X417728Y-1072489D01*
X407771Y-1083106D01*
X399237Y-1094892D01*
X392226Y-1107643D01*
X386842Y-1121156D01*
X383235Y-1135278D01*
X381406Y-1149705D01*
X381406Y-1164234D01*
X383235Y-1178661D01*
X386842Y-1192784D01*
X392226Y-1206296D01*
X399237Y-1219047D01*
X407771Y-1230833D01*
X417728Y-1241450D01*
X428955Y-1250746D01*
X441248Y-1258519D01*
X454406Y-1264716D01*
X468274Y-1269238D01*
X482549Y-1271930D01*
G37*
G36*
X2739999Y-1270863D02*
G01*
X2749702Y-1270050D01*
X2759100Y-1267510D01*
X2767939Y-1263396D01*
X2775915Y-1257808D01*
X2782773Y-1250899D01*
X2788361Y-1242923D01*
X2792476Y-1234135D01*
X2795016Y-1224686D01*
X2795879Y-1215034D01*
X2795016Y-1205331D01*
X2792476Y-1195882D01*
X2788361Y-1187094D01*
X2782773Y-1179118D01*
X2775915Y-1172210D01*
X2767939Y-1166622D01*
X2759100Y-1162507D01*
X2749702Y-1159967D01*
X2739999Y-1159154D01*
X2730296Y-1159967D01*
X2720898Y-1162507D01*
X2712059Y-1166622D01*
X2704084Y-1172210D01*
X2697226Y-1179118D01*
X2691638Y-1187094D01*
X2687523Y-1195882D01*
X2684983Y-1205331D01*
X2684119Y-1215034D01*
X2684983Y-1224686D01*
X2687523Y-1234135D01*
X2691638Y-1242923D01*
X2697226Y-1250899D01*
X2704084Y-1257808D01*
X2712059Y-1263396D01*
X2720898Y-1267510D01*
X2730296Y-1270050D01*
G37*
G36*
X2585008Y-1216355D02*
G01*
X2594762Y-1215491D01*
X2604262Y-1212951D01*
X2613152Y-1208786D01*
X2621229Y-1203147D01*
X2628138Y-1196238D01*
X2633776Y-1188161D01*
X2637942Y-1179271D01*
X2640482Y-1169771D01*
X2641346Y-1160018D01*
X2640482Y-1150213D01*
X2637942Y-1140714D01*
X2633776Y-1131824D01*
X2628138Y-1123797D01*
X2621229Y-1116838D01*
X2613152Y-1111199D01*
X2604262Y-1107033D01*
X2594762Y-1104493D01*
X2585008Y-1103630D01*
X2575204Y-1104493D01*
X2565704Y-1107033D01*
X2556814Y-1111199D01*
X2548788Y-1116838D01*
X2541828Y-1123797D01*
X2536190Y-1131824D01*
X2532024Y-1140714D01*
X2529484Y-1150213D01*
X2528671Y-1160018D01*
X2529484Y-1169771D01*
X2532024Y-1179271D01*
X2536190Y-1188161D01*
X2541828Y-1196238D01*
X2548788Y-1203147D01*
X2556814Y-1208786D01*
X2565704Y-1212951D01*
X2575204Y-1215491D01*
G37*
G36*
X1579575Y-1120394D02*
G01*
X1589278Y-1119530D01*
X1598676Y-1116990D01*
X1607515Y-1112875D01*
X1615490Y-1107287D01*
X1622348Y-1100429D01*
X1627936Y-1092454D01*
X1632051Y-1083614D01*
X1634591Y-1074216D01*
X1635455Y-1064514D01*
X1634591Y-1054811D01*
X1632051Y-1045413D01*
X1627936Y-1036574D01*
X1622348Y-1028598D01*
X1615490Y-1021740D01*
X1607515Y-1016152D01*
X1598676Y-1012037D01*
X1589278Y-1009497D01*
X1579575Y-1008634D01*
X1569872Y-1009497D01*
X1560474Y-1012037D01*
X1551635Y-1016152D01*
X1543659Y-1021740D01*
X1536801Y-1028598D01*
X1531213Y-1036574D01*
X1527098Y-1045413D01*
X1524558Y-1054811D01*
X1523695Y-1064514D01*
X1524558Y-1074216D01*
X1527098Y-1083614D01*
X1531213Y-1092454D01*
X1536801Y-1100429D01*
X1543659Y-1107287D01*
X1551635Y-1112875D01*
X1560474Y-1116990D01*
X1569872Y-1119530D01*
G37*
G36*
X407670Y-1018895D02*
G01*
X586486Y-1018895D01*
X592836Y-1018184D01*
X598271Y-1016253D01*
X603199Y-1013155D01*
X607263Y-1009091D01*
X610362Y-1004163D01*
X612292Y-998728D01*
X613003Y-992378D01*
X613003Y-813562D01*
X612292Y-807212D01*
X610362Y-801776D01*
X607263Y-796848D01*
X603199Y-792784D01*
X598271Y-789686D01*
X592836Y-787755D01*
X586486Y-787044D01*
X407670Y-787044D01*
X401320Y-787755D01*
X395884Y-789686D01*
X390956Y-792784D01*
X386892Y-796848D01*
X383794Y-801776D01*
X381863Y-807212D01*
X381152Y-813562D01*
X381152Y-992378D01*
X381863Y-998728D01*
X383794Y-1004163D01*
X386892Y-1009091D01*
X390956Y-1013155D01*
X395884Y-1016253D01*
X401320Y-1018184D01*
G37*
G36*
X256336Y-1006652D02*
G01*
X260807Y-1004519D01*
X273100Y-996746D01*
X284327Y-987450D01*
X294284Y-976833D01*
X302818Y-965047D01*
X308711Y-954328D01*
X256336Y-954328D01*
G37*
G36*
X153619Y-1006652D02*
G01*
X153619Y-954328D01*
X101244Y-954328D01*
X107137Y-965047D01*
X115671Y-976833D01*
X125628Y-987450D01*
X136855Y-996746D01*
X149148Y-1004519D01*
G37*
G36*
X3339998Y-975868D02*
G01*
X3349701Y-975004D01*
X3359099Y-972464D01*
X3367938Y-968349D01*
X3375914Y-962761D01*
X3382772Y-955903D01*
X3388360Y-947928D01*
X3392474Y-939088D01*
X3395014Y-929690D01*
X3395878Y-919987D01*
X3395014Y-910285D01*
X3392474Y-900887D01*
X3388360Y-892048D01*
X3382772Y-884072D01*
X3375914Y-877214D01*
X3367938Y-871626D01*
X3359099Y-867511D01*
X3349701Y-864971D01*
X3339998Y-864108D01*
X3330295Y-864971D01*
X3320897Y-867511D01*
X3312058Y-871626D01*
X3304082Y-877214D01*
X3297224Y-884072D01*
X3291636Y-892048D01*
X3287522Y-900887D01*
X3284982Y-910285D01*
X3284118Y-919987D01*
X3284982Y-929690D01*
X3287522Y-939088D01*
X3291636Y-947928D01*
X3297224Y-955903D01*
X3304082Y-962761D01*
X3312058Y-968349D01*
X3320897Y-972464D01*
X3330295Y-975004D01*
G37*
G36*
X2564993Y-925880D02*
G01*
X2574696Y-925017D01*
X2584094Y-922477D01*
X2592933Y-918362D01*
X2600909Y-912774D01*
X2607767Y-905916D01*
X2613863Y-897229D01*
X2616149Y-894892D01*
X2618994Y-893368D01*
X2622804Y-892860D01*
X2626004Y-893368D01*
X2628849Y-894892D01*
X2631135Y-897229D01*
X2637231Y-905916D01*
X2644089Y-912774D01*
X2652064Y-918362D01*
X2660904Y-922477D01*
X2670302Y-925017D01*
X2680004Y-925880D01*
X2689707Y-925017D01*
X2699105Y-922477D01*
X2707944Y-918362D01*
X2715920Y-912774D01*
X2722778Y-905916D01*
X2728366Y-897940D01*
X2732481Y-889101D01*
X2735021Y-879703D01*
X2735884Y-870000D01*
X2735021Y-860298D01*
X2732481Y-850900D01*
X2728366Y-842060D01*
X2722778Y-834085D01*
X2715920Y-827227D01*
X2707944Y-821639D01*
X2699105Y-817524D01*
X2689707Y-814984D01*
X2680004Y-814120D01*
X2670302Y-814984D01*
X2660904Y-817524D01*
X2652064Y-821639D01*
X2644089Y-827227D01*
X2637231Y-834085D01*
X2631135Y-842771D01*
X2628849Y-845108D01*
X2626004Y-846632D01*
X2622194Y-847140D01*
X2618994Y-846632D01*
X2616149Y-845108D01*
X2613863Y-842771D01*
X2607767Y-834085D01*
X2600909Y-827227D01*
X2592933Y-821639D01*
X2584094Y-817524D01*
X2574696Y-814984D01*
X2564993Y-814120D01*
X2555290Y-814984D01*
X2545892Y-817524D01*
X2537053Y-821639D01*
X2529078Y-827227D01*
X2522220Y-834085D01*
X2516632Y-842060D01*
X2512517Y-850900D01*
X2509977Y-860298D01*
X2509113Y-870000D01*
X2509977Y-879703D01*
X2512517Y-889101D01*
X2516632Y-897940D01*
X2522220Y-905916D01*
X2529078Y-912774D01*
X2537053Y-918362D01*
X2545892Y-922477D01*
X2555290Y-925017D01*
G37*
G36*
X1739900Y-916686D02*
G01*
X1751431Y-915822D01*
X1762658Y-913180D01*
X1773377Y-908862D01*
X1783283Y-902969D01*
X1792173Y-895654D01*
X1799894Y-887018D01*
X1806143Y-877316D01*
X1810867Y-866800D01*
X1813915Y-855675D01*
X1815236Y-844194D01*
X1814830Y-832662D01*
X1812594Y-821334D01*
X1808734Y-810463D01*
X1803196Y-800303D01*
X1796186Y-791108D01*
X1787855Y-783132D01*
X1778457Y-776478D01*
X1768093Y-771347D01*
X1757070Y-767892D01*
X1745691Y-766114D01*
X1734108Y-766114D01*
X1722729Y-767892D01*
X1711706Y-771347D01*
X1701342Y-776478D01*
X1691944Y-783132D01*
X1683613Y-791108D01*
X1676603Y-800303D01*
X1671066Y-810463D01*
X1667205Y-821334D01*
X1664970Y-832662D01*
X1664563Y-844194D01*
X1665884Y-855675D01*
X1668932Y-866800D01*
X1673656Y-877316D01*
X1679905Y-887018D01*
X1687626Y-895654D01*
X1696516Y-902969D01*
X1706422Y-908862D01*
X1717141Y-913180D01*
X1728368Y-915822D01*
G37*
G36*
X256336Y-851611D02*
G01*
X308711Y-851611D01*
X302818Y-840892D01*
X294284Y-829106D01*
X284327Y-818489D01*
X273100Y-809193D01*
X260807Y-801420D01*
X256336Y-799287D01*
G37*
G36*
X101244Y-851611D02*
G01*
X153619Y-851611D01*
X153619Y-799287D01*
X149148Y-801420D01*
X136855Y-809193D01*
X125628Y-818489D01*
X115671Y-829106D01*
X107137Y-840892D01*
G37*
G36*
X3585006Y-825855D02*
G01*
X3594709Y-825042D01*
X3604107Y-822502D01*
X3612946Y-818388D01*
X3620922Y-812800D01*
X3627780Y-805891D01*
X3633368Y-797915D01*
X3637483Y-789127D01*
X3640023Y-779678D01*
X3640886Y-770026D01*
X3640023Y-760323D01*
X3637483Y-750874D01*
X3633368Y-742086D01*
X3627780Y-734110D01*
X3620922Y-727202D01*
X3612946Y-721614D01*
X3604107Y-717499D01*
X3594709Y-714959D01*
X3585006Y-714146D01*
X3575304Y-714959D01*
X3565906Y-717499D01*
X3557066Y-721614D01*
X3549091Y-727202D01*
X3542233Y-734110D01*
X3536645Y-742086D01*
X3532530Y-750874D01*
X3529990Y-760323D01*
X3529126Y-770026D01*
X3529990Y-779678D01*
X3532530Y-789127D01*
X3536645Y-797915D01*
X3542233Y-805891D01*
X3549091Y-812800D01*
X3557066Y-818388D01*
X3565906Y-822502D01*
X3575304Y-825042D01*
G37*
G36*
X1630019Y-775868D02*
G01*
X1639671Y-775004D01*
X1649120Y-772464D01*
X1657908Y-768350D01*
X1665884Y-762762D01*
X1672793Y-755904D01*
X1678381Y-747928D01*
X1682496Y-739089D01*
X1685036Y-729691D01*
X1685848Y-719988D01*
X1685036Y-710285D01*
X1682496Y-700887D01*
X1678381Y-692048D01*
X1672793Y-684072D01*
X1665884Y-677214D01*
X1657908Y-671626D01*
X1649120Y-667512D01*
X1639671Y-664972D01*
X1630019Y-664108D01*
X1620316Y-664972D01*
X1610868Y-667512D01*
X1602079Y-671626D01*
X1594104Y-677214D01*
X1587195Y-684072D01*
X1581607Y-692048D01*
X1577492Y-700887D01*
X1574952Y-710285D01*
X1574139Y-719988D01*
X1574952Y-729691D01*
X1577492Y-739089D01*
X1581607Y-747928D01*
X1587195Y-755904D01*
X1594104Y-762762D01*
X1602079Y-768350D01*
X1610868Y-772464D01*
X1620316Y-775004D01*
G37*
G36*
X3395014Y-750874D02*
G01*
X3404666Y-750011D01*
X3414115Y-747471D01*
X3422904Y-743356D01*
X3430879Y-737768D01*
X3437788Y-730910D01*
X3443376Y-722934D01*
X3447491Y-714095D01*
X3450031Y-704697D01*
X3450844Y-694994D01*
X3450031Y-685292D01*
X3447491Y-675894D01*
X3443376Y-667054D01*
X3437788Y-659079D01*
X3430879Y-652221D01*
X3422904Y-646633D01*
X3414115Y-642518D01*
X3404666Y-639978D01*
X3395014Y-639114D01*
X3385312Y-639978D01*
X3375863Y-642518D01*
X3367074Y-646633D01*
X3359099Y-652221D01*
X3352190Y-659079D01*
X3346602Y-667054D01*
X3342487Y-675894D01*
X3339947Y-685292D01*
X3339134Y-694994D01*
X3339947Y-704697D01*
X3342487Y-714095D01*
X3346602Y-722934D01*
X3352190Y-730910D01*
X3359099Y-737768D01*
X3367074Y-743356D01*
X3375863Y-747471D01*
X3385312Y-750011D01*
G37*
G36*
X1595628Y-613003D02*
G01*
X1774443Y-613003D01*
X1780793Y-612292D01*
X1786229Y-610362D01*
X1791157Y-607263D01*
X1795221Y-603199D01*
X1798320Y-598271D01*
X1800250Y-592836D01*
X1800961Y-586486D01*
X1800961Y-407670D01*
X1800250Y-401320D01*
X1798320Y-395884D01*
X1795221Y-390956D01*
X1791157Y-386892D01*
X1786229Y-383794D01*
X1780793Y-381863D01*
X1774443Y-381152D01*
X1595628Y-381152D01*
X1589278Y-381863D01*
X1583842Y-383794D01*
X1578914Y-386892D01*
X1574850Y-390956D01*
X1571752Y-395884D01*
X1569821Y-401320D01*
X1569110Y-407670D01*
X1569110Y-586486D01*
X1569821Y-592836D01*
X1571752Y-598271D01*
X1574850Y-603199D01*
X1578914Y-607263D01*
X1583842Y-610362D01*
X1589278Y-612292D01*
G37*
G36*
X3829964Y-545846D02*
G01*
X3846880Y-544880D01*
X3863543Y-542086D01*
X3879799Y-537362D01*
X3895445Y-530910D01*
X3910228Y-522732D01*
X3924046Y-512927D01*
X3936644Y-501650D01*
X3947922Y-489051D01*
X3957726Y-475234D01*
X3965905Y-460451D01*
X3972407Y-444804D01*
X3977081Y-428548D01*
X3979926Y-411835D01*
X3980840Y-394970D01*
X3979926Y-378053D01*
X3977081Y-361391D01*
X3972407Y-345135D01*
X3965905Y-329488D01*
X3957726Y-314706D01*
X3947922Y-300888D01*
X3936644Y-288239D01*
X3924046Y-277012D01*
X3910228Y-267208D01*
X3895445Y-259029D01*
X3879799Y-252526D01*
X3863543Y-247853D01*
X3846880Y-245008D01*
X3829964Y-244043D01*
X3813048Y-245008D01*
X3796385Y-247853D01*
X3780129Y-252526D01*
X3764483Y-259029D01*
X3749700Y-267208D01*
X3735882Y-277012D01*
X3723284Y-288239D01*
X3712006Y-300888D01*
X3702202Y-314706D01*
X3694023Y-329488D01*
X3687521Y-345135D01*
X3682847Y-361391D01*
X3680002Y-378053D01*
X3679088Y-394970D01*
X3680002Y-411835D01*
X3682847Y-428548D01*
X3687521Y-444804D01*
X3694023Y-460451D01*
X3702202Y-475234D01*
X3712006Y-489051D01*
X3723284Y-501650D01*
X3735882Y-512927D01*
X3749700Y-522732D01*
X3764483Y-530910D01*
X3780129Y-537362D01*
X3796385Y-542086D01*
X3813048Y-544880D01*
G37*
G36*
X325018Y-540867D02*
G01*
X341884Y-539953D01*
X358597Y-537108D01*
X374853Y-532434D01*
X390448Y-525932D01*
X405282Y-517753D01*
X419100Y-507949D01*
X431698Y-496671D01*
X442976Y-484073D01*
X452780Y-470255D01*
X460959Y-455472D01*
X467410Y-439826D01*
X472084Y-423570D01*
X474929Y-406908D01*
X475894Y-389991D01*
X474929Y-373126D01*
X472084Y-356412D01*
X467410Y-340156D01*
X460959Y-324510D01*
X452780Y-309727D01*
X442976Y-295910D01*
X431698Y-283311D01*
X419100Y-272034D01*
X405282Y-262229D01*
X390448Y-254050D01*
X374853Y-247599D01*
X358597Y-242874D01*
X341884Y-240080D01*
X325018Y-239115D01*
X308102Y-240080D01*
X291439Y-242874D01*
X275183Y-247599D01*
X259537Y-254050D01*
X244703Y-262229D01*
X230936Y-272034D01*
X218287Y-283311D01*
X207010Y-295910D01*
X197256Y-309727D01*
X189026Y-324510D01*
X182575Y-340156D01*
X177901Y-356412D01*
X175056Y-373126D01*
X174091Y-389991D01*
X175056Y-406908D01*
X177901Y-423570D01*
X182575Y-439826D01*
X189026Y-455472D01*
X197256Y-470255D01*
X207010Y-484073D01*
X218287Y-496671D01*
X230936Y-507949D01*
X244703Y-517753D01*
X259537Y-525932D01*
X275183Y-532434D01*
X291439Y-537108D01*
X308102Y-539953D01*
G37*
G36*
X1736394Y-346760D02*
G01*
X1740865Y-344627D01*
X1753158Y-336854D01*
X1764385Y-327558D01*
X1774342Y-316941D01*
X1782876Y-305155D01*
X1788769Y-294436D01*
X1736394Y-294436D01*
G37*
G36*
X1633677Y-346760D02*
G01*
X1633677Y-294436D01*
X1581302Y-294436D01*
X1587195Y-305155D01*
X1595729Y-316941D01*
X1605686Y-327558D01*
X1616913Y-336854D01*
X1629206Y-344627D01*
G37*
G36*
X2240026Y-345846D02*
G01*
X2249678Y-345033D01*
X2259126Y-342493D01*
X2267915Y-338378D01*
X2275890Y-332790D01*
X2282799Y-325882D01*
X2288387Y-317906D01*
X2292502Y-309118D01*
X2295042Y-299669D01*
X2295855Y-290017D01*
X2295042Y-280314D01*
X2292502Y-270865D01*
X2288387Y-262077D01*
X2282799Y-254101D01*
X2275890Y-247192D01*
X2267915Y-241604D01*
X2259126Y-237490D01*
X2249678Y-234950D01*
X2240026Y-234137D01*
X2230323Y-234950D01*
X2220874Y-237490D01*
X2212086Y-241604D01*
X2204110Y-247192D01*
X2197201Y-254101D01*
X2191613Y-262077D01*
X2187498Y-270865D01*
X2184958Y-280314D01*
X2184146Y-290017D01*
X2184958Y-299669D01*
X2187498Y-309118D01*
X2191613Y-317906D01*
X2197201Y-325882D01*
X2204110Y-332790D01*
X2212086Y-338378D01*
X2220874Y-342493D01*
X2230323Y-345033D01*
G37*
G36*
X1581302Y-191719D02*
G01*
X1633677Y-191719D01*
X1633677Y-139395D01*
X1629206Y-141528D01*
X1616913Y-149301D01*
X1605686Y-158597D01*
X1595729Y-169214D01*
X1587195Y-181000D01*
G37*
G36*
X1736394Y-191719D02*
G01*
X1788769Y-191719D01*
X1782876Y-181000D01*
X1774342Y-169214D01*
X1764385Y-158597D01*
X1753158Y-149301D01*
X1740865Y-141528D01*
X1736394Y-139395D01*
G37*

%LPD*%
D10*
G01*
X204978Y-902970D03*
D11*
G01*
X204978Y-1156970D03*
D10*
G01*
X1685036Y-243078D03*
D11*
G01*
X1685036Y-497078D03*
D10*
G01*
X497078Y-1156970D03*
D11*
G01*
X497078Y-902970D03*
D12*
G01*
X1841500Y-1349298D03*
G01*
X1638300Y-1349298D03*
G01*
X1739900Y-841298D03*
D13*
G01*
X324993Y-389991D03*
G01*
X324993Y-2354986D03*
G01*
X3829989Y-394995D03*
G01*
X3829989Y-2353005D03*
D14*
G01*
X939800Y-1044498D03*
G01*
X815009Y-759993D03*
G01*
X812800Y-841298D03*
G01*
X734999Y-764997D03*
G01*
X745007Y-629996D03*
G01*
X812800Y-587298D03*
G01*
X939800Y-1120698D03*
G01*
X2115007Y-1294993D03*
G01*
X2075002Y-1199997D03*
G01*
X1534998Y-1219987D03*
G01*
X1485011Y-2024989D03*
G01*
X2564993Y-870000D03*
G01*
X3085007Y-2240000D03*
G01*
X3210001Y-2240000D03*
G01*
X2929890Y-1724964D03*
G01*
X3225038Y-1734870D03*
G01*
X2815005Y-1724990D03*
G01*
X2675000Y-1705000D03*
G01*
X1579575Y-1064513D03*
G01*
X2680004Y-870000D03*
G01*
X2739999Y-1215009D03*
G01*
X3394989Y-694994D03*
G01*
X2399995Y-1375003D03*
G01*
X2399995Y-1484985D03*
G01*
X1969998Y-2164994D03*
G01*
X2410002Y-1629994D03*
G01*
X2204999Y-2149982D03*
G01*
X2954985Y-1264996D03*
G01*
X2485009Y-734999D03*
G01*
X2020011Y-2254986D03*
G01*
X1215009Y-1289989D03*
G01*
X1215009Y-1489989D03*
G01*
X2669997Y-475005D03*
G01*
X2975000Y-694994D03*
G01*
X2129993Y-694994D03*
G01*
X3255009Y-694994D03*
G01*
X436803Y-1387500D03*
G01*
X934999Y-1499996D03*
G01*
X1094994Y-1499996D03*
G01*
X2859989Y-2480005D03*
G01*
X2404999Y-2199995D03*
G01*
X2899994Y-2184984D03*
G01*
X3485006Y-2240000D03*
G01*
X3799992Y-1750009D03*
G01*
X3785006Y-1015009D03*
G01*
X2369997Y-694994D03*
G01*
X920013Y-154990D03*
G01*
X920013Y-235000D03*
G01*
X920013Y-315010D03*
G01*
X820013Y-1415008D03*
G01*
X584962Y-1639874D03*
G01*
X1775002Y-2159990D03*
G01*
X1929892Y-1935022D03*
G01*
X2185009Y-1875002D03*
G01*
X2240000Y-289991D03*
G01*
X2264994Y-2364994D03*
G01*
X2264994Y-1824989D03*
G01*
X1629994Y-719988D03*
G01*
X3339998Y-919987D03*
G01*
X3655796Y-1275791D03*
G01*
X3585006Y-770001D03*
G01*
X3794988Y-2029993D03*
D15*
G01*
X610006Y-2434996D03*
G01*
X585012Y-2285009D03*
G01*
X494995Y-2554986D03*
G01*
X185013Y-580009D03*
G01*
X515010Y-145008D03*
G01*
X515010Y-264998D03*
G01*
X3710000Y-599998D03*
G01*
X3834993Y-599998D03*
G01*
X3969994Y-599998D03*
G01*
X3650005Y-254990D03*
G01*
X3629990Y-2250008D03*
G01*
X3629990Y-2375001D03*
G01*
X3629990Y-2504998D03*
G01*
X2324988Y-2445004D03*
G01*
X2324988Y-2534996D03*
G01*
X1540002Y-1910003D03*
G01*
X1415008Y-1540002D03*
G01*
X1419987Y-1640001D03*
G01*
X1515008Y-1540002D03*
G01*
X889990Y-2564993D03*
G01*
X1054988Y-1829993D03*
G01*
X1054988Y-1950008D03*
G01*
X1054988Y-2064994D03*
G01*
X2910001Y-1494993D03*
G01*
X2769997Y-1385011D03*
G01*
X2580004Y-1610004D03*
G01*
X2134997Y-834999D03*
G01*
X1899996Y-794994D03*
G01*
X3419983Y-815009D03*
G01*
X1775002Y-1869998D03*
G01*
X1450009Y-205003D03*
G01*
X1450009Y-299999D03*
G01*
X1389989Y-445007D03*
G01*
X1319987Y-519988D03*
G01*
X424992Y-1719986D03*
G01*
X3915003Y-2159990D03*
G01*
X4024985Y-2159990D03*
G01*
X1075004Y-1315008D03*
G01*
X615010Y-705002D03*
G01*
X2489987Y-2604998D03*
G01*
X2729991Y-2599994D03*
G01*
X3419983Y-2599994D03*
G01*
X1605000Y-2585008D03*
G01*
X2960115Y-1614931D03*
G01*
X2954985Y-1369999D03*
G01*
X3139998Y-1045006D03*
G01*
X2585008Y-1159992D03*
G01*
X2580004Y-1715007D03*
G01*
X2864993Y-2359990D03*
G01*
X2985008Y-2609977D03*
G01*
X3124987Y-2380005D03*
G01*
X3119983Y-2515006D03*
G01*
X2769997Y-1494993D03*
G01*
X2769997Y-1605000D03*
G01*
X2450007Y-1215009D03*
G01*
X2580004Y-1494993D03*
G01*
X410006Y-585012D03*
G01*
X115011Y-1629994D03*
G01*
X480009Y-2185009D03*
G01*
X115011Y-2259990D03*
G01*
X1869998Y-205003D03*
G01*
X1380007Y-1259992D03*
G01*
X2694990Y-135001D03*
G01*
X3724986Y-170002D03*
G01*
X3134995Y-845007D03*
M02*
