M48
METRIC,LZ,000.000
;FILE_FORMAT=3:3
;TYPE=PLATED
;Layer: PTH_Through
;EasyEDA v6.5.40, 2024-02-08 20:30:12
;8a8f0ff451d84adea016c743fcc8db9f,2e16165ee3bb4678bfb3015e44e098b9,10
;Gerber Generator version 0.2
;Holesize 1 = 0.301 mm
T01C0.301
;Holesize 2 = 0.351 mm
T02C0.351
;Holesize 3 = 0.400 mm
T03C0.400
%
G05
G90
T01
X014986Y021082
X018288Y012827
X024130Y007747
X024638Y018415
X017145Y018542
X019558Y021209
X019050Y018542
X016510Y018161
X018669Y018034
X029718Y011430
X033020Y017272
X034163Y017272
X020955Y016256
X020955Y017145
X023495Y016891
X020447Y016637
X020193Y007620
X020828Y015113
X020828Y014351
X024130Y013335
X023368Y012700
X025654Y007112
X022225Y006477
X012954Y004191
X016002Y012827
X016510Y010160
X005334Y007874
X003683Y010795
X012446Y014097
X015113Y014859
X011811Y022987
X016383Y022606
X006858Y025273
X018288Y016637
X026543Y032639
X024892Y006731
X032385Y024130
X004572Y019812
X035687Y017399
X035687Y019939
X035560Y029718
X033782Y029718
X032512Y030861
X030480Y032385
X030480Y035433
X027305Y035306
X021717Y035560
X018923Y035560
X012954Y035560
X008763Y035560
X006477Y035560
X005842Y034163
X002794Y030734
X000889Y030480
X000889Y028702
X000762Y017907
X000762Y014351
X000889Y011049
X000889Y005969
X002667Y005842
X004318Y005461
X005842Y000889
X008763Y000762
X014224Y000635
X018669Y000762
X025527Y000762
X027305Y000762
X021463Y000762
X030353Y000889
X030734Y004064
X031750Y005207
X033401Y005461
X035179Y005842
X035560Y012192
X016002Y013462
X020193Y014351
X020447Y015748
X015875Y014859
X019812Y021844
X015494Y023622
X011684Y022352
X017526Y016637
X024130Y012446
X021590Y006858
X016002Y009525
X000889Y008636
X011049Y000762
X000762Y016637
X000762Y013208
X011938Y013462
X012319Y009144
X013589Y004826
X016002Y000635
X029210Y029337
X030607Y029337
X021717Y034163
X014732Y028702
X012700Y021844
X012954Y023368
X017399Y022606
X024765Y035306
X026035Y035306
X020066Y000762
X004572Y031115
X030353Y002540
X030353Y033909
X020320Y035560
X014351Y035560
X007620Y035560
X005334Y032639
X005461Y004191
X005842Y002540
X010033Y000762
X031623Y007620
X030353Y014986
X000508Y022860
X000508Y025400
X003810Y017907
T02
X006731Y018542
X013843Y019050
X035179Y006731
X034798Y011811
X015240Y017780
T03
X007239Y008255
X006858Y011811
X030353Y028067
X031369Y028067
X032131Y018288
X034925Y024892
X033655Y024892
X009906Y003683
X019939Y003556
X026797Y003810
X028702Y006350
X012319Y032766
X015113Y032766
X028829Y007493
X026924Y010160
X028702Y028067
X010033Y012954
X031877Y006477
X012298Y030734
X015129Y030734
X004445Y014097
X007493Y006477
X013589Y011557
X018161Y013970
X018669Y008128
X001651Y009779
X003556Y020574
X022606Y028829
X025781Y018288
X006223Y012954
X016891Y004572
X022733Y033147
X003175Y024130
X000635Y024130
X013716Y032766
M30
