G04 Layer: InnerLayer1*
G04 EasyEDA v6.5.40, 2024-02-08 20:30:12*
G04 8a8f0ff451d84adea016c743fcc8db9f,2e16165ee3bb4678bfb3015e44e098b9,10*
G04 Gerber Generator version 0.2*
G04 Scale: 100 percent, Rotated: No, Reflected: No *
G04 Dimensions in millimeters *
G04 leading zeros omitted , absolute positions ,4 integer and 5 decimal *
%FSLAX45Y45*%
%MOMM*%

%ADD10C,0.4500*%
%ADD11C,0.5500*%
%ADD12C,0.7000*%
%ADD13C,0.6500*%
%ADD14C,0.6000*%
%ADD15C,0.0150*%

%LPD*%
G36*
X300583Y20472D02*
G01*
X277672Y21437D01*
X255879Y24028D01*
X234391Y28346D01*
X213258Y34340D01*
X192684Y41960D01*
X172770Y51155D01*
X153619Y61925D01*
X135432Y74117D01*
X118211Y87731D01*
X102108Y102666D01*
X87223Y118821D01*
X73660Y136042D01*
X61518Y154330D01*
X50800Y173482D01*
X41656Y193395D01*
X34086Y214020D01*
X28143Y235153D01*
X23926Y256692D01*
X21336Y278485D01*
X20523Y300583D01*
X20523Y3349396D01*
X21437Y3372307D01*
X24028Y3394100D01*
X28346Y3415639D01*
X34340Y3436721D01*
X41960Y3457295D01*
X51155Y3477209D01*
X61925Y3496360D01*
X74117Y3514598D01*
X87731Y3531819D01*
X102666Y3547872D01*
X118821Y3562756D01*
X136042Y3576320D01*
X154330Y3588512D01*
X173482Y3599179D01*
X193395Y3608324D01*
X214020Y3615893D01*
X235153Y3621836D01*
X256692Y3626104D01*
X278485Y3628644D01*
X300583Y3629507D01*
X3349396Y3629507D01*
X3372307Y3628593D01*
X3394100Y3625951D01*
X3415639Y3621633D01*
X3436721Y3615639D01*
X3457295Y3608019D01*
X3477209Y3598824D01*
X3496360Y3588054D01*
X3514598Y3575862D01*
X3531819Y3562248D01*
X3547872Y3547313D01*
X3562756Y3531209D01*
X3576320Y3513937D01*
X3588512Y3495700D01*
X3599179Y3476498D01*
X3608324Y3456584D01*
X3615893Y3435959D01*
X3621836Y3414826D01*
X3626104Y3393338D01*
X3628644Y3371545D01*
X3629507Y3349396D01*
X3629507Y300583D01*
X3628593Y277672D01*
X3625951Y255879D01*
X3621633Y234391D01*
X3615639Y213258D01*
X3608019Y192684D01*
X3598824Y172770D01*
X3588054Y153619D01*
X3575862Y135432D01*
X3562248Y118211D01*
X3547313Y102108D01*
X3531209Y87223D01*
X3513937Y73660D01*
X3495700Y61518D01*
X3476498Y50800D01*
X3456584Y41656D01*
X3435959Y34086D01*
X3414826Y28143D01*
X3393338Y23926D01*
X3371545Y21336D01*
X3349396Y20472D01*
G37*

%LPC*%
G36*
X295249Y109575D02*
G01*
X314248Y110032D01*
X333095Y112369D01*
X351586Y116636D01*
X369620Y122682D01*
X386892Y130454D01*
X403352Y139954D01*
X418795Y151079D01*
X433019Y163626D01*
X445922Y177546D01*
X457403Y192684D01*
X467309Y208889D01*
X475538Y226009D01*
X482041Y243840D01*
X486714Y262229D01*
X489559Y281025D01*
X490524Y299974D01*
X489559Y318973D01*
X486714Y337769D01*
X482041Y356158D01*
X475538Y373989D01*
X467309Y391109D01*
X457403Y407314D01*
X445922Y422452D01*
X433019Y436372D01*
X418795Y448919D01*
X403352Y460044D01*
X386892Y469544D01*
X369620Y477316D01*
X351586Y483362D01*
X333095Y487629D01*
X314248Y489966D01*
X295249Y490423D01*
X276301Y489051D01*
X257606Y485749D01*
X239318Y480568D01*
X221640Y473659D01*
X204724Y464972D01*
X188772Y454659D01*
X173939Y442823D01*
X160324Y429564D01*
X148132Y415035D01*
X137464Y399338D01*
X128371Y382676D01*
X121005Y365150D01*
X115366Y347014D01*
X111607Y328371D01*
X109728Y309473D01*
X109728Y290525D01*
X111607Y271627D01*
X115366Y252984D01*
X121005Y234848D01*
X128371Y217322D01*
X137464Y200660D01*
X148132Y184962D01*
X160324Y170434D01*
X173939Y157175D01*
X188772Y145338D01*
X204724Y135026D01*
X221640Y126339D01*
X239318Y119430D01*
X257606Y114249D01*
X276301Y110947D01*
G37*
G36*
X3345281Y109575D02*
G01*
X3364229Y110032D01*
X3383076Y112369D01*
X3401618Y116636D01*
X3419601Y122682D01*
X3436924Y130454D01*
X3453384Y139954D01*
X3468776Y151079D01*
X3483000Y163626D01*
X3495954Y177546D01*
X3507435Y192684D01*
X3517290Y208889D01*
X3525570Y226009D01*
X3532073Y243840D01*
X3536746Y262229D01*
X3539591Y281025D01*
X3540506Y299974D01*
X3539591Y318973D01*
X3536746Y337769D01*
X3532073Y356158D01*
X3525570Y373989D01*
X3517290Y391109D01*
X3507435Y407314D01*
X3495954Y422452D01*
X3483000Y436372D01*
X3468776Y448919D01*
X3453384Y460044D01*
X3436924Y469544D01*
X3419601Y477316D01*
X3401618Y483362D01*
X3383076Y487629D01*
X3364229Y489966D01*
X3345281Y490423D01*
X3326333Y489051D01*
X3307638Y485749D01*
X3289350Y480568D01*
X3271672Y473659D01*
X3254756Y464972D01*
X3238804Y454659D01*
X3223971Y442823D01*
X3210356Y429564D01*
X3198164Y415035D01*
X3187446Y399338D01*
X3178352Y382676D01*
X3170986Y365150D01*
X3165398Y347014D01*
X3161639Y328371D01*
X3159760Y309473D01*
X3159760Y290525D01*
X3161639Y271627D01*
X3165398Y252984D01*
X3170986Y234848D01*
X3178352Y217322D01*
X3187446Y200660D01*
X3198164Y184962D01*
X3210356Y170434D01*
X3223971Y157175D01*
X3238804Y145338D01*
X3254756Y135026D01*
X3271672Y126339D01*
X3289350Y119430D01*
X3307638Y114249D01*
X3326333Y110947D01*
G37*
G36*
X1293469Y381203D02*
G01*
X1301140Y381558D01*
X1308608Y383489D01*
X1315466Y386892D01*
X1321562Y391566D01*
X1326540Y397408D01*
X1330299Y404114D01*
X1332585Y411480D01*
X1333347Y419100D01*
X1332585Y426720D01*
X1330299Y434085D01*
X1326540Y440791D01*
X1321562Y446633D01*
X1315466Y451307D01*
X1308608Y454710D01*
X1301140Y456641D01*
X1293469Y456996D01*
X1285900Y455879D01*
X1278686Y453186D01*
X1272184Y449122D01*
X1266596Y443839D01*
X1262227Y437540D01*
X1259179Y430479D01*
X1257604Y422960D01*
X1257604Y415239D01*
X1259179Y407720D01*
X1262227Y400659D01*
X1266596Y394360D01*
X1272184Y389077D01*
X1278686Y385013D01*
X1285900Y382320D01*
G37*
G36*
X2865780Y587248D02*
G01*
X2874619Y587248D01*
X2883306Y588873D01*
X2891586Y592074D01*
X2899105Y596696D01*
X2905658Y602691D01*
X2910992Y609752D01*
X2914954Y617677D01*
X2917342Y626160D01*
X2918155Y635000D01*
X2917342Y643839D01*
X2914954Y652322D01*
X2910992Y660247D01*
X2905658Y667308D01*
X2899105Y673303D01*
X2891586Y677926D01*
X2883306Y681126D01*
X2874619Y682752D01*
X2865780Y682752D01*
X2857093Y681126D01*
X2848813Y677926D01*
X2841294Y673303D01*
X2834741Y667308D01*
X2829407Y660247D01*
X2825445Y652322D01*
X2823057Y643839D01*
X2822244Y635000D01*
X2823057Y626160D01*
X2825445Y617677D01*
X2829407Y609752D01*
X2834741Y602691D01*
X2841294Y596696D01*
X2848813Y592074D01*
X2857093Y588873D01*
G37*
G36*
X2220569Y609803D02*
G01*
X2228240Y610158D01*
X2235708Y612089D01*
X2242566Y615492D01*
X2248662Y620166D01*
X2253640Y626008D01*
X2257399Y632714D01*
X2259685Y640080D01*
X2260447Y647700D01*
X2259685Y655320D01*
X2257399Y662686D01*
X2253640Y669391D01*
X2248662Y675233D01*
X2242566Y679907D01*
X2235708Y683310D01*
X2228240Y685241D01*
X2220569Y685596D01*
X2213000Y684479D01*
X2205786Y681786D01*
X2199284Y677722D01*
X2193696Y672439D01*
X2189327Y666140D01*
X2186279Y659079D01*
X2184704Y651560D01*
X2184704Y643839D01*
X2186279Y636320D01*
X2189327Y629259D01*
X2193696Y622960D01*
X2199284Y617677D01*
X2205786Y613613D01*
X2213000Y610920D01*
G37*
G36*
X3519932Y630174D02*
G01*
X3528009Y631342D01*
X3535730Y634034D01*
X3542842Y638098D01*
X3548989Y643432D01*
X3554069Y649884D01*
X3557778Y657148D01*
X3560114Y664972D01*
X3560876Y673100D01*
X3560114Y681228D01*
X3557778Y689051D01*
X3554069Y696315D01*
X3548989Y702767D01*
X3542842Y708101D01*
X3535730Y712165D01*
X3528009Y714857D01*
X3519932Y716026D01*
X3511804Y715619D01*
X3503828Y713689D01*
X3496411Y710336D01*
X3489756Y705561D01*
X3484118Y699668D01*
X3479698Y692810D01*
X3476650Y685190D01*
X3475126Y677164D01*
X3475126Y669036D01*
X3476650Y661009D01*
X3479698Y653389D01*
X3484118Y646531D01*
X3489756Y640638D01*
X3496411Y635863D01*
X3503828Y632510D01*
X3511804Y630580D01*
G37*
G36*
X2563469Y673303D02*
G01*
X2571140Y673658D01*
X2578608Y675589D01*
X2585466Y678992D01*
X2591562Y683666D01*
X2596540Y689508D01*
X2600299Y696214D01*
X2602585Y703580D01*
X2603347Y711200D01*
X2602585Y718820D01*
X2600299Y726186D01*
X2596540Y732891D01*
X2591562Y738733D01*
X2585466Y743407D01*
X2578608Y746810D01*
X2571140Y748741D01*
X2563469Y749096D01*
X2555900Y747979D01*
X2548686Y745286D01*
X2542184Y741222D01*
X2536596Y735939D01*
X2532227Y729640D01*
X2529179Y722579D01*
X2527604Y715060D01*
X2527604Y707339D01*
X2529179Y699820D01*
X2532227Y692759D01*
X2536596Y686460D01*
X2542184Y681177D01*
X2548686Y677113D01*
X2555900Y674420D01*
G37*
G36*
X531469Y749503D02*
G01*
X539140Y749858D01*
X546608Y751789D01*
X553466Y755192D01*
X559562Y759866D01*
X564540Y765708D01*
X568299Y772414D01*
X570585Y779780D01*
X571347Y787400D01*
X570585Y795020D01*
X568299Y802386D01*
X564540Y809091D01*
X559562Y814933D01*
X553466Y819607D01*
X546608Y823010D01*
X539140Y824941D01*
X531469Y825296D01*
X523900Y824179D01*
X516686Y821486D01*
X510184Y817422D01*
X504596Y812139D01*
X500227Y805840D01*
X497179Y798779D01*
X495604Y791260D01*
X495604Y783539D01*
X497179Y776020D01*
X500227Y768959D01*
X504596Y762660D01*
X510184Y757377D01*
X516686Y753313D01*
X523900Y750620D01*
G37*
G36*
X2694584Y970584D02*
G01*
X2703118Y971803D01*
X2711297Y974648D01*
X2718765Y978966D01*
X2725318Y984605D01*
X2730652Y991412D01*
X2734614Y999083D01*
X2737053Y1007414D01*
X2737866Y1016000D01*
X2737053Y1024585D01*
X2734614Y1032916D01*
X2730652Y1040587D01*
X2725318Y1047394D01*
X2718765Y1053033D01*
X2711297Y1057351D01*
X2703118Y1060196D01*
X2694584Y1061415D01*
X2685948Y1061008D01*
X2677515Y1058976D01*
X2669641Y1055370D01*
X2662631Y1050340D01*
X2656636Y1044092D01*
X2651963Y1036828D01*
X2648762Y1028801D01*
X2647137Y1020318D01*
X2647137Y1011682D01*
X2648762Y1003198D01*
X2651963Y995171D01*
X2656636Y987907D01*
X2662631Y981608D01*
X2669641Y976630D01*
X2677515Y973023D01*
X2685948Y970991D01*
G37*
G36*
X1649069Y978103D02*
G01*
X1656740Y978458D01*
X1664207Y980389D01*
X1671066Y983792D01*
X1677162Y988466D01*
X1682140Y994308D01*
X1685899Y1001014D01*
X1688185Y1008380D01*
X1688947Y1016000D01*
X1688185Y1023619D01*
X1685899Y1030986D01*
X1682140Y1037691D01*
X1677162Y1043533D01*
X1671066Y1048207D01*
X1664207Y1051610D01*
X1656740Y1053541D01*
X1649069Y1053896D01*
X1641500Y1052779D01*
X1634286Y1050086D01*
X1627784Y1046022D01*
X1622196Y1040739D01*
X1617827Y1034440D01*
X1614779Y1027379D01*
X1613204Y1019860D01*
X1613204Y1012139D01*
X1614779Y1004620D01*
X1617827Y997559D01*
X1622196Y991260D01*
X1627784Y985977D01*
X1634286Y981913D01*
X1641500Y979220D01*
G37*
G36*
X366369Y1041603D02*
G01*
X374040Y1041958D01*
X381508Y1043889D01*
X388366Y1047292D01*
X394462Y1051966D01*
X399440Y1057808D01*
X403199Y1064514D01*
X405485Y1071880D01*
X406247Y1079500D01*
X405485Y1087120D01*
X403199Y1094486D01*
X399440Y1101191D01*
X394462Y1107033D01*
X388366Y1111707D01*
X381508Y1115110D01*
X374040Y1117041D01*
X366369Y1117396D01*
X358800Y1116279D01*
X351586Y1113586D01*
X345084Y1109522D01*
X339496Y1104239D01*
X335127Y1097940D01*
X332079Y1090879D01*
X330504Y1083360D01*
X330504Y1075639D01*
X332079Y1068120D01*
X335127Y1061059D01*
X339496Y1054760D01*
X345084Y1049477D01*
X351586Y1045413D01*
X358800Y1042720D01*
G37*
G36*
X3481832Y1138174D02*
G01*
X3489909Y1139342D01*
X3497630Y1142034D01*
X3504742Y1146098D01*
X3510889Y1151432D01*
X3515969Y1157884D01*
X3519678Y1165148D01*
X3522014Y1172972D01*
X3522776Y1181100D01*
X3522014Y1189228D01*
X3519678Y1197051D01*
X3515969Y1204315D01*
X3510889Y1210767D01*
X3504742Y1216101D01*
X3497630Y1220165D01*
X3489909Y1222857D01*
X3481832Y1224026D01*
X3473704Y1223619D01*
X3465728Y1221689D01*
X3458311Y1218336D01*
X3451656Y1213561D01*
X3446018Y1207668D01*
X3441598Y1200810D01*
X3438550Y1193190D01*
X3437026Y1185164D01*
X3437026Y1177036D01*
X3438550Y1169009D01*
X3441598Y1161389D01*
X3446018Y1154531D01*
X3451656Y1148638D01*
X3458311Y1143863D01*
X3465728Y1140510D01*
X3473704Y1138580D01*
G37*
G36*
X2334869Y1232103D02*
G01*
X2342540Y1232458D01*
X2350008Y1234389D01*
X2356866Y1237792D01*
X2362962Y1242466D01*
X2367940Y1248308D01*
X2371699Y1255014D01*
X2373985Y1262380D01*
X2374747Y1270000D01*
X2373985Y1277620D01*
X2371699Y1284986D01*
X2367940Y1291691D01*
X2362962Y1297533D01*
X2356866Y1302207D01*
X2350008Y1305610D01*
X2342540Y1307541D01*
X2334869Y1307896D01*
X2327300Y1306779D01*
X2320086Y1304086D01*
X2313584Y1300022D01*
X2307996Y1294739D01*
X2303627Y1288440D01*
X2300579Y1281379D01*
X2299004Y1273860D01*
X2299004Y1266139D01*
X2300579Y1258620D01*
X2303627Y1251559D01*
X2307996Y1245260D01*
X2313584Y1239977D01*
X2320086Y1235913D01*
X2327300Y1233220D01*
G37*
G36*
X1598269Y1244803D02*
G01*
X1605940Y1245158D01*
X1613408Y1247089D01*
X1620266Y1250492D01*
X1626362Y1255166D01*
X1631340Y1261008D01*
X1635099Y1267714D01*
X1637385Y1275080D01*
X1638147Y1282700D01*
X1637385Y1290320D01*
X1635099Y1297686D01*
X1631340Y1304391D01*
X1626362Y1310233D01*
X1620266Y1314907D01*
X1613408Y1318310D01*
X1605940Y1320241D01*
X1598269Y1320596D01*
X1590700Y1319479D01*
X1583486Y1316786D01*
X1576984Y1312722D01*
X1571396Y1307439D01*
X1567027Y1301140D01*
X1563979Y1294079D01*
X1562404Y1286560D01*
X1562404Y1278839D01*
X1563979Y1271320D01*
X1567027Y1264259D01*
X1571396Y1257960D01*
X1576984Y1252677D01*
X1583486Y1248613D01*
X1590700Y1245920D01*
G37*
G36*
X2411069Y1295603D02*
G01*
X2418740Y1295958D01*
X2426208Y1297889D01*
X2433066Y1301292D01*
X2439162Y1305966D01*
X2444140Y1311808D01*
X2447899Y1318514D01*
X2450185Y1325880D01*
X2450947Y1333500D01*
X2450185Y1341120D01*
X2447899Y1348486D01*
X2444140Y1355191D01*
X2439162Y1361033D01*
X2433066Y1365707D01*
X2426208Y1369110D01*
X2418740Y1371041D01*
X2411069Y1371396D01*
X2403500Y1370279D01*
X2396286Y1367586D01*
X2389784Y1363522D01*
X2384196Y1358239D01*
X2379827Y1351940D01*
X2376779Y1344879D01*
X2375204Y1337360D01*
X2375204Y1329639D01*
X2376779Y1322120D01*
X2379827Y1315059D01*
X2384196Y1308760D01*
X2389784Y1303477D01*
X2396286Y1299413D01*
X2403500Y1296720D01*
G37*
G36*
X440080Y1361948D02*
G01*
X448919Y1361948D01*
X457606Y1363573D01*
X465886Y1366774D01*
X473405Y1371396D01*
X479958Y1377391D01*
X485292Y1384452D01*
X489254Y1392377D01*
X491642Y1400860D01*
X492455Y1409700D01*
X491642Y1418539D01*
X489254Y1427022D01*
X485292Y1434947D01*
X479958Y1442008D01*
X473405Y1448003D01*
X465886Y1452626D01*
X457606Y1455826D01*
X448919Y1457452D01*
X440080Y1457452D01*
X431393Y1455826D01*
X423113Y1452626D01*
X415594Y1448003D01*
X409041Y1442008D01*
X403707Y1434947D01*
X399745Y1427022D01*
X397357Y1418539D01*
X396544Y1409700D01*
X397357Y1400860D01*
X399745Y1392377D01*
X403707Y1384452D01*
X409041Y1377391D01*
X415594Y1371396D01*
X423113Y1366774D01*
X431393Y1363573D01*
G37*
G36*
X1242669Y1371803D02*
G01*
X1250340Y1372158D01*
X1257808Y1374089D01*
X1264666Y1377492D01*
X1270762Y1382166D01*
X1275740Y1388008D01*
X1279499Y1394714D01*
X1281785Y1402080D01*
X1282547Y1409700D01*
X1281785Y1417320D01*
X1279499Y1424686D01*
X1275740Y1431391D01*
X1270762Y1437233D01*
X1264666Y1441907D01*
X1257808Y1445310D01*
X1250340Y1447241D01*
X1242669Y1447596D01*
X1235100Y1446479D01*
X1227886Y1443786D01*
X1221384Y1439722D01*
X1215796Y1434439D01*
X1211427Y1428140D01*
X1208379Y1421079D01*
X1206804Y1413560D01*
X1206804Y1405839D01*
X1208379Y1398320D01*
X1211427Y1391259D01*
X1215796Y1384960D01*
X1221384Y1379677D01*
X1227886Y1375613D01*
X1235100Y1372920D01*
G37*
G36*
X2080869Y1397203D02*
G01*
X2088540Y1397558D01*
X2096007Y1399489D01*
X2102866Y1402892D01*
X2108962Y1407566D01*
X2113940Y1413408D01*
X2117699Y1420114D01*
X2119985Y1427480D01*
X2120747Y1435100D01*
X2119985Y1442720D01*
X2117699Y1450086D01*
X2113940Y1456791D01*
X2108962Y1462633D01*
X2105660Y1465173D01*
X2103221Y1467916D01*
X2101900Y1471371D01*
X2101900Y1475028D01*
X2103221Y1478483D01*
X2105660Y1481226D01*
X2108962Y1483766D01*
X2113940Y1489608D01*
X2117699Y1496314D01*
X2119985Y1503680D01*
X2120747Y1511300D01*
X2119985Y1518920D01*
X2117699Y1526286D01*
X2113940Y1532991D01*
X2108962Y1538833D01*
X2102866Y1543507D01*
X2096007Y1546910D01*
X2088540Y1548841D01*
X2080869Y1549196D01*
X2073300Y1548079D01*
X2066086Y1545386D01*
X2059584Y1541322D01*
X2053996Y1536039D01*
X2049627Y1529740D01*
X2046579Y1522679D01*
X2045004Y1515160D01*
X2045004Y1507439D01*
X2046579Y1499920D01*
X2049627Y1492859D01*
X2053996Y1486560D01*
X2060295Y1480566D01*
X2062632Y1477213D01*
X2063445Y1473200D01*
X2062632Y1469186D01*
X2060295Y1465834D01*
X2053996Y1459839D01*
X2049627Y1453540D01*
X2046579Y1446479D01*
X2045004Y1438960D01*
X2045004Y1431239D01*
X2046579Y1423720D01*
X2049627Y1416659D01*
X2053996Y1410360D01*
X2059584Y1405077D01*
X2066086Y1401013D01*
X2073300Y1398320D01*
G37*
G36*
X1509369Y1448003D02*
G01*
X1517040Y1448358D01*
X1524508Y1450289D01*
X1531366Y1453692D01*
X1537462Y1458366D01*
X1542440Y1464208D01*
X1546199Y1470914D01*
X1548485Y1478280D01*
X1549247Y1485900D01*
X1548485Y1493520D01*
X1546199Y1500886D01*
X1542440Y1507591D01*
X1537462Y1513433D01*
X1531366Y1518107D01*
X1524508Y1521510D01*
X1517040Y1523441D01*
X1509369Y1523796D01*
X1501800Y1522679D01*
X1494586Y1519986D01*
X1488084Y1515922D01*
X1482496Y1510639D01*
X1478127Y1504340D01*
X1475079Y1497279D01*
X1473504Y1489760D01*
X1473504Y1482039D01*
X1475079Y1474520D01*
X1478127Y1467459D01*
X1482496Y1461160D01*
X1488084Y1455877D01*
X1494586Y1451813D01*
X1501800Y1449120D01*
G37*
G36*
X2093569Y1587703D02*
G01*
X2101240Y1588058D01*
X2108708Y1589989D01*
X2115566Y1593392D01*
X2121662Y1598066D01*
X2126640Y1603908D01*
X2130399Y1610614D01*
X2132685Y1617980D01*
X2133447Y1625600D01*
X2132685Y1633220D01*
X2130399Y1640586D01*
X2126640Y1647291D01*
X2121662Y1653133D01*
X2115566Y1657807D01*
X2109266Y1660906D01*
X2105761Y1663750D01*
X2103831Y1667814D01*
X2103831Y1672285D01*
X2105761Y1676349D01*
X2109266Y1679193D01*
X2115566Y1682292D01*
X2121662Y1686966D01*
X2126640Y1692808D01*
X2130399Y1699514D01*
X2132685Y1706880D01*
X2133447Y1714500D01*
X2132685Y1722120D01*
X2130399Y1729486D01*
X2126640Y1736191D01*
X2121662Y1742033D01*
X2115566Y1746707D01*
X2108708Y1750110D01*
X2101240Y1752041D01*
X2093569Y1752396D01*
X2086000Y1751279D01*
X2078786Y1748586D01*
X2072284Y1744522D01*
X2066696Y1739239D01*
X2062327Y1732940D01*
X2059279Y1725879D01*
X2057704Y1718360D01*
X2057704Y1710639D01*
X2059279Y1703120D01*
X2062327Y1696059D01*
X2066696Y1689760D01*
X2072284Y1684477D01*
X2078786Y1680413D01*
X2081022Y1679600D01*
X2084527Y1677416D01*
X2086864Y1674063D01*
X2087676Y1670050D01*
X2086864Y1666036D01*
X2084527Y1662684D01*
X2081022Y1660499D01*
X2078786Y1659686D01*
X2072284Y1655622D01*
X2066696Y1650339D01*
X2062327Y1644040D01*
X2059279Y1636979D01*
X2057704Y1629460D01*
X2057704Y1621739D01*
X2059279Y1614220D01*
X2062327Y1607159D01*
X2066696Y1600860D01*
X2072284Y1595577D01*
X2078786Y1591513D01*
X2086000Y1588820D01*
G37*
G36*
X1826869Y1625803D02*
G01*
X1834540Y1626158D01*
X1842007Y1628089D01*
X1848866Y1631492D01*
X1854962Y1636166D01*
X1859940Y1642008D01*
X1863699Y1648714D01*
X1865985Y1656080D01*
X1866747Y1663700D01*
X1865985Y1671320D01*
X1863699Y1678686D01*
X1859940Y1685391D01*
X1854962Y1691233D01*
X1848866Y1695907D01*
X1842007Y1699310D01*
X1834540Y1701241D01*
X1826869Y1701596D01*
X1819300Y1700479D01*
X1812086Y1697786D01*
X1805584Y1693722D01*
X1799996Y1688439D01*
X1795627Y1682140D01*
X1792579Y1675079D01*
X1791004Y1667560D01*
X1791004Y1659839D01*
X1792579Y1652320D01*
X1795627Y1645259D01*
X1799996Y1638960D01*
X1805584Y1633677D01*
X1812086Y1629613D01*
X1819300Y1626920D01*
G37*
G36*
X2347569Y1651203D02*
G01*
X2355240Y1651558D01*
X2362708Y1653489D01*
X2369566Y1656892D01*
X2375662Y1661566D01*
X2380640Y1667408D01*
X2384399Y1674114D01*
X2386685Y1681480D01*
X2387447Y1689100D01*
X2386685Y1696720D01*
X2384399Y1704086D01*
X2380640Y1710791D01*
X2375662Y1716633D01*
X2369566Y1721307D01*
X2362708Y1724710D01*
X2355240Y1726641D01*
X2347569Y1726996D01*
X2340000Y1725879D01*
X2332786Y1723186D01*
X2326284Y1719122D01*
X2320696Y1713839D01*
X2316327Y1707540D01*
X2313279Y1700479D01*
X2311704Y1692960D01*
X2311704Y1685239D01*
X2313279Y1677720D01*
X2316327Y1670659D01*
X2320696Y1664360D01*
X2326284Y1659077D01*
X2332786Y1655013D01*
X2340000Y1652320D01*
G37*
G36*
X3414369Y1689303D02*
G01*
X3422040Y1689658D01*
X3429508Y1691589D01*
X3436365Y1694992D01*
X3442462Y1699666D01*
X3447440Y1705508D01*
X3451199Y1712214D01*
X3453485Y1719580D01*
X3454247Y1727200D01*
X3453485Y1734820D01*
X3451199Y1742186D01*
X3447440Y1748891D01*
X3442462Y1754733D01*
X3436365Y1759407D01*
X3429508Y1762810D01*
X3422040Y1764741D01*
X3414369Y1765096D01*
X3406800Y1763979D01*
X3399586Y1761286D01*
X3393084Y1757222D01*
X3387496Y1751939D01*
X3383127Y1745640D01*
X3380079Y1738579D01*
X3378504Y1731060D01*
X3378504Y1723339D01*
X3380079Y1715820D01*
X3383127Y1708759D01*
X3387496Y1702460D01*
X3393084Y1697177D01*
X3399586Y1693113D01*
X3406800Y1690420D01*
G37*
G36*
X1526032Y1735074D02*
G01*
X1534109Y1736242D01*
X1541830Y1738934D01*
X1548942Y1742998D01*
X1555089Y1748332D01*
X1560169Y1754784D01*
X1563878Y1762048D01*
X1566214Y1769872D01*
X1566976Y1778000D01*
X1566214Y1786128D01*
X1563878Y1793951D01*
X1560169Y1801215D01*
X1555089Y1807667D01*
X1548942Y1813001D01*
X1541830Y1817065D01*
X1534109Y1819757D01*
X1526032Y1820925D01*
X1517904Y1820519D01*
X1509928Y1818589D01*
X1502511Y1815236D01*
X1495856Y1810461D01*
X1490218Y1804568D01*
X1485798Y1797710D01*
X1482750Y1790090D01*
X1481226Y1782064D01*
X1481226Y1773936D01*
X1482750Y1765909D01*
X1485798Y1758289D01*
X1490218Y1751431D01*
X1495856Y1745538D01*
X1502511Y1740763D01*
X1509928Y1737410D01*
X1517904Y1735480D01*
G37*
G36*
X1903069Y1816303D02*
G01*
X1910740Y1816658D01*
X1918207Y1818589D01*
X1925066Y1821992D01*
X1931162Y1826666D01*
X1936140Y1832508D01*
X1939899Y1839214D01*
X1942185Y1846580D01*
X1942947Y1854200D01*
X1942185Y1861820D01*
X1939899Y1869186D01*
X1936140Y1875891D01*
X1931162Y1881733D01*
X1925066Y1886407D01*
X1918207Y1889810D01*
X1910740Y1891741D01*
X1903069Y1892096D01*
X1895500Y1890979D01*
X1888286Y1888286D01*
X1881784Y1884222D01*
X1876196Y1878939D01*
X1871827Y1872640D01*
X1868779Y1865579D01*
X1867204Y1858060D01*
X1867204Y1850339D01*
X1868779Y1842820D01*
X1871827Y1835759D01*
X1876196Y1829460D01*
X1881784Y1824177D01*
X1888286Y1820113D01*
X1895500Y1817420D01*
G37*
G36*
X1712569Y1816303D02*
G01*
X1720240Y1816658D01*
X1727707Y1818589D01*
X1734566Y1821992D01*
X1740662Y1826666D01*
X1745640Y1832508D01*
X1749399Y1839214D01*
X1751685Y1846580D01*
X1752447Y1854200D01*
X1751685Y1861820D01*
X1749399Y1869186D01*
X1745640Y1875891D01*
X1740662Y1881733D01*
X1734566Y1886407D01*
X1727707Y1889810D01*
X1720240Y1891741D01*
X1712569Y1892096D01*
X1705000Y1890979D01*
X1697786Y1888286D01*
X1691284Y1884222D01*
X1685696Y1878939D01*
X1681327Y1872640D01*
X1678279Y1865579D01*
X1676704Y1858060D01*
X1676704Y1850339D01*
X1678279Y1842820D01*
X1681327Y1835759D01*
X1685696Y1829460D01*
X1691284Y1824177D01*
X1697786Y1820113D01*
X1705000Y1817420D01*
G37*
G36*
X1386332Y1862074D02*
G01*
X1394409Y1863242D01*
X1402130Y1865934D01*
X1409242Y1869998D01*
X1415389Y1875332D01*
X1420469Y1881784D01*
X1424178Y1889048D01*
X1426514Y1896872D01*
X1427276Y1905000D01*
X1426514Y1913128D01*
X1424178Y1920951D01*
X1420469Y1928215D01*
X1415389Y1934667D01*
X1409242Y1940001D01*
X1402130Y1944065D01*
X1394409Y1946757D01*
X1386332Y1947925D01*
X1378204Y1947519D01*
X1370228Y1945589D01*
X1362811Y1942236D01*
X1356156Y1937461D01*
X1350518Y1931568D01*
X1346098Y1924710D01*
X1343050Y1917090D01*
X1341526Y1909064D01*
X1341526Y1900936D01*
X1343050Y1892909D01*
X1346098Y1885289D01*
X1350518Y1878431D01*
X1356156Y1872538D01*
X1362811Y1867763D01*
X1370228Y1864410D01*
X1378204Y1862480D01*
G37*
G36*
X1953869Y2083003D02*
G01*
X1961540Y2083358D01*
X1969007Y2085289D01*
X1975866Y2088692D01*
X1981962Y2093366D01*
X1986940Y2099208D01*
X1990699Y2105914D01*
X1992985Y2113280D01*
X1993747Y2120900D01*
X1992985Y2128520D01*
X1990699Y2135886D01*
X1986940Y2142591D01*
X1981962Y2148433D01*
X1975866Y2153107D01*
X1969007Y2156510D01*
X1961540Y2158441D01*
X1953869Y2158796D01*
X1946300Y2157679D01*
X1939086Y2154986D01*
X1932584Y2150922D01*
X1926996Y2145639D01*
X1922627Y2139340D01*
X1919579Y2132279D01*
X1918004Y2124760D01*
X1918004Y2117039D01*
X1919579Y2109520D01*
X1922627Y2102459D01*
X1926996Y2096160D01*
X1932584Y2090877D01*
X1939086Y2086813D01*
X1946300Y2084120D01*
G37*
G36*
X1636369Y2222703D02*
G01*
X1644040Y2223058D01*
X1651507Y2224989D01*
X1658366Y2228392D01*
X1664462Y2233066D01*
X1669440Y2238908D01*
X1673199Y2245614D01*
X1675485Y2252980D01*
X1676247Y2260600D01*
X1675485Y2268220D01*
X1673199Y2275586D01*
X1669440Y2282291D01*
X1664462Y2288133D01*
X1658366Y2292807D01*
X1651507Y2296210D01*
X1644040Y2298141D01*
X1636369Y2298496D01*
X1628800Y2297379D01*
X1621586Y2294686D01*
X1615084Y2290622D01*
X1609496Y2285339D01*
X1605127Y2279040D01*
X1602079Y2271979D01*
X1600504Y2264460D01*
X1600504Y2256739D01*
X1602079Y2249220D01*
X1605127Y2242159D01*
X1609496Y2235860D01*
X1615084Y2230577D01*
X1621586Y2226513D01*
X1628800Y2223820D01*
G37*
G36*
X1737969Y2222703D02*
G01*
X1745640Y2223058D01*
X1753107Y2224989D01*
X1759966Y2228392D01*
X1766062Y2233066D01*
X1771040Y2238908D01*
X1774799Y2245614D01*
X1777085Y2252980D01*
X1777847Y2260600D01*
X1777085Y2268220D01*
X1774799Y2275586D01*
X1771040Y2282291D01*
X1766062Y2288133D01*
X1759966Y2292807D01*
X1753107Y2296210D01*
X1745640Y2298141D01*
X1737969Y2298496D01*
X1730400Y2297379D01*
X1723186Y2294686D01*
X1716684Y2290622D01*
X1711096Y2285339D01*
X1706727Y2279040D01*
X1703679Y2271979D01*
X1702104Y2264460D01*
X1702104Y2256739D01*
X1703679Y2249220D01*
X1706727Y2242159D01*
X1711096Y2235860D01*
X1716684Y2230577D01*
X1723186Y2226513D01*
X1730400Y2223820D01*
G37*
G36*
X1179169Y2260803D02*
G01*
X1186840Y2261158D01*
X1194308Y2263089D01*
X1201166Y2266492D01*
X1207262Y2271166D01*
X1212240Y2277008D01*
X1215999Y2283714D01*
X1218285Y2291080D01*
X1219047Y2298700D01*
X1218285Y2306320D01*
X1215999Y2313686D01*
X1212240Y2320391D01*
X1207262Y2326233D01*
X1201166Y2330907D01*
X1194308Y2334310D01*
X1186840Y2336241D01*
X1179169Y2336596D01*
X1171600Y2335479D01*
X1164386Y2332786D01*
X1157884Y2328722D01*
X1152296Y2323439D01*
X1147927Y2317140D01*
X1144879Y2310079D01*
X1143304Y2302560D01*
X1143304Y2294839D01*
X1144879Y2287320D01*
X1147927Y2280259D01*
X1152296Y2273960D01*
X1157884Y2268677D01*
X1164386Y2264613D01*
X1171600Y2261920D01*
G37*
G36*
X1293469Y2298903D02*
G01*
X1301140Y2299258D01*
X1308608Y2301189D01*
X1315466Y2304592D01*
X1321562Y2309266D01*
X1326540Y2315108D01*
X1330299Y2321814D01*
X1332585Y2329180D01*
X1333347Y2336800D01*
X1332585Y2344420D01*
X1330299Y2351786D01*
X1326540Y2358491D01*
X1321562Y2364333D01*
X1315466Y2369007D01*
X1308608Y2372410D01*
X1301140Y2374341D01*
X1293469Y2374696D01*
X1285900Y2373579D01*
X1278686Y2370886D01*
X1272184Y2366822D01*
X1266596Y2361539D01*
X1262227Y2355240D01*
X1259179Y2348179D01*
X1257604Y2340660D01*
X1257604Y2332939D01*
X1259179Y2325420D01*
X1262227Y2318359D01*
X1266596Y2312060D01*
X1272184Y2306777D01*
X1278686Y2302713D01*
X1285900Y2300020D01*
G37*
G36*
X3490214Y2438755D02*
G01*
X3499256Y2439162D01*
X3508095Y2441194D01*
X3516426Y2444750D01*
X3523996Y2449728D01*
X3530498Y2455976D01*
X3535832Y2463292D01*
X3539744Y2471470D01*
X3542182Y2480208D01*
X3542995Y2489200D01*
X3542182Y2498191D01*
X3539744Y2506929D01*
X3535832Y2515108D01*
X3530498Y2522423D01*
X3523996Y2528671D01*
X3516426Y2533650D01*
X3508095Y2537206D01*
X3499256Y2539238D01*
X3490214Y2539644D01*
X3481273Y2538425D01*
X3472637Y2535631D01*
X3464712Y2531313D01*
X3457600Y2525674D01*
X3451656Y2518867D01*
X3447034Y2511094D01*
X3443833Y2502611D01*
X3442208Y2493721D01*
X3442208Y2484678D01*
X3443833Y2475788D01*
X3447034Y2467305D01*
X3451656Y2459532D01*
X3457600Y2452725D01*
X3464712Y2447086D01*
X3472637Y2442768D01*
X3481273Y2439974D01*
G37*
G36*
X3363214Y2438755D02*
G01*
X3372256Y2439162D01*
X3381095Y2441194D01*
X3389426Y2444750D01*
X3396996Y2449728D01*
X3403498Y2455976D01*
X3408832Y2463292D01*
X3412744Y2471470D01*
X3415182Y2480208D01*
X3415995Y2489200D01*
X3415182Y2498191D01*
X3412744Y2506929D01*
X3408832Y2515108D01*
X3403498Y2522423D01*
X3396996Y2528671D01*
X3389426Y2533650D01*
X3381095Y2537206D01*
X3372256Y2539238D01*
X3363214Y2539644D01*
X3354273Y2538425D01*
X3345637Y2535631D01*
X3337712Y2531313D01*
X3330600Y2525674D01*
X3324656Y2518867D01*
X3320034Y2511094D01*
X3316833Y2502611D01*
X3315208Y2493721D01*
X3315208Y2484678D01*
X3316833Y2475788D01*
X3320034Y2467305D01*
X3324656Y2459532D01*
X3330600Y2452725D01*
X3337712Y2447086D01*
X3345637Y2442768D01*
X3354273Y2439974D01*
G37*
G36*
X2872384Y2761284D02*
G01*
X2880918Y2762504D01*
X2889097Y2765348D01*
X2896565Y2769666D01*
X2903118Y2775305D01*
X2908452Y2782112D01*
X2912414Y2789783D01*
X2914853Y2798114D01*
X2915666Y2806700D01*
X2914853Y2815285D01*
X2912414Y2823616D01*
X2908452Y2831287D01*
X2903118Y2838094D01*
X2896565Y2843733D01*
X2889097Y2848051D01*
X2880918Y2850896D01*
X2872384Y2852115D01*
X2863748Y2851708D01*
X2855315Y2849676D01*
X2847441Y2846070D01*
X2840431Y2841040D01*
X2834436Y2834792D01*
X2829763Y2827528D01*
X2826562Y2819501D01*
X2824937Y2811018D01*
X2824937Y2802382D01*
X2826562Y2793898D01*
X2829763Y2785872D01*
X2834436Y2778607D01*
X2840431Y2772308D01*
X2847441Y2767330D01*
X2855315Y2763723D01*
X2863748Y2761691D01*
G37*
G36*
X1510588Y3022955D02*
G01*
X1519631Y3023362D01*
X1528470Y3025394D01*
X1536801Y3028950D01*
X1544370Y3033928D01*
X1550873Y3040176D01*
X1556207Y3047492D01*
X1560118Y3055670D01*
X1562557Y3064408D01*
X1563370Y3073400D01*
X1562557Y3082391D01*
X1560118Y3091129D01*
X1556207Y3099308D01*
X1550873Y3106623D01*
X1544370Y3112871D01*
X1536801Y3117850D01*
X1528470Y3121406D01*
X1519631Y3123438D01*
X1510588Y3123844D01*
X1501648Y3122625D01*
X1493012Y3119831D01*
X1485087Y3115513D01*
X1477975Y3109874D01*
X1472031Y3103067D01*
X1467408Y3095294D01*
X1464208Y3086811D01*
X1462582Y3077921D01*
X1462582Y3068878D01*
X1464208Y3059988D01*
X1467408Y3051505D01*
X1472031Y3043732D01*
X1477975Y3036925D01*
X1485087Y3031286D01*
X1493012Y3026968D01*
X1501648Y3024174D01*
G37*
G36*
X1227582Y3022955D02*
G01*
X1236624Y3023362D01*
X1245463Y3025394D01*
X1253744Y3028950D01*
X1261313Y3033928D01*
X1267866Y3040176D01*
X1273200Y3047492D01*
X1277112Y3055670D01*
X1279499Y3064408D01*
X1280312Y3073400D01*
X1279499Y3082391D01*
X1277112Y3091129D01*
X1273200Y3099308D01*
X1267866Y3106623D01*
X1261313Y3112871D01*
X1253744Y3117850D01*
X1245463Y3121406D01*
X1236624Y3123438D01*
X1227582Y3123844D01*
X1218590Y3122625D01*
X1210005Y3119831D01*
X1202029Y3115513D01*
X1194968Y3109874D01*
X1189024Y3103067D01*
X1184351Y3095294D01*
X1181201Y3086811D01*
X1179576Y3077921D01*
X1179576Y3068878D01*
X1181201Y3059988D01*
X1184351Y3051505D01*
X1189024Y3043732D01*
X1194968Y3036925D01*
X1202029Y3031286D01*
X1210005Y3026968D01*
X1218590Y3024174D01*
G37*
G36*
X295249Y3159556D02*
G01*
X314248Y3160014D01*
X333095Y3162350D01*
X351586Y3166618D01*
X369620Y3172663D01*
X386892Y3180435D01*
X403352Y3189935D01*
X418795Y3201060D01*
X433019Y3213608D01*
X445922Y3227527D01*
X457403Y3242665D01*
X467309Y3258870D01*
X475538Y3275990D01*
X482041Y3293821D01*
X486714Y3312210D01*
X489559Y3331006D01*
X490524Y3349955D01*
X489559Y3368954D01*
X486714Y3387750D01*
X482041Y3406140D01*
X475538Y3423970D01*
X467309Y3441090D01*
X457403Y3457295D01*
X445922Y3472434D01*
X433019Y3486353D01*
X418795Y3498900D01*
X403352Y3510026D01*
X386892Y3519525D01*
X369620Y3527298D01*
X351586Y3533343D01*
X333095Y3537610D01*
X314248Y3539947D01*
X295249Y3540404D01*
X276301Y3539032D01*
X257606Y3535730D01*
X239318Y3530549D01*
X221640Y3523640D01*
X204724Y3514953D01*
X188772Y3504641D01*
X173939Y3492804D01*
X160324Y3479546D01*
X148132Y3465017D01*
X137464Y3449320D01*
X128371Y3432657D01*
X121005Y3415131D01*
X115366Y3396996D01*
X111607Y3378352D01*
X109728Y3359454D01*
X109728Y3340506D01*
X111607Y3321608D01*
X115366Y3302965D01*
X121005Y3284829D01*
X128371Y3267303D01*
X137464Y3250641D01*
X148132Y3234944D01*
X160324Y3220415D01*
X173939Y3207156D01*
X188772Y3195320D01*
X204724Y3185007D01*
X221640Y3176320D01*
X239318Y3169412D01*
X257606Y3164230D01*
X276301Y3160928D01*
G37*
G36*
X3345281Y3159556D02*
G01*
X3364229Y3160014D01*
X3383076Y3162350D01*
X3401618Y3166618D01*
X3419601Y3172663D01*
X3436924Y3180435D01*
X3453384Y3189935D01*
X3468776Y3201060D01*
X3483000Y3213608D01*
X3495954Y3227527D01*
X3507435Y3242665D01*
X3517290Y3258870D01*
X3525570Y3275990D01*
X3532073Y3293821D01*
X3536746Y3312210D01*
X3539591Y3331006D01*
X3540506Y3349955D01*
X3539591Y3368954D01*
X3536746Y3387750D01*
X3532073Y3406140D01*
X3525570Y3423970D01*
X3517290Y3441090D01*
X3507435Y3457295D01*
X3495954Y3472434D01*
X3483000Y3486353D01*
X3468776Y3498900D01*
X3453384Y3510026D01*
X3436924Y3519525D01*
X3419601Y3527298D01*
X3401618Y3533343D01*
X3383076Y3537610D01*
X3364229Y3539947D01*
X3345281Y3540404D01*
X3326333Y3539032D01*
X3307638Y3535730D01*
X3289350Y3530549D01*
X3271672Y3523640D01*
X3254756Y3514953D01*
X3238804Y3504641D01*
X3223971Y3492804D01*
X3210356Y3479546D01*
X3198164Y3465017D01*
X3187446Y3449320D01*
X3178352Y3432657D01*
X3170986Y3415131D01*
X3165398Y3396996D01*
X3161639Y3378352D01*
X3159760Y3359454D01*
X3159760Y3340506D01*
X3161639Y3321608D01*
X3165398Y3302965D01*
X3170986Y3284829D01*
X3178352Y3267303D01*
X3187446Y3250641D01*
X3198164Y3234944D01*
X3210356Y3220415D01*
X3223971Y3207156D01*
X3238804Y3195320D01*
X3254756Y3185007D01*
X3271672Y3176320D01*
X3289350Y3169412D01*
X3307638Y3164230D01*
X3326333Y3160928D01*
G37*

%LPD*%
D10*
G01*
X1498600Y2108200D03*
D11*
G01*
X673100Y1854200D03*
D12*
G01*
X723900Y825500D03*
G01*
X685800Y1181100D03*
D11*
G01*
X1384300Y1905000D03*
D10*
G01*
X1828800Y1282700D03*
G01*
X2413000Y774700D03*
G01*
X2463800Y1841500D03*
D12*
G01*
X3035300Y2806700D03*
G01*
X3136900Y2806700D03*
D10*
G01*
X1714500Y1854200D03*
G01*
X1955800Y2120900D03*
G01*
X1905000Y1854200D03*
G01*
X1651000Y1816100D03*
G01*
X1866900Y1803400D03*
D12*
G01*
X3213100Y1828800D03*
D10*
G01*
X2971800Y1143000D03*
D12*
G01*
X3492500Y2489200D03*
G01*
X3365500Y2489200D03*
D10*
G01*
X3302000Y1727200D03*
G01*
X3416300Y1727200D03*
G01*
X2095500Y1625600D03*
G01*
X2095500Y1714500D03*
G01*
X2349500Y1689100D03*
G01*
X2044700Y1663700D03*
D11*
G01*
X3517900Y673100D03*
D10*
G01*
X2019300Y762000D03*
G01*
X2082800Y1511300D03*
G01*
X2082800Y1435100D03*
G01*
X2413000Y1333500D03*
G01*
X2336800Y1270000D03*
G01*
X2565400Y711200D03*
G01*
X2222500Y647700D03*
D12*
G01*
X990600Y368300D03*
D10*
G01*
X1295400Y419100D03*
G01*
X1600200Y1282700D03*
G01*
X1651000Y1016000D03*
G01*
X533400Y787400D03*
G01*
X368300Y1079500D03*
G01*
X1244600Y1409700D03*
G01*
X1511300Y1485900D03*
G01*
X1181100Y2298700D03*
G01*
X1638300Y2260600D03*
G01*
X685800Y2527300D03*
G01*
X1828800Y1663700D03*
G01*
X2654300Y3263900D03*
D12*
G01*
X1993900Y355600D03*
G01*
X2679700Y381000D03*
D13*
G01*
X2870200Y635000D03*
D10*
G01*
X2489200Y673100D03*
D12*
G01*
X1231900Y3276600D03*
G01*
X1511300Y3276600D03*
G01*
X2882900Y749300D03*
D14*
G01*
X2692400Y1016000D03*
G01*
X2870200Y2806700D03*
D10*
G01*
X3238500Y2413000D03*
G01*
X457200Y1981200D03*
D13*
G01*
X1003300Y1295400D03*
D10*
G01*
X3568700Y1739900D03*
G01*
X3568700Y1993900D03*
G01*
X3556000Y2971800D03*
G01*
X3378200Y2971800D03*
G01*
X3251200Y3086100D03*
G01*
X3048000Y3238500D03*
G01*
X3048000Y3543300D03*
G01*
X2730500Y3530600D03*
G01*
X2171700Y3556000D03*
G01*
X1892300Y3556000D03*
G01*
X1295400Y3556000D03*
G01*
X876300Y3556000D03*
G01*
X647700Y3556000D03*
G01*
X584200Y3416300D03*
G01*
X279400Y3073400D03*
G01*
X88900Y3048000D03*
G01*
X88900Y2870200D03*
G01*
X76200Y1790700D03*
G01*
X76200Y1435100D03*
G01*
X88900Y1104900D03*
G01*
X88900Y596900D03*
G01*
X266700Y584200D03*
G01*
X431800Y546100D03*
G01*
X584200Y88900D03*
G01*
X876300Y76200D03*
G01*
X1422400Y63500D03*
G01*
X1866900Y76200D03*
G01*
X2552700Y76200D03*
G01*
X2730500Y76200D03*
G01*
X2146300Y76200D03*
G01*
X3035300Y88900D03*
G01*
X3073400Y406400D03*
G01*
X3175000Y520700D03*
G01*
X3340100Y546100D03*
G01*
X3517900Y584200D03*
G01*
X3556000Y1219200D03*
G01*
X1600200Y1346200D03*
G01*
X2019300Y1435100D03*
G01*
X2044700Y1574800D03*
G01*
X1587500Y1485900D03*
G01*
X1981200Y2184400D03*
G01*
X1549400Y2362200D03*
G01*
X1168400Y2235200D03*
G01*
X1752600Y1663700D03*
G01*
X2413000Y1244600D03*
G01*
X2159000Y685800D03*
G01*
X1600200Y952500D03*
G01*
X88900Y863600D03*
G01*
X1104900Y76200D03*
G01*
X76200Y1663700D03*
G01*
X76200Y1320800D03*
G01*
X1193800Y1346200D03*
G01*
X1231900Y914400D03*
G01*
X1358900Y482600D03*
G01*
X1600200Y63500D03*
G01*
X2921000Y2933700D03*
G01*
X3060700Y2933700D03*
G01*
X2171700Y3416300D03*
G01*
X1473200Y2870200D03*
D14*
G01*
X3187700Y647700D03*
D11*
G01*
X3479800Y1181100D03*
G01*
X1524000Y1778000D03*
D10*
G01*
X1270000Y2184400D03*
D12*
G01*
X1229842Y3073400D03*
G01*
X1512874Y3073400D03*
D10*
G01*
X1295400Y2336800D03*
G01*
X1739900Y2260600D03*
D13*
G01*
X444500Y1409700D03*
D10*
G01*
X2476500Y3530600D03*
G01*
X2603500Y3530600D03*
G01*
X2006600Y76200D03*
D12*
G01*
X749300Y647700D03*
G01*
X1358900Y1155700D03*
G01*
X1816100Y1397000D03*
G01*
X1866900Y812800D03*
G01*
X165100Y977900D03*
G01*
X355600Y2057400D03*
D10*
G01*
X457200Y3111500D03*
D12*
G01*
X2260600Y2882900D03*
G01*
X2578100Y1828800D03*
G01*
X622300Y1295400D03*
D10*
G01*
X3035300Y254000D03*
G01*
X3035300Y3390900D03*
G01*
X2032000Y3556000D03*
G01*
X1435100Y3556000D03*
G01*
X762000Y3556000D03*
G01*
X533400Y3263900D03*
D12*
G01*
X1689100Y457200D03*
D10*
G01*
X546100Y419100D03*
G01*
X584200Y254000D03*
G01*
X1003300Y76200D03*
G01*
X3162300Y762000D03*
G01*
X3035300Y1498600D03*
D12*
G01*
X2273300Y3314700D03*
G01*
X317500Y2413000D03*
G01*
X63500Y2413000D03*
D10*
G01*
X50800Y2286000D03*
G01*
X50800Y2540000D03*
G01*
X381000Y1790700D03*
D12*
G01*
X1371600Y3276600D03*
M02*
