G04 Layer: TopPasteMaskLayer*
G04 EasyEDA v6.5.40, 2024-02-08 20:30:12*
G04 8a8f0ff451d84adea016c743fcc8db9f,2e16165ee3bb4678bfb3015e44e098b9,10*
G04 Gerber Generator version 0.2*
G04 Scale: 100 percent, Rotated: No, Reflected: No *
G04 Dimensions in millimeters *
G04 leading zeros omitted , absolute positions ,4 integer and 5 decimal *
%FSLAX45Y45*%
%MOMM*%

%AMMACRO1*21,1,$1,$2,0,0,$3*%
%ADD10R,5.5000X1.0000*%
%ADD11R,3.0000X1.6000*%
%ADD12R,0.7000X1.8000*%
%ADD13R,1.2000X2.0000*%
%ADD14R,0.8000X0.8000*%
%ADD15R,0.6000X0.9000*%
%ADD16R,0.9000X0.6000*%
%ADD17R,1.2000X1.4000*%
%ADD18R,0.8000X0.9000*%
%ADD19R,1.8000X0.7000*%
%ADD20R,2.0000X1.2000*%
%ADD21R,1.6000X0.6000*%
%ADD22R,0.6000X1.6000*%
%ADD23R,2.5000X1.1000*%
%ADD24MACRO1,3.6002X2.3398X-90.0000*%
%ADD25O,2.1999956000000003X0.7999984*%
%ADD26O,1.499997X0.27000199999999996*%
%ADD27O,0.27000199999999996X1.499997*%
%ADD28O,0.0101X1.499997*%

%LPD*%
G36*
X3279800Y1665782D02*
G01*
X3274822Y1660804D01*
X3274822Y1615795D01*
X3279800Y1610817D01*
X3327806Y1610817D01*
X3334816Y1615795D01*
X3334816Y1660804D01*
X3327806Y1665782D01*
G37*
G36*
X3377793Y1665782D02*
G01*
X3370783Y1660804D01*
X3370783Y1615795D01*
X3377793Y1610817D01*
X3425799Y1610817D01*
X3430778Y1615795D01*
X3430778Y1660804D01*
X3425799Y1665782D01*
G37*
G36*
X3279800Y700582D02*
G01*
X3274822Y695604D01*
X3274822Y650595D01*
X3279800Y645617D01*
X3327806Y645617D01*
X3334816Y650595D01*
X3334816Y695604D01*
X3327806Y700582D01*
G37*
G36*
X3377793Y700582D02*
G01*
X3370783Y695604D01*
X3370783Y650595D01*
X3377793Y645617D01*
X3425799Y645617D01*
X3430778Y650595D01*
X3430778Y695604D01*
X3425799Y700582D01*
G37*
G36*
X2060600Y878382D02*
G01*
X2055622Y873404D01*
X2055622Y828395D01*
X2060600Y823417D01*
X2108606Y823417D01*
X2115616Y828395D01*
X2115616Y873404D01*
X2108606Y878382D01*
G37*
G36*
X2158593Y878382D02*
G01*
X2151583Y873404D01*
X2151583Y828395D01*
X2158593Y823417D01*
X2206599Y823417D01*
X2211578Y828395D01*
X2211578Y873404D01*
X2206599Y878382D01*
G37*
G36*
X2365095Y1874316D02*
G01*
X2360117Y1867306D01*
X2360117Y1819300D01*
X2365095Y1814322D01*
X2410104Y1814322D01*
X2415082Y1819300D01*
X2415082Y1867306D01*
X2410104Y1874316D01*
G37*
G36*
X2365095Y1970278D02*
G01*
X2360117Y1965299D01*
X2360117Y1917293D01*
X2365095Y1910283D01*
X2410104Y1910283D01*
X2415082Y1917293D01*
X2415082Y1965299D01*
X2410104Y1970278D01*
G37*
G36*
X1399895Y2135378D02*
G01*
X1394917Y2130399D01*
X1394917Y2082393D01*
X1399895Y2075383D01*
X1444904Y2075383D01*
X1449882Y2082393D01*
X1449882Y2130399D01*
X1444904Y2135378D01*
G37*
G36*
X1399895Y2039416D02*
G01*
X1394917Y2032406D01*
X1394917Y1984400D01*
X1399895Y1979422D01*
X1444904Y1979422D01*
X1449882Y1984400D01*
X1449882Y2032406D01*
X1444904Y2039416D01*
G37*
G36*
X1272895Y2135378D02*
G01*
X1267917Y2130399D01*
X1267917Y2082393D01*
X1272895Y2075383D01*
X1317904Y2075383D01*
X1322882Y2082393D01*
X1322882Y2130399D01*
X1317904Y2135378D01*
G37*
G36*
X1272895Y2039416D02*
G01*
X1267917Y2032406D01*
X1267917Y1984400D01*
X1272895Y1979422D01*
X1317904Y1979422D01*
X1322882Y1984400D01*
X1322882Y2032406D01*
X1317904Y2039416D01*
G37*
G36*
X2060600Y1005382D02*
G01*
X2055622Y1000404D01*
X2055622Y955395D01*
X2060600Y950417D01*
X2108606Y950417D01*
X2115616Y955395D01*
X2115616Y1000404D01*
X2108606Y1005382D01*
G37*
G36*
X2158593Y1005382D02*
G01*
X2151583Y1000404D01*
X2151583Y955395D01*
X2158593Y950417D01*
X2206599Y950417D01*
X2211578Y955395D01*
X2211578Y1000404D01*
X2206599Y1005382D01*
G37*
G36*
X2284679Y1173988D02*
G01*
X2278278Y1167587D01*
X2278278Y1093978D01*
X2284679Y1087577D01*
X2335022Y1087577D01*
X2362454Y1116939D01*
X2362454Y1144574D01*
X2335022Y1173988D01*
G37*
G36*
X2441397Y1175105D02*
G01*
X2414016Y1145743D01*
X2414016Y1118057D01*
X2441397Y1088694D01*
X2491740Y1088694D01*
X2498140Y1095095D01*
X2498140Y1168704D01*
X2491740Y1175105D01*
G37*
G36*
X271475Y1449425D02*
G01*
X267512Y1445412D01*
X267512Y1399387D01*
X271475Y1395374D01*
X321564Y1395374D01*
X325577Y1399387D01*
X325577Y1445412D01*
X321564Y1449425D01*
G37*
G36*
X186436Y1449425D02*
G01*
X182422Y1445412D01*
X182422Y1399387D01*
X186436Y1395374D01*
X236524Y1395374D01*
X240487Y1399387D01*
X240487Y1445412D01*
X236524Y1449425D01*
G37*
G36*
X904595Y1925116D02*
G01*
X899617Y1918106D01*
X899617Y1870100D01*
X904595Y1865122D01*
X949604Y1865122D01*
X954582Y1870100D01*
X954582Y1918106D01*
X949604Y1925116D01*
G37*
G36*
X904595Y2021078D02*
G01*
X899617Y2016099D01*
X899617Y1968093D01*
X904595Y1961083D01*
X949604Y1961083D01*
X954582Y1968093D01*
X954582Y2016099D01*
X949604Y2021078D01*
G37*
G36*
X723493Y1589582D02*
G01*
X716483Y1584604D01*
X716483Y1539595D01*
X723493Y1534617D01*
X771499Y1534617D01*
X776478Y1539595D01*
X776478Y1584604D01*
X771499Y1589582D01*
G37*
G36*
X625500Y1589582D02*
G01*
X620522Y1584604D01*
X620522Y1539595D01*
X625500Y1534617D01*
X673506Y1534617D01*
X680516Y1539595D01*
X680516Y1584604D01*
X673506Y1589582D01*
G37*
G36*
X371195Y1716278D02*
G01*
X366217Y1711299D01*
X366217Y1663293D01*
X371195Y1656283D01*
X416204Y1656283D01*
X421182Y1663293D01*
X421182Y1711299D01*
X416204Y1716278D01*
G37*
G36*
X371195Y1620316D02*
G01*
X366217Y1613306D01*
X366217Y1565300D01*
X371195Y1560322D01*
X416204Y1560322D01*
X421182Y1565300D01*
X421182Y1613306D01*
X416204Y1620316D01*
G37*
G36*
X2453995Y896416D02*
G01*
X2449017Y889406D01*
X2449017Y841400D01*
X2453995Y836421D01*
X2499004Y836421D01*
X2503982Y841400D01*
X2503982Y889406D01*
X2499004Y896416D01*
G37*
G36*
X2453995Y992378D02*
G01*
X2449017Y987399D01*
X2449017Y939393D01*
X2453995Y932383D01*
X2499004Y932383D01*
X2503982Y939393D01*
X2503982Y987399D01*
X2499004Y992378D01*
G37*
G36*
X2314295Y896416D02*
G01*
X2309317Y889406D01*
X2309317Y841400D01*
X2314295Y836421D01*
X2359304Y836421D01*
X2364282Y841400D01*
X2364282Y889406D01*
X2359304Y896416D01*
G37*
G36*
X2314295Y992378D02*
G01*
X2309317Y987399D01*
X2309317Y939393D01*
X2314295Y932383D01*
X2359304Y932383D01*
X2364282Y939393D01*
X2364282Y987399D01*
X2359304Y992378D01*
G37*
G36*
X2580995Y1048816D02*
G01*
X2576017Y1041806D01*
X2576017Y993800D01*
X2580995Y988821D01*
X2626004Y988821D01*
X2630982Y993800D01*
X2630982Y1041806D01*
X2626004Y1048816D01*
G37*
G36*
X2580995Y1144778D02*
G01*
X2576017Y1139799D01*
X2576017Y1091793D01*
X2580995Y1084783D01*
X2626004Y1084783D01*
X2630982Y1091793D01*
X2630982Y1139799D01*
X2626004Y1144778D01*
G37*
G36*
X2897987Y951687D02*
G01*
X2893974Y947724D01*
X2893974Y897636D01*
X2897987Y893622D01*
X2944012Y893622D01*
X2948025Y897636D01*
X2948025Y947724D01*
X2944012Y951687D01*
G37*
G36*
X2897987Y1036777D02*
G01*
X2893974Y1032764D01*
X2893974Y982675D01*
X2897987Y978712D01*
X2944012Y978712D01*
X2948025Y982675D01*
X2948025Y1032764D01*
X2944012Y1036777D01*
G37*
G36*
X2897987Y1392377D02*
G01*
X2893974Y1388364D01*
X2893974Y1338275D01*
X2897987Y1334312D01*
X2944012Y1334312D01*
X2948025Y1338275D01*
X2948025Y1388364D01*
X2944012Y1392377D01*
G37*
G36*
X2897987Y1307287D02*
G01*
X2893974Y1303324D01*
X2893974Y1253236D01*
X2897987Y1249222D01*
X2944012Y1249222D01*
X2948025Y1253236D01*
X2948025Y1303324D01*
X2944012Y1307287D01*
G37*
G36*
X1198575Y2414625D02*
G01*
X1194612Y2410612D01*
X1194612Y2364587D01*
X1198575Y2360574D01*
X1248664Y2360574D01*
X1252677Y2364587D01*
X1252677Y2410612D01*
X1248664Y2414625D01*
G37*
G36*
X1113536Y2414625D02*
G01*
X1109522Y2410612D01*
X1109522Y2364587D01*
X1113536Y2360574D01*
X1163624Y2360574D01*
X1167587Y2364587D01*
X1167587Y2410612D01*
X1163624Y2414625D01*
G37*
G36*
X1706575Y2389225D02*
G01*
X1702612Y2385212D01*
X1702612Y2339187D01*
X1706575Y2335174D01*
X1756664Y2335174D01*
X1760677Y2339187D01*
X1760677Y2385212D01*
X1756664Y2389225D01*
G37*
G36*
X1621536Y2389225D02*
G01*
X1617522Y2385212D01*
X1617522Y2339187D01*
X1621536Y2335174D01*
X1671624Y2335174D01*
X1675587Y2339187D01*
X1675587Y2385212D01*
X1671624Y2389225D01*
G37*
G36*
X2824226Y2668625D02*
G01*
X2820212Y2664612D01*
X2820212Y2618587D01*
X2824226Y2614574D01*
X2874264Y2614574D01*
X2878277Y2618587D01*
X2878277Y2664612D01*
X2874264Y2668625D01*
G37*
G36*
X2739136Y2668625D02*
G01*
X2735122Y2664612D01*
X2735122Y2618587D01*
X2739136Y2614574D01*
X2789174Y2614574D01*
X2793187Y2618587D01*
X2793187Y2664612D01*
X2789174Y2668625D01*
G37*
G36*
X897636Y1728825D02*
G01*
X893622Y1724812D01*
X893622Y1678787D01*
X897636Y1674774D01*
X947724Y1674774D01*
X951687Y1678787D01*
X951687Y1724812D01*
X947724Y1728825D01*
G37*
G36*
X982675Y1728825D02*
G01*
X978712Y1724812D01*
X978712Y1678787D01*
X982675Y1674774D01*
X1032764Y1674774D01*
X1036777Y1678787D01*
X1036777Y1724812D01*
X1032764Y1728825D01*
G37*
G36*
X677875Y2440025D02*
G01*
X673912Y2436012D01*
X673912Y2389987D01*
X677875Y2385974D01*
X727964Y2385974D01*
X731977Y2389987D01*
X731977Y2436012D01*
X727964Y2440025D01*
G37*
G36*
X592836Y2440025D02*
G01*
X588822Y2436012D01*
X588822Y2389987D01*
X592836Y2385974D01*
X642924Y2385974D01*
X646887Y2389987D01*
X646887Y2436012D01*
X642924Y2440025D01*
G37*
G36*
X677875Y2313025D02*
G01*
X673912Y2309012D01*
X673912Y2262987D01*
X677875Y2258974D01*
X727964Y2258974D01*
X731977Y2262987D01*
X731977Y2309012D01*
X727964Y2313025D01*
G37*
G36*
X592836Y2313025D02*
G01*
X588822Y2309012D01*
X588822Y2262987D01*
X592836Y2258974D01*
X642924Y2258974D01*
X646887Y2262987D01*
X646887Y2309012D01*
X642924Y2313025D01*
G37*
G36*
X1234287Y846277D02*
G01*
X1230274Y842264D01*
X1230274Y792175D01*
X1234287Y788212D01*
X1280312Y788212D01*
X1284325Y792175D01*
X1284325Y842264D01*
X1280312Y846277D01*
G37*
G36*
X1234287Y761187D02*
G01*
X1230274Y757224D01*
X1230274Y707136D01*
X1234287Y703122D01*
X1280312Y703122D01*
X1284325Y707136D01*
X1284325Y757224D01*
X1280312Y761187D01*
G37*
G36*
X1443736Y509625D02*
G01*
X1439722Y505612D01*
X1439722Y459587D01*
X1443736Y455574D01*
X1493824Y455574D01*
X1497787Y459587D01*
X1497787Y505612D01*
X1493824Y509625D01*
G37*
G36*
X1528775Y509625D02*
G01*
X1524812Y505612D01*
X1524812Y459587D01*
X1528775Y455574D01*
X1578864Y455574D01*
X1582877Y459587D01*
X1582877Y505612D01*
X1578864Y509625D01*
G37*
D10*
G01*
X863600Y3073400D03*
G01*
X863600Y3273399D03*
G01*
X863600Y2873400D03*
D11*
G01*
X1088593Y3523386D03*
G01*
X1088593Y2623388D03*
D10*
G01*
X1879600Y3073400D03*
G01*
X1879600Y2873400D03*
G01*
X1879600Y3273399D03*
D11*
G01*
X1654606Y2623388D03*
G01*
X1654606Y3523386D03*
D12*
G01*
X2766212Y3119704D03*
G01*
X2666212Y3119704D03*
G01*
X2566212Y3119704D03*
D13*
G01*
X2336190Y3509695D03*
G01*
X2896209Y3509695D03*
D12*
G01*
X2466213Y3119704D03*
D14*
G01*
X1410055Y631240D03*
G01*
X1409344Y791133D03*
G01*
X1587855Y631240D03*
G01*
X1587144Y791133D03*
G01*
X2688640Y2463444D03*
G01*
X2848533Y2464155D03*
D15*
G01*
X260705Y1864487D03*
G01*
X145694Y1864487D03*
G01*
X145694Y1564487D03*
G01*
X260705Y1564487D03*
D16*
G01*
X167512Y2597505D03*
G01*
X167512Y2482494D03*
G01*
X467512Y2482494D03*
G01*
X467512Y2597505D03*
G01*
X467512Y2241194D03*
G01*
X467512Y2356205D03*
G01*
X167512Y2356205D03*
G01*
X167512Y2241194D03*
D17*
G01*
X585622Y1964207D03*
G01*
X585622Y1744192D03*
G01*
X760628Y1744192D03*
G01*
X760603Y1964207D03*
D18*
G01*
X2914497Y1651000D03*
G01*
X3054502Y1651000D03*
G01*
X3194202Y2565400D03*
G01*
X3054197Y2565400D03*
D19*
G01*
X3119704Y942187D03*
G01*
X3119704Y1042187D03*
G01*
X3119704Y1142187D03*
D20*
G01*
X3509695Y1372209D03*
G01*
X3509695Y812190D03*
D19*
G01*
X3119704Y1242187D03*
D20*
G01*
X142900Y1207896D03*
G01*
X142900Y747903D03*
D21*
G01*
X542899Y877900D03*
G01*
X542899Y977900D03*
G01*
X542899Y1077899D03*
D13*
G01*
X760603Y130200D03*
G01*
X1220596Y130200D03*
D22*
G01*
X1090599Y530199D03*
G01*
X990600Y530199D03*
G01*
X890600Y530199D03*
D13*
G01*
X2437002Y130200D03*
G01*
X2896997Y130200D03*
D22*
G01*
X2766999Y530199D03*
G01*
X2667000Y530199D03*
G01*
X2567000Y530199D03*
D12*
G01*
X1843887Y512495D03*
G01*
X1943887Y512495D03*
G01*
X2043887Y512495D03*
D13*
G01*
X2273909Y122504D03*
G01*
X1713890Y122504D03*
D12*
G01*
X2143886Y512495D03*
D23*
G01*
X3433902Y1878203D03*
G01*
X3433902Y2108200D03*
G01*
X3433902Y2338196D03*
D24*
G01*
X2839897Y2108200D03*
D25*
G01*
X3454400Y2628900D03*
G01*
X3454400Y2778912D03*
D26*
G01*
X1378407Y1837105D03*
G01*
X1378407Y1787093D03*
G01*
X1378407Y1737105D03*
G01*
X1378407Y1687093D03*
G01*
X1378407Y1637106D03*
G01*
X1378407Y1587093D03*
G01*
X1378407Y1537106D03*
G01*
X1378407Y1487093D03*
G01*
X1378407Y1437106D03*
G01*
X1378407Y1387094D03*
G01*
X1378407Y1337106D03*
G01*
X1378407Y1287094D03*
D27*
G01*
X1528394Y1137107D03*
G01*
X1578406Y1137107D03*
G01*
X1628394Y1137107D03*
G01*
X1678406Y1137107D03*
G01*
X1728393Y1137107D03*
G01*
X1778406Y1137107D03*
G01*
X1828393Y1137107D03*
G01*
X1878406Y1137107D03*
G01*
X1928393Y1137107D03*
G01*
X1978406Y1137107D03*
G01*
X2028393Y1137107D03*
G01*
X2078405Y1137107D03*
D26*
G01*
X2228392Y1287094D03*
G01*
X2228392Y1337106D03*
G01*
X2228392Y1387094D03*
G01*
X2228392Y1437106D03*
G01*
X2228392Y1487093D03*
G01*
X2228392Y1537106D03*
G01*
X2228392Y1587093D03*
G01*
X2228392Y1637106D03*
G01*
X2228392Y1687093D03*
G01*
X2228392Y1737105D03*
G01*
X2228392Y1787093D03*
G01*
X2228392Y1837105D03*
D27*
G01*
X2078405Y1987092D03*
G01*
X2028393Y1987092D03*
G01*
X1978406Y1987092D03*
G01*
X1928393Y1987092D03*
G01*
X1878406Y1987092D03*
G01*
X1828393Y1987092D03*
G01*
X1778406Y1987092D03*
G01*
X1728393Y1987092D03*
G01*
X1678406Y1987092D03*
G01*
X1628394Y1987092D03*
G01*
X1578406Y1987092D03*
G01*
X1528394Y1987092D03*
M02*
