G04 Layer: TopSilkscreenLayer*
G04 EasyEDA v6.5.40, 2024-02-08 20:30:12*
G04 8a8f0ff451d84adea016c743fcc8db9f,2e16165ee3bb4678bfb3015e44e098b9,10*
G04 Gerber Generator version 0.2*
G04 Scale: 100 percent, Rotated: No, Reflected: No *
G04 Dimensions in millimeters *
G04 leading zeros omitted , absolute positions ,4 integer and 5 decimal *
%FSLAX45Y45*%
%MOMM*%

%ADD10C,0.1500*%
%ADD11C,0.2000*%
%ADD12C,0.2500*%
%ADD13C,0.2540*%
%ADD14C,0.1524*%
%ADD15C,0.1520*%
%ADD16C,0.4000*%
%ADD17C,0.0149*%

%LPD*%
G36*
X531876Y415899D02*
G01*
X531876Y285750D01*
X591413Y285750D01*
X591870Y291541D01*
X592734Y297078D01*
X594156Y302209D01*
X595985Y306679D01*
X598728Y311404D01*
X601014Y313639D01*
X603504Y313740D01*
X606907Y312013D01*
X609600Y309930D01*
X611124Y307594D01*
X611530Y304952D01*
X609955Y298450D01*
X609244Y293776D01*
X608736Y288442D01*
X608533Y283108D01*
X608736Y276809D01*
X609600Y272948D01*
X611428Y271068D01*
X614476Y270560D01*
X617575Y271322D01*
X620064Y273862D01*
X622249Y278587D01*
X626262Y292354D01*
X628294Y297738D01*
X630529Y302006D01*
X633069Y305358D01*
X636016Y307797D01*
X639368Y309473D01*
X643331Y310388D01*
X647852Y310692D01*
X652627Y310134D01*
X657047Y308610D01*
X660958Y306171D01*
X664413Y302920D01*
X667359Y299008D01*
X669696Y294487D01*
X671372Y289509D01*
X672388Y284175D01*
X672744Y278587D01*
X672287Y272846D01*
X671017Y267055D01*
X668883Y261366D01*
X666140Y256133D01*
X663549Y253898D01*
X660298Y254457D01*
X655523Y257556D01*
X652780Y259943D01*
X651560Y262229D01*
X651865Y264972D01*
X653542Y268630D01*
X656234Y276707D01*
X656234Y284429D01*
X653846Y290169D01*
X649274Y292455D01*
X646176Y291693D01*
X643636Y289153D01*
X641451Y284327D01*
X637540Y271322D01*
X635406Y266293D01*
X632968Y261772D01*
X630174Y257860D01*
X627176Y254660D01*
X624027Y252272D01*
X620826Y250799D01*
X617626Y250291D01*
X611022Y251510D01*
X604316Y254762D01*
X598576Y259384D01*
X594715Y264820D01*
X593140Y269290D01*
X592074Y274421D01*
X591515Y279958D01*
X591413Y285750D01*
X531876Y285750D01*
X531876Y237794D01*
X672490Y237794D01*
X672490Y215747D01*
X672236Y203962D01*
X671169Y196240D01*
X668832Y190855D01*
X664819Y186080D01*
X660349Y182372D01*
X655675Y179832D01*
X650900Y178460D01*
X646125Y178206D01*
X641502Y178917D01*
X637133Y180644D01*
X633171Y183235D01*
X629615Y186740D01*
X626668Y191008D01*
X624433Y195986D01*
X623011Y201676D01*
X622503Y207924D01*
X622503Y222148D01*
X606856Y222148D01*
X598271Y222351D01*
X593598Y223316D01*
X591616Y225653D01*
X591261Y229971D01*
X591261Y237794D01*
X531876Y237794D01*
X531876Y169011D01*
X672490Y169011D01*
X672490Y150266D01*
X591261Y150266D01*
X591261Y169011D01*
X531876Y169011D01*
X531876Y112776D01*
X591261Y112776D01*
X591261Y131521D01*
X622401Y131521D01*
X638352Y131724D01*
X647547Y132384D01*
X651510Y133807D01*
X651764Y136194D01*
X651357Y138430D01*
X652424Y139903D01*
X655015Y140665D01*
X659384Y140919D01*
X665734Y140208D01*
X669594Y137566D01*
X671576Y132080D01*
X672236Y122935D01*
X672490Y112776D01*
X531876Y112776D01*
X531876Y15900D01*
X738124Y15900D01*
X738124Y415899D01*
G37*
G36*
X647496Y222148D02*
G01*
X642061Y221894D01*
X639267Y220522D01*
X638403Y217017D01*
X638708Y210413D01*
X639470Y204317D01*
X640892Y200761D01*
X643382Y199136D01*
X647496Y198729D01*
X651611Y199136D01*
X654100Y200761D01*
X655523Y204317D01*
X656285Y210413D01*
X656640Y217017D01*
X655726Y220522D01*
X652932Y221894D01*
G37*
G36*
X1508658Y419100D02*
G01*
X1508658Y336092D01*
X1559356Y336092D01*
X1559712Y342188D01*
X1560880Y347370D01*
X1563014Y351942D01*
X1566164Y356260D01*
X1568399Y358800D01*
X1570583Y360730D01*
X1573072Y362153D01*
X1576171Y363220D01*
X1580286Y363931D01*
X1585874Y364439D01*
X1632610Y366115D01*
X1632610Y348691D01*
X1596288Y348538D01*
X1588465Y348030D01*
X1582521Y347116D01*
X1578254Y345694D01*
X1575511Y343712D01*
X1574088Y341020D01*
X1573834Y337515D01*
X1574596Y333197D01*
X1576120Y329184D01*
X1579829Y327050D01*
X1588363Y326288D01*
X1632610Y326136D01*
X1632610Y309219D01*
X1589074Y309422D01*
X1583791Y309778D01*
X1579626Y310337D01*
X1576324Y311251D01*
X1573479Y312521D01*
X1570837Y314299D01*
X1568043Y316534D01*
X1563624Y320700D01*
X1560982Y324764D01*
X1559712Y329590D01*
X1559356Y336092D01*
X1508658Y336092D01*
X1508658Y303530D01*
X1559356Y303530D01*
X1606092Y285242D01*
X1621028Y279196D01*
X1627784Y275742D01*
X1631492Y272694D01*
X1632610Y269849D01*
X1631492Y266954D01*
X1627784Y263956D01*
X1621028Y260502D01*
X1559356Y236067D01*
X1559356Y244754D01*
X1559661Y248869D01*
X1560626Y251815D01*
X1562404Y253746D01*
X1567840Y256184D01*
X1569567Y258673D01*
X1570380Y263042D01*
X1570634Y269951D01*
X1570380Y276809D01*
X1569516Y281228D01*
X1567789Y283819D01*
X1562455Y286562D01*
X1560677Y288594D01*
X1559661Y291490D01*
X1559356Y295300D01*
X1559356Y303530D01*
X1508658Y303530D01*
X1508658Y230378D01*
X1632610Y230378D01*
X1632610Y208279D01*
X1632356Y196697D01*
X1631543Y189230D01*
X1629765Y184404D01*
X1626717Y180848D01*
X1623212Y178409D01*
X1619046Y176733D01*
X1614474Y175768D01*
X1609648Y175514D01*
X1604822Y176022D01*
X1600200Y177241D01*
X1596034Y179171D01*
X1592427Y181813D01*
X1585772Y188112D01*
X1559356Y171348D01*
X1559356Y180949D01*
X1559763Y186334D01*
X1561642Y190347D01*
X1565910Y194005D01*
X1579422Y202133D01*
X1583740Y205181D01*
X1586280Y207771D01*
X1587144Y209854D01*
X1586280Y211429D01*
X1583740Y212598D01*
X1579422Y213258D01*
X1565452Y213614D01*
X1561236Y214579D01*
X1559610Y217119D01*
X1559356Y221894D01*
X1559356Y230378D01*
X1508658Y230378D01*
X1508658Y134569D01*
X1559356Y134569D01*
X1559356Y151485D01*
X1618488Y151485D01*
X1618488Y161340D01*
X1618742Y166522D01*
X1619707Y169519D01*
X1621840Y170891D01*
X1625549Y171196D01*
X1632610Y171196D01*
X1632457Y126695D01*
X1631746Y118364D01*
X1629867Y115417D01*
X1626260Y115366D01*
X1623161Y116281D01*
X1621078Y118059D01*
X1619758Y121005D01*
X1619046Y125425D01*
X1618132Y134569D01*
X1508658Y134569D01*
X1508658Y97078D01*
X1559407Y97078D01*
X1561084Y104902D01*
X1562404Y106984D01*
X1564741Y109321D01*
X1567688Y111658D01*
X1570990Y113639D01*
X1575612Y115925D01*
X1578000Y116281D01*
X1578914Y114350D01*
X1579067Y109880D01*
X1578813Y106527D01*
X1578152Y103327D01*
X1577136Y100584D01*
X1575866Y98704D01*
X1573936Y94894D01*
X1574596Y90982D01*
X1577492Y87934D01*
X1582064Y86715D01*
X1584655Y87122D01*
X1586839Y88239D01*
X1588516Y90017D01*
X1590598Y94691D01*
X1592275Y96469D01*
X1594612Y97586D01*
X1597406Y97993D01*
X1600200Y97586D01*
X1602486Y96469D01*
X1604162Y94691D01*
X1605229Y92354D01*
X1607362Y88646D01*
X1610715Y86918D01*
X1614322Y87274D01*
X1617370Y89966D01*
X1617776Y91490D01*
X1617421Y93218D01*
X1616354Y94996D01*
X1614728Y96621D01*
X1611274Y101295D01*
X1610055Y107391D01*
X1611122Y112623D01*
X1614424Y114858D01*
X1619097Y113842D01*
X1623314Y111048D01*
X1626870Y106883D01*
X1629664Y101650D01*
X1631543Y95808D01*
X1632254Y89712D01*
X1631746Y83769D01*
X1629816Y78282D01*
X1625092Y73660D01*
X1618030Y71170D01*
X1610207Y71069D01*
X1603146Y73660D01*
X1599539Y75844D01*
X1597050Y76606D01*
X1595069Y75946D01*
X1593088Y73914D01*
X1587500Y70662D01*
X1579626Y69900D01*
X1571498Y71526D01*
X1564995Y75438D01*
X1561490Y81076D01*
X1559610Y88747D01*
X1559407Y97078D01*
X1508658Y97078D01*
X1508658Y19100D01*
X1691741Y19100D01*
X1691741Y419100D01*
G37*
G36*
X1586026Y276250D02*
G01*
X1584909Y274269D01*
X1584706Y269798D01*
X1584909Y265328D01*
X1586026Y263347D01*
X1588973Y263347D01*
X1594561Y264922D01*
X1598371Y266242D01*
X1601520Y267614D01*
X1603654Y268833D01*
X1604416Y269798D01*
X1603654Y270764D01*
X1601520Y272034D01*
X1594561Y274726D01*
X1588973Y276250D01*
G37*
G36*
X1610055Y213461D02*
G01*
X1605127Y213258D01*
X1602638Y211988D01*
X1601825Y208838D01*
X1602130Y202895D01*
X1602841Y197408D01*
X1604111Y194208D01*
X1606346Y192684D01*
X1610055Y192328D01*
X1613763Y192684D01*
X1615998Y194208D01*
X1617268Y197408D01*
X1617980Y202895D01*
X1618284Y208838D01*
X1617472Y211988D01*
X1614982Y213258D01*
G37*
G36*
X2925673Y419100D02*
G01*
X2925673Y290017D01*
X2978200Y290017D01*
X2978607Y299770D01*
X2979420Y307086D01*
X2980537Y313182D01*
X2982061Y318008D01*
X2983941Y321614D01*
X2986125Y323850D01*
X2988665Y324815D01*
X2991510Y324459D01*
X2994660Y322732D01*
X2997352Y320395D01*
X2998520Y318160D01*
X2998317Y315569D01*
X2996844Y312115D01*
X2994456Y305358D01*
X2993542Y297434D01*
X2994101Y289864D01*
X2996184Y284022D01*
X3000044Y280924D01*
X3004159Y282295D01*
X3007817Y287629D01*
X3010357Y296316D01*
X3011830Y302717D01*
X3014014Y308356D01*
X3016808Y313182D01*
X3020161Y317093D01*
X3023971Y320040D01*
X3028137Y322021D01*
X3032658Y322834D01*
X3037433Y322529D01*
X3041650Y321259D01*
X3045917Y319278D01*
X3049727Y316788D01*
X3052622Y314147D01*
X3054705Y310692D01*
X3056280Y306222D01*
X3057347Y300939D01*
X3057855Y295249D01*
X3057855Y289306D01*
X3057296Y283464D01*
X3056128Y277926D01*
X3054400Y273100D01*
X3051708Y267919D01*
X3049168Y265734D01*
X3045968Y266293D01*
X3041243Y269341D01*
X3038551Y271678D01*
X3037382Y273964D01*
X3037687Y276606D01*
X3039313Y280263D01*
X3042005Y288239D01*
X3042005Y295808D01*
X3039618Y301498D01*
X3035096Y303733D01*
X3032048Y302971D01*
X3029610Y300482D01*
X3027426Y295859D01*
X3023514Y282295D01*
X3021634Y277114D01*
X3019501Y272999D01*
X3017113Y269798D01*
X3014268Y267462D01*
X3011017Y265887D01*
X3007106Y264972D01*
X3002534Y264566D01*
X2997352Y264871D01*
X2992932Y266293D01*
X2988919Y268935D01*
X2984855Y272999D01*
X2980944Y278180D01*
X2978861Y283362D01*
X2978200Y290017D01*
X2925673Y290017D01*
X2925673Y252933D01*
X3058007Y252933D01*
X3058007Y230428D01*
X3057753Y218186D01*
X3056686Y210413D01*
X3054400Y205181D01*
X3050336Y200660D01*
X3045917Y197205D01*
X3041294Y194919D01*
X3036620Y193649D01*
X3031947Y193395D01*
X3027426Y194106D01*
X3023108Y195732D01*
X3019196Y198170D01*
X3015742Y201422D01*
X3012846Y205384D01*
X3010662Y210058D01*
X3009239Y215341D01*
X3008731Y221183D01*
X3008731Y234492D01*
X2984601Y234645D01*
X2980029Y235712D01*
X2978251Y238455D01*
X2977997Y243738D01*
X2977997Y252933D01*
X2925673Y252933D01*
X2925673Y185267D01*
X3058007Y185267D01*
X3058007Y166776D01*
X2977997Y166776D01*
X2977997Y185267D01*
X2925673Y185267D01*
X2925673Y129844D01*
X2977997Y129844D01*
X2978150Y143408D01*
X2978962Y150774D01*
X2980893Y153873D01*
X2984449Y154482D01*
X2988513Y153263D01*
X2994710Y149961D01*
X3002280Y145084D01*
X3017215Y133858D01*
X3023514Y129692D01*
X3029000Y126593D01*
X3033674Y124612D01*
X3037484Y123799D01*
X3040278Y124155D01*
X3042005Y125679D01*
X3042615Y128422D01*
X3042259Y130403D01*
X3041243Y132283D01*
X3039770Y133858D01*
X3037992Y134924D01*
X3034588Y138938D01*
X3033369Y145542D01*
X3034334Y151739D01*
X3037586Y154482D01*
X3039821Y153974D01*
X3042920Y152603D01*
X3046374Y150571D01*
X3049879Y148132D01*
X3053334Y144576D01*
X3055874Y140258D01*
X3057499Y135382D01*
X3058261Y130251D01*
X3058058Y125018D01*
X3056940Y119989D01*
X3054858Y115366D01*
X3051810Y111404D01*
X3047695Y107950D01*
X3043326Y105816D01*
X3038551Y105054D01*
X3033217Y105714D01*
X3027172Y107797D01*
X3020212Y111353D01*
X3012135Y116484D01*
X3002889Y123139D01*
X2993390Y130302D01*
X2993390Y117754D01*
X2993136Y111048D01*
X2992120Y107289D01*
X2989834Y105613D01*
X2985668Y105257D01*
X2981299Y105714D01*
X2979013Y108508D01*
X2978099Y115824D01*
X2977997Y129844D01*
X2925673Y129844D01*
X2925673Y19100D01*
X3119526Y19100D01*
X3119526Y419100D01*
G37*
G36*
X3033369Y234492D02*
G01*
X3028340Y234188D01*
X3025597Y232867D01*
X3024378Y229717D01*
X3024124Y224028D01*
X3024479Y219557D01*
X3025394Y215950D01*
X3026816Y213309D01*
X3028746Y211836D01*
X3034538Y210820D01*
X3038906Y212648D01*
X3041650Y217119D01*
X3042615Y224028D01*
X3042361Y229717D01*
X3041142Y232867D01*
X3038398Y234188D01*
G37*
G36*
X3225800Y1597050D02*
G01*
X3225800Y1534515D01*
X3344570Y1534515D01*
X3344570Y1513382D01*
X3355695Y1513382D01*
X3357270Y1518107D01*
X3361283Y1525930D01*
X3366770Y1531010D01*
X3373983Y1533601D01*
X3383279Y1533906D01*
X3389274Y1533042D01*
X3394151Y1531315D01*
X3398164Y1528572D01*
X3401669Y1524660D01*
X3404717Y1519986D01*
X3406089Y1516024D01*
X3405936Y1511757D01*
X3404311Y1506220D01*
X3402076Y1501241D01*
X3397794Y1493926D01*
X3416401Y1493926D01*
X3416655Y1507642D01*
X3417671Y1516329D01*
X3420008Y1522018D01*
X3424072Y1526844D01*
X3428695Y1530553D01*
X3433826Y1533144D01*
X3439363Y1534617D01*
X3445052Y1534972D01*
X3450844Y1534210D01*
X3456482Y1532331D01*
X3461816Y1529435D01*
X3466642Y1525422D01*
X3470198Y1521460D01*
X3473094Y1517497D01*
X3475075Y1513992D01*
X3475786Y1511350D01*
X3473348Y1507388D01*
X3467404Y1506474D01*
X3460292Y1508404D01*
X3454247Y1513078D01*
X3451351Y1516024D01*
X3448507Y1517700D01*
X3445459Y1518158D01*
X3442004Y1517548D01*
X3438347Y1515719D01*
X3436264Y1512214D01*
X3435400Y1505458D01*
X3435197Y1493926D01*
X3435400Y1482344D01*
X3436264Y1475587D01*
X3438347Y1472082D01*
X3442004Y1470304D01*
X3445459Y1469644D01*
X3448507Y1470152D01*
X3451351Y1471828D01*
X3454247Y1474774D01*
X3460292Y1479397D01*
X3467404Y1481378D01*
X3473348Y1480464D01*
X3475786Y1476502D01*
X3475075Y1473860D01*
X3473094Y1470304D01*
X3470198Y1466342D01*
X3466642Y1462430D01*
X3463588Y1459890D01*
X3485184Y1459890D01*
X3486404Y1464005D01*
X3489756Y1470304D01*
X3494735Y1477975D01*
X3506114Y1493164D01*
X3510381Y1499514D01*
X3513480Y1505102D01*
X3515512Y1509877D01*
X3516325Y1513687D01*
X3515969Y1516532D01*
X3514445Y1518310D01*
X3511651Y1518920D01*
X3509619Y1518564D01*
X3507740Y1517548D01*
X3506114Y1516024D01*
X3505047Y1514246D01*
X3500983Y1510792D01*
X3494278Y1509522D01*
X3487978Y1510538D01*
X3485184Y1513789D01*
X3485692Y1516126D01*
X3487064Y1519224D01*
X3489147Y1522780D01*
X3491636Y1526286D01*
X3495243Y1529791D01*
X3499612Y1532382D01*
X3504539Y1534058D01*
X3509822Y1534820D01*
X3515106Y1534617D01*
X3520236Y1533499D01*
X3524910Y1531366D01*
X3528923Y1528267D01*
X3532428Y1524050D01*
X3534613Y1519631D01*
X3535375Y1514805D01*
X3534714Y1509369D01*
X3532632Y1503222D01*
X3528974Y1496161D01*
X3523792Y1487982D01*
X3509772Y1468932D01*
X3522472Y1468932D01*
X3529279Y1468678D01*
X3533140Y1467662D01*
X3534816Y1465275D01*
X3535172Y1461109D01*
X3534714Y1456639D01*
X3531870Y1454302D01*
X3524453Y1453438D01*
X3510178Y1453286D01*
X3496411Y1453438D01*
X3488944Y1454251D01*
X3485794Y1456232D01*
X3485184Y1459890D01*
X3463588Y1459890D01*
X3461816Y1458417D01*
X3456482Y1455470D01*
X3450844Y1453642D01*
X3445052Y1452880D01*
X3439363Y1453235D01*
X3433826Y1454708D01*
X3428695Y1457248D01*
X3424072Y1460957D01*
X3420008Y1465834D01*
X3417671Y1471523D01*
X3416655Y1480159D01*
X3416401Y1493926D01*
X3397794Y1493926D01*
X3394252Y1488592D01*
X3389680Y1482547D01*
X3378504Y1468932D01*
X3392779Y1468932D01*
X3400551Y1468678D01*
X3404819Y1467713D01*
X3406648Y1465376D01*
X3407054Y1461109D01*
X3406597Y1456639D01*
X3403752Y1454302D01*
X3396335Y1453438D01*
X3382060Y1453286D01*
X3367938Y1453438D01*
X3360470Y1454302D01*
X3357575Y1456486D01*
X3357067Y1460703D01*
X3358286Y1465173D01*
X3361690Y1471980D01*
X3366770Y1480108D01*
X3379470Y1497634D01*
X3384143Y1505102D01*
X3386785Y1510792D01*
X3387191Y1514195D01*
X3384448Y1517599D01*
X3380486Y1518767D01*
X3376574Y1517650D01*
X3372408Y1512366D01*
X3369970Y1510893D01*
X3366719Y1509877D01*
X3363061Y1509522D01*
X3358134Y1509725D01*
X3355848Y1510792D01*
X3355695Y1513382D01*
X3344570Y1513382D01*
X3344570Y1453286D01*
X3325774Y1453286D01*
X3325774Y1534515D01*
X3225800Y1534515D01*
X3225800Y1400149D01*
X3625799Y1400149D01*
X3625799Y1597050D01*
G37*
G36*
X2921050Y3606800D02*
G01*
X2921050Y3495395D01*
X2977438Y3495395D01*
X2977896Y3501186D01*
X2978810Y3506724D01*
X2980182Y3511854D01*
X2982061Y3516325D01*
X2984754Y3521049D01*
X2987040Y3523284D01*
X2989580Y3523386D01*
X2992983Y3521659D01*
X2995676Y3519576D01*
X2997149Y3517239D01*
X2997555Y3514648D01*
X2995980Y3508095D01*
X2995269Y3503422D01*
X2994761Y3498087D01*
X2994558Y3492754D01*
X2994761Y3486454D01*
X2995625Y3482644D01*
X2997454Y3480765D01*
X3000502Y3480257D01*
X3003600Y3480968D01*
X3006090Y3483508D01*
X3008325Y3488232D01*
X3012338Y3501999D01*
X3014319Y3507384D01*
X3016554Y3511651D01*
X3019094Y3515004D01*
X3022041Y3517442D01*
X3025444Y3519119D01*
X3029356Y3520033D01*
X3033877Y3520338D01*
X3038652Y3519779D01*
X3043072Y3518255D01*
X3047034Y3515817D01*
X3050438Y3512565D01*
X3053384Y3508654D01*
X3055721Y3504133D01*
X3057398Y3499154D01*
X3058464Y3493820D01*
X3058769Y3488232D01*
X3058312Y3482492D01*
X3057042Y3476701D01*
X3054908Y3471011D01*
X3052165Y3465779D01*
X3049625Y3463544D01*
X3046374Y3464102D01*
X3041548Y3467201D01*
X3038805Y3469589D01*
X3037636Y3471875D01*
X3037890Y3474618D01*
X3039567Y3478276D01*
X3042310Y3486353D01*
X3042310Y3494074D01*
X3039872Y3499865D01*
X3035300Y3502101D01*
X3032201Y3501339D01*
X3029712Y3498799D01*
X3027476Y3493973D01*
X3023616Y3480968D01*
X3021482Y3475939D01*
X3018993Y3471418D01*
X3016199Y3467506D01*
X3013202Y3464306D01*
X3010052Y3461918D01*
X3006852Y3460445D01*
X3003651Y3459937D01*
X2997047Y3461156D01*
X2990342Y3464407D01*
X2984601Y3469081D01*
X2980740Y3474465D01*
X2979166Y3478936D01*
X2978099Y3484067D01*
X2977540Y3489604D01*
X2977438Y3495395D01*
X2921050Y3495395D01*
X2921050Y3388055D01*
X2977642Y3388055D01*
X2977896Y3390290D01*
X2979064Y3392170D01*
X2981655Y3393897D01*
X2986074Y3395726D01*
X3002178Y3400501D01*
X3028848Y3407714D01*
X3003854Y3414572D01*
X2990443Y3418484D01*
X2982772Y3421583D01*
X2979166Y3424936D01*
X2977896Y3429457D01*
X2977794Y3433165D01*
X2978505Y3435959D01*
X2980080Y3437940D01*
X2982569Y3439160D01*
X3004870Y3444697D01*
X3038805Y3452723D01*
X3057245Y3456787D01*
X3057753Y3456076D01*
X3058160Y3454196D01*
X3058515Y3447846D01*
X3058058Y3442715D01*
X3055315Y3439617D01*
X3048304Y3437382D01*
X3026003Y3433165D01*
X3018993Y3431387D01*
X3014726Y3429812D01*
X3013862Y3428644D01*
X3016504Y3427323D01*
X3021787Y3425393D01*
X3048457Y3417671D01*
X3054858Y3414979D01*
X3057804Y3411982D01*
X3058515Y3408019D01*
X3058414Y3405581D01*
X3057601Y3403549D01*
X3055670Y3401669D01*
X3052064Y3399739D01*
X3046171Y3397504D01*
X3025749Y3391255D01*
X3010103Y3386785D01*
X3010865Y3386124D01*
X3015234Y3384854D01*
X3045917Y3378860D01*
X3053486Y3376523D01*
X3056839Y3373374D01*
X3057956Y3368497D01*
X3058312Y3365042D01*
X3058058Y3362553D01*
X3056686Y3361080D01*
X3053689Y3360623D01*
X3048558Y3361131D01*
X3040684Y3362604D01*
X3014776Y3368649D01*
X2994964Y3373577D01*
X2988564Y3375456D01*
X2984093Y3377133D01*
X2981096Y3378809D01*
X2979318Y3380587D01*
X2978353Y3382670D01*
X2977642Y3388055D01*
X2921050Y3388055D01*
X2921050Y3350564D01*
X3058515Y3350564D01*
X3058515Y3331616D01*
X3058261Y3323691D01*
X3057448Y3316224D01*
X3056331Y3309975D01*
X3054908Y3305810D01*
X3052470Y3301746D01*
X3049828Y3298494D01*
X3046780Y3296005D01*
X3043123Y3294126D01*
X3038602Y3292805D01*
X3033064Y3291941D01*
X3026206Y3291484D01*
X3017926Y3291382D01*
X3010154Y3291535D01*
X3003397Y3292094D01*
X2997555Y3293059D01*
X2992628Y3294481D01*
X2988513Y3296513D01*
X2985160Y3299155D01*
X2982468Y3302508D01*
X2980436Y3306572D01*
X2978962Y3311448D01*
X2977997Y3317189D01*
X2977438Y3323894D01*
X2977286Y3350564D01*
X2921050Y3350564D01*
X2921050Y3206800D01*
X3124149Y3206800D01*
X3124149Y3606800D01*
G37*
G36*
X3017926Y3334918D02*
G01*
X3003753Y3334765D01*
X2996285Y3333902D01*
X2993390Y3331667D01*
X2992932Y3327349D01*
X2993034Y3322065D01*
X2993644Y3318001D01*
X2994863Y3314903D01*
X2996946Y3312718D01*
X3000044Y3311296D01*
X3004464Y3310432D01*
X3010357Y3310026D01*
X3025495Y3310026D01*
X3031337Y3310432D01*
X3035757Y3311296D01*
X3038906Y3312718D01*
X3040938Y3314903D01*
X3042208Y3318001D01*
X3042767Y3322065D01*
X3042920Y3327349D01*
X3042412Y3331667D01*
X3039567Y3333902D01*
X3032099Y3334765D01*
G37*
G36*
X3229000Y3063036D02*
G01*
X3229000Y2996895D01*
X3400653Y2996895D01*
X3414064Y2996742D01*
X3421126Y2995828D01*
X3422355Y2994761D01*
X3433724Y2994761D01*
X3434384Y2995676D01*
X3436112Y2996285D01*
X3438753Y2996488D01*
X3441954Y2996336D01*
X3446526Y2994964D01*
X3450082Y2991256D01*
X3453637Y2983484D01*
X3458108Y2970123D01*
X3466134Y2944926D01*
X3474567Y2970123D01*
X3479393Y2983738D01*
X3483101Y2991459D01*
X3486861Y2995066D01*
X3491890Y2996336D01*
X3495852Y2996590D01*
X3498342Y2996184D01*
X3499408Y2995066D01*
X3499154Y2993186D01*
X3481832Y2941116D01*
X3476345Y2926080D01*
X3474212Y2921355D01*
X3472281Y2918206D01*
X3470401Y2916224D01*
X3468471Y2915259D01*
X3466388Y2915005D01*
X3464255Y2915259D01*
X3462324Y2916275D01*
X3460394Y2918307D01*
X3458413Y2921660D01*
X3456178Y2926537D01*
X3450437Y2942234D01*
X3439414Y2975559D01*
X3433978Y2993440D01*
X3433724Y2994761D01*
X3422355Y2994761D01*
X3423818Y2993491D01*
X3424275Y2989021D01*
X3423869Y2984754D01*
X3422091Y2982366D01*
X3417824Y2981350D01*
X3403447Y2980893D01*
X3399078Y2980080D01*
X3396691Y2978658D01*
X3395929Y2976422D01*
X3396487Y2974390D01*
X3398215Y2972917D01*
X3401009Y2972003D01*
X3409696Y2971241D01*
X3413861Y2969818D01*
X3417468Y2967482D01*
X3420465Y2964230D01*
X3422802Y2960116D01*
X3424478Y2955137D01*
X3425494Y2949346D01*
X3425850Y2942742D01*
X3425444Y2936290D01*
X3424275Y2930702D01*
X3422345Y2925927D01*
X3419652Y2922016D01*
X3416198Y2918968D01*
X3411982Y2916783D01*
X3407003Y2915462D01*
X3401314Y2915005D01*
X3392881Y2916783D01*
X3385058Y2921406D01*
X3379266Y2927705D01*
X3377031Y2934462D01*
X3379012Y2938678D01*
X3383686Y2940202D01*
X3389426Y2938983D01*
X3399028Y2931312D01*
X3403600Y2931871D01*
X3407105Y2936087D01*
X3408527Y2943352D01*
X3407257Y2950159D01*
X3404057Y2954477D01*
X3399739Y2955696D01*
X3395065Y2953207D01*
X3393135Y2951835D01*
X3390442Y2950718D01*
X3387394Y2949956D01*
X3384296Y2949651D01*
X3380232Y2950159D01*
X3378047Y2953004D01*
X3377184Y2960065D01*
X3377031Y2996895D01*
X3229000Y2996895D01*
X3229000Y2855163D01*
X3628999Y2855163D01*
X3628999Y3063036D01*
G37*
G36*
X1998725Y2687624D02*
G01*
X1998725Y2663494D01*
X2028494Y2663494D01*
X2144725Y2662428D01*
X2145792Y2544673D01*
X2028494Y2544673D01*
X2028494Y2663494D01*
X1998725Y2663494D01*
X1998725Y2240635D01*
X2028494Y2240635D01*
X2028494Y2309063D01*
X2062276Y2309063D01*
X2062276Y2325166D01*
X2028494Y2325166D01*
X2028494Y2343302D01*
X2062073Y2343302D01*
X2063140Y2329789D01*
X2064257Y2327198D01*
X2066848Y2326081D01*
X2080158Y2324963D01*
X2080158Y2274671D01*
X2110943Y2275840D01*
X2110943Y2308047D01*
X2097633Y2309164D01*
X2095144Y2310231D01*
X2094179Y2312670D01*
X2094077Y2325166D01*
X2111959Y2325166D01*
X2111959Y2309063D01*
X2127859Y2309063D01*
X2127859Y2325166D01*
X2143760Y2325166D01*
X2143760Y2341270D01*
X2078177Y2341270D01*
X2078177Y2359406D01*
X2062276Y2359406D01*
X2062276Y2375509D01*
X2046376Y2375509D01*
X2046376Y2359406D01*
X2028494Y2359406D01*
X2028494Y2409748D01*
X2062276Y2409748D01*
X2062276Y2393645D01*
X2096058Y2393645D01*
X2096058Y2375509D01*
X2080158Y2375509D01*
X2080158Y2359406D01*
X2143760Y2359406D01*
X2143760Y2375509D01*
X2111959Y2375509D01*
X2111959Y2393645D01*
X2145741Y2393645D01*
X2145741Y2377541D01*
X2161590Y2377541D01*
X2161590Y2393645D01*
X2177491Y2393645D01*
X2177491Y2409748D01*
X2211273Y2409748D01*
X2211273Y2441956D01*
X2195372Y2441956D01*
X2195372Y2425852D01*
X2161590Y2425852D01*
X2161590Y2409748D01*
X2127605Y2409748D01*
X2128824Y2426868D01*
X2161590Y2428036D01*
X2161590Y2460091D01*
X2145741Y2460091D01*
X2145741Y2441956D01*
X2111959Y2441956D01*
X2111959Y2460091D01*
X2096058Y2460091D01*
X2096058Y2427884D01*
X2111959Y2427884D01*
X2111959Y2409494D01*
X2098700Y2410612D01*
X2096109Y2411679D01*
X2094941Y2414016D01*
X2093823Y2425852D01*
X2062276Y2425852D01*
X2062276Y2441956D01*
X2028494Y2441956D01*
X2028494Y2478227D01*
X2044395Y2478227D01*
X2044395Y2494330D01*
X2080158Y2494330D01*
X2080158Y2460091D01*
X2090877Y2460244D01*
X2092960Y2461260D01*
X2093975Y2463800D01*
X2094941Y2473604D01*
X2096058Y2476195D01*
X2098649Y2477312D01*
X2108555Y2478278D01*
X2111044Y2479294D01*
X2111756Y2481580D01*
X2111552Y2485898D01*
X2111044Y2490063D01*
X2109876Y2492349D01*
X2107285Y2493416D01*
X2097633Y2494432D01*
X2095144Y2495448D01*
X2094179Y2497886D01*
X2094077Y2510434D01*
X2062276Y2510434D01*
X2062276Y2528519D01*
X2111959Y2528519D01*
X2111959Y2512415D01*
X2127859Y2512415D01*
X2127859Y2528519D01*
X2145741Y2528519D01*
X2145741Y2510434D01*
X2129840Y2510434D01*
X2129840Y2494330D01*
X2145741Y2494330D01*
X2145741Y2478227D01*
X2177491Y2478227D01*
X2177491Y2510434D01*
X2161590Y2510434D01*
X2161590Y2578862D01*
X2177491Y2578862D01*
X2177491Y2611069D01*
X2161590Y2611069D01*
X2161590Y2663444D01*
X2179472Y2663444D01*
X2179472Y2629204D01*
X2211273Y2629204D01*
X2211273Y2645308D01*
X2195372Y2645308D01*
X2195372Y2663698D01*
X2208631Y2662529D01*
X2211222Y2661513D01*
X2212390Y2659176D01*
X2213508Y2647340D01*
X2245055Y2647340D01*
X2245055Y2663698D01*
X2258364Y2662580D01*
X2260955Y2661412D01*
X2262073Y2658821D01*
X2263140Y2645308D01*
X2276856Y2645308D01*
X2276856Y2653030D01*
X2277110Y2658719D01*
X2278430Y2661818D01*
X2281529Y2663139D01*
X2287117Y2663444D01*
X2294737Y2663444D01*
X2294737Y2645308D01*
X2245055Y2645308D01*
X2245055Y2629204D01*
X2232761Y2628950D01*
X2224278Y2629052D01*
X2213254Y2629509D01*
X2213254Y2613101D01*
X2245055Y2613101D01*
X2245055Y2594965D01*
X2229154Y2594965D01*
X2229154Y2613101D01*
X2213254Y2613101D01*
X2213254Y2611069D01*
X2195372Y2611069D01*
X2195372Y2594965D01*
X2213254Y2594965D01*
X2213254Y2578862D01*
X2260955Y2578862D01*
X2260955Y2629204D01*
X2310638Y2629204D01*
X2310638Y2663596D01*
X2315376Y2663444D01*
X2378151Y2663444D01*
X2378151Y2645308D01*
X2362250Y2645308D01*
X2362250Y2663444D01*
X2315376Y2663444D01*
X2345385Y2662428D01*
X2346604Y2645308D01*
X2328519Y2645308D01*
X2328519Y2629204D01*
X2346401Y2629204D01*
X2346401Y2611069D01*
X2328519Y2611069D01*
X2328519Y2594965D01*
X2346604Y2594965D01*
X2345486Y2581503D01*
X2344369Y2578862D01*
X2341829Y2577744D01*
X2328519Y2576626D01*
X2328519Y2594965D01*
X2310638Y2594965D01*
X2310638Y2611069D01*
X2278837Y2611069D01*
X2278837Y2594965D01*
X2294737Y2594965D01*
X2294737Y2563012D01*
X2308047Y2561894D01*
X2310638Y2560726D01*
X2311755Y2558084D01*
X2312720Y2548077D01*
X2313686Y2545588D01*
X2315921Y2544826D01*
X2320188Y2545029D01*
X2324354Y2545537D01*
X2326589Y2546756D01*
X2327605Y2549398D01*
X2328722Y2563012D01*
X2341880Y2561894D01*
X2344420Y2560726D01*
X2345537Y2558084D01*
X2346452Y2548077D01*
X2347468Y2545588D01*
X2349703Y2544826D01*
X2361285Y2545638D01*
X2362250Y2594965D01*
X2394051Y2594965D01*
X2394051Y2611069D01*
X2378151Y2611069D01*
X2378151Y2629204D01*
X2390546Y2629357D01*
X2392934Y2630271D01*
X2393950Y2632862D01*
X2394915Y2642717D01*
X2396032Y2645308D01*
X2398623Y2646426D01*
X2408377Y2647442D01*
X2410866Y2648508D01*
X2411831Y2650947D01*
X2411933Y2663596D01*
X2461615Y2663494D01*
X2577846Y2662428D01*
X2577846Y2545638D01*
X2461615Y2544572D01*
X2461615Y2663494D01*
X2414916Y2663494D01*
X2444699Y2662428D01*
X2445816Y2594965D01*
X2396032Y2594965D01*
X2396032Y2578862D01*
X2445715Y2578862D01*
X2445715Y2544876D01*
X2428849Y2543657D01*
X2428506Y2528519D01*
X2495397Y2528519D01*
X2495397Y2510434D01*
X2479497Y2510434D01*
X2479497Y2494330D01*
X2495397Y2494330D01*
X2495397Y2476195D01*
X2461818Y2476195D01*
X2460752Y2489708D01*
X2459634Y2492298D01*
X2457043Y2493416D01*
X2443734Y2494534D01*
X2443734Y2528519D01*
X2428506Y2528519D01*
X2427732Y2494330D01*
X2415540Y2494483D01*
X2413152Y2495346D01*
X2412085Y2497582D01*
X2411069Y2506065D01*
X2409952Y2508402D01*
X2407666Y2509520D01*
X2396032Y2510637D01*
X2396032Y2478227D01*
X2445715Y2478227D01*
X2445715Y2460091D01*
X2461615Y2460091D01*
X2461615Y2443988D01*
X2477516Y2443988D01*
X2477516Y2460091D01*
X2511298Y2460091D01*
X2511298Y2443988D01*
X2545029Y2443988D01*
X2545029Y2460091D01*
X2527198Y2460091D01*
X2527198Y2476195D01*
X2511298Y2476195D01*
X2511298Y2512415D01*
X2527198Y2512415D01*
X2527198Y2528519D01*
X2578811Y2528519D01*
X2578811Y2494330D01*
X2562961Y2494330D01*
X2562961Y2478227D01*
X2578811Y2478227D01*
X2578811Y2460091D01*
X2562961Y2460091D01*
X2562961Y2443988D01*
X2578811Y2443988D01*
X2578811Y2425852D01*
X2562961Y2425852D01*
X2562961Y2409748D01*
X2578811Y2409748D01*
X2578811Y2359406D01*
X2562961Y2359406D01*
X2562961Y2343302D01*
X2578811Y2343302D01*
X2578811Y2325166D01*
X2560929Y2325166D01*
X2560929Y2341270D01*
X2545029Y2341270D01*
X2545029Y2325166D01*
X2529179Y2325166D01*
X2529179Y2309063D01*
X2516124Y2308860D01*
X2479497Y2309063D01*
X2479598Y2296363D01*
X2480462Y2293975D01*
X2482850Y2293112D01*
X2495397Y2292959D01*
X2495397Y2274874D01*
X2477516Y2274874D01*
X2477516Y2290978D01*
X2445715Y2290978D01*
X2445715Y2258720D01*
X2511298Y2258720D01*
X2511298Y2292959D01*
X2560929Y2292959D01*
X2560929Y2309063D01*
X2579065Y2309063D01*
X2577947Y2295652D01*
X2576931Y2293061D01*
X2574594Y2291842D01*
X2566162Y2290826D01*
X2563926Y2289708D01*
X2563063Y2287270D01*
X2563063Y2278227D01*
X2563926Y2275840D01*
X2566314Y2274976D01*
X2578811Y2274874D01*
X2578811Y2224532D01*
X2562961Y2224532D01*
X2562961Y2208428D01*
X2578811Y2208428D01*
X2578811Y2174189D01*
X2566466Y2174036D01*
X2564079Y2173071D01*
X2563012Y2170531D01*
X2562047Y2160676D01*
X2560929Y2158085D01*
X2558389Y2156917D01*
X2545029Y2155850D01*
X2545029Y2190292D01*
X2511298Y2190292D01*
X2511298Y2174189D01*
X2529179Y2174189D01*
X2529179Y2155901D01*
X2494381Y2157069D01*
X2493162Y2173935D01*
X2461615Y2173986D01*
X2461615Y2158085D01*
X2479497Y2158085D01*
X2479649Y2145639D01*
X2480513Y2143201D01*
X2482598Y2142134D01*
X2511298Y2142134D01*
X2544064Y2140966D01*
X2545181Y2127656D01*
X2546248Y2125065D01*
X2548788Y2123948D01*
X2558389Y2122982D01*
X2560878Y2121865D01*
X2561793Y2119426D01*
X2561945Y2114804D01*
X2561793Y2110130D01*
X2560878Y2107692D01*
X2558389Y2106574D01*
X2545283Y2105507D01*
X2544064Y2122830D01*
X2511298Y2123998D01*
X2511298Y2142134D01*
X2482697Y2142083D01*
X2491181Y2141067D01*
X2493467Y2139899D01*
X2494534Y2137257D01*
X2495600Y2123846D01*
X2477516Y2123846D01*
X2477516Y2139950D01*
X2461615Y2139950D01*
X2461615Y2105710D01*
X2412187Y2105710D01*
X2411069Y2119223D01*
X2409952Y2121814D01*
X2407361Y2122932D01*
X2397607Y2123948D01*
X2395118Y2125014D01*
X2394204Y2127453D01*
X2394051Y2140204D01*
X2381910Y2138934D01*
X2379573Y2136444D01*
X2378659Y2129383D01*
X2378151Y2105710D01*
X2365806Y2105863D01*
X2363419Y2106828D01*
X2362352Y2109368D01*
X2361285Y2122830D01*
X2328519Y2123998D01*
X2328519Y2105507D01*
X2311603Y2106726D01*
X2310434Y2140204D01*
X2295702Y2138934D01*
X2294585Y2105558D01*
X2261920Y2106726D01*
X2260854Y2120392D01*
X2259888Y2122881D01*
X2257602Y2123694D01*
X2253386Y2123440D01*
X2249220Y2122932D01*
X2246985Y2121763D01*
X2245918Y2119122D01*
X2244801Y2105710D01*
X2195626Y2105710D01*
X2194509Y2119223D01*
X2193391Y2121814D01*
X2190800Y2122932D01*
X2181098Y2123948D01*
X2178558Y2125014D01*
X2177643Y2127402D01*
X2177389Y2136597D01*
X2176526Y2138934D01*
X2174138Y2139797D01*
X2161590Y2139950D01*
X2161590Y2192274D01*
X2179472Y2192274D01*
X2179472Y2141982D01*
X2195372Y2141982D01*
X2195372Y2174189D01*
X2211273Y2174189D01*
X2211273Y2190292D01*
X2198725Y2190394D01*
X2196388Y2191258D01*
X2195525Y2193645D01*
X2195271Y2202789D01*
X2194306Y2205228D01*
X2191816Y2206294D01*
X2182063Y2207260D01*
X2179472Y2208428D01*
X2178354Y2211019D01*
X2177389Y2220874D01*
X2176373Y2223414D01*
X2173986Y2224379D01*
X2164943Y2224633D01*
X2162606Y2225548D01*
X2161743Y2227935D01*
X2161590Y2240635D01*
X2127859Y2240635D01*
X2127859Y2258720D01*
X2062276Y2258720D01*
X2062276Y2290978D01*
X2046376Y2290978D01*
X2046376Y2240635D01*
X1998725Y2240635D01*
X1998725Y2224532D01*
X2145741Y2224532D01*
X2145741Y2107742D01*
X2028494Y2107742D01*
X2028494Y2224532D01*
X1998725Y2224532D01*
X1998725Y2087575D01*
X2598674Y2087575D01*
X2598674Y2687624D01*
G37*
G36*
X2046376Y2645308D02*
G01*
X2046376Y2629204D01*
X2111959Y2629204D01*
X2111959Y2578862D01*
X2062276Y2578862D01*
X2062276Y2629204D01*
X2046376Y2629204D01*
X2046376Y2562758D01*
X2127859Y2562758D01*
X2127859Y2645308D01*
G37*
G36*
X2411933Y2645308D02*
G01*
X2411933Y2629204D01*
X2427833Y2629204D01*
X2427833Y2645308D01*
G37*
G36*
X2477516Y2645308D02*
G01*
X2477516Y2578862D01*
X2493416Y2578862D01*
X2493518Y2612034D01*
X2493772Y2619908D01*
X2494229Y2625445D01*
X2494737Y2627884D01*
X2497175Y2628392D01*
X2510942Y2629103D01*
X2545029Y2629204D01*
X2545029Y2578862D01*
X2477516Y2578862D01*
X2477516Y2562758D01*
X2560929Y2562758D01*
X2560929Y2645308D01*
G37*
G36*
X2312619Y2629458D02*
G01*
X2312619Y2613101D01*
X2328722Y2613101D01*
X2327605Y2624886D01*
X2326538Y2627223D01*
X2324201Y2628290D01*
X2320036Y2628849D01*
G37*
G36*
X2396032Y2629458D02*
G01*
X2396032Y2613101D01*
X2412187Y2613101D01*
X2411069Y2624886D01*
X2409952Y2627223D01*
X2407666Y2628290D01*
X2403500Y2628849D01*
G37*
G36*
X2203348Y2576880D02*
G01*
X2198827Y2576728D01*
X2196439Y2575915D01*
X2195525Y2573832D01*
X2195372Y2569819D01*
X2195525Y2565806D01*
X2196439Y2563723D01*
X2198827Y2562910D01*
X2203348Y2562758D01*
X2207869Y2562910D01*
X2210206Y2563723D01*
X2211120Y2565806D01*
X2211273Y2569819D01*
X2211120Y2573832D01*
X2210206Y2575915D01*
X2207869Y2576728D01*
G37*
G36*
X2269896Y2576880D02*
G01*
X2266035Y2576728D01*
X2263952Y2575864D01*
X2263089Y2573731D01*
X2262936Y2569819D01*
X2263089Y2565908D01*
X2263952Y2563774D01*
X2266035Y2562910D01*
X2269896Y2562758D01*
X2273757Y2562910D01*
X2275840Y2563774D01*
X2276703Y2565908D01*
X2276856Y2569819D01*
X2276703Y2573731D01*
X2275840Y2575864D01*
X2273757Y2576728D01*
G37*
G36*
X2213254Y2560980D02*
G01*
X2213254Y2544673D01*
X2195372Y2544673D01*
X2195372Y2560777D01*
X2179472Y2560777D01*
X2179472Y2544673D01*
X2195372Y2544673D01*
X2195372Y2526538D01*
X2182926Y2526385D01*
X2180539Y2525572D01*
X2179624Y2523490D01*
X2179472Y2519476D01*
X2179624Y2515463D01*
X2180539Y2513380D01*
X2182926Y2512568D01*
X2195372Y2512415D01*
X2195372Y2476195D01*
X2179472Y2476195D01*
X2179472Y2460091D01*
X2213254Y2460091D01*
X2213254Y2443988D01*
X2229154Y2443988D01*
X2229154Y2393645D01*
X2245055Y2393645D01*
X2245055Y2460091D01*
X2229154Y2460091D01*
X2229154Y2478227D01*
X2245055Y2478227D01*
X2245055Y2494330D01*
X2211273Y2494330D01*
X2211273Y2528519D01*
X2245309Y2528519D01*
X2244699Y2536088D01*
X2244140Y2540304D01*
X2243074Y2542641D01*
X2240788Y2543759D01*
X2232660Y2544775D01*
X2230374Y2545892D01*
X2229307Y2548178D01*
X2228240Y2556459D01*
X2227173Y2558745D01*
X2224836Y2559862D01*
G37*
G36*
X2253945Y2560777D02*
G01*
X2250948Y2560574D01*
X2248560Y2559964D01*
X2246782Y2559050D01*
X2245817Y2557881D01*
X2245258Y2554478D01*
X2245410Y2550312D01*
X2246020Y2547975D01*
X2247392Y2546451D01*
X2249728Y2545537D01*
X2253488Y2545029D01*
X2260955Y2544419D01*
X2260803Y2557221D01*
X2260041Y2559659D01*
X2257958Y2560624D01*
G37*
G36*
X2278583Y2560777D02*
G01*
X2279700Y2548991D01*
X2280716Y2546756D01*
X2282901Y2545842D01*
X2286762Y2545638D01*
X2290673Y2545842D01*
X2292807Y2546756D01*
X2293823Y2548991D01*
X2294991Y2560777D01*
G37*
G36*
X2387041Y2560777D02*
G01*
X2384094Y2560574D01*
X2381656Y2559964D01*
X2379878Y2559050D01*
X2378964Y2557881D01*
X2378557Y2556408D01*
X2378354Y2552395D01*
X2378506Y2550312D01*
X2379167Y2547975D01*
X2380488Y2546451D01*
X2382875Y2545537D01*
X2386634Y2545029D01*
X2394051Y2544419D01*
X2393950Y2557221D01*
X2393137Y2559659D01*
X2391054Y2560624D01*
G37*
G36*
X2411679Y2560777D02*
G01*
X2412796Y2548991D01*
X2413863Y2546756D01*
X2415997Y2545842D01*
X2419908Y2545638D01*
X2423769Y2545842D01*
X2425954Y2546756D01*
X2426970Y2548991D01*
X2428087Y2560777D01*
G37*
G36*
X2396032Y2544876D02*
G01*
X2396032Y2528316D01*
X2407666Y2529433D01*
X2409901Y2530449D01*
X2410764Y2532634D01*
X2410968Y2536596D01*
X2410764Y2540508D01*
X2409901Y2542692D01*
X2407666Y2543759D01*
G37*
G36*
X2328519Y2544673D02*
G01*
X2328519Y2528519D01*
X2344369Y2528519D01*
X2344369Y2544673D01*
G37*
G36*
X2362250Y2544673D02*
G01*
X2362250Y2526538D01*
X2346401Y2526538D01*
X2346401Y2510434D01*
X2328519Y2510434D01*
X2328519Y2494330D01*
X2362250Y2494330D01*
X2362250Y2460091D01*
X2378151Y2460091D01*
X2378151Y2512415D01*
X2390648Y2512568D01*
X2392984Y2513380D01*
X2393899Y2515463D01*
X2394051Y2519476D01*
X2393899Y2523490D01*
X2392984Y2525572D01*
X2390648Y2526385D01*
X2378151Y2526538D01*
X2378151Y2544673D01*
G37*
G36*
X2245106Y2526538D02*
G01*
X2246071Y2495296D01*
X2260955Y2494076D01*
X2260955Y2526538D01*
G37*
G36*
X2294737Y2526538D02*
G01*
X2294737Y2510434D01*
X2278837Y2510434D01*
X2278837Y2459837D01*
X2293721Y2461107D01*
X2294890Y2494330D01*
X2307132Y2494432D01*
X2309469Y2495397D01*
X2310536Y2497937D01*
X2311501Y2507792D01*
X2312619Y2510434D01*
X2315159Y2511552D01*
X2324811Y2512517D01*
X2327351Y2513533D01*
X2328316Y2515666D01*
X2328519Y2519578D01*
X2328519Y2526538D01*
G37*
G36*
X2529179Y2510434D02*
G01*
X2529179Y2494330D01*
X2560929Y2494330D01*
X2560929Y2510434D01*
G37*
G36*
X2136800Y2476195D02*
G01*
X2132838Y2476042D01*
X2130755Y2475128D01*
X2129942Y2472690D01*
X2129942Y2463546D01*
X2130755Y2461158D01*
X2132838Y2460244D01*
X2136800Y2460091D01*
X2140712Y2460244D01*
X2142794Y2461158D01*
X2143607Y2463546D01*
X2143760Y2468118D01*
X2143607Y2472690D01*
X2142794Y2475128D01*
X2140712Y2476042D01*
G37*
G36*
X2244801Y2476195D02*
G01*
X2245410Y2468626D01*
X2245969Y2464409D01*
X2247036Y2462072D01*
X2249373Y2461006D01*
X2253488Y2460447D01*
X2260955Y2459837D01*
X2260955Y2476195D01*
G37*
G36*
X2312619Y2476195D02*
G01*
X2312619Y2409494D01*
X2324303Y2410663D01*
X2326589Y2411831D01*
X2327605Y2414422D01*
X2328722Y2427732D01*
X2361285Y2428900D01*
X2362504Y2441956D01*
X2328519Y2441956D01*
X2328519Y2460091D01*
X2344369Y2460091D01*
X2344369Y2476195D01*
G37*
G36*
X2062276Y2460091D02*
G01*
X2062276Y2443988D01*
X2078177Y2443988D01*
X2078177Y2460091D01*
G37*
G36*
X2262936Y2460091D02*
G01*
X2262936Y2427884D01*
X2275281Y2427732D01*
X2277668Y2426766D01*
X2278735Y2424226D01*
X2279700Y2414473D01*
X2280666Y2411933D01*
X2282850Y2410917D01*
X2293721Y2410764D01*
X2294890Y2441702D01*
X2281428Y2442819D01*
X2278837Y2443988D01*
X2277719Y2446578D01*
X2276754Y2456383D01*
X2275789Y2458923D01*
X2273655Y2459888D01*
X2269794Y2460091D01*
G37*
G36*
X2396032Y2460091D02*
G01*
X2396032Y2443988D01*
X2427833Y2443988D01*
X2427833Y2460091D01*
G37*
G36*
X2378151Y2441956D02*
G01*
X2378151Y2425852D01*
X2362250Y2425852D01*
X2362250Y2409748D01*
X2394051Y2409748D01*
X2394051Y2441956D01*
G37*
G36*
X2479497Y2441956D02*
G01*
X2479497Y2427884D01*
X2511298Y2427884D01*
X2511298Y2441956D01*
G37*
G36*
X2553004Y2441956D02*
G01*
X2548483Y2441854D01*
X2546096Y2441041D01*
X2545181Y2438908D01*
X2545029Y2434894D01*
X2545181Y2430932D01*
X2546096Y2428798D01*
X2548483Y2427986D01*
X2557526Y2427986D01*
X2559862Y2428798D01*
X2560777Y2430932D01*
X2560929Y2434894D01*
X2560777Y2438908D01*
X2559862Y2441041D01*
X2557526Y2441854D01*
G37*
G36*
X2411679Y2425852D02*
G01*
X2412796Y2414117D01*
X2413863Y2411831D01*
X2415997Y2410917D01*
X2419908Y2410764D01*
X2423769Y2410917D01*
X2425954Y2411831D01*
X2426970Y2414117D01*
X2428087Y2425852D01*
G37*
G36*
X2445715Y2425852D02*
G01*
X2445715Y2409748D01*
X2461615Y2409748D01*
X2461615Y2377541D01*
X2477516Y2377541D01*
X2477516Y2393645D01*
X2493416Y2393645D01*
X2493416Y2409748D01*
X2477516Y2409748D01*
X2477516Y2425852D01*
G37*
G36*
X2303881Y2409748D02*
G01*
X2298903Y2409342D01*
X2297074Y2408936D01*
X2296058Y2408428D01*
X2295550Y2406700D01*
X2295093Y2403144D01*
X2294737Y2392273D01*
X2294737Y2377541D01*
X2328519Y2377541D01*
X2328519Y2359406D01*
X2312619Y2359406D01*
X2312619Y2343302D01*
X2328519Y2343302D01*
X2328519Y2359406D01*
X2344369Y2359406D01*
X2344369Y2409748D01*
X2328519Y2409748D01*
X2328519Y2391410D01*
X2315159Y2392527D01*
X2312619Y2393645D01*
X2311501Y2396236D01*
X2310536Y2405989D01*
X2309571Y2408529D01*
X2307539Y2409545D01*
G37*
G36*
X2202891Y2392172D02*
G01*
X2179472Y2391460D01*
X2179624Y2380538D01*
X2180539Y2378456D01*
X2182926Y2377643D01*
X2195372Y2377541D01*
X2195372Y2359253D01*
X2228189Y2360422D01*
X2228189Y2390597D01*
X2220214Y2391613D01*
X2209800Y2392172D01*
G37*
G36*
X2245055Y2391613D02*
G01*
X2245055Y2377541D01*
X2276856Y2377541D01*
X2276856Y2391613D01*
G37*
G36*
X2362250Y2391613D02*
G01*
X2362250Y2377694D01*
X2395067Y2376525D01*
X2396286Y2359406D01*
X2378151Y2359406D01*
X2378151Y2343302D01*
X2443734Y2343302D01*
X2443734Y2359406D01*
X2411933Y2359406D01*
X2411933Y2377541D01*
X2443734Y2377541D01*
X2443734Y2391613D01*
G37*
G36*
X2511298Y2391613D02*
G01*
X2511298Y2375509D01*
X2479497Y2375509D01*
X2479497Y2359406D01*
X2461615Y2359406D01*
X2461615Y2309063D01*
X2477516Y2309063D01*
X2477516Y2325166D01*
X2493416Y2325166D01*
X2493416Y2343302D01*
X2527198Y2343302D01*
X2527300Y2355850D01*
X2528265Y2358237D01*
X2530754Y2359304D01*
X2544064Y2360422D01*
X2545232Y2391613D01*
G37*
G36*
X2161590Y2375509D02*
G01*
X2161590Y2343302D01*
X2177491Y2343302D01*
X2177491Y2375509D01*
G37*
G36*
X2278837Y2375509D02*
G01*
X2278837Y2359406D01*
X2294737Y2359406D01*
X2294737Y2375509D01*
G37*
G36*
X2445715Y2375509D02*
G01*
X2445715Y2359152D01*
X2457297Y2360320D01*
X2459634Y2361438D01*
X2460701Y2363774D01*
X2461260Y2367991D01*
X2461869Y2375509D01*
G37*
G36*
X2346401Y2359660D02*
G01*
X2346401Y2343302D01*
X2362504Y2343302D01*
X2361387Y2355037D01*
X2360269Y2357374D01*
X2357983Y2358491D01*
X2353818Y2359050D01*
G37*
G36*
X2245055Y2359406D02*
G01*
X2246071Y2326182D01*
X2259380Y2325065D01*
X2261870Y2323998D01*
X2262784Y2321610D01*
X2263089Y2312517D01*
X2263851Y2310130D01*
X2265934Y2309215D01*
X2276856Y2309063D01*
X2276856Y2359406D01*
G37*
G36*
X2195372Y2341270D02*
G01*
X2195372Y2325166D01*
X2161590Y2325166D01*
X2161590Y2309063D01*
X2179472Y2309063D01*
X2179472Y2290978D01*
X2161844Y2290978D01*
X2160625Y2308047D01*
X2129840Y2309012D01*
X2129942Y2296363D01*
X2130806Y2293975D01*
X2133193Y2293112D01*
X2145741Y2292959D01*
X2145741Y2274874D01*
X2129840Y2274874D01*
X2129840Y2258720D01*
X2161590Y2258720D01*
X2161590Y2274874D01*
X2179472Y2274874D01*
X2179370Y2262327D01*
X2178405Y2259888D01*
X2175916Y2258822D01*
X2166264Y2257856D01*
X2163673Y2256790D01*
X2162505Y2254453D01*
X2161387Y2242616D01*
X2179472Y2242616D01*
X2179472Y2224278D01*
X2191156Y2225395D01*
X2193493Y2226614D01*
X2194509Y2229256D01*
X2195626Y2242870D01*
X2212289Y2241651D01*
X2213406Y2192274D01*
X2228900Y2192274D01*
X2228189Y2257755D01*
X2214880Y2258822D01*
X2212340Y2259888D01*
X2211425Y2262327D01*
X2211171Y2271471D01*
X2210257Y2273858D01*
X2207920Y2274722D01*
X2195372Y2274874D01*
X2195372Y2293213D01*
X2208682Y2292096D01*
X2211273Y2290978D01*
X2212390Y2288336D01*
X2213356Y2278481D01*
X2214422Y2275941D01*
X2216810Y2274976D01*
X2225852Y2274722D01*
X2228189Y2273858D01*
X2229053Y2271420D01*
X2229154Y2258720D01*
X2245055Y2258720D01*
X2245055Y2274874D01*
X2262936Y2274874D01*
X2262936Y2242616D01*
X2269794Y2242616D01*
X2273604Y2242820D01*
X2275687Y2243734D01*
X2276703Y2245969D01*
X2277821Y2257755D01*
X2312619Y2258923D01*
X2312619Y2240635D01*
X2294737Y2240635D01*
X2294737Y2192274D01*
X2310638Y2192274D01*
X2310638Y2224532D01*
X2328519Y2224532D01*
X2328519Y2190292D01*
X2312619Y2190292D01*
X2312619Y2158085D01*
X2344369Y2158085D01*
X2344369Y2192274D01*
X2358491Y2192426D01*
X2361133Y2193188D01*
X2362149Y2195271D01*
X2362149Y2203399D01*
X2361133Y2205482D01*
X2358491Y2206294D01*
X2344369Y2206396D01*
X2344369Y2224278D01*
X2357729Y2225395D01*
X2360269Y2226513D01*
X2361387Y2229154D01*
X2362352Y2239010D01*
X2363419Y2241550D01*
X2365806Y2242515D01*
X2378151Y2242616D01*
X2378151Y2224532D01*
X2362250Y2224532D01*
X2362250Y2208428D01*
X2378151Y2208428D01*
X2378151Y2192274D01*
X2411933Y2192274D01*
X2411780Y2203145D01*
X2410764Y2205278D01*
X2408275Y2206294D01*
X2395067Y2207412D01*
X2393086Y2257755D01*
X2344369Y2258872D01*
X2344267Y2271471D01*
X2343404Y2273858D01*
X2341016Y2274722D01*
X2328519Y2274874D01*
X2328519Y2292959D01*
X2341016Y2293112D01*
X2343404Y2293975D01*
X2344267Y2296312D01*
X2344369Y2308910D01*
X2312619Y2308809D01*
X2312619Y2274874D01*
X2294890Y2274874D01*
X2293721Y2308047D01*
X2282799Y2307894D01*
X2280666Y2306878D01*
X2279700Y2304338D01*
X2278583Y2290724D01*
X2265527Y2291842D01*
X2262936Y2292959D01*
X2261666Y2295448D01*
X2260244Y2304491D01*
X2259126Y2306929D01*
X2256891Y2307894D01*
X2252980Y2308047D01*
X2249068Y2307894D01*
X2246884Y2306929D01*
X2245918Y2304338D01*
X2244953Y2294585D01*
X2243886Y2292045D01*
X2241499Y2291080D01*
X2229154Y2290978D01*
X2228850Y2303526D01*
X2228900Y2312619D01*
X2229510Y2325166D01*
X2211273Y2325166D01*
X2211273Y2341270D01*
G37*
G36*
X2294483Y2341270D02*
G01*
X2295601Y2329535D01*
X2296718Y2327198D01*
X2299004Y2326081D01*
X2310638Y2324963D01*
X2310638Y2341270D01*
G37*
G36*
X2328519Y2341270D02*
G01*
X2328519Y2325166D01*
X2344369Y2325166D01*
X2344369Y2341270D01*
G37*
G36*
X2377948Y2325166D02*
G01*
X2379065Y2313432D01*
X2380132Y2311095D01*
X2382469Y2309977D01*
X2394051Y2308809D01*
X2394051Y2325166D01*
G37*
G36*
X2411933Y2325166D02*
G01*
X2411933Y2309063D01*
X2396032Y2309063D01*
X2396185Y2296363D01*
X2397048Y2293975D01*
X2399385Y2293112D01*
X2408428Y2292807D01*
X2410815Y2291892D01*
X2411831Y2289352D01*
X2412796Y2279548D01*
X2413812Y2277008D01*
X2415946Y2276043D01*
X2419908Y2275840D01*
X2426868Y2275840D01*
X2427935Y2325166D01*
G37*
G36*
X2362250Y2309317D02*
G01*
X2362250Y2292959D01*
X2378405Y2292959D01*
X2377287Y2304745D01*
X2376170Y2307082D01*
X2373884Y2308148D01*
X2369718Y2308707D01*
G37*
G36*
X2346401Y2290978D02*
G01*
X2346401Y2274620D01*
X2357983Y2275738D01*
X2360269Y2276856D01*
X2361387Y2279192D01*
X2362504Y2290978D01*
G37*
G36*
X2529179Y2258974D02*
G01*
X2529179Y2208428D01*
X2541676Y2208530D01*
X2544064Y2209393D01*
X2544927Y2211781D01*
X2545181Y2220823D01*
X2546045Y2223262D01*
X2548280Y2224379D01*
X2556662Y2225395D01*
X2558948Y2226513D01*
X2560066Y2228850D01*
X2561183Y2240635D01*
X2548636Y2240737D01*
X2546197Y2241702D01*
X2545130Y2244242D01*
X2544165Y2254046D01*
X2543149Y2256637D01*
X2540863Y2257856D01*
G37*
G36*
X2418334Y2258466D02*
G01*
X2414371Y2258009D01*
X2413355Y2257501D01*
X2412796Y2256383D01*
X2412034Y2252065D01*
X2412085Y2245563D01*
X2413050Y2243531D01*
X2415438Y2242769D01*
X2428087Y2242616D01*
X2426970Y2254250D01*
X2425954Y2256586D01*
X2424074Y2257806D01*
X2420823Y2258314D01*
G37*
G36*
X2244801Y2240635D02*
G01*
X2245410Y2233066D01*
X2245969Y2228850D01*
X2247036Y2226513D01*
X2249373Y2225395D01*
X2260955Y2224278D01*
X2260955Y2240635D01*
G37*
G36*
X2445715Y2240635D02*
G01*
X2445715Y2224532D01*
X2479497Y2224532D01*
X2479497Y2206396D01*
X2461615Y2206396D01*
X2461615Y2224532D01*
X2445715Y2224532D01*
X2445715Y2192274D01*
X2493416Y2192274D01*
X2493416Y2240635D01*
G37*
G36*
X2046376Y2208428D02*
G01*
X2046376Y2192274D01*
X2111959Y2192274D01*
X2111959Y2139950D01*
X2062276Y2139950D01*
X2062276Y2192274D01*
X2046376Y2192274D01*
X2046376Y2123846D01*
X2127859Y2123846D01*
X2127859Y2208428D01*
G37*
G36*
X2245055Y2206396D02*
G01*
X2245055Y2190292D01*
X2229154Y2190292D01*
X2229154Y2174189D01*
X2260955Y2174189D01*
X2260955Y2206396D01*
G37*
G36*
X2362250Y2190292D02*
G01*
X2362250Y2158238D01*
X2395067Y2157069D01*
X2396185Y2145487D01*
X2397252Y2143201D01*
X2399538Y2142083D01*
X2407767Y2141067D01*
X2410002Y2139848D01*
X2411069Y2137257D01*
X2412187Y2123846D01*
X2443734Y2123846D01*
X2443734Y2156053D01*
X2412187Y2156053D01*
X2410968Y2173173D01*
X2378151Y2174341D01*
X2378049Y2186940D01*
X2377186Y2189276D01*
X2374798Y2190140D01*
G37*
G36*
X2411933Y2190292D02*
G01*
X2411933Y2174189D01*
X2427833Y2174189D01*
X2427833Y2190292D01*
G37*
G36*
X2213254Y2156053D02*
G01*
X2213254Y2139950D01*
X2195372Y2139950D01*
X2195372Y2123694D01*
X2244090Y2124862D01*
X2245766Y2137410D01*
X2246985Y2139899D01*
X2249322Y2141067D01*
X2257653Y2142083D01*
X2259888Y2143099D01*
X2260752Y2145284D01*
X2260955Y2149144D01*
X2260955Y2156053D01*
G37*
G36*
X2354326Y2156053D02*
G01*
X2349804Y2155901D01*
X2347468Y2155088D01*
X2346553Y2153005D01*
X2346401Y2148992D01*
X2346553Y2144979D01*
X2347468Y2142896D01*
X2349804Y2142083D01*
X2358847Y2142083D01*
X2361234Y2142896D01*
X2362098Y2144979D01*
X2362250Y2148992D01*
X2362098Y2153005D01*
X2361234Y2155088D01*
X2358847Y2155901D01*
G37*
G36*
X344525Y3136900D02*
G01*
X344525Y3001975D01*
X396189Y3001975D01*
X396189Y3011373D01*
X396798Y3012338D01*
X397256Y3014675D01*
X397510Y3019044D01*
X398678Y3024073D01*
X400050Y3025444D01*
X400913Y3028035D01*
X401116Y3029254D01*
X402132Y3031083D01*
X403352Y3032404D01*
X404368Y3034690D01*
X405079Y3035655D01*
X405688Y3035960D01*
X405841Y3036265D01*
X409905Y3036062D01*
X411429Y3035655D01*
X413308Y3034690D01*
X414629Y3033420D01*
X416051Y3032658D01*
X416814Y3032556D01*
X418439Y3031845D01*
X419608Y3030423D01*
X418439Y3025089D01*
X417118Y3022193D01*
X416001Y3021330D01*
X414883Y3017012D01*
X414680Y3015386D01*
X413816Y3012135D01*
X413359Y3011119D01*
X413308Y3003143D01*
X413461Y3001822D01*
X414020Y3000857D01*
X415493Y2995422D01*
X418185Y2994050D01*
X418947Y2993237D01*
X418947Y2992983D01*
X422249Y2992983D01*
X422859Y2993440D01*
X425450Y2994253D01*
X426516Y2995726D01*
X427329Y2998825D01*
X428650Y2999994D01*
X429158Y3003956D01*
X429310Y3007969D01*
X429514Y3008426D01*
X430022Y3012694D01*
X430580Y3014421D01*
X431800Y3016199D01*
X432460Y3020263D01*
X433527Y3022752D01*
X435000Y3023971D01*
X435406Y3025495D01*
X436981Y3027832D01*
X439318Y3029813D01*
X441096Y3030372D01*
X442010Y3031540D01*
X444093Y3032506D01*
X445719Y3032810D01*
X445871Y3033115D01*
X462026Y3033115D01*
X462280Y3032709D01*
X464769Y3032099D01*
X466039Y3031134D01*
X466394Y3030575D01*
X468579Y3029712D01*
X470611Y3028188D01*
X474878Y3023311D01*
X475589Y3022092D01*
X476148Y3019602D01*
X477316Y3018282D01*
X477875Y3017062D01*
X478434Y3013760D01*
X478790Y3003905D01*
X478586Y2994050D01*
X477774Y2990138D01*
X475894Y2987141D01*
X475488Y2985312D01*
X475234Y2985008D01*
X474878Y2983687D01*
X473964Y2982112D01*
X472795Y2980893D01*
X471525Y2978302D01*
X470814Y2977642D01*
X468274Y2977540D01*
X466699Y2977845D01*
X465480Y2978404D01*
X464769Y2979064D01*
X464515Y2979623D01*
X460908Y2980690D01*
X458622Y2981706D01*
X457555Y2984144D01*
X457250Y2986024D01*
X457809Y2988106D01*
X459028Y2990900D01*
X459993Y2991612D01*
X460501Y2992882D01*
X461213Y2995828D01*
X461670Y3007360D01*
X461111Y3011525D01*
X459993Y3014218D01*
X456590Y3015691D01*
X453186Y3015640D01*
X450951Y3014980D01*
X450342Y3014421D01*
X449783Y3012795D01*
X448665Y3010560D01*
X447548Y3009595D01*
X445871Y2997911D01*
X445465Y2996793D01*
X444398Y2995523D01*
X443788Y2991764D01*
X442925Y2988360D01*
X440842Y2986176D01*
X440537Y2984398D01*
X438861Y2981858D01*
X433882Y2977845D01*
X432206Y2977235D01*
X429158Y2976524D01*
X428498Y2975813D01*
X426415Y2974746D01*
X419658Y2974695D01*
X417423Y2974898D01*
X415899Y2975305D01*
X414274Y2976575D01*
X410514Y2977235D01*
X407822Y2978404D01*
X407212Y2979420D01*
X405180Y2980537D01*
X404012Y2981756D01*
X403098Y2983331D01*
X402234Y2983788D01*
X401370Y2984855D01*
X399846Y2988716D01*
X398780Y2989783D01*
X398018Y2991612D01*
X396798Y3000552D01*
X396189Y3001975D01*
X344525Y3001975D01*
X344525Y2905252D01*
X397306Y2905252D01*
X397408Y2919933D01*
X398424Y2922016D01*
X400050Y2922524D01*
X400253Y2923540D01*
X405841Y2925927D01*
X406552Y2926892D01*
X408889Y2928162D01*
X411073Y2928924D01*
X413156Y2930702D01*
X414223Y2931312D01*
X415848Y2931718D01*
X416915Y2932277D01*
X417423Y2933192D01*
X420065Y2934512D01*
X421690Y2934970D01*
X422656Y2935579D01*
X423773Y2936849D01*
X428091Y2938627D01*
X428599Y2939440D01*
X428904Y2940862D01*
X428955Y2944926D01*
X428498Y2945536D01*
X399542Y2945536D01*
X399440Y2945841D01*
X398424Y2946400D01*
X397357Y2948178D01*
X397306Y2961335D01*
X399237Y2963265D01*
X475945Y2963265D01*
X476250Y2962859D01*
X477621Y2962198D01*
X478231Y2961335D01*
X478383Y2922371D01*
X477926Y2920187D01*
X477164Y2918561D01*
X476148Y2917545D01*
X475488Y2915208D01*
X474522Y2913684D01*
X473100Y2913024D01*
X472440Y2911602D01*
X471220Y2910382D01*
X469747Y2909824D01*
X469493Y2908808D01*
X467614Y2907792D01*
X465531Y2907080D01*
X463397Y2906674D01*
X462737Y2905810D01*
X461518Y2905150D01*
X459740Y2904591D01*
X449732Y2904439D01*
X445770Y2905099D01*
X444195Y2905658D01*
X443128Y2906725D01*
X439216Y2907995D01*
X438302Y2908655D01*
X438048Y2909214D01*
X437337Y2909824D01*
X436016Y2910484D01*
X434695Y2911602D01*
X433019Y2913430D01*
X432206Y2914802D01*
X431800Y2916580D01*
X429310Y2917901D01*
X428447Y2918815D01*
X428294Y2918206D01*
X427380Y2917494D01*
X423926Y2916224D01*
X423316Y2915005D01*
X418490Y2913075D01*
X417525Y2911703D01*
X415391Y2910738D01*
X412597Y2909925D01*
X412343Y2908808D01*
X410413Y2907792D01*
X407619Y2906725D01*
X405485Y2904794D01*
X404571Y2904236D01*
X403148Y2903829D01*
X402082Y2903270D01*
X401574Y2902305D01*
X399948Y2901594D01*
X398729Y2902254D01*
X397611Y2905150D01*
X344525Y2905252D01*
X344525Y2861208D01*
X397306Y2861208D01*
X397357Y2870962D01*
X398068Y2872638D01*
X399034Y2873603D01*
X401523Y2874365D01*
X404469Y2874873D01*
X405536Y2875940D01*
X407314Y2876702D01*
X410616Y2877515D01*
X414020Y2878074D01*
X415086Y2879140D01*
X416814Y2879902D01*
X423519Y2881223D01*
X424586Y2882290D01*
X426364Y2883052D01*
X429666Y2883865D01*
X433070Y2884424D01*
X434136Y2885490D01*
X435864Y2886252D01*
X442569Y2887573D01*
X443636Y2888640D01*
X445414Y2889402D01*
X452120Y2890774D01*
X453135Y2891840D01*
X454914Y2892602D01*
X461619Y2893923D01*
X462686Y2894990D01*
X464464Y2895752D01*
X471170Y2897124D01*
X472084Y2898140D01*
X473456Y2898648D01*
X476199Y2899054D01*
X477316Y2898292D01*
X478180Y2896362D01*
X478332Y2889707D01*
X478180Y2883458D01*
X477520Y2882341D01*
X473100Y2879801D01*
X469036Y2878734D01*
X465277Y2878124D01*
X464210Y2877007D01*
X462432Y2876245D01*
X455269Y2874975D01*
X453898Y2873654D01*
X451662Y2872943D01*
X445719Y2871825D01*
X444347Y2870454D01*
X439877Y2869285D01*
X434797Y2868574D01*
X434390Y2867761D01*
X432003Y2866186D01*
X430377Y2865374D01*
X436829Y2864053D01*
X438810Y2863291D01*
X439877Y2862173D01*
X447700Y2860700D01*
X449630Y2859582D01*
X450291Y2858922D01*
X458419Y2857144D01*
X459790Y2855772D01*
X467817Y2854350D01*
X468833Y2853842D01*
X469747Y2852674D01*
X475081Y2851658D01*
X476605Y2850946D01*
X477621Y2849778D01*
X478383Y2846882D01*
X478282Y2835757D01*
X477012Y2834030D01*
X476351Y2833674D01*
X468325Y2834995D01*
X466699Y2835554D01*
X465328Y2836926D01*
X461619Y2837586D01*
X457149Y2838704D01*
X455777Y2840075D01*
X452170Y2840685D01*
X451408Y2840990D01*
X449275Y2841345D01*
X447649Y2841904D01*
X446278Y2843276D01*
X442569Y2843936D01*
X438099Y2845054D01*
X436727Y2846425D01*
X430580Y2847594D01*
X428396Y2848356D01*
X427228Y2849626D01*
X422300Y2850489D01*
X418846Y2851505D01*
X417677Y2852775D01*
X411530Y2853944D01*
X409346Y2854706D01*
X408178Y2855976D01*
X403250Y2856839D01*
X399846Y2857855D01*
X397967Y2860040D01*
X397611Y2861005D01*
X397306Y2861208D01*
X344525Y2861208D01*
X344525Y2736900D01*
X544474Y2736900D01*
X544474Y3136900D01*
G37*
G36*
X447801Y2945536D02*
G01*
X446227Y2944774D01*
X446633Y2925775D01*
X448411Y2924556D01*
X449732Y2923946D01*
X450494Y2923082D01*
X450697Y2922473D01*
X454659Y2922168D01*
X456539Y2922524D01*
X457555Y2923692D01*
X458876Y2924403D01*
X460298Y2924708D01*
X460908Y2925775D01*
X461060Y2928620D01*
X461264Y2928620D01*
X461213Y2944723D01*
X460248Y2945536D01*
G37*
G36*
X18542Y723646D02*
G01*
X18542Y577443D01*
X126644Y577443D01*
X126746Y647242D01*
X126898Y653643D01*
X127254Y655320D01*
X127762Y656031D01*
X128473Y656539D01*
X131622Y657047D01*
X166420Y656996D01*
X169316Y656285D01*
X171450Y654608D01*
X175006Y653542D01*
X176174Y652881D01*
X176885Y652068D01*
X177088Y651510D01*
X179222Y650697D01*
X180238Y648766D01*
X180238Y648208D01*
X181559Y647750D01*
X182270Y646887D01*
X182829Y644956D01*
X183489Y643636D01*
X184912Y642162D01*
X185826Y639165D01*
X186029Y637692D01*
X185978Y627684D01*
X185674Y622858D01*
X184708Y620572D01*
X183489Y619760D01*
X182219Y616204D01*
X181508Y615137D01*
X179882Y613867D01*
X178054Y611479D01*
X175006Y610057D01*
X173786Y608685D01*
X172567Y607974D01*
X165811Y606806D01*
X164287Y606094D01*
X144932Y606094D01*
X144526Y603961D01*
X144526Y578002D01*
X144193Y577037D01*
X190601Y577037D01*
X190804Y580948D01*
X191312Y582574D01*
X192227Y583844D01*
X193141Y584200D01*
X194411Y590499D01*
X195580Y592429D01*
X196291Y592937D01*
X197815Y599338D01*
X198780Y600964D01*
X199339Y601370D01*
X199796Y602538D01*
X200304Y605739D01*
X200812Y607364D01*
X201930Y609142D01*
X202793Y609447D01*
X203454Y613816D01*
X204876Y617220D01*
X205841Y618337D01*
X206959Y622858D01*
X207721Y624890D01*
X209143Y625805D01*
X210058Y631037D01*
X211277Y633984D01*
X212140Y634898D01*
X213258Y639267D01*
X214274Y641807D01*
X214782Y642569D01*
X215341Y642975D01*
X215798Y644194D01*
X216306Y647496D01*
X216814Y649020D01*
X217932Y650748D01*
X218744Y651052D01*
X219456Y654304D01*
X220014Y655523D01*
X221132Y656590D01*
X222250Y657047D01*
X228447Y657098D01*
X230835Y656488D01*
X232003Y655777D01*
X232917Y654812D01*
X233425Y653542D01*
X234492Y648258D01*
X235813Y647649D01*
X236829Y645261D01*
X237388Y641502D01*
X237794Y640384D01*
X238963Y639216D01*
X239979Y637032D01*
X241046Y631901D01*
X242214Y630732D01*
X243281Y627989D01*
X244094Y623620D01*
X245668Y621995D01*
X246532Y619556D01*
X247243Y615238D01*
X248970Y613156D01*
X249885Y610311D01*
X250494Y606653D01*
X251510Y606094D01*
X252171Y605129D01*
X252882Y602894D01*
X253695Y598525D01*
X254406Y597865D01*
X255473Y596341D01*
X256197Y593953D01*
X264972Y593953D01*
X265226Y597408D01*
X266344Y598424D01*
X268833Y599338D01*
X274523Y599541D01*
X280263Y599338D01*
X282295Y598322D01*
X284835Y594868D01*
X284988Y593801D01*
X286308Y592988D01*
X288340Y592378D01*
X289001Y591921D01*
X292354Y591769D01*
X292709Y592226D01*
X294690Y592785D01*
X295910Y593496D01*
X296722Y595630D01*
X297942Y600354D01*
X296722Y605129D01*
X295808Y607314D01*
X293471Y608380D01*
X292252Y609295D01*
X289153Y609346D01*
X286512Y609752D01*
X284175Y610971D01*
X283616Y612495D01*
X283464Y620318D01*
X283718Y623468D01*
X284022Y624382D01*
X285089Y625602D01*
X287680Y626414D01*
X292354Y626618D01*
X293014Y627278D01*
X294487Y627888D01*
X295503Y627989D01*
X296062Y629259D01*
X296214Y633984D01*
X295960Y637946D01*
X295605Y639064D01*
X292252Y640080D01*
X290982Y640080D01*
X290271Y639775D01*
X289153Y639673D01*
X287375Y639013D01*
X285851Y637387D01*
X284734Y633933D01*
X284378Y633374D01*
X282143Y632206D01*
X279501Y631698D01*
X269798Y631698D01*
X268274Y632663D01*
X267462Y633526D01*
X267258Y636066D01*
X267462Y640334D01*
X268020Y642569D01*
X269138Y644347D01*
X269900Y644702D01*
X270154Y645160D01*
X270256Y646074D01*
X270764Y647344D01*
X271526Y648411D01*
X275336Y652322D01*
X277876Y654100D01*
X279603Y654405D01*
X280365Y655675D01*
X281736Y656640D01*
X284530Y657199D01*
X293624Y657402D01*
X301548Y657047D01*
X303987Y656082D01*
X304749Y654608D01*
X307136Y653948D01*
X310184Y651154D01*
X311810Y648716D01*
X312826Y647801D01*
X313639Y646430D01*
X314248Y642772D01*
X314604Y641858D01*
X314706Y640334D01*
X315315Y638860D01*
X315315Y632256D01*
X314706Y630783D01*
X314604Y629564D01*
X313639Y625195D01*
X313080Y624027D01*
X312166Y623163D01*
X311454Y622858D01*
X311353Y622096D01*
X310540Y620522D01*
X308305Y619709D01*
X309422Y616204D01*
X310489Y615645D01*
X312318Y613918D01*
X313791Y611784D01*
X314198Y609955D01*
X314960Y608634D01*
X315671Y608025D01*
X316280Y606856D01*
X316636Y605332D01*
X316890Y605078D01*
X316890Y591921D01*
X315976Y589686D01*
X314807Y588111D01*
X313436Y584200D01*
X312674Y583133D01*
X311150Y581863D01*
X310286Y580339D01*
X309016Y579120D01*
X306882Y578154D01*
X305714Y576986D01*
X303072Y575665D01*
X296621Y574802D01*
X295452Y574090D01*
X289153Y574090D01*
X287223Y575005D01*
X281076Y575614D01*
X278485Y576478D01*
X277723Y577037D01*
X277571Y577494D01*
X276352Y578307D01*
X274726Y578815D01*
X273761Y579577D01*
X273304Y580542D01*
X273202Y581355D01*
X272389Y581406D01*
X271322Y581964D01*
X270357Y583031D01*
X270103Y584555D01*
X268732Y585216D01*
X267919Y586130D01*
X267512Y587248D01*
X266649Y591362D01*
X265430Y592632D01*
X264972Y593953D01*
X256197Y593953D01*
X257098Y590092D01*
X257911Y589330D01*
X259181Y586536D01*
X260096Y582015D01*
X261670Y580390D01*
X262432Y578104D01*
X262280Y577443D01*
X261823Y576783D01*
X260045Y575665D01*
X258470Y575360D01*
X246684Y575360D01*
X244856Y575970D01*
X243535Y576986D01*
X242366Y578815D01*
X241808Y580694D01*
X241147Y585012D01*
X240792Y585063D01*
X239775Y586282D01*
X239267Y587756D01*
X234594Y588010D01*
X217576Y588010D01*
X212445Y587806D01*
X212090Y587502D01*
X210921Y581914D01*
X210007Y580288D01*
X208889Y579069D01*
X208483Y577342D01*
X207975Y576275D01*
X207467Y575868D01*
X205282Y575208D01*
X192582Y575411D01*
X191516Y576021D01*
X190601Y577037D01*
X144193Y577037D01*
X143560Y576072D01*
X142290Y575411D01*
X141427Y575208D01*
X131165Y575462D01*
X128625Y575767D01*
X127355Y576275D01*
X126898Y577443D01*
X18542Y577443D01*
X18542Y522020D01*
X418541Y522020D01*
X418541Y723646D01*
G37*
G36*
X144932Y639622D02*
G01*
X144526Y638911D01*
X144526Y625602D01*
X144932Y623417D01*
X161036Y623417D01*
X163271Y624128D01*
X164388Y624281D01*
X164998Y624992D01*
X167538Y626770D01*
X167995Y628751D01*
X167944Y633780D01*
X167640Y635965D01*
X165963Y637184D01*
X165354Y638708D01*
X164134Y639521D01*
G37*
G36*
X224993Y624687D02*
G01*
X224383Y622096D01*
X223875Y618540D01*
X222808Y616102D01*
X221640Y614832D01*
X220522Y609447D01*
X219913Y607872D01*
X218541Y606704D01*
X220421Y605942D01*
X220979Y605485D01*
X231444Y605383D01*
X232359Y606501D01*
X232613Y607314D01*
X232257Y608177D01*
X231546Y612343D01*
X230276Y613816D01*
X229514Y615391D01*
X228396Y621233D01*
X227075Y622909D01*
G37*
D10*
X1505270Y1340098D02*
G01*
X1546397Y1298968D01*
X1551607Y1288729D01*
X1551787Y1283522D01*
X1549092Y1275798D01*
X1543883Y1270591D01*
X1536341Y1268077D01*
X1530951Y1268077D01*
X1520715Y1273284D01*
X1515686Y1278313D01*
X1522331Y1357160D02*
G01*
X1576392Y1303098D01*
X1576392Y1303098D02*
G01*
X1607106Y1333812D01*
X1621652Y1430619D02*
G01*
X1613750Y1433134D01*
X1603512Y1433311D01*
X1595790Y1430619D01*
X1585551Y1420380D01*
X1582859Y1412659D01*
X1583037Y1402420D01*
X1585551Y1394518D01*
X1590761Y1384279D01*
X1603512Y1371528D01*
X1613750Y1366319D01*
X1621652Y1363804D01*
X1631891Y1363626D01*
X1639613Y1366319D01*
X1649851Y1376558D01*
X1652544Y1384279D01*
X1652366Y1394518D01*
X1649851Y1402420D01*
X1651287Y1486115D02*
G01*
X1692417Y1444988D01*
X1697626Y1434749D01*
X1697804Y1429542D01*
X1695112Y1421818D01*
X1689902Y1416608D01*
X1682358Y1414094D01*
X1676971Y1414094D01*
X1666735Y1419303D01*
X1661706Y1424332D01*
X1668350Y1503179D02*
G01*
X1722412Y1449118D01*
X1722412Y1449118D02*
G01*
X1753303Y1480009D01*
X1767672Y1576638D02*
G01*
X1759948Y1579331D01*
X1749531Y1579331D01*
X1741810Y1576638D01*
X1731571Y1566400D01*
X1728876Y1558678D01*
X1729056Y1548439D01*
X1731571Y1540537D01*
X1736780Y1530299D01*
X1749531Y1517548D01*
X1759770Y1512338D01*
X1767672Y1509824D01*
X1777908Y1509646D01*
X1785632Y1512338D01*
X1795871Y1522577D01*
X1798563Y1530299D01*
X1798563Y1540715D01*
X1795871Y1548439D01*
X1797486Y1632315D02*
G01*
X1838617Y1591185D01*
X1843646Y1580769D01*
X1843824Y1575559D01*
X1841131Y1567837D01*
X1836102Y1562808D01*
X1828378Y1560113D01*
X1823171Y1560294D01*
X1812752Y1565323D01*
X1807723Y1570352D01*
X1814370Y1649199D02*
G01*
X1868431Y1595137D01*
X1868431Y1595137D02*
G01*
X1899323Y1626029D01*
X1913691Y1722655D02*
G01*
X1905967Y1725350D01*
X1895551Y1725350D01*
X1887827Y1722655D01*
X1877590Y1712419D01*
X1875076Y1704875D01*
X1875076Y1694459D01*
X1877771Y1686735D01*
X1882797Y1676318D01*
X1895551Y1663567D01*
X1905967Y1658538D01*
X1913691Y1655843D01*
X1924108Y1655843D01*
X1931652Y1658358D01*
X1941888Y1668594D01*
X1944583Y1676318D01*
X1944583Y1686735D01*
X1941888Y1694459D01*
X1943506Y1778335D02*
G01*
X1984634Y1737205D01*
X1989663Y1726788D01*
X1989843Y1721578D01*
X1987148Y1713857D01*
X1982119Y1708828D01*
X1974397Y1706133D01*
X1969188Y1706313D01*
X1958952Y1711520D01*
X1953922Y1716549D01*
X1960387Y1795216D02*
G01*
X2014448Y1741157D01*
X2014448Y1741157D02*
G01*
X2045342Y1772048D01*
X2059708Y1868675D02*
G01*
X2051987Y1871370D01*
X2041570Y1871370D01*
X2034026Y1868855D01*
X2023610Y1858439D01*
X2021095Y1850895D01*
X2021095Y1840478D01*
X2023788Y1832754D01*
X2028817Y1822338D01*
X2041570Y1809584D01*
X2051987Y1804555D01*
X2059708Y1801863D01*
X2070127Y1801863D01*
X2077671Y1804377D01*
X2088088Y1814794D01*
X2090602Y1822338D01*
X2090602Y1832754D01*
X2087907Y1840478D01*
X667765Y1134871D02*
G01*
X707644Y1134871D01*
X685800Y1105662D01*
X696721Y1105662D01*
X704087Y1102105D01*
X707644Y1098550D01*
X711200Y1087628D01*
X711200Y1080262D01*
X707644Y1069339D01*
X700278Y1061973D01*
X689610Y1058418D01*
X678687Y1058418D01*
X667765Y1061973D01*
X663955Y1065784D01*
X660400Y1072895D01*
X735329Y1134871D02*
G01*
X764286Y1058418D01*
X793495Y1134871D02*
G01*
X764286Y1058418D01*
X660400Y1026921D02*
G01*
X660400Y950468D01*
X660400Y1026921D02*
G01*
X693165Y1026921D01*
X704087Y1023365D01*
X707644Y1019555D01*
X711200Y1012444D01*
X711200Y1001521D01*
X707644Y994155D01*
X704087Y990600D01*
X693165Y986789D01*
X660400Y986789D01*
X764286Y1026921D02*
G01*
X735329Y950468D01*
X764286Y1026921D02*
G01*
X793495Y950468D01*
X746252Y975868D02*
G01*
X782573Y975868D01*
X824737Y1026921D02*
G01*
X864870Y1026921D01*
X843026Y997712D01*
X853947Y997712D01*
X861060Y994155D01*
X864870Y990600D01*
X868426Y979678D01*
X868426Y972312D01*
X864870Y961389D01*
X857504Y954023D01*
X846581Y950468D01*
X835660Y950468D01*
X824737Y954023D01*
X821181Y957834D01*
X817371Y964945D01*
X715010Y900684D02*
G01*
X711200Y908050D01*
X704087Y915415D01*
X696721Y918971D01*
X682244Y918971D01*
X674878Y915415D01*
X667765Y908050D01*
X663955Y900684D01*
X660400Y889762D01*
X660400Y871728D01*
X663955Y860805D01*
X667765Y853439D01*
X674878Y846073D01*
X682244Y842518D01*
X696721Y842518D01*
X704087Y846073D01*
X711200Y853439D01*
X715010Y860805D01*
X715010Y871728D01*
X696721Y871728D02*
G01*
X715010Y871728D01*
X920752Y723897D02*
G01*
X927864Y731009D01*
X931674Y741931D01*
X931674Y756409D01*
X927864Y767331D01*
X920752Y774697D01*
X913386Y774697D01*
X906274Y771141D01*
X902464Y767331D01*
X898908Y760219D01*
X891542Y738375D01*
X887986Y731009D01*
X884430Y727453D01*
X877064Y723897D01*
X866142Y723897D01*
X858776Y731009D01*
X855220Y741931D01*
X855220Y756409D01*
X858776Y767331D01*
X866142Y774697D01*
X913386Y645157D02*
G01*
X920752Y648967D01*
X927864Y656079D01*
X931674Y663445D01*
X931674Y677923D01*
X927864Y685289D01*
X920752Y692401D01*
X913386Y696211D01*
X902464Y699767D01*
X884430Y699767D01*
X873508Y696211D01*
X866142Y692401D01*
X858776Y685289D01*
X855220Y677923D01*
X855220Y663445D01*
X858776Y656079D01*
X866142Y648967D01*
X873508Y645157D01*
X1021331Y645157D02*
G01*
X1028697Y648967D01*
X1036063Y656079D01*
X1039619Y663445D01*
X1039619Y677923D01*
X1036063Y685289D01*
X1028697Y692401D01*
X1021331Y696211D01*
X1010409Y699767D01*
X992375Y699767D01*
X981453Y696211D01*
X974087Y692401D01*
X966975Y685289D01*
X963165Y677923D01*
X963165Y663445D01*
X966975Y656079D01*
X974087Y648967D01*
X981453Y645157D01*
X992375Y645157D01*
X992375Y663445D02*
G01*
X992375Y645157D01*
X1147571Y727453D02*
G01*
X1071118Y727453D01*
X1147571Y727453D02*
G01*
X1071118Y698243D01*
X1147571Y669287D02*
G01*
X1071118Y698243D01*
X1147571Y669287D02*
G01*
X1071118Y669287D01*
X1147571Y645157D02*
G01*
X1071118Y645157D01*
X1426971Y990600D02*
G01*
X1350518Y990600D01*
X1350518Y990600D02*
G01*
X1350518Y946912D01*
X1426971Y901192D02*
G01*
X1423415Y912113D01*
X1412494Y919226D01*
X1394205Y923036D01*
X1383284Y923036D01*
X1364995Y919226D01*
X1354073Y912113D01*
X1350518Y901192D01*
X1350518Y893826D01*
X1354073Y882904D01*
X1364995Y875792D01*
X1383284Y871981D01*
X1394205Y871981D01*
X1412494Y875792D01*
X1423415Y882904D01*
X1426971Y893826D01*
X1426971Y901192D01*
X1566671Y990600D02*
G01*
X1490218Y990600D01*
X1490218Y990600D02*
G01*
X1490218Y946912D01*
X1552194Y923036D02*
G01*
X1555750Y915670D01*
X1566671Y904747D01*
X1490218Y904747D01*
X2081781Y628909D02*
G01*
X2089147Y632719D01*
X2096513Y639831D01*
X2100069Y647197D01*
X2100069Y661675D01*
X2096513Y669041D01*
X2089147Y676153D01*
X2081781Y679963D01*
X2070859Y683519D01*
X2052825Y683519D01*
X2041903Y679963D01*
X2034537Y676153D01*
X2027425Y669041D01*
X2023615Y661675D01*
X2023615Y647197D01*
X2027425Y639831D01*
X2034537Y632719D01*
X2041903Y628909D01*
X2052825Y628909D01*
X2052825Y647197D02*
G01*
X2052825Y628909D01*
X1992116Y729239D02*
G01*
X1915662Y729239D01*
X1992116Y754639D02*
G01*
X1992116Y703839D01*
X1992116Y679709D02*
G01*
X1915662Y628909D01*
X1992116Y628909D02*
G01*
X1915662Y679709D01*
X1884171Y754639D02*
G01*
X1884171Y714761D01*
X1854962Y736605D01*
X1854962Y725683D01*
X1851405Y718317D01*
X1847850Y714761D01*
X1836928Y711205D01*
X1829562Y711205D01*
X1818639Y714761D01*
X1811273Y722127D01*
X1807718Y732795D01*
X1807718Y743717D01*
X1811273Y754639D01*
X1815084Y758449D01*
X1822195Y762005D01*
X1884171Y687075D02*
G01*
X1807718Y658119D01*
X1884171Y628909D02*
G01*
X1807718Y658119D01*
X2201672Y754639D02*
G01*
X2125218Y754639D01*
X2201672Y754639D02*
G01*
X2201672Y721873D01*
X2198115Y710951D01*
X2194306Y707395D01*
X2187193Y703839D01*
X2179827Y703839D01*
X2172461Y707395D01*
X2168906Y710951D01*
X2165350Y721873D01*
X2165350Y754639D01*
X2165350Y729239D02*
G01*
X2125218Y703839D01*
X2201672Y679709D02*
G01*
X2125218Y628909D01*
X2201672Y628909D02*
G01*
X2125218Y679709D01*
X2608072Y762000D02*
G01*
X2531618Y762000D01*
X2608072Y762000D02*
G01*
X2531618Y711200D01*
X2608072Y711200D02*
G01*
X2531618Y711200D01*
X2597150Y636270D02*
G01*
X2604515Y643381D01*
X2608072Y654304D01*
X2608072Y669036D01*
X2604515Y679704D01*
X2597150Y687070D01*
X2589784Y687070D01*
X2582672Y683513D01*
X2578861Y679704D01*
X2575306Y672592D01*
X2567940Y650747D01*
X2564384Y643381D01*
X2560827Y639826D01*
X2553461Y636270D01*
X2542540Y636270D01*
X2535174Y643381D01*
X2531618Y654304D01*
X2531618Y669036D01*
X2535174Y679704D01*
X2542540Y687070D01*
X2697731Y636272D02*
G01*
X2705097Y640082D01*
X2712463Y647194D01*
X2716019Y654560D01*
X2716019Y669038D01*
X2712463Y676404D01*
X2705097Y683516D01*
X2697731Y687326D01*
X2686809Y690882D01*
X2668775Y690882D01*
X2657853Y687326D01*
X2650487Y683516D01*
X2643375Y676404D01*
X2639565Y669038D01*
X2639565Y654560D01*
X2643375Y647194D01*
X2650487Y640082D01*
X2657853Y636272D01*
X2668775Y636272D01*
X2668775Y654560D02*
G01*
X2668775Y636272D01*
X2813047Y715010D02*
G01*
X2820413Y722121D01*
X2823969Y733044D01*
X2823969Y747521D01*
X2820413Y758444D01*
X2813047Y765810D01*
X2805681Y765810D01*
X2798569Y762254D01*
X2794759Y758444D01*
X2791203Y751331D01*
X2783837Y729487D01*
X2780281Y722121D01*
X2776725Y718565D01*
X2769359Y715010D01*
X2758437Y715010D01*
X2751325Y722121D01*
X2747515Y733044D01*
X2747515Y747521D01*
X2751325Y758444D01*
X2758437Y765810D01*
X2805681Y636270D02*
G01*
X2813047Y640079D01*
X2820413Y647192D01*
X2823969Y654557D01*
X2823969Y669036D01*
X2820413Y676402D01*
X2813047Y683513D01*
X2805681Y687323D01*
X2794759Y690879D01*
X2776725Y690879D01*
X2765803Y687323D01*
X2758437Y683513D01*
X2751325Y676402D01*
X2747515Y669036D01*
X2747515Y654557D01*
X2751325Y647192D01*
X2758437Y640079D01*
X2765803Y636270D01*
X2759458Y1263650D02*
G01*
X2752346Y1271015D01*
X2741424Y1274571D01*
X2726946Y1274571D01*
X2716024Y1271015D01*
X2708658Y1263650D01*
X2708658Y1256284D01*
X2712214Y1249171D01*
X2716024Y1245362D01*
X2723136Y1241805D01*
X2744980Y1234439D01*
X2752346Y1230884D01*
X2755902Y1227328D01*
X2759458Y1219962D01*
X2759458Y1209039D01*
X2752346Y1201673D01*
X2741424Y1198118D01*
X2726946Y1198118D01*
X2716024Y1201673D01*
X2708658Y1209039D01*
X2838198Y1256284D02*
G01*
X2834388Y1263650D01*
X2827276Y1271015D01*
X2819910Y1274571D01*
X2805432Y1274571D01*
X2798066Y1271015D01*
X2790954Y1263650D01*
X2787144Y1256284D01*
X2783588Y1245362D01*
X2783588Y1227328D01*
X2787144Y1216405D01*
X2790954Y1209039D01*
X2798066Y1201673D01*
X2805432Y1198118D01*
X2819910Y1198118D01*
X2827276Y1201673D01*
X2834388Y1209039D01*
X2838198Y1216405D01*
X2838201Y1154681D02*
G01*
X2834391Y1162047D01*
X2827279Y1169413D01*
X2819913Y1172969D01*
X2805435Y1172969D01*
X2798069Y1169413D01*
X2790957Y1162047D01*
X2787147Y1154681D01*
X2783591Y1143759D01*
X2783591Y1125725D01*
X2787147Y1114803D01*
X2790957Y1107437D01*
X2798069Y1100325D01*
X2805435Y1096515D01*
X2819913Y1096515D01*
X2827279Y1100325D01*
X2834391Y1107437D01*
X2838201Y1114803D01*
X2838201Y1125725D01*
X2819913Y1125725D02*
G01*
X2838201Y1125725D01*
X2763265Y1054100D02*
G01*
X2756154Y1061465D01*
X2745231Y1065021D01*
X2730754Y1065021D01*
X2719831Y1061465D01*
X2712465Y1054100D01*
X2712465Y1046734D01*
X2716022Y1039621D01*
X2719831Y1035812D01*
X2726943Y1032255D01*
X2748788Y1024889D01*
X2756154Y1021334D01*
X2759709Y1017778D01*
X2763265Y1010412D01*
X2763265Y999489D01*
X2756154Y992123D01*
X2745231Y988568D01*
X2730754Y988568D01*
X2719831Y992123D01*
X2712465Y999489D01*
X2787395Y1065021D02*
G01*
X2787395Y988568D01*
X2787395Y1065021D02*
G01*
X2812795Y1065021D01*
X2823718Y1061465D01*
X2831084Y1054100D01*
X2834640Y1046734D01*
X2838195Y1035812D01*
X2838195Y1017778D01*
X2834640Y1006855D01*
X2831084Y999489D01*
X2823718Y992123D01*
X2812795Y988568D01*
X2787395Y988568D01*
X2712465Y957071D02*
G01*
X2752343Y957071D01*
X2730500Y927862D01*
X2741422Y927862D01*
X2748788Y924305D01*
X2752343Y920750D01*
X2755900Y909828D01*
X2755900Y902462D01*
X2752343Y891539D01*
X2744977Y884173D01*
X2734309Y880618D01*
X2723388Y880618D01*
X2712465Y884173D01*
X2708656Y887984D01*
X2705100Y895095D01*
X2780029Y957071D02*
G01*
X2808986Y880618D01*
X2838195Y957071D02*
G01*
X2808986Y880618D01*
X2811272Y2964434D02*
G01*
X2811272Y2924555D01*
X2782061Y2946400D01*
X2782061Y2935478D01*
X2778506Y2928112D01*
X2774950Y2924555D01*
X2764027Y2921000D01*
X2756661Y2921000D01*
X2745740Y2924555D01*
X2738374Y2931921D01*
X2734818Y2942589D01*
X2734818Y2953512D01*
X2738374Y2964434D01*
X2742184Y2968244D01*
X2749295Y2971800D01*
X2811272Y2896870D02*
G01*
X2734818Y2867913D01*
X2811272Y2838704D02*
G01*
X2734818Y2867913D01*
X2691381Y2917192D02*
G01*
X2698747Y2921002D01*
X2706113Y2928114D01*
X2709669Y2935480D01*
X2709669Y2949958D01*
X2706113Y2957324D01*
X2698747Y2964436D01*
X2691381Y2968246D01*
X2680459Y2971802D01*
X2662425Y2971802D01*
X2651503Y2968246D01*
X2644137Y2964436D01*
X2637025Y2957324D01*
X2633215Y2949958D01*
X2633215Y2935480D01*
X2637025Y2928114D01*
X2644137Y2921002D01*
X2651503Y2917192D01*
X2662425Y2917192D01*
X2662425Y2935480D02*
G01*
X2662425Y2917192D01*
X2601722Y2971800D02*
G01*
X2525268Y2971800D01*
X2601722Y2971800D02*
G01*
X2601722Y2946400D01*
X2598165Y2935478D01*
X2590800Y2928112D01*
X2583434Y2924555D01*
X2572511Y2921000D01*
X2554477Y2921000D01*
X2543556Y2924555D01*
X2536190Y2928112D01*
X2528824Y2935478D01*
X2525268Y2946400D01*
X2525268Y2971800D01*
X2601722Y2896870D02*
G01*
X2525268Y2896870D01*
X2482850Y2921000D02*
G01*
X2490215Y2928112D01*
X2493772Y2939034D01*
X2493772Y2953512D01*
X2490215Y2964434D01*
X2482850Y2971800D01*
X2475484Y2971800D01*
X2468372Y2968244D01*
X2464561Y2964434D01*
X2461006Y2957321D01*
X2453640Y2935478D01*
X2450084Y2928112D01*
X2446527Y2924555D01*
X2439161Y2921000D01*
X2428240Y2921000D01*
X2420874Y2928112D01*
X2417318Y2939034D01*
X2417318Y2953512D01*
X2420874Y2964434D01*
X2428240Y2971800D01*
X2475484Y2842260D02*
G01*
X2482850Y2846070D01*
X2490215Y2853181D01*
X2493772Y2860547D01*
X2493772Y2875026D01*
X2490215Y2882392D01*
X2482850Y2889504D01*
X2475484Y2893313D01*
X2464561Y2896870D01*
X2446527Y2896870D01*
X2435606Y2893313D01*
X2428240Y2889504D01*
X2420874Y2882392D01*
X2417318Y2875026D01*
X2417318Y2860547D01*
X2420874Y2853181D01*
X2428240Y2846070D01*
X2435606Y2842260D01*
X88900Y2760471D02*
G01*
X88900Y2684018D01*
X88900Y2760471D02*
G01*
X121665Y2760471D01*
X132587Y2756915D01*
X136144Y2753105D01*
X139700Y2745994D01*
X139700Y2738628D01*
X136144Y2731262D01*
X132587Y2727705D01*
X121665Y2724150D01*
X88900Y2724150D02*
G01*
X121665Y2724150D01*
X132587Y2720339D01*
X136144Y2716784D01*
X139700Y2709418D01*
X139700Y2698495D01*
X136144Y2691384D01*
X132587Y2687573D01*
X121665Y2684018D01*
X88900Y2684018D01*
X185673Y2760471D02*
G01*
X174752Y2756915D01*
X167386Y2745994D01*
X163829Y2727705D01*
X163829Y2716784D01*
X167386Y2698495D01*
X174752Y2687573D01*
X185673Y2684018D01*
X192786Y2684018D01*
X203707Y2687573D01*
X211073Y2698495D01*
X214629Y2716784D01*
X214629Y2727705D01*
X211073Y2745994D01*
X203707Y2756915D01*
X192786Y2760471D01*
X185673Y2760471D01*
X88902Y2163571D02*
G01*
X88902Y2087118D01*
X88902Y2163571D02*
G01*
X121668Y2163571D01*
X132590Y2160015D01*
X136146Y2156205D01*
X139702Y2149094D01*
X139702Y2141728D01*
X136146Y2134362D01*
X132590Y2130805D01*
X121668Y2127250D01*
X88902Y2127250D02*
G01*
X121668Y2127250D01*
X132590Y2123439D01*
X136146Y2119884D01*
X139702Y2112518D01*
X139702Y2101595D01*
X136146Y2094484D01*
X132590Y2090673D01*
X121668Y2087118D01*
X88902Y2087118D01*
X163832Y2149094D02*
G01*
X171198Y2152650D01*
X181866Y2163571D01*
X181866Y2087118D01*
X791212Y3542284D02*
G01*
X787402Y3549650D01*
X780290Y3557015D01*
X772924Y3560571D01*
X758446Y3560571D01*
X751080Y3557015D01*
X743968Y3549650D01*
X740158Y3542284D01*
X736602Y3531362D01*
X736602Y3513328D01*
X740158Y3502405D01*
X743968Y3495039D01*
X751080Y3487673D01*
X758446Y3484118D01*
X772924Y3484118D01*
X780290Y3487673D01*
X787402Y3495039D01*
X791212Y3502405D01*
X791212Y3513328D01*
X772924Y3513328D02*
G01*
X791212Y3513328D01*
X704090Y3446271D02*
G01*
X667768Y3446271D01*
X663958Y3413505D01*
X667768Y3417062D01*
X678690Y3420871D01*
X689612Y3420871D01*
X700280Y3417062D01*
X707646Y3409950D01*
X711202Y3399028D01*
X711202Y3391662D01*
X707646Y3380739D01*
X700280Y3373373D01*
X689612Y3369818D01*
X678690Y3369818D01*
X667768Y3373373D01*
X663958Y3377184D01*
X660402Y3384295D01*
X735332Y3446271D02*
G01*
X764288Y3369818D01*
X793498Y3446271D02*
G01*
X764288Y3369818D01*
X591565Y2785871D02*
G01*
X631444Y2785871D01*
X609600Y2756662D01*
X620521Y2756662D01*
X627887Y2753105D01*
X631444Y2749550D01*
X635000Y2738628D01*
X635000Y2731262D01*
X631444Y2720339D01*
X624078Y2712973D01*
X613410Y2709418D01*
X602487Y2709418D01*
X591565Y2712973D01*
X587755Y2716784D01*
X584200Y2723895D01*
X713739Y2767584D02*
G01*
X709929Y2774950D01*
X702818Y2782315D01*
X695452Y2785871D01*
X680973Y2785871D01*
X673607Y2782315D01*
X666495Y2774950D01*
X662686Y2767584D01*
X659129Y2756662D01*
X659129Y2738628D01*
X662686Y2727705D01*
X666495Y2720339D01*
X673607Y2712973D01*
X680973Y2709418D01*
X695452Y2709418D01*
X702818Y2712973D01*
X709929Y2720339D01*
X713739Y2727705D01*
X741171Y2767584D02*
G01*
X741171Y2771394D01*
X744981Y2778505D01*
X748537Y2782315D01*
X755904Y2785871D01*
X770381Y2785871D01*
X777747Y2782315D01*
X781304Y2778505D01*
X784860Y2771394D01*
X784860Y2764028D01*
X781304Y2756662D01*
X773937Y2745739D01*
X737615Y2709418D01*
X788670Y2709418D01*
X1997712Y3542284D02*
G01*
X1993902Y3549650D01*
X1986790Y3557015D01*
X1979424Y3560571D01*
X1964946Y3560571D01*
X1957580Y3557015D01*
X1950468Y3549650D01*
X1946658Y3542284D01*
X1943102Y3531362D01*
X1943102Y3513328D01*
X1946658Y3502405D01*
X1950468Y3495039D01*
X1957580Y3487673D01*
X1964946Y3484118D01*
X1979424Y3484118D01*
X1986790Y3487673D01*
X1993902Y3495039D01*
X1997712Y3502405D01*
X1997712Y3513328D01*
X1979424Y3513328D02*
G01*
X1997712Y3513328D01*
X1986790Y3446271D02*
G01*
X1950468Y3446271D01*
X1946658Y3413505D01*
X1950468Y3417062D01*
X1961390Y3420871D01*
X1972312Y3420871D01*
X1982980Y3417062D01*
X1990346Y3409950D01*
X1993902Y3399028D01*
X1993902Y3391662D01*
X1990346Y3380739D01*
X1982980Y3373373D01*
X1972312Y3369818D01*
X1961390Y3369818D01*
X1950468Y3373373D01*
X1946658Y3377184D01*
X1943102Y3384295D01*
X2018032Y3446271D02*
G01*
X2046988Y3369818D01*
X2076198Y3446271D02*
G01*
X2046988Y3369818D01*
X1950465Y2785871D02*
G01*
X1990343Y2785871D01*
X1968500Y2756662D01*
X1979422Y2756662D01*
X1986788Y2753105D01*
X1990343Y2749550D01*
X1993900Y2738628D01*
X1993900Y2731262D01*
X1990343Y2720339D01*
X1982977Y2712973D01*
X1972309Y2709418D01*
X1961388Y2709418D01*
X1950465Y2712973D01*
X1946656Y2716784D01*
X1943100Y2723895D01*
X2072640Y2767584D02*
G01*
X2068829Y2774950D01*
X2061718Y2782315D01*
X2054352Y2785871D01*
X2039874Y2785871D01*
X2032508Y2782315D01*
X2025395Y2774950D01*
X2021586Y2767584D01*
X2018029Y2756662D01*
X2018029Y2738628D01*
X2021586Y2727705D01*
X2025395Y2720339D01*
X2032508Y2712973D01*
X2039874Y2709418D01*
X2054352Y2709418D01*
X2061718Y2712973D01*
X2068829Y2720339D01*
X2072640Y2727705D01*
X2096515Y2771394D02*
G01*
X2103881Y2774950D01*
X2114804Y2785871D01*
X2114804Y2709418D01*
X3225800Y2805684D02*
G01*
X3291331Y2805684D01*
X3258565Y2736850D02*
G01*
X3258565Y2671318D01*
X3225800Y2704084D02*
G01*
X3291331Y2704084D01*
X406400Y1452371D02*
G01*
X406400Y1375918D01*
X406400Y1452371D02*
G01*
X439165Y1452371D01*
X450087Y1448815D01*
X453644Y1445005D01*
X457200Y1437894D01*
X457200Y1430528D01*
X453644Y1423162D01*
X450087Y1419605D01*
X439165Y1416050D01*
X406400Y1416050D01*
X431800Y1416050D02*
G01*
X457200Y1375918D01*
X532129Y1441450D02*
G01*
X525018Y1448815D01*
X514095Y1452371D01*
X499363Y1452371D01*
X488695Y1448815D01*
X481329Y1441450D01*
X481329Y1434084D01*
X484886Y1426971D01*
X488695Y1423162D01*
X495807Y1419605D01*
X517652Y1412239D01*
X525018Y1408684D01*
X528573Y1405128D01*
X532129Y1397762D01*
X532129Y1386839D01*
X525018Y1379473D01*
X514095Y1375918D01*
X499363Y1375918D01*
X488695Y1379473D01*
X481329Y1386839D01*
X581660Y1452371D02*
G01*
X581660Y1375918D01*
X556260Y1452371D02*
G01*
X607060Y1452371D01*
D11*
X2442972Y1627631D02*
G01*
X2438654Y1636776D01*
X2429509Y1645665D01*
X2420365Y1650237D01*
X2402077Y1650237D01*
X2393188Y1645665D01*
X2384043Y1636776D01*
X2379472Y1627631D01*
X2374900Y1613915D01*
X2374900Y1591310D01*
X2379472Y1577594D01*
X2384043Y1568450D01*
X2393188Y1559305D01*
X2402077Y1554734D01*
X2420365Y1554734D01*
X2429509Y1559305D01*
X2438654Y1568450D01*
X2442972Y1577594D01*
X2473197Y1650237D02*
G01*
X2477515Y1645665D01*
X2482088Y1650237D01*
X2477515Y1654810D01*
X2473197Y1650237D01*
X2477515Y1618487D02*
G01*
X2477515Y1554734D01*
X2512059Y1618487D02*
G01*
X2512059Y1554734D01*
X2512059Y1591310D02*
G01*
X2516631Y1604771D01*
X2525775Y1613915D01*
X2534920Y1618487D01*
X2548636Y1618487D01*
X2578608Y1618487D02*
G01*
X2578608Y1554734D01*
X2578608Y1591310D02*
G01*
X2583179Y1604771D01*
X2592070Y1613915D01*
X2601213Y1618487D01*
X2614929Y1618487D01*
X2644902Y1618487D02*
G01*
X2644902Y1573021D01*
X2649474Y1559305D01*
X2658618Y1554734D01*
X2672079Y1554734D01*
X2681224Y1559305D01*
X2694940Y1573021D01*
X2694940Y1618487D02*
G01*
X2694940Y1554734D01*
X2774950Y1604771D02*
G01*
X2770377Y1613915D01*
X2756661Y1618487D01*
X2743200Y1618487D01*
X2729484Y1613915D01*
X2724911Y1604771D01*
X2729484Y1595881D01*
X2738627Y1591310D01*
X2761234Y1586737D01*
X2770377Y1582165D01*
X2774950Y1573021D01*
X2774950Y1568450D01*
X2770377Y1559305D01*
X2756661Y1554734D01*
X2743200Y1554734D01*
X2729484Y1559305D01*
X2724911Y1568450D01*
X2374900Y1453387D02*
G01*
X2402077Y1389634D01*
X2429509Y1453387D02*
G01*
X2402077Y1389634D01*
X2468625Y1485137D02*
G01*
X2518409Y1485137D01*
X2491231Y1448815D01*
X2504947Y1448815D01*
X2514091Y1444244D01*
X2518409Y1439671D01*
X2522981Y1426210D01*
X2522981Y1417065D01*
X2518409Y1403350D01*
X2509520Y1394205D01*
X2495804Y1389634D01*
X2482088Y1389634D01*
X2468625Y1394205D01*
X2464054Y1398778D01*
X2459481Y1407921D01*
X2557525Y1412494D02*
G01*
X2553208Y1407921D01*
X2557525Y1403350D01*
X2562097Y1407921D01*
X2557525Y1412494D01*
X2592070Y1467104D02*
G01*
X2601213Y1471676D01*
X2614929Y1485137D01*
X2614929Y1389634D01*
D12*
X723900Y1434084D02*
G01*
X723900Y1290828D01*
X723900Y1434084D02*
G01*
X778510Y1290828D01*
X832865Y1434084D02*
G01*
X778510Y1290828D01*
X832865Y1434084D02*
G01*
X832865Y1290828D01*
X878078Y1434084D02*
G01*
X878078Y1290828D01*
X878078Y1434084D02*
G01*
X939292Y1434084D01*
X959865Y1427226D01*
X966723Y1420368D01*
X973328Y1406905D01*
X973328Y1386331D01*
X966723Y1372615D01*
X959865Y1365757D01*
X939292Y1359154D01*
X878078Y1359154D01*
X1018539Y1434084D02*
G01*
X1018539Y1290828D01*
X1018539Y1434084D02*
G01*
X1107186Y1434084D01*
X1018539Y1365757D02*
G01*
X1072895Y1365757D01*
X1018539Y1290828D02*
G01*
X1107186Y1290828D01*
X1152144Y1434084D02*
G01*
X1152144Y1290828D01*
X1152144Y1434084D02*
G01*
X1240789Y1434084D01*
X1152144Y1365757D02*
G01*
X1206500Y1365757D01*
X1152144Y1290828D02*
G01*
X1240789Y1290828D01*
D11*
X1026921Y1243837D02*
G01*
X990600Y1148334D01*
X1026921Y1243837D02*
G01*
X1063244Y1148334D01*
X1004315Y1180337D02*
G01*
X1049781Y1180337D01*
X1093215Y1243837D02*
G01*
X1093215Y1148334D01*
X1093215Y1243837D02*
G01*
X1156970Y1148334D01*
X1156970Y1243837D02*
G01*
X1156970Y1148334D01*
X1255268Y1221231D02*
G01*
X1250695Y1230376D01*
X1241552Y1239265D01*
X1232407Y1243837D01*
X1214120Y1243837D01*
X1205229Y1239265D01*
X1196086Y1230376D01*
X1191513Y1221231D01*
X1186942Y1207515D01*
X1186942Y1184910D01*
X1191513Y1171194D01*
X1196086Y1162050D01*
X1205229Y1152905D01*
X1214120Y1148334D01*
X1232407Y1148334D01*
X1241552Y1152905D01*
X1250695Y1162050D01*
X1255268Y1171194D01*
G36*
X2433929Y3566261D02*
G01*
X2433929Y3316274D01*
X2773934Y3316274D01*
X2773934Y3566261D01*
X2743962Y3566261D01*
X2743962Y3346297D01*
X2463952Y3346297D01*
X2463952Y3566261D01*
G37*
G36*
X3316274Y1274470D02*
G01*
X3316274Y934466D01*
X3566261Y934466D01*
X3566261Y964488D01*
X3346297Y964488D01*
X3346297Y1244447D01*
X3566261Y1244447D01*
X3566261Y1274470D01*
G37*
G36*
X1836166Y315925D02*
G01*
X1836166Y65938D01*
X1866188Y65938D01*
X1866188Y285902D01*
X2146147Y285902D01*
X2146147Y65938D01*
X2176170Y65938D01*
X2176170Y315925D01*
G37*
D13*
X2408085Y3159704D02*
G01*
X2316200Y3159704D01*
X2316200Y3159704D02*
G01*
X2316200Y3386587D01*
X2813090Y3589703D02*
G01*
X2419299Y3589703D01*
X2916201Y3159704D02*
G01*
X2916201Y3386587D01*
X2916201Y3159704D02*
G01*
X2824317Y3159704D01*
D14*
X3454430Y1688160D02*
G01*
X3375421Y1688160D01*
X3375421Y1588439D02*
G01*
X3454430Y1588439D01*
X3469670Y1603679D02*
G01*
X3469670Y1672920D01*
X3251169Y1688160D02*
G01*
X3330178Y1688160D01*
X3330178Y1588439D02*
G01*
X3251169Y1588439D01*
X3235929Y1603679D02*
G01*
X3235929Y1672920D01*
X3454430Y722960D02*
G01*
X3375421Y722960D01*
X3375421Y623239D02*
G01*
X3454430Y623239D01*
X3469670Y638479D02*
G01*
X3469670Y707720D01*
X3251169Y722960D02*
G01*
X3330178Y722960D01*
X3330178Y623239D02*
G01*
X3251169Y623239D01*
X3235929Y638479D02*
G01*
X3235929Y707720D01*
X2235230Y900760D02*
G01*
X2156221Y900760D01*
X2156221Y801039D02*
G01*
X2235230Y801039D01*
X2250470Y816279D02*
G01*
X2250470Y885520D01*
X2031969Y900760D02*
G01*
X2110978Y900760D01*
X2110978Y801039D02*
G01*
X2031969Y801039D01*
X2016729Y816279D02*
G01*
X2016729Y885520D01*
X2337739Y1993930D02*
G01*
X2337739Y1914921D01*
X2437460Y1914921D02*
G01*
X2437460Y1993930D01*
X2422220Y2009170D02*
G01*
X2352979Y2009170D01*
X2337739Y1790669D02*
G01*
X2337739Y1869678D01*
X2437460Y1869678D02*
G01*
X2437460Y1790669D01*
X2422220Y1775429D02*
G01*
X2352979Y1775429D01*
X1472260Y1955769D02*
G01*
X1472260Y2034778D01*
X1372539Y2034778D02*
G01*
X1372539Y1955769D01*
X1387779Y1940529D02*
G01*
X1457020Y1940529D01*
X1472260Y2159030D02*
G01*
X1472260Y2080021D01*
X1372539Y2080021D02*
G01*
X1372539Y2159030D01*
X1387779Y2174270D02*
G01*
X1457020Y2174270D01*
X1345260Y1955769D02*
G01*
X1345260Y2034778D01*
X1245539Y2034778D02*
G01*
X1245539Y1955769D01*
X1260779Y1940529D02*
G01*
X1330020Y1940529D01*
X1345260Y2159030D02*
G01*
X1345260Y2080021D01*
X1245539Y2080021D02*
G01*
X1245539Y2159030D01*
X1260779Y2174270D02*
G01*
X1330020Y2174270D01*
X2235230Y1027760D02*
G01*
X2156221Y1027760D01*
X2156221Y928039D02*
G01*
X2235230Y928039D01*
X2250470Y943279D02*
G01*
X2250470Y1012520D01*
X2031969Y1027760D02*
G01*
X2110978Y1027760D01*
X2110978Y928039D02*
G01*
X2031969Y928039D01*
X2016729Y943279D02*
G01*
X2016729Y1012520D01*
D15*
X2260432Y1065164D02*
G01*
X2336632Y1065164D01*
X2513434Y1065164D02*
G01*
X2437234Y1065164D01*
X2513434Y1197284D02*
G01*
X2437234Y1197284D01*
D14*
X2513434Y1197284D02*
G01*
X2528663Y1182042D01*
X2528663Y1080399D01*
X2513434Y1065164D01*
D15*
X2260432Y1197284D02*
G01*
X2336632Y1197284D01*
D14*
X2260432Y1065164D02*
G01*
X2245189Y1080399D01*
X2245189Y1182042D01*
X2260432Y1197284D01*
D10*
X1442049Y733239D02*
G01*
X1442049Y732248D01*
X1409047Y699239D01*
X1374046Y733239D02*
G01*
X1375046Y733239D01*
X1409047Y699239D01*
X1374046Y733239D02*
G01*
X1442049Y733239D01*
X1334043Y735243D02*
G01*
X1334043Y850249D01*
X1484055Y735243D02*
G01*
X1484055Y850249D01*
X1334048Y850249D02*
G01*
X1482046Y850249D01*
X1484284Y697242D02*
G01*
X1484284Y592231D01*
X1444274Y562236D02*
G01*
X1454277Y562236D01*
X1484284Y592231D01*
X1374282Y562236D02*
G01*
X1444274Y562236D01*
X1374282Y562236D02*
G01*
X1364267Y562236D01*
X1334272Y592231D01*
X1334272Y697242D02*
G01*
X1334272Y592231D01*
X1409047Y733239D02*
G01*
X1409047Y699239D01*
X1619849Y733239D02*
G01*
X1619849Y732248D01*
X1586847Y699239D01*
X1551846Y733239D02*
G01*
X1552846Y733239D01*
X1586847Y699239D01*
X1551846Y733239D02*
G01*
X1619849Y733239D01*
X1511843Y735243D02*
G01*
X1511843Y850249D01*
X1661855Y735243D02*
G01*
X1661855Y850249D01*
X1511848Y850249D02*
G01*
X1659846Y850249D01*
X1662084Y697242D02*
G01*
X1662084Y592231D01*
X1622074Y562236D02*
G01*
X1632077Y562236D01*
X1662084Y592231D01*
X1552082Y562236D02*
G01*
X1622074Y562236D01*
X1552082Y562236D02*
G01*
X1542067Y562236D01*
X1512072Y592231D01*
X1512072Y697242D02*
G01*
X1512072Y592231D01*
X1586847Y733239D02*
G01*
X1586847Y699239D01*
X2790639Y2431450D02*
G01*
X2789648Y2431450D01*
X2756639Y2464452D01*
X2790639Y2499453D02*
G01*
X2790639Y2498453D01*
X2756639Y2464452D01*
X2790639Y2499453D02*
G01*
X2790639Y2431450D01*
X2792643Y2539456D02*
G01*
X2907649Y2539456D01*
X2792643Y2389444D02*
G01*
X2907649Y2389444D01*
X2907649Y2539451D02*
G01*
X2907649Y2391453D01*
X2754642Y2389215D02*
G01*
X2649631Y2389215D01*
X2619636Y2429225D02*
G01*
X2619636Y2419222D01*
X2649631Y2389215D01*
X2619636Y2499217D02*
G01*
X2619636Y2429225D01*
X2619636Y2499217D02*
G01*
X2619636Y2509232D01*
X2649631Y2539227D01*
X2754642Y2539227D02*
G01*
X2649631Y2539227D01*
X2790639Y2464452D02*
G01*
X2756639Y2464452D01*
D14*
X231378Y1372539D02*
G01*
X159575Y1372539D01*
X159575Y1472260D01*
X231378Y1472260D01*
X276621Y1372539D02*
G01*
X348424Y1372539D01*
X348424Y1472260D01*
X276621Y1472260D01*
D13*
X303199Y1794512D02*
G01*
X303199Y1634512D01*
X103200Y1794512D02*
G01*
X103200Y1634512D01*
X207589Y1854512D02*
G01*
X198810Y1854512D01*
X207586Y1574512D02*
G01*
X198813Y1574512D01*
X237487Y2639999D02*
G01*
X397487Y2639999D01*
X237487Y2440000D02*
G01*
X397487Y2440000D01*
X177487Y2544389D02*
G01*
X177487Y2535610D01*
X457487Y2544386D02*
G01*
X457487Y2535613D01*
X397512Y2198700D02*
G01*
X237512Y2198700D01*
X397512Y2398699D02*
G01*
X237512Y2398699D01*
X457512Y2294310D02*
G01*
X457512Y2303089D01*
X177512Y2294313D02*
G01*
X177512Y2303086D01*
D15*
X533412Y2082800D02*
G01*
X482612Y2082800D01*
X482612Y2032000D01*
D14*
X505231Y2057145D02*
G01*
X838225Y2057145D01*
X838212Y1651000D01*
X673112Y1651000D01*
X508012Y1651000D01*
X508012Y1651000D01*
X505231Y2057145D01*
D13*
X2845498Y1611022D02*
G01*
X2845498Y1691025D01*
X2956473Y1580037D02*
G01*
X2876476Y1580037D01*
X2956473Y1722003D02*
G01*
X2876476Y1722003D01*
X3014063Y1579455D02*
G01*
X3094062Y1579455D01*
X3125045Y1610438D02*
G01*
X3125045Y1690436D01*
X3014063Y1721416D02*
G01*
X3094062Y1721416D01*
X3263201Y2605377D02*
G01*
X3263201Y2525374D01*
X3152226Y2636362D02*
G01*
X3232223Y2636362D01*
X3152226Y2494396D02*
G01*
X3232223Y2494396D01*
X3094636Y2636944D02*
G01*
X3014637Y2636944D01*
X2983654Y2605961D02*
G01*
X2983654Y2525963D01*
X3094636Y2494983D02*
G01*
X3014637Y2494983D01*
D14*
X877239Y2044730D02*
G01*
X877239Y1965721D01*
X976960Y1965721D02*
G01*
X976960Y2044730D01*
X961720Y2059970D02*
G01*
X892479Y2059970D01*
X877239Y1841469D02*
G01*
X877239Y1920478D01*
X976960Y1920478D02*
G01*
X976960Y1841469D01*
X961720Y1826229D02*
G01*
X892479Y1826229D01*
X596869Y1512239D02*
G01*
X675878Y1512239D01*
X675878Y1611960D02*
G01*
X596869Y1611960D01*
X581629Y1596720D02*
G01*
X581629Y1527479D01*
X800130Y1512239D02*
G01*
X721121Y1512239D01*
X721121Y1611960D02*
G01*
X800130Y1611960D01*
X815370Y1596720D02*
G01*
X815370Y1527479D01*
X443560Y1536669D02*
G01*
X443560Y1615678D01*
X343839Y1615678D02*
G01*
X343839Y1536669D01*
X359079Y1521429D02*
G01*
X428320Y1521429D01*
X443560Y1739930D02*
G01*
X443560Y1660921D01*
X343839Y1660921D02*
G01*
X343839Y1739930D01*
X359079Y1755170D02*
G01*
X428320Y1755170D01*
X2426639Y1016030D02*
G01*
X2426639Y937021D01*
X2526360Y937021D02*
G01*
X2526360Y1016030D01*
X2511120Y1031270D02*
G01*
X2441879Y1031270D01*
X2426639Y812769D02*
G01*
X2426639Y891778D01*
X2526360Y891778D02*
G01*
X2526360Y812769D01*
X2511120Y797529D02*
G01*
X2441879Y797529D01*
X2286939Y1016030D02*
G01*
X2286939Y937021D01*
X2386660Y937021D02*
G01*
X2386660Y1016030D01*
X2371420Y1031270D02*
G01*
X2302179Y1031270D01*
X2286939Y812769D02*
G01*
X2286939Y891778D01*
X2386660Y891778D02*
G01*
X2386660Y812769D01*
X2371420Y797529D02*
G01*
X2302179Y797529D01*
X2553639Y1168430D02*
G01*
X2553639Y1089421D01*
X2653360Y1089421D02*
G01*
X2653360Y1168430D01*
X2638120Y1183670D02*
G01*
X2568879Y1183670D01*
X2553639Y965169D02*
G01*
X2553639Y1044178D01*
X2653360Y1044178D02*
G01*
X2653360Y965169D01*
X2638120Y949929D02*
G01*
X2568879Y949929D01*
D13*
X3159704Y1300314D02*
G01*
X3159704Y1392199D01*
X3159704Y1392199D02*
G01*
X3386587Y1392199D01*
X3589703Y895309D02*
G01*
X3589703Y1289100D01*
X3159704Y792198D02*
G01*
X3386587Y792198D01*
X3159704Y792198D02*
G01*
X3159704Y884082D01*
X548802Y727900D02*
G01*
X266016Y727900D01*
X548802Y824786D02*
G01*
X548802Y727900D01*
X548802Y1232700D02*
G01*
X266011Y1232700D01*
X548802Y1131013D02*
G01*
X548802Y1232700D01*
X548802Y727900D02*
G01*
X548802Y824786D01*
X53502Y830999D02*
G01*
X53502Y1124785D01*
X1240599Y536102D02*
G01*
X1240599Y253316D01*
X1143713Y536102D02*
G01*
X1240599Y536102D01*
X735799Y536102D02*
G01*
X735799Y253311D01*
X837486Y536102D02*
G01*
X735799Y536102D01*
X1240599Y536102D02*
G01*
X1143713Y536102D01*
X1137500Y40802D02*
G01*
X843714Y40802D01*
X2916999Y536102D02*
G01*
X2916999Y253316D01*
X2820113Y536102D02*
G01*
X2916999Y536102D01*
X2412199Y536102D02*
G01*
X2412199Y253311D01*
X2513886Y536102D02*
G01*
X2412199Y536102D01*
X2916999Y536102D02*
G01*
X2820113Y536102D01*
X2813900Y40802D02*
G01*
X2520114Y40802D01*
X2202014Y472495D02*
G01*
X2293899Y472495D01*
X2293899Y472495D02*
G01*
X2293899Y245612D01*
X1797009Y42496D02*
G01*
X2190800Y42496D01*
X1693898Y472495D02*
G01*
X1693898Y245612D01*
X1693898Y472495D02*
G01*
X1785782Y472495D01*
D14*
X2871139Y987821D02*
G01*
X2871139Y1059624D01*
X2970860Y1059624D01*
X2970860Y987821D01*
X2871139Y942578D02*
G01*
X2871139Y870775D01*
X2970860Y870775D01*
X2970860Y942578D01*
X2970860Y1298178D02*
G01*
X2970860Y1226375D01*
X2871139Y1226375D01*
X2871139Y1298178D01*
X2970860Y1343421D02*
G01*
X2970860Y1415224D01*
X2871139Y1415224D01*
X2871139Y1343421D01*
X1158478Y2337739D02*
G01*
X1086675Y2337739D01*
X1086675Y2437460D01*
X1158478Y2437460D01*
X1203721Y2337739D02*
G01*
X1275524Y2337739D01*
X1275524Y2437460D01*
X1203721Y2437460D01*
X1666478Y2312339D02*
G01*
X1594675Y2312339D01*
X1594675Y2412060D01*
X1666478Y2412060D01*
X1711721Y2312339D02*
G01*
X1783524Y2312339D01*
X1783524Y2412060D01*
X1711721Y2412060D01*
X2784078Y2591739D02*
G01*
X2712275Y2591739D01*
X2712275Y2691460D01*
X2784078Y2691460D01*
X2829321Y2591739D02*
G01*
X2901124Y2591739D01*
X2901124Y2691460D01*
X2829321Y2691460D01*
X987821Y1751660D02*
G01*
X1059624Y1751660D01*
X1059624Y1651939D01*
X987821Y1651939D01*
X942578Y1751660D02*
G01*
X870775Y1751660D01*
X870775Y1651939D01*
X942578Y1651939D01*
X2979757Y1775579D02*
G01*
X2979757Y2440820D01*
X3274037Y2440820D01*
X3274037Y1775579D01*
X2979757Y1775579D01*
X637778Y2363139D02*
G01*
X565975Y2363139D01*
X565975Y2462860D01*
X637778Y2462860D01*
X683021Y2363139D02*
G01*
X754824Y2363139D01*
X754824Y2462860D01*
X683021Y2462860D01*
X637778Y2236139D02*
G01*
X565975Y2236139D01*
X565975Y2335860D01*
X637778Y2335860D01*
X683021Y2236139D02*
G01*
X754824Y2236139D01*
X754824Y2335860D01*
X683021Y2335860D01*
X1307160Y752078D02*
G01*
X1307160Y680275D01*
X1207439Y680275D01*
X1207439Y752078D01*
X1307160Y797321D02*
G01*
X1307160Y869124D01*
X1207439Y869124D01*
X1207439Y797321D01*
X1533921Y532460D02*
G01*
X1605724Y532460D01*
X1605724Y432739D01*
X1533921Y432739D01*
X1488678Y532460D02*
G01*
X1416875Y532460D01*
X1416875Y432739D01*
X1488678Y432739D01*
D11*
X2137409Y1851660D02*
G01*
X2137409Y1231900D01*
X1471929Y1231900D01*
X1471929Y1894839D01*
X2137409Y1894839D01*
X2137409Y1818639D01*
D14*
G75*
G01*
X3454430Y1588440D02*
G03*
X3469670Y1603680I0J15240D01*
G75*
G01*
X3469670Y1672920D02*
G03*
X3454430Y1688160I-15240J0D01*
G75*
G01*
X3251170Y1588440D02*
G02*
X3235930Y1603680I0J15240D01*
G75*
G01*
X3235930Y1672920D02*
G02*
X3251170Y1688160I15240J0D01*
G75*
G01*
X3454430Y623240D02*
G03*
X3469670Y638480I0J15240D01*
G75*
G01*
X3469670Y707720D02*
G03*
X3454430Y722960I-15240J0D01*
G75*
G01*
X3251170Y623240D02*
G02*
X3235930Y638480I0J15240D01*
G75*
G01*
X3235930Y707720D02*
G02*
X3251170Y722960I15240J0D01*
G75*
G01*
X2235230Y801040D02*
G03*
X2250470Y816280I0J15240D01*
G75*
G01*
X2250470Y885520D02*
G03*
X2235230Y900760I-15240J0D01*
G75*
G01*
X2031970Y801040D02*
G02*
X2016730Y816280I0J15240D01*
G75*
G01*
X2016730Y885520D02*
G02*
X2031970Y900760I15240J0D01*
G75*
G01*
X2437460Y1993930D02*
G03*
X2422220Y2009170I-15240J0D01*
G75*
G01*
X2352980Y2009170D02*
G03*
X2337740Y1993930I0J-15240D01*
G75*
G01*
X2437460Y1790670D02*
G02*
X2422220Y1775430I-15240J0D01*
G75*
G01*
X2352980Y1775430D02*
G02*
X2337740Y1790670I0J15240D01*
G75*
G01*
X1372540Y1955770D02*
G03*
X1387780Y1940530I15240J0D01*
G75*
G01*
X1457020Y1940530D02*
G03*
X1472260Y1955770I0J15240D01*
G75*
G01*
X1372540Y2159030D02*
G02*
X1387780Y2174270I15240J0D01*
G75*
G01*
X1457020Y2174270D02*
G02*
X1472260Y2159030I0J-15240D01*
G75*
G01*
X1245540Y1955770D02*
G03*
X1260780Y1940530I15240J0D01*
G75*
G01*
X1330020Y1940530D02*
G03*
X1345260Y1955770I0J15240D01*
G75*
G01*
X1245540Y2159030D02*
G02*
X1260780Y2174270I15240J0D01*
G75*
G01*
X1330020Y2174270D02*
G02*
X1345260Y2159030I0J-15240D01*
G75*
G01*
X2235230Y928040D02*
G03*
X2250470Y943280I0J15240D01*
G75*
G01*
X2250470Y1012520D02*
G03*
X2235230Y1027760I-15240J0D01*
G75*
G01*
X2031970Y928040D02*
G02*
X2016730Y943280I0J15240D01*
G75*
G01*
X2016730Y1012520D02*
G02*
X2031970Y1027760I15240J0D01*
D13*
G75*
G01*
X3125051Y1610439D02*
G02*
X3094068Y1579456I-30983J0D01*
G75*
G01*
X3094068Y1721422D02*
G02*
X3125051Y1690436I0J-30983D01*
G75*
G01*
X2876481Y1580037D02*
G02*
X2845499Y1611023I0J30983D01*
G75*
G01*
X2845499Y1691020D02*
G02*
X2876481Y1722003I30982J0D01*
G75*
G01*
X2983649Y2605961D02*
G02*
X3014632Y2636944I30983J0D01*
G75*
G01*
X3014632Y2494978D02*
G02*
X2983649Y2525964I0J30983D01*
G75*
G01*
X3232219Y2636363D02*
G02*
X3263201Y2605377I0J-30983D01*
G75*
G01*
X3263201Y2525380D02*
G02*
X3232219Y2494397I-30982J0D01*
D14*
G75*
G01*
X976960Y2044730D02*
G03*
X961720Y2059970I-15240J0D01*
G75*
G01*
X892480Y2059970D02*
G03*
X877240Y2044730I0J-15240D01*
G75*
G01*
X976960Y1841470D02*
G02*
X961720Y1826230I-15240J0D01*
G75*
G01*
X892480Y1826230D02*
G02*
X877240Y1841470I0J15240D01*
G75*
G01*
X596870Y1611960D02*
G03*
X581630Y1596720I0J-15240D01*
G75*
G01*
X581630Y1527480D02*
G03*
X596870Y1512240I15240J0D01*
G75*
G01*
X800130Y1611960D02*
G02*
X815370Y1596720I0J-15240D01*
G75*
G01*
X815370Y1527480D02*
G02*
X800130Y1512240I-15240J0D01*
G75*
G01*
X343840Y1536670D02*
G03*
X359080Y1521430I15240J0D01*
G75*
G01*
X428320Y1521430D02*
G03*
X443560Y1536670I0J15240D01*
G75*
G01*
X343840Y1739930D02*
G02*
X359080Y1755170I15240J0D01*
G75*
G01*
X428320Y1755170D02*
G02*
X443560Y1739930I0J-15240D01*
G75*
G01*
X2526360Y1016030D02*
G03*
X2511120Y1031270I-15240J0D01*
G75*
G01*
X2441880Y1031270D02*
G03*
X2426640Y1016030I0J-15240D01*
G75*
G01*
X2526360Y812770D02*
G02*
X2511120Y797530I-15240J0D01*
G75*
G01*
X2441880Y797530D02*
G02*
X2426640Y812770I0J15240D01*
G75*
G01*
X2386660Y1016030D02*
G03*
X2371420Y1031270I-15240J0D01*
G75*
G01*
X2302180Y1031270D02*
G03*
X2286940Y1016030I0J-15240D01*
G75*
G01*
X2386660Y812770D02*
G02*
X2371420Y797530I-15240J0D01*
G75*
G01*
X2302180Y797530D02*
G02*
X2286940Y812770I0J15240D01*
G75*
G01*
X2653360Y1168430D02*
G03*
X2638120Y1183670I-15240J0D01*
G75*
G01*
X2568880Y1183670D02*
G03*
X2553640Y1168430I0J-15240D01*
G75*
G01*
X2653360Y965170D02*
G02*
X2638120Y949930I-15240J0D01*
G75*
G01*
X2568880Y949930D02*
G02*
X2553640Y965170I0J15240D01*
D16*
G75*
G01*
X1397401Y1901099D02*
G03*
X1397401Y1900845I-19999J-127D01*
D13*
G75*
G01
X2856230Y3099714D02*
G03X2856230Y3099714I-10008J0D01*
G75*
G01
X249301Y1714500D02*
G03X249301Y1714500I-46101J0D01*
G75*
G01
X363601Y2540000D02*
G03X363601Y2540000I-46101J0D01*
G75*
G01
X363601Y2298700D02*
G03X363601Y2298700I-46101J0D01*
G75*
G01
X3109722Y862178D02*
G03X3109722Y862178I-10008J0D01*
G75*
G01
X612292Y1181887D02*
G03X612292Y1181887I-12700J0D01*
G75*
G01
X799313Y586892D02*
G03X799313Y586892I-12700J0D01*
G75*
G01
X2475713Y586892D02*
G03X2475713Y586892I-12700J0D01*
G75*
G01
X1773885Y532486D02*
G03X1773885Y532486I-10008J0D01*
G75*
G01
X1537437Y1824101D02*
G03X1537437Y1824101I-17043J0D01*
M02*
