G04 Layer: TopLayer*
G04 EasyEDA v6.5.40, 2024-02-08 20:30:12*
G04 8a8f0ff451d84adea016c743fcc8db9f,2e16165ee3bb4678bfb3015e44e098b9,10*
G04 Gerber Generator version 0.2*
G04 Scale: 100 percent, Rotated: No, Reflected: No *
G04 Dimensions in millimeters *
G04 leading zeros omitted , absolute positions ,4 integer and 5 decimal *
%FSLAX45Y45*%
%MOMM*%

%AMMACRO1*21,1,$1,$2,0,0,$3*%
%ADD10C,0.3500*%
%ADD11C,0.2000*%
%ADD12C,0.3000*%
%ADD13C,0.7000*%
%ADD14C,0.7500*%
%ADD15C,0.6000*%
%ADD16C,0.4000*%
%ADD17C,0.8000*%
%ADD18C,0.5000*%
%ADD19C,0.2500*%
%ADD20C,0.4500*%
%ADD21C,1.5000*%
%ADD22R,5.5000X1.0000*%
%ADD23R,3.0000X1.6000*%
%ADD24R,0.7000X1.8000*%
%ADD25R,1.2000X2.0000*%
%ADD26MACRO1,0.54X0.7901X90.0000*%
%ADD27MACRO1,0.54X0.7901X0.0000*%
%ADD28R,0.5400X0.7901*%
%ADD29R,0.8000X0.8640*%
%ADD30R,0.8000X0.8000*%
%ADD31MACRO1,0.54X0.5656X90.0000*%
%ADD32R,0.6000X0.9000*%
%ADD33R,0.9000X0.6000*%
%ADD34R,1.2000X1.4000*%
%ADD35R,0.8000X0.9000*%
%ADD36MACRO1,0.54X0.7901X-90.0000*%
%ADD37R,1.8000X0.7000*%
%ADD38R,2.0000X1.2000*%
%ADD39R,1.6000X0.6000*%
%ADD40R,0.6000X1.6000*%
%ADD41MACRO1,0.54X0.5656X0.0000*%
%ADD42R,0.5400X0.5657*%
%ADD43MACRO1,0.54X0.5656X-90.0000*%
%ADD44R,2.5000X1.1000*%
%ADD45MACRO1,3.6X2.34X-90.0000*%
%ADD46O,2.1999956000000003X0.7999984*%
%ADD47O,1.499997X0.27000199999999996*%
%ADD48O,0.27000199999999996X1.499997*%
%ADD49C,0.4500*%
%ADD50C,0.5500*%
%ADD51C,0.7000*%
%ADD52C,0.6500*%
%ADD53C,0.0128*%

%LPD*%
G36*
X3014116Y2514600D02*
G01*
X3010204Y2515362D01*
X3006902Y2517597D01*
X2909011Y2615488D01*
X2907284Y2616200D01*
X2829560Y2616200D01*
X2825648Y2616962D01*
X2822397Y2619197D01*
X2820162Y2622448D01*
X2819400Y2626360D01*
X2819400Y2662783D01*
X2820162Y2666695D01*
X2822397Y2669997D01*
X3006902Y2854502D01*
X3010204Y2856738D01*
X3014116Y2857500D01*
X3158083Y2857500D01*
X3161995Y2856738D01*
X3165297Y2854502D01*
X3199688Y2820111D01*
X3201416Y2819400D01*
X3558540Y2819400D01*
X3562451Y2818638D01*
X3565702Y2816402D01*
X3567937Y2813151D01*
X3568700Y2809240D01*
X3568700Y2753360D01*
X3567937Y2749448D01*
X3565702Y2746197D01*
X3562451Y2743962D01*
X3558540Y2743200D01*
X3214116Y2743200D01*
X3212388Y2742488D01*
X3099511Y2629611D01*
X3098800Y2627884D01*
X3098800Y2524760D01*
X3098038Y2520848D01*
X3095802Y2517597D01*
X3092551Y2515362D01*
X3088640Y2514600D01*
G37*

%LPD*%
G36*
X80416Y2324100D02*
G01*
X76504Y2324862D01*
X73202Y2327097D01*
X28905Y2371394D01*
X26670Y2374696D01*
X25908Y2378608D01*
X25908Y2458720D01*
X26466Y2461971D01*
X27990Y2464866D01*
X30429Y2467152D01*
X99060Y2512872D01*
X101752Y2514142D01*
X104698Y2514600D01*
X497840Y2514600D01*
X501751Y2513838D01*
X505002Y2511602D01*
X507238Y2508351D01*
X508000Y2504440D01*
X508000Y2334260D01*
X507238Y2330348D01*
X505002Y2327097D01*
X501751Y2324862D01*
X497840Y2324100D01*
G37*

%LPD*%
G36*
X3324860Y2286000D02*
G01*
X3320948Y2286762D01*
X3317697Y2288997D01*
X3315462Y2292248D01*
X3314700Y2296160D01*
X3314700Y2437384D01*
X3313988Y2439111D01*
X3239211Y2513888D01*
X3237484Y2514600D01*
X3172460Y2514600D01*
X3168548Y2515362D01*
X3165297Y2517597D01*
X3163062Y2520848D01*
X3162300Y2524760D01*
X3162300Y2606040D01*
X3163062Y2609951D01*
X3165297Y2613202D01*
X3168548Y2615438D01*
X3172460Y2616200D01*
X3250184Y2616200D01*
X3251911Y2616911D01*
X3299002Y2664002D01*
X3302304Y2666238D01*
X3306216Y2667000D01*
X3558540Y2667000D01*
X3562451Y2666238D01*
X3565702Y2664002D01*
X3567937Y2660751D01*
X3568700Y2656840D01*
X3568700Y2417216D01*
X3567937Y2413304D01*
X3565702Y2410002D01*
X3556711Y2401011D01*
X3556000Y2399284D01*
X3556000Y2296160D01*
X3555237Y2292248D01*
X3553002Y2288997D01*
X3549751Y2286762D01*
X3545840Y2286000D01*
G37*

%LPD*%
G36*
X708660Y1892300D02*
G01*
X704748Y1893062D01*
X701497Y1895297D01*
X699262Y1898548D01*
X698500Y1902460D01*
X698500Y2021839D01*
X699262Y2025751D01*
X701497Y2029002D01*
X704748Y2031238D01*
X708660Y2032000D01*
X942340Y2032000D01*
X946251Y2031238D01*
X949502Y2029002D01*
X951737Y2025751D01*
X952500Y2021839D01*
X952500Y1965960D01*
X951737Y1962048D01*
X949502Y1958797D01*
X946251Y1956562D01*
X942340Y1955800D01*
X864616Y1955800D01*
X862888Y1955088D01*
X826211Y1918411D01*
X825500Y1916684D01*
X825500Y1902460D01*
X824737Y1898548D01*
X822502Y1895297D01*
X819251Y1893062D01*
X815340Y1892300D01*
G37*

%LPD*%
G36*
X3020060Y1612900D02*
G01*
X3016148Y1613662D01*
X3012897Y1615897D01*
X3010662Y1619148D01*
X3009900Y1623060D01*
X3009900Y1684883D01*
X3010662Y1688795D01*
X3012897Y1692097D01*
X3248202Y1927402D01*
X3251504Y1929638D01*
X3255416Y1930400D01*
X3545840Y1930400D01*
X3549751Y1929638D01*
X3553002Y1927402D01*
X3555237Y1924151D01*
X3556000Y1920239D01*
X3556000Y1838960D01*
X3555237Y1835048D01*
X3553002Y1831797D01*
X3549751Y1829562D01*
X3545840Y1828800D01*
X3315715Y1828800D01*
X3313988Y1828088D01*
X3101797Y1615897D01*
X3098495Y1613662D01*
X3094583Y1612900D01*
G37*

%LPD*%
G36*
X721360Y1536700D02*
G01*
X717448Y1537462D01*
X714197Y1539697D01*
X711962Y1542948D01*
X711200Y1546860D01*
X711200Y1624584D01*
X710488Y1626311D01*
X701497Y1635302D01*
X699262Y1638604D01*
X698500Y1642516D01*
X698500Y1801774D01*
X699008Y1804924D01*
X700430Y1807768D01*
X702716Y1810004D01*
X708456Y1814169D01*
X711250Y1815592D01*
X714400Y1816100D01*
X815340Y1816100D01*
X819251Y1815338D01*
X822502Y1813102D01*
X824737Y1809851D01*
X825500Y1805939D01*
X825500Y1791716D01*
X826211Y1789988D01*
X888288Y1727911D01*
X890016Y1727200D01*
X942340Y1727200D01*
X946251Y1726438D01*
X949502Y1724202D01*
X951737Y1720951D01*
X952500Y1717039D01*
X952500Y1673860D01*
X951737Y1669948D01*
X949502Y1666697D01*
X946251Y1664462D01*
X942340Y1663700D01*
X902716Y1663700D01*
X900988Y1662988D01*
X800811Y1562811D01*
X800100Y1561084D01*
X800100Y1546860D01*
X799338Y1542948D01*
X797102Y1539697D01*
X793851Y1537462D01*
X789940Y1536700D01*
G37*

%LPD*%
G36*
X607060Y1536700D02*
G01*
X603148Y1537462D01*
X599897Y1539697D01*
X597662Y1542948D01*
X596900Y1546860D01*
X596900Y1586484D01*
X596188Y1588211D01*
X523697Y1660702D01*
X521462Y1664004D01*
X520700Y1667916D01*
X520700Y1805939D01*
X521462Y1809851D01*
X523697Y1813102D01*
X526948Y1815338D01*
X530860Y1816100D01*
X637540Y1816100D01*
X641451Y1815338D01*
X644702Y1813102D01*
X646938Y1809851D01*
X647700Y1805939D01*
X647700Y1626616D01*
X648411Y1624888D01*
X682294Y1591005D01*
X684530Y1587703D01*
X685292Y1583791D01*
X685292Y1546860D01*
X684530Y1542948D01*
X682294Y1539697D01*
X679043Y1537462D01*
X675132Y1536700D01*
G37*

%LPD*%
G36*
X118516Y1524000D02*
G01*
X114604Y1524762D01*
X111302Y1526997D01*
X41097Y1597202D01*
X38862Y1600504D01*
X38100Y1604416D01*
X38100Y1812340D01*
X38709Y1815846D01*
X40538Y1818944D01*
X111252Y1901443D01*
X114706Y1904085D01*
X118973Y1905000D01*
X167640Y1905000D01*
X171551Y1904238D01*
X174802Y1902002D01*
X177038Y1898751D01*
X177800Y1894839D01*
X177800Y1534160D01*
X177038Y1530248D01*
X174802Y1526997D01*
X171551Y1524762D01*
X167640Y1524000D01*
G37*

%LPD*%
G36*
X276860Y1397000D02*
G01*
X272948Y1397762D01*
X269697Y1399997D01*
X267462Y1403248D01*
X266700Y1407160D01*
X266700Y1484884D01*
X265988Y1486611D01*
X231597Y1521002D01*
X229362Y1524304D01*
X228600Y1528216D01*
X228600Y1894839D01*
X229362Y1898751D01*
X231597Y1902002D01*
X234848Y1904238D01*
X238760Y1905000D01*
X281940Y1905000D01*
X285851Y1904238D01*
X289102Y1902002D01*
X291338Y1898751D01*
X292100Y1894839D01*
X292100Y1652016D01*
X292506Y1650695D01*
X329387Y1626158D01*
X330708Y1625600D01*
X408940Y1625600D01*
X412851Y1624838D01*
X416102Y1622602D01*
X418338Y1619351D01*
X419100Y1615440D01*
X419100Y1546860D01*
X418338Y1542948D01*
X416102Y1539697D01*
X412851Y1537462D01*
X408940Y1536700D01*
X369316Y1536700D01*
X367588Y1535988D01*
X330911Y1499311D01*
X330200Y1497584D01*
X330200Y1407160D01*
X329438Y1403248D01*
X327202Y1399997D01*
X323951Y1397762D01*
X320040Y1397000D01*
G37*

%LPD*%
G36*
X2899816Y1333500D02*
G01*
X2895904Y1334262D01*
X2892602Y1336497D01*
X2835097Y1394002D01*
X2832862Y1397304D01*
X2832100Y1401216D01*
X2832100Y1535684D01*
X2831388Y1537411D01*
X2720797Y1648002D01*
X2718562Y1651304D01*
X2717800Y1655216D01*
X2717800Y1853184D01*
X2717088Y1854911D01*
X2542997Y2029002D01*
X2540762Y2032304D01*
X2540000Y2036216D01*
X2540000Y2120900D01*
X2347772Y2120900D01*
X2343912Y2121662D01*
X2340660Y2123795D01*
X2338425Y2127046D01*
X2337612Y2130907D01*
X2338273Y2134768D01*
X2340406Y2138070D01*
X2562402Y2371750D01*
X2565755Y2374087D01*
X2569768Y2374900D01*
X2782163Y2374900D01*
X2786075Y2374138D01*
X2789377Y2371902D01*
X2790037Y2370937D01*
X2805988Y2386888D01*
X2806700Y2388616D01*
X2806700Y2491740D01*
X2807462Y2495651D01*
X2809697Y2498902D01*
X2812948Y2501138D01*
X2816860Y2501900D01*
X2904083Y2501900D01*
X2907995Y2501138D01*
X2911297Y2498902D01*
X3021888Y2388311D01*
X3023616Y2387600D01*
X3081883Y2387600D01*
X3085795Y2386838D01*
X3089097Y2384602D01*
X3313988Y2159711D01*
X3315715Y2159000D01*
X3545840Y2159000D01*
X3549751Y2158238D01*
X3553002Y2156002D01*
X3555237Y2152751D01*
X3556000Y2148840D01*
X3556000Y2054860D01*
X3555237Y2050948D01*
X3553002Y2047697D01*
X3549751Y2045462D01*
X3545840Y2044700D01*
X3239516Y2044700D01*
X3237788Y2043988D01*
X2959811Y1766011D01*
X2959100Y1764284D01*
X2959100Y1486916D01*
X2959709Y1485239D01*
X3083204Y1350518D01*
X3085236Y1347216D01*
X3085846Y1343355D01*
X3084982Y1339545D01*
X3082798Y1336395D01*
X3079546Y1334262D01*
X3075686Y1333500D01*
G37*

%LPD*%
G36*
X2423160Y1079500D02*
G01*
X2419248Y1080262D01*
X2415997Y1082497D01*
X2413762Y1085748D01*
X2413000Y1089660D01*
X2413000Y1170940D01*
X2413762Y1174851D01*
X2415997Y1178102D01*
X2419248Y1180338D01*
X2423160Y1181100D01*
X2524912Y1181100D01*
X2529433Y1180033D01*
X2551633Y1168908D01*
X2553868Y1168400D01*
X2618740Y1168400D01*
X2622651Y1167638D01*
X2625902Y1165402D01*
X2628138Y1162151D01*
X2628900Y1158240D01*
X2628900Y1089660D01*
X2628138Y1085748D01*
X2625902Y1082497D01*
X2622651Y1080262D01*
X2618740Y1079500D01*
G37*

%LPD*%
G36*
X1883816Y1054100D02*
G01*
X1879904Y1054862D01*
X1876602Y1057097D01*
X1870252Y1063447D01*
X1867916Y1067206D01*
X1867357Y1071626D01*
X1867814Y1076096D01*
X1867814Y1125728D01*
X1869186Y1137513D01*
X1869439Y1204874D01*
X1870202Y1208735D01*
X1872437Y1212037D01*
X1876602Y1216202D01*
X1879904Y1218438D01*
X1883816Y1219200D01*
X1926183Y1219200D01*
X1930095Y1218438D01*
X1933397Y1216202D01*
X1936699Y1212900D01*
X1939086Y1209141D01*
X1939645Y1204722D01*
X1938985Y1198118D01*
X1938985Y1076096D01*
X1939747Y1068679D01*
X1939188Y1064260D01*
X1936800Y1060500D01*
X1933397Y1057097D01*
X1930095Y1054862D01*
X1926183Y1054100D01*
G37*

%LPD*%
G36*
X2321560Y927100D02*
G01*
X2317648Y927862D01*
X2314397Y930097D01*
X2312162Y933348D01*
X2311400Y937260D01*
X2311400Y1014984D01*
X2310688Y1016711D01*
X2276297Y1051102D01*
X2274062Y1054404D01*
X2273300Y1058316D01*
X2273300Y1170940D01*
X2274062Y1174851D01*
X2276297Y1178102D01*
X2279548Y1180338D01*
X2283460Y1181100D01*
X2352040Y1181100D01*
X2355951Y1180338D01*
X2359202Y1178102D01*
X2361438Y1174851D01*
X2362200Y1170940D01*
X2362200Y1055116D01*
X2362911Y1053388D01*
X2399588Y1016711D01*
X2401316Y1016000D01*
X2491740Y1016000D01*
X2495651Y1015237D01*
X2498902Y1013002D01*
X2501138Y1009751D01*
X2501900Y1005840D01*
X2501900Y937260D01*
X2501138Y933348D01*
X2498902Y930097D01*
X2495651Y927862D01*
X2491740Y927100D01*
G37*

%LPD*%
G36*
X2156460Y825500D02*
G01*
X2152548Y826262D01*
X2149297Y828497D01*
X2147062Y831748D01*
X2146300Y835660D01*
X2146300Y993140D01*
X2147062Y997051D01*
X2149297Y1000302D01*
X2152548Y1002537D01*
X2156460Y1003300D01*
X2212340Y1003300D01*
X2216251Y1002537D01*
X2219502Y1000302D01*
X2221738Y997051D01*
X2222500Y993140D01*
X2222500Y835660D01*
X2221738Y831748D01*
X2219502Y828497D01*
X2216251Y826262D01*
X2212340Y825500D01*
G37*

%LPD*%
G36*
X2042160Y825500D02*
G01*
X2038248Y826262D01*
X2034997Y828497D01*
X2032762Y831748D01*
X2032000Y835660D01*
X2032000Y993140D01*
X2032762Y997051D01*
X2034997Y1000302D01*
X2038248Y1002537D01*
X2042160Y1003300D01*
X2110232Y1003300D01*
X2114143Y1002537D01*
X2117394Y1000302D01*
X2119630Y997051D01*
X2120392Y993140D01*
X2120392Y835660D01*
X2119630Y831748D01*
X2117394Y828497D01*
X2114143Y826262D01*
X2110232Y825500D01*
G37*

%LPD*%
G36*
X2379675Y736600D02*
G01*
X2375357Y737565D01*
X2371852Y740257D01*
X2313736Y809955D01*
X2312009Y813003D01*
X2311400Y816457D01*
X2311400Y891032D01*
X2312162Y894943D01*
X2314397Y898194D01*
X2317648Y900430D01*
X2321560Y901192D01*
X2501341Y901192D01*
X2506421Y901700D01*
X2526284Y901700D01*
X2527808Y902106D01*
X2576982Y938987D01*
X2578100Y940816D01*
X2578100Y1043432D01*
X2578862Y1047343D01*
X2581097Y1050594D01*
X2584348Y1052830D01*
X2588260Y1053592D01*
X2618740Y1053592D01*
X2622651Y1052830D01*
X2625902Y1050594D01*
X2628138Y1047343D01*
X2628900Y1043432D01*
X2628900Y893673D01*
X2627985Y889406D01*
X2625344Y885952D01*
X2453944Y739038D01*
X2450846Y737209D01*
X2447340Y736600D01*
G37*

%LPD*%
G36*
X3035858Y729742D02*
G01*
X3031642Y731113D01*
X3028442Y734212D01*
X2984144Y800455D01*
X2898597Y886002D01*
X2896362Y889304D01*
X2895600Y893216D01*
X2895600Y942340D01*
X2896362Y946251D01*
X2898597Y949502D01*
X2901848Y951737D01*
X2905760Y952500D01*
X2996184Y952500D01*
X2997911Y953211D01*
X3019602Y974902D01*
X3022904Y977137D01*
X3026816Y977900D01*
X3202940Y977900D01*
X3206851Y977137D01*
X3210102Y974902D01*
X3212338Y971651D01*
X3213100Y967740D01*
X3213100Y905916D01*
X3212338Y902004D01*
X3210102Y898702D01*
X3044088Y732688D01*
X3040278Y730300D01*
G37*

%LPD*%
G36*
X1325016Y584200D02*
G01*
X1321104Y584962D01*
X1317802Y587197D01*
X1234897Y670102D01*
X1232662Y673404D01*
X1231900Y677316D01*
X1231900Y751840D01*
X1232662Y755751D01*
X1234897Y759002D01*
X1238148Y761238D01*
X1242060Y762000D01*
X1272540Y762000D01*
X1276451Y761238D01*
X1279702Y759002D01*
X1281938Y755751D01*
X1282700Y751840D01*
X1282700Y699516D01*
X1283411Y697788D01*
X1307388Y673811D01*
X1309116Y673100D01*
X1437640Y673100D01*
X1441551Y672338D01*
X1444802Y670102D01*
X1447038Y666851D01*
X1447800Y662940D01*
X1447800Y594360D01*
X1447038Y590448D01*
X1444802Y587197D01*
X1441551Y584962D01*
X1437640Y584200D01*
G37*

%LPD*%
G36*
X1546860Y457200D02*
G01*
X1542948Y457962D01*
X1539697Y460197D01*
X1537462Y463448D01*
X1536700Y467359D01*
X1536700Y554583D01*
X1537462Y558495D01*
X1539697Y561797D01*
X1548688Y570788D01*
X1549400Y572516D01*
X1549400Y662940D01*
X1550162Y666851D01*
X1552397Y670102D01*
X1555648Y672338D01*
X1559560Y673100D01*
X1615440Y673100D01*
X1619351Y672338D01*
X1622602Y670102D01*
X1624838Y666851D01*
X1625600Y662940D01*
X1625600Y563016D01*
X1624838Y559104D01*
X1622602Y555802D01*
X1588211Y521411D01*
X1587500Y519684D01*
X1587500Y467359D01*
X1586738Y463448D01*
X1584502Y460197D01*
X1581251Y457962D01*
X1577340Y457200D01*
G37*

%LPD*%
G36*
X2854960Y406400D02*
G01*
X2851048Y407162D01*
X2847797Y409397D01*
X2845562Y412648D01*
X2844800Y416559D01*
X2844800Y608584D01*
X2844088Y610311D01*
X2835097Y619302D01*
X2832862Y622604D01*
X2832100Y626516D01*
X2832100Y643483D01*
X2832862Y647395D01*
X2835097Y650697D01*
X2854502Y670102D01*
X2857804Y672338D01*
X2861716Y673100D01*
X2932684Y673100D01*
X2934411Y673811D01*
X2956102Y695502D01*
X2959404Y697738D01*
X2963316Y698500D01*
X3037840Y698500D01*
X3041751Y697738D01*
X3045002Y695502D01*
X3047238Y692251D01*
X3048000Y688340D01*
X3048000Y537616D01*
X3047238Y533704D01*
X3045002Y530402D01*
X2923997Y409397D01*
X2920695Y407162D01*
X2916783Y406400D01*
G37*

%LPD*%
D10*
X210820Y1422400D02*
G01*
X210820Y1351279D01*
X241300Y1320800D01*
X444500Y1320800D01*
D11*
X1878329Y1987042D02*
G01*
X1878329Y2170429D01*
X1968500Y2260600D01*
X1968500Y2717800D01*
X1879600Y2806700D01*
X1879600Y2873502D01*
D12*
X2028443Y1987042D02*
G01*
X2028443Y2079244D01*
X2057400Y2108200D01*
X2057400Y2146300D01*
X2082800Y2171700D01*
X2082800Y2540000D01*
X2466340Y2923286D01*
X2466340Y3119628D01*
D11*
X1978406Y1987042D02*
G01*
X1978406Y2072894D01*
X1955800Y2095500D01*
X1955800Y2120900D01*
X1678431Y1987042D02*
G01*
X1678431Y2072131D01*
X1694179Y2087879D01*
X1694179Y2204720D01*
X1638300Y2260600D01*
X1638300Y2260600D02*
G01*
X1638300Y2362200D01*
X1645920Y2362200D01*
D13*
X2870200Y635000D02*
G01*
X2895600Y609600D01*
X2895600Y419100D01*
X2730500Y254000D01*
X2628900Y254000D01*
X2578100Y304800D01*
X2133600Y304800D01*
X2082800Y254000D01*
X1892300Y254000D01*
X1841500Y317500D01*
X1295400Y317500D01*
X1295400Y419100D01*
D14*
X3009900Y850900D02*
G01*
X3009900Y698500D01*
X2946400Y635000D01*
X2870200Y635000D01*
D15*
X2603500Y2108200D02*
G01*
X2349500Y2108200D01*
X1955800Y1714500D01*
X1955800Y1638300D01*
X1892300Y1574800D01*
X1676400Y1574800D01*
X1524000Y1727200D01*
X1524000Y1778000D01*
D16*
X2387600Y1946910D02*
G01*
X2387600Y2006600D01*
X2311400Y2070100D01*
D11*
X1828292Y1987042D02*
G01*
X1828292Y2070607D01*
X1803400Y2095500D01*
X1803400Y2413000D01*
X1765300Y2451100D01*
X1485900Y2451100D01*
X1371600Y2565400D01*
X1371600Y2794000D01*
X1292097Y2873502D01*
X863600Y2873502D01*
D12*
X2566161Y3119628D02*
G01*
X2566161Y2832862D01*
X2197100Y2463800D01*
X2197100Y2159000D01*
X2078481Y2040381D01*
X2078481Y1987042D01*
D16*
X3479800Y1181100D02*
G01*
X3314700Y1181100D01*
D17*
X2921000Y1363979D02*
G01*
X3258820Y1363979D01*
X3314700Y1308100D01*
X3314700Y977900D01*
X3278886Y942086D01*
X3119627Y942086D01*
D15*
X1843786Y525271D02*
G01*
X1841500Y317500D01*
D16*
X1732384Y2362200D02*
G01*
X1739900Y2354684D01*
X1739900Y2260600D01*
D11*
X1628394Y1987042D02*
G01*
X1628394Y2130805D01*
X1485900Y2273300D01*
X1206500Y2273300D01*
X1135379Y2344420D01*
X1135379Y2387600D01*
D16*
X1295400Y2336800D02*
G01*
X1295400Y2362200D01*
X1270000Y2387600D01*
X1224279Y2387600D01*
D18*
X1295400Y2112010D02*
G01*
X1295400Y2159000D01*
X1270000Y2184400D01*
D11*
X1378457Y1787144D02*
G01*
X1298955Y1787144D01*
X1257300Y1828800D01*
X1257300Y1854200D01*
X1181100Y1930400D01*
X1181100Y2108200D01*
X1041400Y2247900D01*
X914400Y2247900D01*
X749300Y2413000D01*
X703579Y2413000D01*
D16*
X1993900Y355600D02*
G01*
X2043887Y405587D01*
X2043887Y525195D01*
D19*
X2228341Y1687068D02*
G01*
X2349500Y1689100D01*
D11*
X2228392Y1487093D02*
G01*
X2107006Y1487093D01*
X2082800Y1511300D01*
D19*
X2228392Y1637106D02*
G01*
X2107006Y1637106D01*
X2095500Y1625600D01*
X2095500Y1714500D02*
G01*
X2118106Y1737105D01*
X2228392Y1737105D01*
D16*
X368300Y1079500D02*
G01*
X369900Y1077899D01*
X542899Y1077899D01*
D15*
X2743200Y2819400D02*
G01*
X2743200Y2946400D01*
X2766313Y2974086D01*
X2766313Y3119628D01*
D16*
X2387600Y1837791D02*
G01*
X2391308Y1841500D01*
X2463800Y1841500D01*
D18*
X2692400Y1016000D02*
G01*
X2692400Y1066800D01*
X2637790Y1121410D01*
X2603500Y1121410D01*
D12*
X1878329Y1137157D02*
G01*
X1905000Y1163573D01*
X1905000Y1257300D01*
X1943100Y1295400D01*
X2070100Y1295400D01*
X2235200Y1130300D01*
X2317495Y1130300D01*
D19*
X2188209Y977900D02*
G01*
X2184400Y981710D01*
X2184400Y1003300D01*
X2078481Y1109218D01*
X2078481Y1137157D01*
D11*
X1587245Y791210D02*
G01*
X1731010Y791210D01*
X1816100Y876300D01*
X1816100Y1016000D01*
X1778507Y1053592D01*
X1778507Y1137157D01*
D18*
X1422400Y2111908D02*
G01*
X1494891Y2111908D01*
X1498600Y2108200D01*
D12*
X1528396Y1987090D02*
G01*
X1528396Y1782396D01*
X1524000Y1778000D01*
D11*
X2228341Y1387094D02*
G01*
X2314193Y1387094D01*
X2349500Y1422400D01*
X2552700Y1422400D01*
X2590800Y1384300D01*
X2590800Y1282700D01*
X2819400Y1054100D01*
X2819400Y853947D01*
X2767075Y801623D01*
X2767075Y542797D01*
D16*
X3187700Y647700D02*
G01*
X3213100Y673100D01*
X3298291Y673100D01*
X3505200Y673100D02*
G01*
X3407308Y673100D01*
X3407308Y673100D01*
D11*
X1728470Y1137157D02*
G01*
X1728470Y928370D01*
X1689100Y889000D01*
X1460500Y889000D01*
X1409445Y837945D01*
X1409445Y791210D01*
X542797Y977900D02*
G01*
X812800Y977900D01*
X1016000Y1181100D01*
X1130300Y1181100D01*
X1286255Y1337055D01*
X1378457Y1337055D01*
D12*
X2679700Y381000D02*
G01*
X2667000Y393700D01*
X2667000Y542899D01*
D18*
X1512879Y3073400D02*
G01*
X1879600Y3073400D01*
X1229850Y3073400D02*
G01*
X863600Y3073400D01*
X3302000Y1727200D02*
G01*
X3302000Y1638300D01*
X3310892Y1638300D01*
X3416300Y1727200D02*
G01*
X3416300Y1638300D01*
X3407308Y1638300D01*
D11*
X3119627Y1042162D02*
G01*
X3010661Y1042162D01*
X2976879Y1008379D01*
X2921000Y1008379D01*
X2921000Y1277518D02*
G01*
X2956331Y1242187D01*
X3119709Y1242187D01*
X2228390Y1587091D02*
G01*
X2642008Y1587091D01*
X2755900Y1473200D01*
X2755900Y1333500D01*
X2811881Y1277518D01*
X2921000Y1277518D01*
D16*
X673100Y1854200D02*
G01*
X760603Y1941703D01*
X760603Y1964207D01*
X585622Y1744192D02*
G01*
X585622Y1766722D01*
X673100Y1854200D01*
D11*
X585723Y1964181D02*
G01*
X585723Y2058923D01*
X635000Y2108200D01*
X977900Y2108200D01*
X1016000Y2070100D01*
X1016000Y1917700D01*
X986789Y1888489D01*
X927100Y1888489D01*
X1378407Y1587093D02*
G01*
X1206906Y1587093D01*
X1092200Y1701800D01*
X1008481Y1701800D01*
X1378457Y1637029D02*
G01*
X1271270Y1637029D01*
X1117600Y1790700D01*
X974852Y1790700D01*
X929386Y1836165D01*
X927100Y1888489D01*
D12*
X1378409Y1837103D02*
G01*
X1378409Y1899109D01*
X1384300Y1905000D01*
D11*
X1378457Y1737105D02*
G01*
X1260094Y1737105D01*
X1092200Y1905000D01*
X1092200Y2082800D01*
X1003300Y2171700D01*
X850900Y2171700D01*
X736600Y2286000D01*
X703579Y2286000D01*
D12*
X1828292Y1137157D02*
G01*
X1828800Y1282700D01*
X2228392Y1787093D02*
G01*
X2336901Y1787093D01*
X2387600Y1837791D01*
X2688640Y2463444D02*
G01*
X2679700Y2472385D01*
X2679700Y2578100D01*
X2743200Y2641600D01*
X2763418Y2641600D01*
D16*
X2019300Y762000D02*
G01*
X2032000Y762000D01*
X2079091Y809091D01*
X2079091Y850900D01*
D11*
X2228341Y1537207D02*
G01*
X2311400Y1536700D01*
X2324100Y1524000D01*
X2578100Y1524000D01*
X2679700Y1422400D01*
X2679700Y1308100D01*
X2921000Y1066800D01*
X2921000Y1008379D01*
X2228390Y1287096D02*
G01*
X2319703Y1287096D01*
X2336800Y1270000D01*
X2228390Y1337109D02*
G01*
X2409390Y1337109D01*
X2413000Y1333500D01*
X2228390Y1437109D02*
G01*
X2084809Y1437109D01*
X2082800Y1435100D01*
X2565400Y711200D02*
G01*
X2565400Y698649D01*
X2567000Y697049D01*
X2567000Y542899D01*
D16*
X990600Y530199D02*
G01*
X990600Y368300D01*
D11*
X1528394Y1137107D02*
G01*
X1528394Y1096594D01*
X1498600Y1066800D01*
X1143000Y1066800D01*
X890600Y814400D01*
X890600Y530199D01*
X1628394Y1137107D02*
G01*
X1628394Y1254505D01*
X1600200Y1282700D01*
X1678406Y1137107D02*
G01*
X1678406Y1043406D01*
X1651000Y1016000D01*
X1378407Y1387094D02*
G01*
X1267205Y1387094D01*
X1244600Y1409700D01*
X1378457Y1487170D02*
G01*
X1511300Y1485900D01*
D18*
X863600Y3273399D02*
G01*
X1228699Y3273399D01*
X1231900Y3276600D01*
X1511300Y3276600D02*
G01*
X1514500Y3273399D01*
X1879600Y3273399D01*
D11*
X2222500Y647700D02*
G01*
X2222500Y546100D01*
X2201672Y525271D01*
X2143759Y525271D01*
X1578355Y1137157D02*
G01*
X1578355Y1044955D01*
X1511300Y977900D01*
X1193800Y977900D01*
X1090676Y874776D01*
X1090676Y530097D01*
D12*
X1257300Y817981D02*
G01*
X1257300Y889000D01*
X1231900Y914400D01*
X1358900Y482600D02*
G01*
X1468018Y482600D01*
X2028393Y1137107D02*
G01*
X2028393Y1028598D01*
X2079091Y977900D01*
D11*
X1978406Y1137157D02*
G01*
X1978406Y1051305D01*
X1943861Y1016762D01*
X1943861Y525271D01*
X1378457Y1537207D02*
G01*
X1295907Y1537207D01*
X1270000Y1511300D01*
X952500Y1511300D01*
X889000Y1447800D01*
X508000Y1447800D01*
X393700Y1562100D01*
X393700Y1583689D01*
D20*
X2184400Y850900D02*
G01*
X2184400Y787400D01*
X2222500Y749300D01*
X2260600Y749300D01*
X2311400Y698500D01*
X2311400Y304800D01*
D10*
X533400Y787400D02*
G01*
X457454Y710945D01*
D18*
X1295400Y317500D02*
G01*
X1130300Y317500D01*
X1066800Y254000D01*
X914400Y254000D01*
X368300Y800100D01*
X368300Y1206500D01*
X444500Y1282700D01*
X444500Y1409700D01*
D10*
X2228341Y1837181D02*
G01*
X2338070Y1946910D01*
X2387600Y1946910D01*
X1384300Y1905000D02*
G01*
X1333500Y1905000D01*
X1295400Y1943100D01*
X1295400Y2002789D01*
X1528318Y1987042D02*
G01*
X1480057Y1987042D01*
X1464310Y2002789D01*
X1422400Y2002789D01*
D12*
X1578355Y1987042D02*
G01*
X1578355Y2079244D01*
X1549400Y2108200D01*
X1498600Y2108200D01*
D11*
X1778507Y1987042D02*
G01*
X1778507Y1879092D01*
X1803400Y1854200D01*
X1803400Y1689100D01*
X1828800Y1663700D01*
X1928368Y1987042D02*
G01*
X1928368Y1877821D01*
X1905000Y1854200D01*
D20*
X2666238Y3119120D02*
G01*
X2666238Y3251962D01*
X2654300Y3263900D01*
D11*
X1728470Y1987042D02*
G01*
X1728470Y1893570D01*
X1714500Y1879600D01*
X1714500Y1854200D01*
D21*
X2603500Y2108200D02*
G01*
X2839974Y2108200D01*
D15*
X2603500Y2108200D02*
G01*
X2565400Y2146300D01*
X2565400Y2641600D01*
X2743200Y2819400D01*
X2857500Y2819400D01*
X2870200Y2806700D01*
D12*
X2971800Y1143000D02*
G01*
X3119627Y1142237D01*
D18*
X723900Y825500D02*
G01*
X671573Y877826D01*
X542800Y877826D01*
D12*
X617118Y2413000D02*
G01*
X617118Y2519781D01*
X539394Y2597505D01*
X467487Y2597505D01*
X617118Y2286000D02*
G01*
X617118Y2280818D01*
X577494Y2241194D01*
X467512Y2241194D01*
D18*
X167512Y2241194D02*
G01*
X467512Y2241194D01*
X167487Y2597505D02*
G01*
X467487Y2597505D01*
X393700Y1692808D02*
G01*
X393700Y1778000D01*
X381000Y1790700D01*
D22*
G01*
X863600Y3073400D03*
G01*
X863600Y3273399D03*
G01*
X863600Y2873400D03*
D23*
G01*
X1088593Y3523386D03*
G01*
X1088593Y2623388D03*
D22*
G01*
X1879600Y3073400D03*
G01*
X1879600Y2873400D03*
G01*
X1879600Y3273399D03*
D23*
G01*
X1654606Y2623388D03*
G01*
X1654606Y3523386D03*
D24*
G01*
X2766212Y3119704D03*
G01*
X2666212Y3119704D03*
G01*
X2566212Y3119704D03*
D25*
G01*
X2336190Y3509695D03*
G01*
X2896209Y3509695D03*
D24*
G01*
X2466213Y3119704D03*
D26*
G01*
X3407305Y1638300D03*
G01*
X3298294Y1638300D03*
G01*
X3407305Y673100D03*
G01*
X3298294Y673100D03*
G01*
X2188105Y850900D03*
G01*
X2079094Y850900D03*
D27*
G01*
X2387600Y1946805D03*
D28*
G01*
X2387600Y1837791D03*
D27*
G01*
X1422400Y2002894D03*
D28*
G01*
X1422400Y2111908D03*
D27*
G01*
X1295400Y2002894D03*
D28*
G01*
X1295400Y2111908D03*
D26*
G01*
X2188105Y977900D03*
G01*
X2079094Y977900D03*
D29*
G01*
X2317597Y1130300D03*
G01*
X2457602Y1130300D03*
D30*
G01*
X1410055Y631240D03*
G01*
X1409344Y791133D03*
G01*
X1587855Y631240D03*
G01*
X1587144Y791133D03*
G01*
X2688640Y2463444D03*
G01*
X2848533Y2464155D03*
D31*
G01*
X297282Y1422400D03*
G01*
X210717Y1422400D03*
D32*
G01*
X260705Y1864487D03*
G01*
X145694Y1864487D03*
G01*
X145694Y1564487D03*
G01*
X260705Y1564487D03*
D33*
G01*
X167512Y2597505D03*
G01*
X167512Y2482494D03*
G01*
X467512Y2482494D03*
G01*
X467512Y2597505D03*
G01*
X467512Y2241194D03*
G01*
X467512Y2356205D03*
G01*
X167512Y2356205D03*
G01*
X167512Y2241194D03*
D34*
G01*
X585622Y1964207D03*
G01*
X585622Y1744192D03*
G01*
X760628Y1744192D03*
G01*
X760603Y1964207D03*
D35*
G01*
X2914497Y1651000D03*
G01*
X3054502Y1651000D03*
G01*
X3194202Y2565400D03*
G01*
X3054197Y2565400D03*
D27*
G01*
X927100Y1997605D03*
D28*
G01*
X927100Y1888591D03*
D36*
G01*
X643994Y1562100D03*
G01*
X753005Y1562100D03*
D27*
G01*
X393700Y1583794D03*
D28*
G01*
X393700Y1692808D03*
D27*
G01*
X2476500Y968905D03*
D28*
G01*
X2476500Y859891D03*
D27*
G01*
X2336800Y968905D03*
D28*
G01*
X2336800Y859891D03*
D27*
G01*
X2603500Y1121305D03*
D28*
G01*
X2603500Y1012291D03*
D37*
G01*
X3119704Y942187D03*
G01*
X3119704Y1042187D03*
G01*
X3119704Y1142187D03*
D38*
G01*
X3509695Y1372209D03*
G01*
X3509695Y812190D03*
D37*
G01*
X3119704Y1242187D03*
D38*
G01*
X142900Y1207896D03*
G01*
X142900Y747903D03*
D39*
G01*
X542899Y877900D03*
G01*
X542899Y977900D03*
G01*
X542899Y1077899D03*
D25*
G01*
X760603Y130200D03*
G01*
X1220596Y130200D03*
D40*
G01*
X1090599Y530199D03*
G01*
X990600Y530199D03*
G01*
X890600Y530199D03*
D25*
G01*
X2437002Y130200D03*
G01*
X2896997Y130200D03*
D40*
G01*
X2766999Y530199D03*
G01*
X2667000Y530199D03*
G01*
X2567000Y530199D03*
D24*
G01*
X1843887Y512495D03*
G01*
X1943887Y512495D03*
G01*
X2043887Y512495D03*
D25*
G01*
X2273909Y122504D03*
G01*
X1713890Y122504D03*
D24*
G01*
X2143886Y512495D03*
D41*
G01*
X2921000Y921917D03*
D42*
G01*
X2921000Y1008481D03*
D41*
G01*
X2921000Y1364082D03*
D42*
G01*
X2921000Y1277518D03*
D31*
G01*
X1224382Y2387600D03*
G01*
X1137817Y2387600D03*
G01*
X1732382Y2362200D03*
G01*
X1645817Y2362200D03*
G01*
X2849982Y2641600D03*
G01*
X2763417Y2641600D03*
D43*
G01*
X921917Y1701800D03*
G01*
X1008482Y1701800D03*
D44*
G01*
X3433902Y1878203D03*
G01*
X3433902Y2108200D03*
G01*
X3433902Y2338196D03*
D45*
G01*
X2839897Y2108200D03*
D31*
G01*
X703682Y2413000D03*
G01*
X617117Y2413000D03*
G01*
X703682Y2286000D03*
G01*
X617117Y2286000D03*
D41*
G01*
X1257300Y817982D03*
D42*
G01*
X1257300Y731418D03*
D43*
G01*
X1468017Y482600D03*
G01*
X1554582Y482600D03*
D46*
G01*
X3454400Y2628900D03*
G01*
X3454400Y2778912D03*
D47*
G01*
X1378407Y1837105D03*
G01*
X1378407Y1787093D03*
G01*
X1378407Y1737105D03*
G01*
X1378407Y1687093D03*
G01*
X1378407Y1637106D03*
G01*
X1378407Y1587093D03*
G01*
X1378407Y1537106D03*
G01*
X1378407Y1487093D03*
G01*
X1378407Y1437106D03*
G01*
X1378407Y1387094D03*
G01*
X1378407Y1337106D03*
G01*
X1378407Y1287094D03*
D48*
G01*
X1528394Y1137107D03*
G01*
X1578406Y1137107D03*
G01*
X1628394Y1137107D03*
G01*
X1678406Y1137107D03*
G01*
X1728393Y1137107D03*
G01*
X1778406Y1137107D03*
G01*
X1828393Y1137107D03*
G01*
X1878406Y1137107D03*
G01*
X1928393Y1137107D03*
G01*
X1978406Y1137107D03*
G01*
X2028393Y1137107D03*
G01*
X2078405Y1137107D03*
D47*
G01*
X2228392Y1287094D03*
G01*
X2228392Y1337106D03*
G01*
X2228392Y1387094D03*
G01*
X2228392Y1437106D03*
G01*
X2228392Y1487093D03*
G01*
X2228392Y1537106D03*
G01*
X2228392Y1587093D03*
G01*
X2228392Y1637106D03*
G01*
X2228392Y1687093D03*
G01*
X2228392Y1737105D03*
G01*
X2228392Y1787093D03*
G01*
X2228392Y1837105D03*
D48*
G01*
X2078405Y1987092D03*
G01*
X2028393Y1987092D03*
G01*
X1978406Y1987092D03*
G01*
X1928393Y1987092D03*
G01*
X1878406Y1987092D03*
G01*
X1828393Y1987092D03*
G01*
X1778406Y1987092D03*
G01*
X1728393Y1987092D03*
G01*
X1678406Y1987092D03*
G01*
X1628394Y1987092D03*
G01*
X1578406Y1987092D03*
G01*
X1528394Y1987092D03*
D49*
G01*
X1498600Y2108200D03*
D50*
G01*
X673100Y1854200D03*
D51*
G01*
X723900Y825500D03*
G01*
X685800Y1181100D03*
D50*
G01*
X1384300Y1905000D03*
D49*
G01*
X1828800Y1282700D03*
G01*
X2413000Y774700D03*
G01*
X2463800Y1841500D03*
D51*
G01*
X3035300Y2806700D03*
G01*
X3136900Y2806700D03*
D49*
G01*
X1714500Y1854200D03*
G01*
X1955800Y2120900D03*
G01*
X1905000Y1854200D03*
G01*
X1651000Y1816100D03*
G01*
X1866900Y1803400D03*
D51*
G01*
X3213100Y1828800D03*
D49*
G01*
X2971800Y1143000D03*
D51*
G01*
X3492500Y2489200D03*
G01*
X3365500Y2489200D03*
D49*
G01*
X3302000Y1727200D03*
G01*
X3416300Y1727200D03*
G01*
X2095500Y1625600D03*
G01*
X2095500Y1714500D03*
G01*
X2349500Y1689100D03*
G01*
X2044700Y1663700D03*
D50*
G01*
X3517900Y673100D03*
D49*
G01*
X2019300Y762000D03*
G01*
X2082800Y1511300D03*
G01*
X2082800Y1435100D03*
G01*
X2413000Y1333500D03*
G01*
X2336800Y1270000D03*
G01*
X2565400Y711200D03*
G01*
X2222500Y647700D03*
D51*
G01*
X990600Y368300D03*
D49*
G01*
X1295400Y419100D03*
G01*
X1600200Y1282700D03*
G01*
X1651000Y1016000D03*
G01*
X533400Y787400D03*
G01*
X368300Y1079500D03*
G01*
X1244600Y1409700D03*
G01*
X1511300Y1485900D03*
G01*
X1181100Y2298700D03*
G01*
X1638300Y2260600D03*
G01*
X685800Y2527300D03*
G01*
X1828800Y1663700D03*
G01*
X2654300Y3263900D03*
D51*
G01*
X1993900Y355600D03*
G01*
X2679700Y381000D03*
D52*
G01*
X2870200Y635000D03*
D49*
G01*
X2489200Y673100D03*
D51*
G01*
X1231900Y3276600D03*
G01*
X1511300Y3276600D03*
G01*
X2882900Y749300D03*
D15*
G01*
X2692400Y1016000D03*
G01*
X2870200Y2806700D03*
D49*
G01*
X3238500Y2413000D03*
G01*
X457200Y1981200D03*
D52*
G01*
X1003300Y1295400D03*
D49*
G01*
X3568700Y1739900D03*
G01*
X3568700Y1993900D03*
G01*
X3556000Y2971800D03*
G01*
X3378200Y2971800D03*
G01*
X3251200Y3086100D03*
G01*
X3048000Y3238500D03*
G01*
X3048000Y3543300D03*
G01*
X2730500Y3530600D03*
G01*
X2171700Y3556000D03*
G01*
X1892300Y3556000D03*
G01*
X1295400Y3556000D03*
G01*
X876300Y3556000D03*
G01*
X647700Y3556000D03*
G01*
X584200Y3416300D03*
G01*
X279400Y3073400D03*
G01*
X88900Y3048000D03*
G01*
X88900Y2870200D03*
G01*
X76200Y1790700D03*
G01*
X76200Y1435100D03*
G01*
X88900Y1104900D03*
G01*
X88900Y596900D03*
G01*
X266700Y584200D03*
G01*
X431800Y546100D03*
G01*
X584200Y88900D03*
G01*
X876300Y76200D03*
G01*
X1422400Y63500D03*
G01*
X1866900Y76200D03*
G01*
X2552700Y76200D03*
G01*
X2730500Y76200D03*
G01*
X2146300Y76200D03*
G01*
X3035300Y88900D03*
G01*
X3073400Y406400D03*
G01*
X3175000Y520700D03*
G01*
X3340100Y546100D03*
G01*
X3517900Y584200D03*
G01*
X3556000Y1219200D03*
G01*
X1600200Y1346200D03*
G01*
X2019300Y1435100D03*
G01*
X2044700Y1574800D03*
G01*
X1587500Y1485900D03*
G01*
X1981200Y2184400D03*
G01*
X1549400Y2362200D03*
G01*
X1168400Y2235200D03*
G01*
X1752600Y1663700D03*
G01*
X2413000Y1244600D03*
G01*
X2159000Y685800D03*
G01*
X1600200Y952500D03*
G01*
X88900Y863600D03*
G01*
X1104900Y76200D03*
G01*
X76200Y1663700D03*
G01*
X76200Y1320800D03*
G01*
X1193800Y1346200D03*
G01*
X1231900Y914400D03*
G01*
X1358900Y482600D03*
G01*
X1600200Y63500D03*
G01*
X2921000Y2933700D03*
G01*
X3060700Y2933700D03*
G01*
X2171700Y3416300D03*
G01*
X1473200Y2870200D03*
D15*
G01*
X3187700Y647700D03*
D50*
G01*
X3479800Y1181100D03*
G01*
X1524000Y1778000D03*
D49*
G01*
X1270000Y2184400D03*
D51*
G01*
X1229842Y3073400D03*
G01*
X1512874Y3073400D03*
D49*
G01*
X1295400Y2336800D03*
G01*
X1739900Y2260600D03*
D52*
G01*
X444500Y1409700D03*
D49*
G01*
X2476500Y3530600D03*
G01*
X2603500Y3530600D03*
G01*
X2006600Y76200D03*
D51*
G01*
X749300Y647700D03*
G01*
X1358900Y1155700D03*
G01*
X1816100Y1397000D03*
G01*
X1866900Y812800D03*
G01*
X165100Y977900D03*
G01*
X355600Y2057400D03*
D49*
G01*
X457200Y3111500D03*
D51*
G01*
X2260600Y2882900D03*
G01*
X2578100Y1828800D03*
G01*
X622300Y1295400D03*
D49*
G01*
X3035300Y254000D03*
G01*
X3035300Y3390900D03*
G01*
X2032000Y3556000D03*
G01*
X1435100Y3556000D03*
G01*
X762000Y3556000D03*
G01*
X533400Y3263900D03*
D51*
G01*
X1689100Y457200D03*
D49*
G01*
X546100Y419100D03*
G01*
X584200Y254000D03*
G01*
X1003300Y76200D03*
G01*
X3162300Y762000D03*
G01*
X3035300Y1498600D03*
D51*
G01*
X2273300Y3314700D03*
G01*
X317500Y2413000D03*
G01*
X63500Y2413000D03*
D49*
G01*
X50800Y2286000D03*
G01*
X50800Y2540000D03*
G01*
X381000Y1790700D03*
D51*
G01*
X1371600Y3276600D03*
M02*
