G04 Layer: BottomLayer*
G04 EasyEDA v6.5.40, 2024-02-08 20:30:12*
G04 8a8f0ff451d84adea016c743fcc8db9f,2e16165ee3bb4678bfb3015e44e098b9,10*
G04 Gerber Generator version 0.2*
G04 Scale: 100 percent, Rotated: No, Reflected: No *
G04 Dimensions in millimeters *
G04 leading zeros omitted , absolute positions ,4 integer and 5 decimal *
%FSLAX45Y45*%
%MOMM*%

%AMMACRO1*21,1,$1,$2,0,0,$3*%
%ADD10C,0.2000*%
%ADD11C,0.4000*%
%ADD12C,0.8000*%
%ADD13C,0.7000*%
%ADD14C,0.7500*%
%ADD15C,1.0000*%
%ADD16C,0.5000*%
%ADD17C,0.3500*%
%ADD18C,0.6000*%
%ADD19C,0.3000*%
%ADD20MACRO1,1X5.5X90.0000*%
%ADD21MACRO1,1.6X3X90.0000*%
%ADD22MACRO1,1X5.5X-90.0000*%
%ADD23MACRO1,1.6X3X-90.0000*%
%ADD24MACRO1,1.2X2X90.0000*%
%ADD25MACRO1,0.6X1.6X90.0000*%
%ADD26MACRO1,0.7X1.8X90.0000*%
%ADD27MACRO1,0.7X1.8X-90.0000*%
%ADD28MACRO1,1.2X2X-90.0000*%
%ADD29MACRO1,0.7X1.8X0.0000*%
%ADD30MACRO1,1.2X2X0.0000*%
%ADD31O,0.7999984X2.1999956000000003*%
%ADD32O,0.5684012X1.950212*%
%ADD33O,2.7999944X1.5999968*%
%ADD34C,0.4500*%
%ADD35C,0.5500*%
%ADD36C,0.7000*%
%ADD37C,0.6500*%
%ADD38C,0.0133*%

%LPD*%
G36*
X3312160Y2413000D02*
G01*
X3308248Y2413762D01*
X3304997Y2415997D01*
X3302762Y2419248D01*
X3302000Y2423160D01*
X3302000Y2555240D01*
X3302762Y2559151D01*
X3304997Y2562402D01*
X3308248Y2564638D01*
X3312160Y2565400D01*
X3571240Y2565400D01*
X3575151Y2564638D01*
X3578402Y2562402D01*
X3580637Y2559151D01*
X3581400Y2555240D01*
X3581400Y2423160D01*
X3580637Y2419248D01*
X3578402Y2415997D01*
X3575151Y2413762D01*
X3571240Y2413000D01*
G37*

%LPD*%
G36*
X2722016Y1828800D02*
G01*
X2718104Y1829562D01*
X2714802Y1831797D01*
X2644597Y1902002D01*
X2642362Y1905304D01*
X2641600Y1909216D01*
X2641600Y2154783D01*
X2642362Y2158695D01*
X2644597Y2161997D01*
X2714802Y2232202D01*
X2718104Y2234438D01*
X2722016Y2235200D01*
X2853283Y2235200D01*
X2857195Y2234438D01*
X2860497Y2232202D01*
X2918002Y2174697D01*
X2920238Y2171395D01*
X2921000Y2167483D01*
X2921000Y1909216D01*
X2920238Y1905304D01*
X2918002Y1902002D01*
X2847797Y1831797D01*
X2844495Y1829562D01*
X2840583Y1828800D01*
G37*

%LPD*%
D10*
X1714500Y1854200D02*
G01*
X1714500Y1803400D01*
X1778000Y1739900D01*
X1905000Y1739900D01*
X2006600Y1841500D01*
X2006600Y1892300D01*
X2209800Y2095500D01*
X2209800Y2159000D01*
X2628138Y2577337D01*
X3094227Y2577337D01*
X1638300Y2260600D02*
G01*
X1511300Y2260600D01*
X1295400Y2476500D01*
X876300Y2476500D01*
X751588Y2601211D01*
X537969Y2601211D01*
X1511300Y1485900D02*
G01*
X1409700Y1485900D01*
X1358900Y1536700D01*
X850900Y1536700D01*
X712470Y1675129D01*
X712470Y1725929D01*
X660400Y1778000D01*
X542797Y1778000D01*
D11*
X457200Y1981200D02*
G01*
X482600Y1981200D01*
X542797Y1921002D01*
X542797Y1878076D01*
X3276600Y1578610D02*
G01*
X3276600Y1701800D01*
X3302000Y1727200D01*
D12*
X2781300Y2159000D02*
G01*
X3213100Y2159000D01*
X3276600Y2222500D01*
X3276600Y2298700D01*
X3365500Y2387600D01*
X3365500Y2489200D01*
D13*
X2781300Y889000D02*
G01*
X2781300Y825500D01*
X2857500Y749300D01*
X2882900Y749300D01*
D14*
X2781300Y1143000D02*
G01*
X2781300Y889000D01*
D15*
X1003300Y1295400D02*
G01*
X1003300Y1143000D01*
X1003300Y1143000D02*
G01*
X1003300Y889000D01*
X1003300Y2159000D02*
G01*
X1003300Y1905000D01*
D11*
X537969Y2300988D02*
G01*
X537969Y2230630D01*
X774700Y1993900D01*
X774700Y1828800D01*
X901700Y1701800D01*
X1181100Y1701800D01*
X1384300Y1905000D01*
D16*
X1524000Y1778000D02*
G01*
X1447800Y1778000D01*
X1345184Y1865884D01*
D11*
X2870200Y635000D02*
G01*
X2844800Y635000D01*
X2794000Y685800D01*
X2730500Y685800D01*
X2578100Y838200D01*
X2578100Y952500D01*
X2641600Y1016000D01*
X2692400Y1016000D01*
D16*
X444500Y1409700D02*
G01*
X542899Y1508099D01*
X542899Y1678000D01*
D17*
X685800Y2527300D02*
G01*
X659587Y2501087D01*
X537895Y2501087D01*
D10*
X1955800Y2120900D02*
G01*
X1917700Y2120900D01*
X1866900Y2171700D01*
X1866900Y2387600D01*
X1803400Y2451100D01*
X1485900Y2451100D01*
X1371600Y2565400D01*
X1371600Y2794000D01*
X1292100Y2873499D01*
X863600Y2873499D01*
D11*
X1384300Y1905000D02*
G01*
X1384300Y2070100D01*
X1384300Y2197100D01*
X1295400Y2286000D01*
X1295400Y2336800D01*
D10*
X1244600Y1409700D02*
G01*
X1219200Y1435100D01*
X965200Y1435100D01*
X774700Y1244600D01*
X774700Y1054100D01*
X698500Y977900D01*
X542797Y977900D01*
D11*
X533400Y787400D02*
G01*
X542899Y796899D01*
X542899Y877900D01*
D10*
X2082800Y1435100D02*
G01*
X2082800Y914400D01*
X2095500Y901700D01*
X2095500Y698500D01*
X2044700Y647700D01*
X2044700Y584200D01*
X2090927Y537971D01*
X2415540Y537971D01*
X2095500Y1625600D02*
G01*
X2247900Y1625600D01*
X2349500Y1524000D01*
X2514600Y1524000D01*
X2743200Y1295400D01*
X3086100Y1295400D01*
X3149600Y1231900D01*
X3149600Y1037589D01*
X2349500Y1689100D02*
G01*
X2374900Y1689100D01*
X2438400Y1625600D01*
X2616200Y1625600D01*
X2819400Y1422400D01*
X3505200Y1422400D01*
X3530600Y1447800D01*
X3530600Y1578610D01*
D16*
X2715513Y537971D02*
G01*
X2774695Y537971D01*
X2870200Y635000D01*
D10*
X2413000Y1333500D02*
G01*
X2476500Y1270000D01*
X2476500Y800100D01*
X2565400Y711200D01*
D11*
X3479800Y1181100D02*
G01*
X3530600Y1130300D01*
X3530600Y1037589D01*
X3530600Y1037589D02*
G01*
X3530600Y952500D01*
X3556000Y927100D01*
X3556000Y711454D01*
X3517900Y673100D01*
D18*
X1879600Y3073400D02*
G01*
X863600Y3073400D01*
D13*
X3365500Y2489200D02*
G01*
X3365500Y2641600D01*
X3289300Y2717800D01*
X3289300Y2870200D01*
X3086100Y3073400D01*
X1879600Y3073400D01*
D19*
X2489200Y673100D02*
G01*
X2515417Y646882D01*
X2515417Y537895D01*
D16*
X3213100Y2159000D02*
G01*
X3416300Y1955800D01*
X3416300Y1727200D01*
X3416300Y1727200D02*
G01*
X3403600Y1714500D01*
X3403600Y1578610D01*
D10*
X3276600Y1037589D02*
G01*
X3276600Y812800D01*
X3403600Y1037589D02*
G01*
X3403600Y812800D01*
X3426719Y812800D01*
D11*
X991362Y525271D02*
G01*
X990600Y368300D01*
X1295400Y419100D02*
G01*
X1257300Y419100D01*
X1191412Y484987D01*
X1191412Y525195D01*
D10*
X1181100Y2298700D02*
G01*
X1143000Y2336800D01*
X838200Y2336800D01*
X773937Y2401062D01*
X537971Y2401062D01*
D16*
X1511300Y3276600D02*
G01*
X1514500Y3273399D01*
X1879600Y3273399D01*
X1231900Y3276600D02*
G01*
X1228699Y3273399D01*
X863600Y3273399D01*
D10*
X2082800Y1511300D02*
G01*
X1981200Y1511300D01*
X1943100Y1473200D01*
X1943100Y533400D01*
X2082800Y393700D01*
X2578100Y393700D01*
X2615438Y431037D01*
X2615438Y537971D01*
X1651000Y1016000D02*
G01*
X1689100Y977900D01*
X1689100Y927100D01*
X1422400Y660400D01*
X1130300Y660400D01*
X1091437Y621537D01*
X1091437Y525271D01*
X891286Y525271D02*
G01*
X891286Y662686D01*
X965200Y736600D01*
X1206500Y736600D01*
X1600200Y1130300D01*
X1600200Y1282700D01*
X2336800Y1270000D02*
G01*
X2336800Y723900D01*
X2260600Y647700D01*
X2222500Y647700D01*
X1828800Y1663700D02*
G01*
X1943094Y1663700D01*
X2656580Y2377188D01*
X3094222Y2377188D01*
X1905000Y1854200D02*
G01*
X1905000Y1943100D01*
X2082800Y2120900D01*
X2082800Y2565400D01*
X1879600Y2768600D01*
X1879600Y2873502D01*
D11*
X1524000Y1778000D02*
G01*
X1524000Y1841500D01*
X1739900Y2057400D01*
X1739900Y2260600D01*
X3238500Y2413000D02*
G01*
X3238500Y2438400D01*
X3199638Y2477262D01*
X3094227Y2477262D01*
X2870200Y2806700D02*
G01*
X2870200Y2768605D01*
X2961492Y2677312D01*
X3094309Y2677312D01*
D10*
X2095500Y1714500D02*
G01*
X2108200Y1701800D01*
X2231136Y1701800D01*
X2281936Y1752600D01*
X2425700Y1752600D01*
X2451100Y1727200D01*
X2679700Y1727200D01*
X2828290Y1578610D01*
X3149600Y1578610D01*
D16*
X685800Y1181100D02*
G01*
X685800Y1143000D01*
X620776Y1077976D01*
X542797Y1077976D01*
D20*
G01*
X1879599Y3073400D03*
G01*
X1879599Y3273399D03*
G01*
X1879599Y2873400D03*
D21*
G01*
X1654599Y3523399D03*
G01*
X1654597Y2623400D03*
D22*
G01*
X863600Y3073400D03*
G01*
X863600Y2873400D03*
G01*
X863600Y3273399D03*
D23*
G01*
X1088600Y2623400D03*
G01*
X1088602Y3523399D03*
D24*
G01*
X142897Y1547997D03*
G01*
X142902Y2007999D03*
D25*
G01*
X542899Y1877999D03*
G01*
X542899Y1778000D03*
G01*
X542899Y1678000D03*
D26*
G01*
X537895Y2301097D03*
G01*
X537895Y2401097D03*
G01*
X537895Y2501097D03*
D24*
G01*
X147899Y2731107D03*
G01*
X147899Y2171095D03*
D26*
G01*
X537898Y2601097D03*
D27*
G01*
X3094304Y2677302D03*
G01*
X3094304Y2577302D03*
G01*
X3094304Y2477302D03*
D28*
G01*
X3484300Y2247292D03*
G01*
X3484300Y2807304D03*
D27*
G01*
X3094301Y2377302D03*
D29*
G01*
X1191402Y525195D03*
G01*
X1091402Y525195D03*
G01*
X991402Y525195D03*
D30*
G01*
X761392Y135199D03*
G01*
X1321404Y135199D03*
D29*
G01*
X891402Y525198D03*
G01*
X2715402Y537895D03*
G01*
X2615402Y537895D03*
G01*
X2515402Y537895D03*
D30*
G01*
X2285392Y147899D03*
G01*
X2845404Y147899D03*
D29*
G01*
X2415402Y537898D03*
D31*
G01*
X3276600Y812800D03*
G01*
X3426612Y812800D03*
D32*
G01*
X3149600Y1578610D03*
G01*
X3276600Y1578610D03*
G01*
X3403600Y1578610D03*
G01*
X3530600Y1578610D03*
G01*
X3149600Y1037589D03*
G01*
X3276600Y1037589D03*
G01*
X3403600Y1037589D03*
G01*
X3530600Y1037589D03*
D24*
G01*
X142897Y747897D03*
G01*
X142902Y1207899D03*
D25*
G01*
X542899Y1077899D03*
G01*
X542899Y977900D03*
G01*
X542899Y877900D03*
D33*
G01*
X2781300Y889000D03*
G01*
X2781300Y1143000D03*
G01*
X2781300Y1905000D03*
G01*
X2781300Y2159000D03*
G01*
X1003300Y2159000D03*
G01*
X1003300Y1905000D03*
G01*
X1003300Y1143000D03*
G01*
X1003300Y889000D03*
D34*
G01*
X1498600Y2108200D03*
D35*
G01*
X673100Y1854200D03*
D36*
G01*
X723900Y825500D03*
G01*
X685800Y1181100D03*
D35*
G01*
X1384300Y1905000D03*
D34*
G01*
X1828800Y1282700D03*
G01*
X2413000Y774700D03*
G01*
X2463800Y1841500D03*
D36*
G01*
X3035300Y2806700D03*
G01*
X3136900Y2806700D03*
D34*
G01*
X1714500Y1854200D03*
G01*
X1955800Y2120900D03*
G01*
X1905000Y1854200D03*
G01*
X1651000Y1816100D03*
G01*
X1866900Y1803400D03*
D36*
G01*
X3213100Y1828800D03*
D34*
G01*
X2971800Y1143000D03*
D36*
G01*
X3492500Y2489200D03*
G01*
X3365500Y2489200D03*
D34*
G01*
X3302000Y1727200D03*
G01*
X3416300Y1727200D03*
G01*
X2095500Y1625600D03*
G01*
X2095500Y1714500D03*
G01*
X2349500Y1689100D03*
G01*
X2044700Y1663700D03*
D35*
G01*
X3517900Y673100D03*
D34*
G01*
X2019300Y762000D03*
G01*
X2082800Y1511300D03*
G01*
X2082800Y1435100D03*
G01*
X2413000Y1333500D03*
G01*
X2336800Y1270000D03*
G01*
X2565400Y711200D03*
G01*
X2222500Y647700D03*
D36*
G01*
X990600Y368300D03*
D34*
G01*
X1295400Y419100D03*
G01*
X1600200Y1282700D03*
G01*
X1651000Y1016000D03*
G01*
X533400Y787400D03*
G01*
X368300Y1079500D03*
G01*
X1244600Y1409700D03*
G01*
X1511300Y1485900D03*
G01*
X1181100Y2298700D03*
G01*
X1638300Y2260600D03*
G01*
X685800Y2527300D03*
G01*
X1828800Y1663700D03*
G01*
X2654300Y3263900D03*
D36*
G01*
X1993900Y355600D03*
G01*
X2679700Y381000D03*
D37*
G01*
X2870200Y635000D03*
D34*
G01*
X2489200Y673100D03*
D36*
G01*
X1231900Y3276600D03*
G01*
X1511300Y3276600D03*
G01*
X2882900Y749300D03*
D18*
G01*
X2692400Y1016000D03*
G01*
X2870200Y2806700D03*
D34*
G01*
X3238500Y2413000D03*
G01*
X457200Y1981200D03*
D37*
G01*
X1003300Y1295400D03*
D34*
G01*
X3568700Y1739900D03*
G01*
X3568700Y1993900D03*
G01*
X3556000Y2971800D03*
G01*
X3378200Y2971800D03*
G01*
X3251200Y3086100D03*
G01*
X3048000Y3238500D03*
G01*
X3048000Y3543300D03*
G01*
X2730500Y3530600D03*
G01*
X2171700Y3556000D03*
G01*
X1892300Y3556000D03*
G01*
X1295400Y3556000D03*
G01*
X876300Y3556000D03*
G01*
X647700Y3556000D03*
G01*
X584200Y3416300D03*
G01*
X279400Y3073400D03*
G01*
X88900Y3048000D03*
G01*
X88900Y2870200D03*
G01*
X76200Y1790700D03*
G01*
X76200Y1435100D03*
G01*
X88900Y1104900D03*
G01*
X88900Y596900D03*
G01*
X266700Y584200D03*
G01*
X431800Y546100D03*
G01*
X584200Y88900D03*
G01*
X876300Y76200D03*
G01*
X1422400Y63500D03*
G01*
X1866900Y76200D03*
G01*
X2552700Y76200D03*
G01*
X2730500Y76200D03*
G01*
X2146300Y76200D03*
G01*
X3035300Y88900D03*
G01*
X3073400Y406400D03*
G01*
X3175000Y520700D03*
G01*
X3340100Y546100D03*
G01*
X3517900Y584200D03*
G01*
X3556000Y1219200D03*
G01*
X1600200Y1346200D03*
G01*
X2019300Y1435100D03*
G01*
X2044700Y1574800D03*
G01*
X1587500Y1485900D03*
G01*
X1981200Y2184400D03*
G01*
X1549400Y2362200D03*
G01*
X1168400Y2235200D03*
G01*
X1752600Y1663700D03*
G01*
X2413000Y1244600D03*
G01*
X2159000Y685800D03*
G01*
X1600200Y952500D03*
G01*
X88900Y863600D03*
G01*
X1104900Y76200D03*
G01*
X76200Y1663700D03*
G01*
X76200Y1320800D03*
G01*
X1193800Y1346200D03*
G01*
X1231900Y914400D03*
G01*
X1358900Y482600D03*
G01*
X1600200Y63500D03*
G01*
X2921000Y2933700D03*
G01*
X3060700Y2933700D03*
G01*
X2171700Y3416300D03*
G01*
X1473200Y2870200D03*
D18*
G01*
X3187700Y647700D03*
D35*
G01*
X3479800Y1181100D03*
G01*
X1524000Y1778000D03*
D34*
G01*
X1270000Y2184400D03*
D36*
G01*
X1229842Y3073400D03*
G01*
X1512874Y3073400D03*
D34*
G01*
X1295400Y2336800D03*
G01*
X1739900Y2260600D03*
D37*
G01*
X444500Y1409700D03*
D34*
G01*
X2476500Y3530600D03*
G01*
X2603500Y3530600D03*
G01*
X2006600Y76200D03*
D36*
G01*
X749300Y647700D03*
G01*
X1358900Y1155700D03*
G01*
X1816100Y1397000D03*
G01*
X1866900Y812800D03*
G01*
X165100Y977900D03*
G01*
X355600Y2057400D03*
D34*
G01*
X457200Y3111500D03*
D36*
G01*
X2260600Y2882900D03*
G01*
X2578100Y1828800D03*
G01*
X622300Y1295400D03*
D34*
G01*
X3035300Y254000D03*
G01*
X3035300Y3390900D03*
G01*
X2032000Y3556000D03*
G01*
X1435100Y3556000D03*
G01*
X762000Y3556000D03*
G01*
X533400Y3263900D03*
D36*
G01*
X1689100Y457200D03*
D34*
G01*
X546100Y419100D03*
G01*
X584200Y254000D03*
G01*
X1003300Y76200D03*
G01*
X3162300Y762000D03*
G01*
X3035300Y1498600D03*
D36*
G01*
X2273300Y3314700D03*
G01*
X317500Y2413000D03*
G01*
X63500Y2413000D03*
D34*
G01*
X50800Y2286000D03*
G01*
X50800Y2540000D03*
G01*
X381000Y1790700D03*
D36*
G01*
X1371600Y3276600D03*
M02*
