G04 Layer: BottomSolderMaskLayer*
G04 EasyEDA v6.5.40, 2024-02-08 20:30:12*
G04 8a8f0ff451d84adea016c743fcc8db9f,2e16165ee3bb4678bfb3015e44e098b9,10*
G04 Gerber Generator version 0.2*
G04 Scale: 100 percent, Rotated: No, Reflected: No *
G04 Dimensions in millimeters *
G04 leading zeros omitted , absolute positions ,4 integer and 5 decimal *
%FSLAX45Y45*%
%MOMM*%

%AMMACRO1*1,1,$1,$2,$3*1,1,$1,$4,$5*1,1,$1,0-$2,0-$3*1,1,$1,0-$4,0-$5*20,1,$1,$2,$3,$4,$5,0*20,1,$1,$4,$5,0-$2,0-$3,0*20,1,$1,0-$2,0-$3,0-$4,0-$5,0*20,1,$1,0-$4,0-$5,$2,$3,0*4,1,4,$2,$3,$4,$5,0-$2,0-$3,0-$4,0-$5,$2,$3,0*%
%ADD10MACRO1,0.1016X2.75X-0.5X2.75X0.5*%
%ADD11MACRO1,0.1016X1.5X-0.8X1.5X0.8*%
%ADD12R,5.6016X1.1016*%
%ADD13R,3.1016X1.7016*%
%ADD14MACRO1,0.1X1X-0.6X1X0.6*%
%ADD15MACRO1,0.1X0.8X-0.3X0.8X0.3*%
%ADD16MACRO1,0.1X0.9X-0.35X0.9X0.35*%
%ADD17R,1.9000X0.8000*%
%ADD18R,2.1000X1.3000*%
%ADD19MACRO1,0.1X0.35X0.9X-0.35X0.9*%
%ADD20MACRO1,0.1X0.6X1X-0.6X1*%
%ADD21O,0.9015984X2.3015956*%
%ADD22O,0.6700012X2.051812*%
%ADD23O,3.0031944X1.8031968*%

%LPD*%
D10*
G01*
X1879599Y3073400D03*
G01*
X1879599Y3273399D03*
G01*
X1879599Y2873400D03*
D11*
G01*
X1654599Y3523399D03*
G01*
X1654597Y2623400D03*
D12*
G01*
X863600Y3073400D03*
G01*
X863600Y2873400D03*
G01*
X863600Y3273399D03*
D13*
G01*
X1088593Y2623388D03*
G01*
X1088593Y3523386D03*
D14*
G01*
X142897Y1547997D03*
G01*
X142902Y2007999D03*
D15*
G01*
X542899Y1877999D03*
G01*
X542899Y1778000D03*
G01*
X542899Y1678000D03*
D16*
G01*
X537895Y2301097D03*
G01*
X537895Y2401097D03*
G01*
X537895Y2501097D03*
D14*
G01*
X147899Y2731107D03*
G01*
X147899Y2171095D03*
D16*
G01*
X537898Y2601097D03*
D17*
G01*
X3094304Y2677312D03*
G01*
X3094304Y2577312D03*
G01*
X3094304Y2477312D03*
D18*
G01*
X3484295Y2247290D03*
G01*
X3484295Y2807309D03*
D17*
G01*
X3094304Y2377312D03*
D19*
G01*
X1191402Y525195D03*
G01*
X1091402Y525195D03*
G01*
X991402Y525195D03*
D20*
G01*
X761392Y135199D03*
G01*
X1321404Y135199D03*
D19*
G01*
X891402Y525198D03*
G01*
X2715402Y537895D03*
G01*
X2615402Y537895D03*
G01*
X2515402Y537895D03*
D20*
G01*
X2285392Y147899D03*
G01*
X2845404Y147899D03*
D19*
G01*
X2415402Y537898D03*
D21*
G01*
X3276600Y812800D03*
G01*
X3426612Y812800D03*
D22*
G01*
X3149600Y1578610D03*
G01*
X3276600Y1578610D03*
G01*
X3403600Y1578610D03*
G01*
X3530600Y1578610D03*
G01*
X3149600Y1037589D03*
G01*
X3276600Y1037589D03*
G01*
X3403600Y1037589D03*
G01*
X3530600Y1037589D03*
D14*
G01*
X142897Y747897D03*
G01*
X142902Y1207899D03*
D15*
G01*
X542899Y1077899D03*
G01*
X542899Y977900D03*
G01*
X542899Y877900D03*
D23*
G01*
X2781300Y889000D03*
G01*
X2781300Y1143000D03*
G01*
X2781300Y1905000D03*
G01*
X2781300Y2159000D03*
G01*
X1003300Y2159000D03*
G01*
X1003300Y1905000D03*
G01*
X1003300Y1143000D03*
G01*
X1003300Y889000D03*
M02*
