G04 Layer: TopSolderMaskLayer*
G04 EasyEDA v6.5.40, 2024-02-08 20:30:12*
G04 8a8f0ff451d84adea016c743fcc8db9f,2e16165ee3bb4678bfb3015e44e098b9,10*
G04 Gerber Generator version 0.2*
G04 Scale: 100 percent, Rotated: No, Reflected: No *
G04 Dimensions in millimeters *
G04 leading zeros omitted , absolute positions ,4 integer and 5 decimal *
%FSLAX45Y45*%
%MOMM*%

%AMMACRO1*1,1,$1,$2,$3*1,1,$1,$4,$5*1,1,$1,0-$2,0-$3*1,1,$1,0-$4,0-$5*20,1,$1,$2,$3,$4,$5,0*20,1,$1,$4,$5,0-$2,0-$3,0*20,1,$1,0-$2,0-$3,0-$4,0-$5,0*20,1,$1,0-$4,0-$5,$2,$3,0*4,1,4,$2,$3,$4,$5,0-$2,0-$3,0-$4,0-$5,$2,$3,0*%
%ADD10R,5.6016X1.1016*%
%ADD11R,3.1016X1.7016*%
%ADD12MACRO1,0.1016X2.75X0.5X2.75X-0.5*%
%ADD13MACRO1,0.1016X1.5X0.8X1.5X-0.8*%
%ADD14MACRO1,0.1X0.35X-0.9X-0.35X-0.9*%
%ADD15MACRO1,0.1X0.6X-1X-0.6X-1*%
%ADD16MACRO1,0.1016X-0.395X-0.27X-0.395X0.27*%
%ADD17MACRO1,0.1016X0.395X-0.27X0.395X0.27*%
%ADD18R,0.6416X0.8917*%
%ADD19MACRO1,0.1016X-0.27X0.395X0.27X0.395*%
%ADD20MACRO1,0.1016X-0.27X-0.395X0.27X-0.395*%
%ADD21MACRO1,0.1016X0.4X-0.432X-0.4X-0.432*%
%ADD22MACRO1,0.1016X0.4X-0.4X-0.4X-0.4*%
%ADD23R,0.9016X0.9016*%
%ADD24MACRO1,0.1016X-0.2828X-0.27X-0.2828X0.27*%
%ADD25MACRO1,0.1016X0.2828X-0.27X0.2828X0.27*%
%ADD26MACRO1,0.1016X0.3X0.45X0.3X-0.45*%
%ADD27R,0.7016X1.0016*%
%ADD28MACRO1,0.1016X-0.45X0.3X0.45X0.3*%
%ADD29MACRO1,0.1016X0.45X-0.3X-0.45X-0.3*%
%ADD30MACRO1,0.1016X0.6X0.7X0.6X-0.7*%
%ADD31MACRO1,0.1016X0.4X-0.45X-0.4X-0.45*%
%ADD32MACRO1,0.1016X-0.4X0.45X0.4X0.45*%
%ADD33MACRO1,0.1016X0.395X0.27X0.395X-0.27*%
%ADD34MACRO1,0.1016X-0.395X0.27X-0.395X-0.27*%
%ADD35R,1.9000X0.8000*%
%ADD36R,2.1000X1.3000*%
%ADD37MACRO1,0.1X1X0.6X1X-0.6*%
%ADD38MACRO1,0.1X0.8X0.3X0.8X-0.3*%
%ADD39MACRO1,0.1X-0.6X1X0.6X1*%
%ADD40MACRO1,0.1X-0.3X0.8X0.3X0.8*%
%ADD41MACRO1,0.1X-0.35X0.9X0.35X0.9*%
%ADD42MACRO1,0.1016X-0.27X0.2828X0.27X0.2828*%
%ADD43MACRO1,0.1016X-0.27X-0.2828X0.27X-0.2828*%
%ADD44R,0.6416X0.6673*%
%ADD45MACRO1,0.1016X0.2828X0.27X0.2828X-0.27*%
%ADD46MACRO1,0.1016X-0.2828X0.27X-0.2828X-0.27*%
%ADD47MACRO1,0.1016X-1.25X0.55X1.25X0.55*%
%ADD48MACRO1,0.1016X1.17X1.8X1.17X-1.8*%
%ADD49O,2.3015956X0.9015984*%
%ADD50O,1.6000222X0.3700272*%
%ADD51O,0.3700272X1.6000222*%

%LPD*%
D10*
G01*
X863600Y3073400D03*
G01*
X863600Y3273399D03*
G01*
X863600Y2873400D03*
D11*
G01*
X1088593Y3523386D03*
G01*
X1088593Y2623388D03*
D12*
G01*
X1879599Y3073400D03*
G01*
X1879599Y2873400D03*
G01*
X1879599Y3273399D03*
D13*
G01*
X1654599Y2623400D03*
G01*
X1654597Y3523399D03*
D14*
G01*
X2766202Y3119704D03*
G01*
X2666202Y3119704D03*
G01*
X2566202Y3119704D03*
D15*
G01*
X2336192Y3509700D03*
G01*
X2896204Y3509700D03*
D14*
G01*
X2466202Y3119701D03*
D16*
G01*
X3407305Y1638300D03*
D17*
G01*
X3298294Y1638300D03*
D16*
G01*
X3407305Y673100D03*
D17*
G01*
X3298294Y673100D03*
D16*
G01*
X2188105Y850900D03*
D17*
G01*
X2079094Y850900D03*
D18*
G01*
X2387600Y1946808D03*
G01*
X2387600Y1837791D03*
D19*
G01*
X1422400Y2002894D03*
D20*
G01*
X1422400Y2111905D03*
D19*
G01*
X1295400Y2002894D03*
D20*
G01*
X1295400Y2111905D03*
D16*
G01*
X2188105Y977900D03*
D17*
G01*
X2079094Y977900D03*
D21*
G01*
X2317600Y1130312D03*
G01*
X2457599Y1130312D03*
D22*
G01*
X1410047Y631243D03*
G01*
X1409346Y791143D03*
G01*
X1587847Y631243D03*
G01*
X1587146Y791143D03*
D23*
G01*
X2688640Y2463444D03*
G01*
X2848533Y2464155D03*
D24*
G01*
X297282Y1422400D03*
D25*
G01*
X210717Y1422400D03*
D26*
G01*
X260705Y1864499D03*
G01*
X145694Y1864499D03*
D27*
G01*
X145694Y1564487D03*
G01*
X260705Y1564487D03*
D28*
G01*
X167500Y2597505D03*
G01*
X167500Y2482494D03*
D29*
G01*
X467499Y2482484D03*
G01*
X467499Y2597495D03*
G01*
X467499Y2241194D03*
G01*
X467499Y2356205D03*
D28*
G01*
X167500Y2356215D03*
G01*
X167500Y2241204D03*
D30*
G01*
X585609Y1964199D03*
G01*
X585609Y1744200D03*
G01*
X760615Y1744200D03*
G01*
X760610Y1964199D03*
D31*
G01*
X2914500Y1651000D03*
G01*
X3054499Y1651000D03*
D32*
G01*
X3194199Y2565400D03*
G01*
X3054200Y2565400D03*
D18*
G01*
X927100Y1997608D03*
G01*
X927100Y1888591D03*
D33*
G01*
X643994Y1562100D03*
D34*
G01*
X753005Y1562100D03*
D19*
G01*
X393700Y1583794D03*
D20*
G01*
X393700Y1692805D03*
D18*
G01*
X2476500Y968908D03*
G01*
X2476500Y859891D03*
G01*
X2336800Y968908D03*
G01*
X2336800Y859891D03*
G01*
X2603500Y1121308D03*
G01*
X2603500Y1012291D03*
D35*
G01*
X3119704Y942187D03*
G01*
X3119704Y1042187D03*
G01*
X3119704Y1142187D03*
D36*
G01*
X3509695Y1372209D03*
G01*
X3509695Y812190D03*
D35*
G01*
X3119704Y1242187D03*
D37*
G01*
X142897Y1207902D03*
G01*
X142902Y747900D03*
D38*
G01*
X542899Y877900D03*
G01*
X542899Y977900D03*
G01*
X542899Y1077899D03*
D39*
G01*
X760597Y130197D03*
G01*
X1220599Y130202D03*
D40*
G01*
X1090599Y530199D03*
G01*
X990600Y530199D03*
G01*
X890600Y530199D03*
D39*
G01*
X2436997Y130197D03*
G01*
X2896999Y130202D03*
D40*
G01*
X2766999Y530199D03*
G01*
X2667000Y530199D03*
G01*
X2567000Y530199D03*
D41*
G01*
X1843897Y512495D03*
G01*
X1943897Y512495D03*
G01*
X2043897Y512495D03*
D39*
G01*
X2273907Y122499D03*
G01*
X1713895Y122499D03*
D41*
G01*
X2143897Y512498D03*
D42*
G01*
X2921000Y921917D03*
D43*
G01*
X2921000Y1008482D03*
D44*
G01*
X2921000Y1364081D03*
G01*
X2921000Y1277518D03*
D24*
G01*
X1224382Y2387600D03*
D25*
G01*
X1137817Y2387600D03*
D24*
G01*
X1732382Y2362200D03*
D25*
G01*
X1645817Y2362200D03*
D24*
G01*
X2849982Y2641600D03*
D25*
G01*
X2763417Y2641600D03*
D45*
G01*
X921917Y1701800D03*
D46*
G01*
X1008482Y1701800D03*
D47*
G01*
X3433893Y1878202D03*
G01*
X3433893Y2108200D03*
G01*
X3433893Y2338197D03*
D48*
G01*
X2839897Y2108200D03*
D24*
G01*
X703682Y2413000D03*
D25*
G01*
X617117Y2413000D03*
D24*
G01*
X703682Y2286000D03*
D25*
G01*
X617117Y2286000D03*
D44*
G01*
X1257300Y817981D03*
G01*
X1257300Y731418D03*
D45*
G01*
X1468017Y482600D03*
D46*
G01*
X1554582Y482600D03*
D49*
G01*
X3454400Y2628900D03*
G01*
X3454400Y2778912D03*
D50*
G01*
X1378407Y1837105D03*
G01*
X1378407Y1787093D03*
G01*
X1378407Y1737105D03*
G01*
X1378407Y1687093D03*
G01*
X1378407Y1637106D03*
G01*
X1378407Y1587093D03*
G01*
X1378407Y1537106D03*
G01*
X1378407Y1487093D03*
G01*
X1378407Y1437106D03*
G01*
X1378407Y1387094D03*
G01*
X1378407Y1337106D03*
G01*
X1378407Y1287094D03*
D51*
G01*
X1528394Y1137107D03*
G01*
X1578406Y1137107D03*
G01*
X1628394Y1137107D03*
G01*
X1678406Y1137107D03*
G01*
X1728393Y1137107D03*
G01*
X1778406Y1137107D03*
G01*
X1828393Y1137107D03*
G01*
X1878406Y1137107D03*
G01*
X1928393Y1137107D03*
G01*
X1978406Y1137107D03*
G01*
X2028393Y1137107D03*
G01*
X2078405Y1137107D03*
D50*
G01*
X2228392Y1287094D03*
G01*
X2228392Y1337106D03*
G01*
X2228392Y1387094D03*
G01*
X2228392Y1437106D03*
G01*
X2228392Y1487093D03*
G01*
X2228392Y1537106D03*
G01*
X2228392Y1587093D03*
G01*
X2228392Y1637106D03*
G01*
X2228392Y1687093D03*
G01*
X2228392Y1737105D03*
G01*
X2228392Y1787093D03*
G01*
X2228392Y1837105D03*
D51*
G01*
X2078405Y1987092D03*
G01*
X2028393Y1987092D03*
G01*
X1978406Y1987092D03*
G01*
X1928393Y1987092D03*
G01*
X1878406Y1987092D03*
G01*
X1828393Y1987092D03*
G01*
X1778406Y1987092D03*
G01*
X1728393Y1987092D03*
G01*
X1678406Y1987092D03*
G01*
X1628394Y1987092D03*
G01*
X1578406Y1987092D03*
G01*
X1528394Y1987092D03*
M02*
